<svg width="17" height="16" viewBox="0 0 17 16" fill="none" xmlns="http://www.w3.org/2000/svg">
<path d="M3.29688 2.3125H12.7188C12.8438 2.3125 12.9531 2.35677 13.0469 2.44531C13.1406 2.53385 13.1875 2.64583 13.1875 2.78125C13.1875 2.90625 13.1406 3.01562 13.0469 3.10938C12.9531 3.20312 12.8438 3.25 12.7188 3.25H11.8125C11.7708 3.60417 11.6901 4 11.5703 4.4375C11.4505 4.875 11.3021 5.3125 11.125 5.75C10.9479 6.1875 10.737 6.6224 10.4922 7.05469C10.2474 7.48698 9.97917 7.85938 9.6875 8.17188C9.86458 8.36979 10.0677 8.625 10.2969 8.9375C10.5365 9.23958 10.763 9.59635 10.9766 10.0078C11.1901 10.4193 11.375 10.8802 11.5312 11.3906C11.6875 11.901 11.7865 12.4583 11.8281 13.0625H12.7188C12.8438 13.0625 12.9531 13.1094 13.0469 13.2031C13.1406 13.2969 13.1875 13.4062 13.1875 13.5312C13.1875 13.6667 13.1406 13.7786 13.0469 13.8672C12.9531 13.9557 12.8438 14 12.7188 14H3.29688C3.17188 14 3.0625 13.9557 2.96875 13.8672C2.875 13.7786 2.82812 13.6667 2.82812 13.5312C2.82812 13.4062 2.875 13.2969 2.96875 13.2031C3.0625 13.1094 3.17188 13.0625 3.29688 13.0625H4.1875C4.22917 12.4583 4.32812 11.901 4.48438 11.3906C4.64062 10.8802 4.82552 10.4193 5.03906 10.0078C5.2526 9.59635 5.47396 9.23958 5.70312 8.9375C5.94271 8.625 6.15104 8.36979 6.32812 8.17188C6.02604 7.85938 5.75521 7.48698 5.51562 7.05469C5.27604 6.6224 5.0625 6.1875 4.875 5.75C4.70833 5.3125 4.5651 4.875 4.44531 4.4375C4.32552 4 4.24479 3.60417 4.20312 3.25H3.29688C3.17188 3.25 3.0625 3.20312 2.96875 3.10938C2.875 3.01562 2.82812 2.90625 2.82812 2.78125C2.82812 2.64583 2.875 2.53385 2.96875 2.44531C3.0625 2.35677 3.17188 2.3125 3.29688 2.3125ZM10.8594 3.25H5.15625C5.19792 3.54167 5.26823 3.875 5.36719 4.25C5.46615 4.625 5.59375 5.00521 5.75 5.39062C5.95833 5.90104 6.19531 6.36979 6.46094 6.79688C6.72656 7.22396 7.00521 7.55208 7.29688 7.78125C7.34896 7.82292 7.39062 7.875 7.42188 7.9375C7.45312 8 7.46875 8.0625 7.46875 8.125C7.46875 8.19792 7.45833 8.26562 7.4375 8.32812C7.41667 8.39062 7.38021 8.44271 7.32812 8.48438C7.20312 8.61979 7.02604 8.8125 6.79688 9.0625C6.56771 9.32292 6.33594 9.64583 6.10156 10.0312C5.86719 10.4167 5.66146 10.8646 5.48438 11.375C5.29688 11.875 5.17708 12.4375 5.125 13.0625H10.875C10.8333 12.4375 10.7188 11.875 10.5312 11.375C10.3438 10.8646 10.1354 10.4167 9.90625 10.0312C9.67708 9.64583 9.44792 9.32292 9.21875 9.0625C8.98958 8.8125 8.8125 8.61979 8.6875 8.48438C8.63542 8.44271 8.59896 8.39062 8.57812 8.32812C8.55729 8.26562 8.54688 8.19792 8.54688 8.125C8.54688 8.0625 8.5625 8 8.59375 7.9375C8.625 7.875 8.66667 7.82292 8.71875 7.78125C9.01042 7.55208 9.28906 7.22396 9.55469 6.79688C9.82031 6.36979 10.0573 5.90104 10.2656 5.39062C10.4219 5.00521 10.5495 4.625 10.6484 4.25C10.7474 3.875 10.8177 3.54167 10.8594 3.25ZM7.76562 9.25C7.81771 9.15625 7.89844 9.10938 8.00781 9.10938C8.11719 9.10938 8.19792 9.15625 8.25 9.25L9.79688 11.9375C9.84896 12.0312 9.84896 12.125 9.79688 12.2188C9.74479 12.3125 9.66667 12.3594 9.5625 12.3594H6.45312C6.34896 12.3594 6.26823 12.3125 6.21094 12.2188C6.15365 12.125 6.15625 12.0312 6.21875 11.9375L7.76562 9.25Z" fill="#9237E3"/>
</svg>
