<svg width="16" height="16" viewBox="0 0 16 16" fill="none" xmlns="http://www.w3.org/2000/svg">
<path d="M5.65828 3.05688C5.15807 3.05688 4.73443 3.23042 4.38734 3.5775C4.04026 3.92458 3.86672 4.34823 3.86672 4.84844C3.86672 5.34865 4.04026 5.77229 4.38734 6.11937C4.73443 6.46646 5.15807 6.64 5.65828 6.64C6.15849 6.64 6.58214 6.46646 6.92922 6.11937C7.2763 5.77229 7.44984 5.34865 7.44984 4.84844C7.44984 4.34823 7.2763 3.92458 6.92922 3.5775C6.58214 3.23042 6.15849 3.05688 5.65828 3.05688ZM2.88672 4.84844C2.88672 4.08281 3.15724 3.42948 3.69828 2.88844C4.23932 2.3474 4.89266 2.07687 5.65828 2.07687C6.42391 2.07687 7.07724 2.3474 7.61828 2.88844C8.15932 3.42948 8.42984 4.08281 8.42984 4.84844C8.42984 5.61406 8.15932 6.2674 7.61828 6.80844C7.07724 7.34948 6.42391 7.62 5.65828 7.62C4.89266 7.62 4.23932 7.34948 3.69828 6.80844C3.15724 6.2674 2.88672 5.61406 2.88672 4.84844ZM9.08828 2.56687C9.08828 2.42396 9.13677 2.30656 9.23375 2.21469C9.33073 2.12281 9.44557 2.07687 9.57828 2.07687C10.3439 2.07687 10.9972 2.3474 11.5383 2.88844C12.0793 3.42948 12.3498 4.08281 12.3498 4.84844C12.3498 5.61406 12.0793 6.2674 11.5383 6.80844C10.9972 7.34948 10.3439 7.62 9.57828 7.62C9.44557 7.62 9.33073 7.57406 9.23375 7.48219C9.13677 7.39031 9.08828 7.27292 9.08828 7.13C9.08828 6.99729 9.13677 6.88245 9.23375 6.78547C9.33073 6.68849 9.44557 6.64 9.57828 6.64C10.0785 6.64 10.5021 6.46646 10.8492 6.11937C11.1963 5.77229 11.3698 5.34865 11.3698 4.84844C11.3698 4.34823 11.1963 3.92458 10.8492 3.5775C10.5021 3.23042 10.0785 3.05688 9.57828 3.05688C9.44557 3.05688 9.33073 3.00839 9.23375 2.91141C9.13677 2.81443 9.08828 2.69958 9.08828 2.56687ZM0.589844 11.7084C0.589844 11.2797 0.67151 10.8765 0.834844 10.4987C0.998177 10.121 1.22021 9.79182 1.50094 9.51109C1.78167 9.23036 2.11089 9.00833 2.48859 8.845C2.8663 8.68167 3.26953 8.6 3.69828 8.6H7.61828C8.04703 8.6 8.45026 8.68167 8.82797 8.845C9.20568 9.00833 9.5349 9.23036 9.81563 9.51109C10.0964 9.79182 10.3184 10.121 10.4817 10.4987C10.6451 10.8765 10.7267 11.2797 10.7267 11.7084V13.01C10.7267 13.1529 10.6782 13.2703 10.5813 13.3622C10.4843 13.4541 10.3694 13.5 10.2367 13.5C10.0938 13.5 9.97641 13.4541 9.88453 13.3622C9.79266 13.2703 9.74672 13.1529 9.74672 13.01V11.7084C9.74672 11.1266 9.53745 10.6264 9.11891 10.2078C8.70037 9.78927 8.20016 9.58 7.61828 9.58H3.69828C3.11641 9.58 2.6162 9.78927 2.19766 10.2078C1.77911 10.6264 1.56984 11.1266 1.56984 11.7084V13.01C1.56984 13.1529 1.52391 13.2703 1.43203 13.3622C1.34016 13.4541 1.22276 13.5 1.07984 13.5C0.947135 13.5 0.832292 13.4541 0.735313 13.3622C0.638333 13.2703 0.589844 13.1529 0.589844 13.01V11.7084ZM11.0483 9.09C11.0483 8.95729 11.0968 8.84245 11.1938 8.74547C11.2907 8.64849 11.4056 8.6 11.5383 8.6C11.967 8.6 12.3703 8.68167 12.748 8.845C13.1257 9.00833 13.4549 9.23036 13.7356 9.51109C14.0164 9.79182 14.2384 10.121 14.4017 10.4987C14.5651 10.8765 14.6467 11.2797 14.6467 11.7084V13.01C14.6467 13.1529 14.5982 13.2703 14.5013 13.3622C14.4043 13.4541 14.2894 13.5 14.1567 13.5C14.0138 13.5 13.8964 13.4541 13.8045 13.3622C13.7127 13.2703 13.6667 13.1529 13.6667 13.01V11.7084C13.6667 11.1266 13.4574 10.6264 13.0389 10.2078C12.6204 9.78927 12.1202 9.58 11.5383 9.58C11.4056 9.58 11.2907 9.53406 11.1938 9.44219C11.0968 9.35031 11.0483 9.23292 11.0483 9.09Z" fill="#9237E3"/>
</svg>
