<svg width="16" height="16" viewBox="0 0 16 16" fill="none" xmlns="http://www.w3.org/2000/svg">
<path d="M10.1562 8.26562C10.4792 8.13021 10.8125 8.04688 11.1562 8.01562C11.5 7.98438 11.8438 8 12.1875 8.0625C12.5208 8.13542 12.8411 8.2526 13.1484 8.41406C13.4557 8.57552 13.7292 8.78125 13.9688 9.03125C14.2188 9.27083 14.4245 9.54427 14.5859 9.85156C14.7474 10.1589 14.8646 10.4792 14.9375 10.8125C15 11.1562 15.0156 11.5 14.9844 11.8438C14.9531 12.1875 14.8698 12.5208 14.7344 12.8438C14.599 13.1562 14.4219 13.4479 14.2031 13.7188C13.9844 13.9896 13.7292 14.2188 13.4375 14.4062C13.1562 14.6042 12.849 14.7526 12.5156 14.8516C12.1823 14.9505 11.8438 15 11.5 15C11.0312 15 10.5833 14.9115 10.1562 14.7344C9.72917 14.5573 9.35417 14.3021 9.03125 13.9688C8.69792 13.6458 8.44271 13.2708 8.26562 12.8438C8.08854 12.4167 8 11.9688 8 11.5C8 11.1562 8.04948 10.8177 8.14844 10.4844C8.2474 10.151 8.39583 9.84375 8.59375 9.5625C8.78125 9.27083 9.01042 9.01562 9.28125 8.79688C9.55208 8.57812 9.84375 8.40104 10.1562 8.26562ZM11.9844 9.04688C11.7448 8.99479 11.5026 8.98177 11.2578 9.00781C11.013 9.03385 10.776 9.09375 10.5469 9.1875C10.3177 9.28125 10.1068 9.40625 9.91406 9.5625C9.72135 9.71875 9.55729 9.90104 9.42188 10.1094C9.28646 10.3177 9.18229 10.5391 9.10938 10.7734C9.03646 11.0078 9 11.25 9 11.5C9 11.8333 9.0625 12.1536 9.1875 12.4609C9.3125 12.7682 9.49479 13.0365 9.73438 13.2656C9.96354 13.5052 10.2318 13.6875 10.5391 13.8125C10.8464 13.9375 11.1667 14 11.5 14C11.75 14 11.9922 13.9635 12.2266 13.8906C12.4609 13.8177 12.6823 13.7135 12.8906 13.5781C13.099 13.4427 13.2812 13.2786 13.4375 13.0859C13.5938 12.8932 13.7188 12.6823 13.8125 12.4531C13.9062 12.224 13.9661 11.987 13.9922 11.7422C14.0182 11.4974 14.0052 11.2552 13.9531 11.0156C13.901 10.776 13.8177 10.5469 13.7031 10.3281C13.5885 10.1094 13.4427 9.91146 13.2656 9.73438C13.0885 9.55729 12.8906 9.41146 12.6719 9.29688C12.4531 9.18229 12.224 9.09896 11.9844 9.04688ZM11.5 9.625C11.6042 9.625 11.6927 9.66146 11.7656 9.73438C11.8385 9.80729 11.875 9.89583 11.875 10V11.5156L12.6719 11.9219C12.7656 11.9635 12.8281 12.0339 12.8594 12.1328C12.8906 12.2318 12.8802 12.3281 12.8281 12.4219C12.7865 12.5156 12.7161 12.5781 12.6172 12.6094C12.5182 12.6406 12.4219 12.6302 12.3281 12.5781L11.3281 12.0781C11.2656 12.0469 11.2161 12.0026 11.1797 11.9453C11.1432 11.888 11.125 11.8229 11.125 11.75V10C11.125 9.89583 11.1615 9.80729 11.2344 9.73438C11.3073 9.66146 11.3958 9.625 11.5 9.625ZM8.5 1C8.63542 1 8.7526 1.04948 8.85156 1.14844C8.95052 1.2474 9 1.36458 9 1.5V3.5C9 3.63542 8.95052 3.7526 8.85156 3.85156C8.7526 3.95052 8.63542 4 8.5 4C8.36458 4 8.2474 3.95052 8.14844 3.85156C8.04948 3.7526 8 3.63542 8 3.5V1.5C8 1.36458 8.04948 1.2474 8.14844 1.14844C8.2474 1.04948 8.36458 1 8.5 1ZM4.5 1C4.63542 1 4.7526 1.04948 4.85156 1.14844C4.95052 1.2474 5 1.36458 5 1.5V3.5C5 3.63542 4.95052 3.7526 4.85156 3.85156C4.7526 3.95052 4.63542 4 4.5 4C4.36458 4 4.2474 3.95052 4.14844 3.85156C4.04948 3.7526 4 3.63542 4 3.5V1.5C4 1.36458 4.04948 1.2474 4.14844 1.14844C4.2474 1.04948 4.36458 1 4.5 1ZM1 5.5C1 5.36458 1.04948 5.2474 1.14844 5.14844C1.2474 5.04948 1.36458 5 1.5 5H11.5C11.6354 5 11.7526 5.04948 11.8516 5.14844C11.9505 5.2474 12 5.36458 12 5.5C12 5.63542 11.9505 5.7526 11.8516 5.85156C11.7526 5.95052 11.6354 6 11.5 6H1.5C1.36458 6 1.2474 5.95052 1.14844 5.85156C1.04948 5.7526 1 5.63542 1 5.5ZM1.4375 2.4375C1.58333 2.30208 1.7474 2.19531 1.92969 2.11719C2.11198 2.03906 2.30208 2 2.5 2H10.5C10.6979 2 10.888 2.03906 11.0703 2.11719C11.2526 2.19531 11.4167 2.30208 11.5625 2.4375C11.6979 2.58333 11.8047 2.7474 11.8828 2.92969C11.9609 3.11198 12 3.30208 12 3.5V6.5C12 6.63542 11.9505 6.7526 11.8516 6.85156C11.7526 6.95052 11.6354 7 11.5 7C11.3646 7 11.2474 6.95052 11.1484 6.85156C11.0495 6.7526 11 6.63542 11 6.5V3.5C11 3.4375 10.987 3.375 10.9609 3.3125C10.9349 3.25 10.901 3.19271 10.8594 3.14062C10.8073 3.09896 10.75 3.0651 10.6875 3.03906C10.625 3.01302 10.5625 3 10.5 3H2.5C2.4375 3 2.375 3.01302 2.3125 3.03906C2.25 3.0651 2.19271 3.09896 2.14062 3.14062C2.09896 3.19271 2.0651 3.25 2.03906 3.3125C2.01302 3.375 2 3.4375 2 3.5V11.5C2 11.5625 2.01302 11.625 2.03906 11.6875C2.0651 11.75 2.09896 11.8073 2.14062 11.8594C2.19271 11.901 2.25 11.9349 2.3125 11.9609C2.375 11.987 2.4375 12 2.5 12H6.5C6.63542 12 6.7526 12.0495 6.85156 12.1484C6.95052 12.2474 7 12.3646 7 12.5C7 12.6354 6.95052 12.7526 6.85156 12.8516C6.7526 12.9505 6.63542 13 6.5 13H2.5C2.30208 13 2.11198 12.9609 1.92969 12.8828C1.7474 12.8047 1.58333 12.6979 1.4375 12.5625C1.30208 12.4167 1.19531 12.2526 1.11719 12.0703C1.03906 11.888 1 11.6979 1 11.5V3.5C1 3.30208 1.03906 3.11198 1.11719 2.92969C1.19531 2.7474 1.30208 2.58333 1.4375 2.4375Z" fill="#9237E3"/>
</svg>
