<svg width="16" height="16" viewBox="0 0 16 16" fill="none" xmlns="http://www.w3.org/2000/svg">
<path d="M6.15625 1.26562C6.47917 1.13021 6.8125 1.04688 7.15625 1.01562C7.5 0.984375 7.84375 1 8.1875 1.0625C8.52083 1.13542 8.84115 1.2526 9.14844 1.41406C9.45573 1.57552 9.72917 1.78125 9.96875 2.03125C10.2188 2.27083 10.4245 2.54427 10.5859 2.85156C10.7474 3.15885 10.8646 3.47917 10.9375 3.8125C11 4.15625 11.0156 4.5 10.9844 4.84375C10.9531 5.1875 10.8698 5.52083 10.7344 5.84375C10.599 6.15625 10.4219 6.44792 10.2031 6.71875C9.98438 6.98958 9.72917 7.21875 9.4375 7.40625C9.15625 7.60417 8.84896 7.7526 8.51562 7.85156C8.18229 7.95052 7.84375 8 7.5 8C7.03125 8 6.58333 7.91146 6.15625 7.73438C5.72917 7.55729 5.35417 7.30208 5.03125 6.96875C4.69792 6.64583 4.44271 6.27083 4.26562 5.84375C4.08854 5.41667 4 4.96875 4 4.5C4 4.15625 4.04948 3.81771 4.14844 3.48438C4.2474 3.15104 4.39583 2.84375 4.59375 2.5625C4.78125 2.27083 5.01042 2.01562 5.28125 1.79688C5.55208 1.57812 5.84375 1.40104 6.15625 1.26562ZM7.5 7C7.75 7 7.99219 6.96354 8.22656 6.89062C8.46094 6.81771 8.68229 6.71354 8.89062 6.57812C9.09896 6.44271 9.28125 6.27865 9.4375 6.08594C9.59375 5.89323 9.71875 5.68229 9.8125 5.45312C9.90625 5.22396 9.96615 4.98698 9.99219 4.74219C10.0182 4.4974 10.0052 4.25521 9.95312 4.01562C9.90104 3.77604 9.81771 3.54688 9.70312 3.32812C9.58854 3.10938 9.44271 2.91146 9.26562 2.73438C9.08854 2.55729 8.89062 2.41146 8.67188 2.29688C8.45312 2.18229 8.22396 2.09896 7.98438 2.04688C7.74479 1.99479 7.5026 1.98177 7.25781 2.00781C7.01302 2.03385 6.77604 2.09375 6.54688 2.1875C6.31771 2.28125 6.10677 2.40625 5.91406 2.5625C5.72135 2.71875 5.55729 2.90104 5.42188 3.10938C5.28646 3.31771 5.18229 3.53906 5.10938 3.77344C5.03646 4.00781 5 4.25 5 4.5C5 4.83333 5.0625 5.15365 5.1875 5.46094C5.3125 5.76823 5.49479 6.03646 5.73438 6.26562C5.96354 6.50521 6.23177 6.6875 6.53906 6.8125C6.84635 6.9375 7.16667 7 7.5 7ZM4.5 10C4.16667 10 3.84635 10.0625 3.53906 10.1875C3.23177 10.3125 2.96354 10.4948 2.73438 10.7344C2.49479 10.9635 2.3125 11.2318 2.1875 11.5391C2.0625 11.8464 2 12.1667 2 12.5V13.5C2 13.6354 1.95052 13.7526 1.85156 13.8516C1.7526 13.9505 1.63542 14 1.5 14C1.36458 14 1.2474 13.9505 1.14844 13.8516C1.04948 13.7526 1 13.6354 1 13.5V12.5C1 12.0312 1.08854 11.5833 1.26562 11.1562C1.44271 10.7292 1.69792 10.3542 2.03125 10.0312C2.35417 9.69792 2.72917 9.44271 3.15625 9.26562C3.58333 9.08854 4.03125 9 4.5 9H7C7.13542 9 7.2526 9.04948 7.35156 9.14844C7.45052 9.2474 7.5 9.36458 7.5 9.5C7.5 9.63542 7.45052 9.7526 7.35156 9.85156C7.2526 9.95052 7.13542 10 7 10H4.5ZM10.0625 7.64062C10.3854 7.51562 10.7188 7.4349 11.0625 7.39844C11.4062 7.36198 11.7448 7.38021 12.0781 7.45312C12.4219 7.51562 12.7448 7.6276 13.0469 7.78906C13.349 7.95052 13.625 8.15625 13.875 8.40625C14.1146 8.64583 14.3177 8.91927 14.4844 9.22656C14.651 9.53385 14.7656 9.85938 14.8281 10.2031C14.901 10.5365 14.9193 10.875 14.8828 11.2188C14.8464 11.5625 14.7656 11.8958 14.6406 12.2188C14.5052 12.5417 14.3281 12.8359 14.1094 13.1016C13.8906 13.3672 13.6354 13.599 13.3438 13.7969C13.0521 13.9844 12.7422 14.1276 12.4141 14.2266C12.0859 14.3255 11.75 14.375 11.4062 14.375C10.9375 14.375 10.4896 14.2865 10.0625 14.1094C9.63542 13.9323 9.25521 13.6823 8.92188 13.3594C8.59896 13.026 8.34896 12.6458 8.17188 12.2188C7.99479 11.7917 7.90625 11.3438 7.90625 10.875C7.90625 10.5312 7.95573 10.1927 8.05469 9.85938C8.15365 9.52604 8.29688 9.21875 8.48438 8.9375C8.68229 8.64583 8.91406 8.39062 9.17969 8.17188C9.44531 7.95312 9.73958 7.77604 10.0625 7.64062ZM11.4062 13.375C11.6458 13.375 11.8854 13.3411 12.125 13.2734C12.3646 13.2057 12.5833 13.099 12.7812 12.9531C12.9896 12.8177 13.1719 12.6536 13.3281 12.4609C13.4844 12.2682 13.6094 12.0625 13.7031 11.8438C13.8073 11.6146 13.8698 11.375 13.8906 11.125C13.9115 10.875 13.901 10.6302 13.8594 10.3906C13.8073 10.151 13.724 9.92188 13.6094 9.70312C13.4948 9.48438 13.349 9.28646 13.1719 9.10938C12.9948 8.93229 12.7969 8.78646 12.5781 8.67188C12.3594 8.55729 12.1302 8.47396 11.8906 8.42188C11.651 8.38021 11.4062 8.36979 11.1562 8.39062C10.9062 8.41146 10.6667 8.46875 10.4375 8.5625C10.2083 8.66667 10 8.79688 9.8125 8.95312C9.625 9.10938 9.46354 9.28646 9.32812 9.48438C9.18229 9.69271 9.07552 9.91667 9.00781 10.1562C8.9401 10.3958 8.90625 10.6354 8.90625 10.875C8.90625 11.2083 8.96875 11.5286 9.09375 11.8359C9.21875 12.1432 9.39583 12.4115 9.625 12.6406C9.86458 12.8802 10.138 13.0625 10.4453 13.1875C10.7526 13.3125 11.0729 13.375 11.4062 13.375ZM13.1719 9.73438C13.2448 9.80729 13.2812 9.89583 13.2812 10C13.2812 10.1042 13.2448 10.1927 13.1719 10.2656L11.1719 12.2656C11.099 12.3385 11.0104 12.375 10.9062 12.375C10.8021 12.375 10.7135 12.3385 10.6406 12.2656L9.64062 11.2656C9.56771 11.1927 9.53125 11.1042 9.53125 11C9.53125 10.8958 9.56771 10.8073 9.64062 10.7344C9.71354 10.6615 9.80208 10.625 9.90625 10.625C10.0104 10.625 10.099 10.6615 10.1719 10.7344L10.9062 11.4688L12.6406 9.73438C12.7135 9.66146 12.8021 9.625 12.9062 9.625C13.0104 9.625 13.099 9.66146 13.1719 9.73438Z" fill="#9237E3"/>
</svg>
