<svg width="17" height="16" viewBox="0 0 17 16" fill="none" xmlns="http://www.w3.org/2000/svg">
<path d="M2.20312 5.46875C2.20312 5.08333 2.34115 4.7526 2.61719 4.47656C2.89323 4.20052 3.22917 4.0625 3.625 4.0625H13.0312C13.4271 4.0625 13.763 4.20052 14.0391 4.47656C14.3151 4.7526 14.4531 5.08333 14.4531 5.46875V11.5938C14.4531 11.9792 14.3151 12.3099 14.0391 12.5859C13.763 12.862 13.4271 13 13.0312 13H3.625C3.22917 13 2.89323 12.862 2.61719 12.5859C2.34115 12.3099 2.20312 11.9792 2.20312 11.5938V5.46875ZM3.625 5C3.48958 5 3.3776 5.04688 3.28906 5.14062C3.20052 5.23438 3.15625 5.34375 3.15625 5.46875V11.5938C3.15625 11.7188 3.20052 11.8281 3.28906 11.9219C3.3776 12.0156 3.48958 12.0625 3.625 12.0625H13.0312C13.1667 12.0625 13.2786 12.0156 13.3672 11.9219C13.4557 11.8281 13.5 11.7188 13.5 11.5938V5.46875C13.5 5.34375 13.4557 5.23438 13.3672 5.14062C13.2786 5.04688 13.1667 5 13.0312 5H3.625ZM5.73438 3.125C5.73438 2.72917 5.8724 2.39323 6.14844 2.11719C6.42448 1.84115 6.76042 1.70312 7.15625 1.70312H9.5C9.89583 1.70312 10.2318 1.84115 10.5078 2.11719C10.7839 2.39323 10.9219 2.72917 10.9219 3.125V4.53125H9.96875V3.125C9.96875 2.98958 9.92448 2.8776 9.83594 2.78906C9.7474 2.70052 9.63542 2.65625 9.5 2.65625H7.15625C7.02083 2.65625 6.90885 2.70052 6.82031 2.78906C6.73177 2.8776 6.6875 2.98958 6.6875 3.125V4.53125H5.73438V3.125ZM6.6875 4.53125V12.5312H5.73438V4.53125H6.6875ZM10.9219 4.53125V12.5312H9.96875V4.53125H10.9219Z" fill="#9237E3"/>
</svg>
