<svg width="64" height="64" viewBox="0 0 64 64" fill="none" xmlns="http://www.w3.org/2000/svg">
<path d="M48 -0.00146484H16C7.168 -0.00146484 0 7.16654 0 15.9985V47.9985C0 56.8305 7.168 63.9985 16 63.9985H48C56.832 63.9985 64 56.8305 64 47.9985V15.9985C64 7.16654 56.832 -0.00146484 48 -0.00146484ZM32 47.9985C23.168 47.9985 16 40.8305 16 31.9985C16 23.1665 23.168 15.9985 32 15.9985C40.832 15.9985 48 23.1665 48 31.9985C48 40.8305 40.832 47.9985 32 47.9985ZM49.12 17.9825C47.36 17.9825 45.92 16.5425 45.92 14.7825C45.92 13.0225 47.36 11.5825 49.12 11.5825C50.88 11.5825 52.32 13.0225 52.32 14.7825C52.32 16.5425 50.88 17.9825 49.12 17.9825Z" fill="white"/>
<path d="M32.0023 41.5987C37.3043 41.5987 41.6023 37.3006 41.6023 31.9987C41.6023 26.6967 37.3043 22.3987 32.0023 22.3987C26.7004 22.3987 22.4023 26.6967 22.4023 31.9987C22.4023 37.3006 26.7004 41.5987 32.0023 41.5987Z" fill="white"/>
</svg>
