<svg width="64" height="64" viewBox="0 0 64 64" fill="none" xmlns="http://www.w3.org/2000/svg">
<g clip-path="url(#clip0_637_6233)">
<path d="M55.2727 0H8.72727C3.90733 0 0 3.90733 0 8.72727V55.2727C0 60.0927 3.90733 64 8.72727 64H55.2727C60.0927 64 64 60.0927 64 55.2727V8.72727C64 3.90733 60.0927 0 55.2727 0Z" fill="white"/>
<path d="M23.0536 17.4545C23.0536 18.5334 22.7337 19.5879 22.1344 20.4849C21.535 21.3819 20.6831 22.081 19.6864 22.4939C18.6898 22.9067 17.593 23.0147 16.535 22.8043C15.4769 22.5938 14.505 22.0743 13.7421 21.3115C12.9793 20.5487 12.4598 19.5768 12.2493 18.5187C12.0389 17.4606 12.1469 16.3639 12.5597 15.3672C12.9726 14.3705 13.6717 13.5186 14.5687 12.9193C15.4657 12.3199 16.5203 12 17.5991 12C19.0457 12 20.4331 12.5747 21.456 13.5976C22.479 14.6205 23.0536 16.0079 23.0536 17.4545ZM21.8173 26.5455V50.6436C21.8182 50.8214 21.784 50.9976 21.7167 51.1621C21.6493 51.3267 21.5501 51.4762 21.4247 51.6023C21.2993 51.7283 21.1503 51.8284 20.9861 51.8966C20.822 51.9649 20.646 52 20.4682 52H14.7191C14.5413 52.0005 14.3652 51.9658 14.2008 51.898C14.0365 51.8302 13.8872 51.7306 13.7615 51.6049C13.6358 51.4792 13.5362 51.3298 13.4683 51.1655C13.4005 51.0012 13.3659 50.8251 13.3664 50.6473V26.5455C13.3664 26.1867 13.5089 25.8426 13.7626 25.5889C14.0162 25.3352 14.3603 25.1927 14.7191 25.1927H20.4682C20.8263 25.1937 21.1694 25.3366 21.4223 25.5902C21.6752 25.8438 21.8173 26.1873 21.8173 26.5455ZM51.8682 39.0909V50.7564C51.8687 50.9198 51.8368 51.0817 51.7745 51.2328C51.7122 51.384 51.6206 51.5212 51.505 51.6368C51.3894 51.7524 51.2521 51.844 51.101 51.9063C50.9499 51.9686 50.788 52.0005 50.6245 52H44.4427C44.2793 52.0005 44.1173 51.9686 43.9662 51.9063C43.8151 51.844 43.6778 51.7524 43.5623 51.6368C43.4467 51.5212 43.3551 51.384 43.2928 51.2328C43.2304 51.0817 43.1986 50.9198 43.1991 50.7564V39.4509C43.1991 37.7636 43.6936 32.0618 38.7882 32.0618C34.9882 32.0618 34.2136 35.9636 34.0609 37.7164V50.7564C34.0609 51.0831 33.9324 51.3967 33.7031 51.6294C33.4738 51.8621 33.1621 51.9952 32.8354 52H26.8645C26.7014 52 26.5398 51.9678 26.3892 51.9053C26.2385 51.8427 26.1016 51.7511 25.9864 51.6355C25.8712 51.52 25.78 51.3829 25.7179 51.232C25.6558 51.0811 25.6241 50.9195 25.6245 50.7564V26.44C25.6241 26.2769 25.6558 26.1152 25.7179 25.9644C25.78 25.8135 25.8712 25.6764 25.9864 25.5608C26.1016 25.4453 26.2385 25.3536 26.3892 25.2911C26.5398 25.2286 26.7014 25.1964 26.8645 25.1964H32.8354C33.1653 25.1964 33.4816 25.3274 33.7148 25.5606C33.9481 25.7938 34.0791 26.1102 34.0791 26.44V28.5418C35.49 26.4255 37.5809 24.7927 42.0427 24.7927C51.9264 24.7927 51.8682 34.0218 51.8682 39.0909Z" fill="#0A66C2"/>
</g>
<defs>
<clipPath id="clip0_637_6233">
<rect width="64" height="64" fill="white"/>
</clipPath>
</defs>
</svg>
