<svg width="16" height="16" viewBox="0 0 16 16" fill="none" xmlns="http://www.w3.org/2000/svg">
<path d="M3.5 4C3.36458 4 3.2474 4.04948 3.14844 4.14844C3.04948 4.2474 3 4.36458 3 4.5V11.5C3 11.6354 3.04948 11.7526 3.14844 11.8516C3.2474 11.9505 3.36458 12 3.5 12H12.5C12.6354 12 12.7526 11.9505 12.8516 11.8516C12.9505 11.7526 13 11.6354 13 11.5V4.5C13 4.36458 12.9505 4.2474 12.8516 4.14844C12.7526 4.04948 12.6354 4 12.5 4H3.5ZM2 4.5C2 4.08333 2.14583 3.72917 2.4375 3.4375C2.72917 3.14583 3.08333 3 3.5 3H12.5C12.9167 3 13.2708 3.14583 13.5625 3.4375C13.8542 3.72917 14 4.08333 14 4.5V11.5C14 11.9167 13.8542 12.2708 13.5625 12.5625C13.2708 12.8542 12.9167 13 12.5 13H3.5C3.08333 13 2.72917 12.8542 2.4375 12.5625C2.14583 12.2708 2 11.9167 2 11.5V4.5ZM3.75 4C3.54167 4 3.36458 4.07292 3.21875 4.21875C3.07292 4.36458 3 4.54167 3 4.75C3 5.19792 3.08854 5.61979 3.26562 6.01562C3.43229 6.41146 3.66406 6.75521 3.96094 7.04688C4.25781 7.33854 4.60938 7.57292 5.01562 7.75C5.41146 7.91667 5.83333 8 6.28125 8V9C5.69792 9 5.14583 8.89062 4.625 8.67188C4.10417 8.44271 3.64844 8.13802 3.25781 7.75781C2.86719 7.3776 2.5625 6.92708 2.34375 6.40625C2.11458 5.88542 2 5.33333 2 4.75C2 4.27083 2.17188 3.85938 2.51562 3.51562C2.85938 3.17188 3.27083 3 3.75 3H12.25C12.7292 3 13.1406 3.17188 13.4844 3.51562C13.8281 3.85938 14 4.27083 14 4.75V4.92188C14 5.48438 13.8906 6.01562 13.6719 6.51562C13.4635 7.00521 13.1745 7.4349 12.8047 7.80469C12.4349 8.17448 12.0052 8.46354 11.5156 8.67188C11.0156 8.89062 10.4844 9 9.92188 9V8C10.349 8 10.75 7.92188 11.125 7.76562C11.5 7.59896 11.8255 7.3776 12.1016 7.10156C12.3776 6.82552 12.599 6.5 12.7656 6.125C12.9219 5.75 13 5.34896 13 4.92188V4.75C13 4.54167 12.9271 4.36458 12.7812 4.21875C12.6354 4.07292 12.4583 4 12.25 4H3.75ZM5.5 7.75C5.5 7.46875 5.59635 7.23177 5.78906 7.03906C5.98177 6.84635 6.21875 6.75 6.5 6.75H9.5C9.78125 6.75 10.0182 6.84635 10.2109 7.03906C10.4036 7.23177 10.5 7.46875 10.5 7.75V9.25C10.5 9.53125 10.4036 9.76823 10.2109 9.96094C10.0182 10.1536 9.78125 10.25 9.5 10.25H6.5C6.21875 10.25 5.98177 10.1536 5.78906 9.96094C5.59635 9.76823 5.5 9.53125 5.5 9.25V7.75ZM9.5 7.75H6.5V9.25H9.5V7.75Z" fill="#9237E3"/>
</svg>
