<svg width="17" height="16" viewBox="0 0 17 16" fill="none" xmlns="http://www.w3.org/2000/svg">
<path d="M8.10938 2.70312C7.40104 2.70312 6.72917 2.83854 6.09375 3.10938C5.46875 3.38021 4.92188 3.75 4.45312 4.21875C3.98438 4.6875 3.61458 5.23958 3.34375 5.875C3.07292 6.5 2.9375 7.17188 2.9375 7.89062C2.9375 8.59896 3.07292 9.26562 3.34375 9.89062C3.61458 10.526 3.98438 11.0781 4.45312 11.5469C4.92188 12.0156 5.46875 12.3854 6.09375 12.6562C6.72917 12.9271 7.40104 13.0625 8.10938 13.0625C8.82812 13.0625 9.5 12.9271 10.125 12.6562C10.7604 12.3854 11.3099 12.0156 11.7734 11.5469C12.237 11.0781 12.6094 10.526 12.8906 9.89062C13.1615 9.26562 13.2969 8.59896 13.2969 7.89062C13.2969 7.17188 13.1615 6.5 12.8906 5.875C12.6094 5.23958 12.237 4.6875 11.7734 4.21875C11.3099 3.75 10.7604 3.38021 10.125 3.10938C9.5 2.83854 8.82812 2.70312 8.10938 2.70312ZM2 7.89062C2 7.03646 2.15625 6.23958 2.46875 5.5C2.79167 4.76042 3.23177 4.11458 3.78906 3.5625C4.34635 3.01042 4.99479 2.57292 5.73438 2.25C6.47396 1.92708 7.26562 1.76562 8.10938 1.76562C8.95312 1.76562 9.75 1.92708 10.5 2.25C11.2396 2.57292 11.8854 3.01042 12.4375 3.5625C12.9896 4.11458 13.4271 4.76042 13.75 5.5C14.0729 6.23958 14.2344 7.03646 14.2344 7.89062C14.2344 8.73438 14.0729 9.52604 13.75 10.2656C13.4271 11.0052 12.9896 11.651 12.4375 12.2031C11.8854 12.7552 11.2396 13.1927 10.5 13.5156C9.75 13.8385 8.95312 14 8.10938 14C7.26562 14 6.47396 13.8385 5.73438 13.5156C4.99479 13.1927 4.34635 12.7552 3.78906 12.2031C3.23177 11.651 2.79167 11.0052 2.46875 10.2656C2.15625 9.52604 2 8.73438 2 7.89062ZM6.67188 5.01562C6.74479 4.97396 6.82552 4.95573 6.91406 4.96094C7.0026 4.96615 7.08333 4.99479 7.15625 5.04688L10.8281 7.48438C10.8906 7.53646 10.9401 7.59635 10.9766 7.66406C11.013 7.73177 11.0312 7.80729 11.0312 7.89062C11.0312 7.96354 11.013 8.03385 10.9766 8.10156C10.9401 8.16927 10.8906 8.22917 10.8281 8.28125L7.15625 10.7188C7.08333 10.7708 7.0026 10.7995 6.91406 10.8047C6.82552 10.8099 6.74479 10.7917 6.67188 10.75C6.58854 10.7083 6.52604 10.6484 6.48438 10.5703C6.44271 10.4922 6.42188 10.4115 6.42188 10.3281V5.4375C6.42188 5.35417 6.44271 5.27344 6.48438 5.19531C6.52604 5.11719 6.58854 5.05729 6.67188 5.01562ZM7.35938 6.3125V9.45312L9.71875 7.89062L7.35938 6.3125Z" fill="#9237E3"/>
</svg>
