<svg width="14" height="14" viewBox="0 0 14 14" fill="none" xmlns="http://www.w3.org/2000/svg">
<g clip-path="url(#clip0_637_4672)">
<path d="M13.4928 5.78616C13.3404 5.70298 13.1681 5.66342 12.9947 5.67183C12.8213 5.68025 12.6536 5.7363 12.51 5.83384L9.33809 7.9485C9.26327 7.73571 9.12438 7.55131 8.94052 7.42064C8.75666 7.28997 8.53685 7.21944 8.31128 7.21875H3.71753C3.65952 7.21876 3.60389 7.24182 3.56288 7.28284L2.18628 8.65944L1.90344 8.37659C1.86242 8.33558 1.80679 8.31255 1.74878 8.31255C1.69078 8.31255 1.63515 8.33558 1.59413 8.37659L0.500376 9.47034C0.459366 9.51136 0.436329 9.567 0.436329 9.625C0.436329 9.683 0.459366 9.73864 0.500376 9.77966L0.783219 10.0625L0.0628755 10.7828C0.0419827 10.803 0.0253178 10.8272 0.0138534 10.8538C0.0023889 10.8805 -0.00364559 10.9092 -0.00389799 10.9383C-0.00415039 10.9673 0.00138436 10.9961 0.0123833 11.023C0.0233822 11.0499 0.0396251 11.0743 0.0601641 11.0949C0.0807032 11.1154 0.105127 11.1316 0.132011 11.1426C0.158894 11.1536 0.187699 11.1592 0.216745 11.1589C0.24579 11.1587 0.274494 11.1526 0.301183 11.1412C0.327871 11.1297 0.352009 11.113 0.372188 11.0922L1.09253 10.3718L3.62697 12.9062L2.90663 13.6266C2.88573 13.6468 2.86907 13.6709 2.8576 13.6976C2.84614 13.7243 2.8401 13.753 2.83985 13.782C2.8396 13.8111 2.84513 13.8399 2.85613 13.8668C2.86713 13.8937 2.88338 13.9181 2.90391 13.9386C2.92445 13.9592 2.94888 13.9754 2.97576 13.9864C3.00264 13.9974 3.03145 14.0029 3.06049 14.0027C3.08954 14.0024 3.11824 13.9964 3.14493 13.9849C3.17162 13.9735 3.19576 13.9568 3.21594 13.9359L3.93628 13.2156L4.21913 13.4984C4.26015 13.5394 4.31578 13.5625 4.37378 13.5625C4.43179 13.5625 4.48742 13.5394 4.52844 13.4984L5.62219 12.4047C5.6632 12.3636 5.68624 12.308 5.68624 12.25C5.68624 12.192 5.6632 12.1364 5.62219 12.0953L5.33934 11.8125L5.99559 11.1562H8.53003C8.57737 11.1563 8.62344 11.1409 8.66128 11.1125L13.616 7.39659C13.7346 7.30711 13.8309 7.19139 13.8973 7.05848C13.9637 6.92558 13.9984 6.77911 13.9988 6.63053C14.0003 6.45686 13.9539 6.28614 13.8646 6.13717C13.7753 5.98819 13.6467 5.86673 13.4928 5.78616ZM4.37378 13.0344L0.964344 9.625L1.74878 8.84056L5.15822 12.25L4.37378 13.0344ZM13.3535 7.04659L8.45719 10.7188H5.90503C5.84702 10.7188 5.79139 10.7418 5.75038 10.7828L5.03003 11.5032L2.49559 8.96875L3.80809 7.65625H8.31128C8.48533 7.65625 8.65225 7.72539 8.77532 7.84846C8.89839 7.97153 8.96753 8.13845 8.96753 8.3125C8.96753 8.48655 8.89839 8.65347 8.77532 8.77654C8.65225 8.89961 8.48533 8.96875 8.31128 8.96875H5.46753C5.40952 8.96875 5.35388 8.9918 5.31285 9.03282C5.27183 9.07384 5.24878 9.12948 5.24878 9.1875C5.24878 9.24552 5.27183 9.30116 5.31285 9.34218C5.35388 9.3832 5.40952 9.40625 5.46753 9.40625H8.31128C8.57881 9.40539 8.83672 9.30631 9.03601 9.12783C9.2353 8.94934 9.36211 8.70388 9.39234 8.43806L12.7528 6.19784C12.8311 6.14561 12.9221 6.11561 13.0161 6.11106C13.1102 6.1065 13.2037 6.12755 13.2867 6.17197C13.3697 6.21639 13.439 6.2825 13.4874 6.36326C13.5358 6.44402 13.5613 6.5364 13.5613 6.63053C13.5611 6.71121 13.5422 6.79075 13.5062 6.86293C13.4701 6.93511 13.4179 6.99797 13.3535 7.04659ZM4.62316 6.78125C4.66055 6.78123 4.69732 6.77162 4.72995 6.75335C4.76258 6.73507 4.78998 6.70873 4.80953 6.67685C4.82908 6.64497 4.84013 6.60861 4.84162 6.57124C4.84312 6.53387 4.835 6.49675 4.81806 6.46341C4.52373 5.88426 4.37144 5.24339 4.37378 4.59375C4.37378 3.49144 4.81167 2.43429 5.59112 1.65484C6.37057 0.875389 7.42773 0.4375 8.53003 0.4375C9.63234 0.4375 10.6895 0.875389 11.4689 1.65484C12.2484 2.43429 12.6863 3.49144 12.6863 4.59375C12.6867 4.72994 12.6799 4.86605 12.6657 5.0015C12.6596 5.0592 12.6766 5.11697 12.713 5.16212C12.7495 5.20727 12.8024 5.23608 12.8601 5.24223C12.8886 5.24528 12.9175 5.24267 12.9451 5.23455C12.9727 5.22643 12.9983 5.21296 13.0207 5.19491C13.0658 5.15846 13.0947 5.10557 13.1008 5.04787C13.1166 4.89702 13.1243 4.74543 13.1238 4.59375C13.1238 3.37541 12.6398 2.20697 11.7783 1.34548C10.9168 0.483983 9.74837 0 8.53003 0C7.31169 0 6.14326 0.483983 5.28176 1.34548C4.42026 2.20697 3.93628 3.37541 3.93628 4.59375C3.93373 5.31229 4.10229 6.02112 4.42803 6.66159C4.44631 6.69768 4.47426 6.72797 4.50875 6.7491C4.54324 6.77023 4.58293 6.78136 4.62338 6.78125H4.62316Z" fill="#2C1D43"/>
<path d="M11.8788 5.64516C11.9352 5.65888 11.9947 5.64965 12.0443 5.6195C12.0939 5.58936 12.1295 5.54076 12.1433 5.48438C12.2689 4.97349 12.2847 4.44176 12.1897 3.9243C12.0947 3.40684 11.8909 2.91543 11.5919 2.48254C11.2929 2.04964 10.9055 1.6851 10.4552 1.413C10.0049 1.1409 9.50204 0.967427 8.97976 0.904043C8.45748 0.840659 7.92769 0.888805 7.42539 1.0453C6.9231 1.2018 6.45971 1.46308 6.06586 1.8119C5.672 2.16071 5.35663 2.58912 5.14058 3.06882C4.92452 3.54853 4.8127 4.06861 4.8125 4.59472C4.81163 5.34037 5.03511 6.06903 5.45388 6.68598C5.46957 6.71066 5.49005 6.73196 5.51411 6.74859C5.53817 6.76523 5.56533 6.77686 5.59397 6.78282C5.62261 6.78877 5.65215 6.78893 5.68085 6.78326C5.70955 6.7776 5.73682 6.76624 5.76105 6.74985C5.78528 6.73346 5.80598 6.71238 5.82192 6.68785C5.83786 6.66332 5.84872 6.63585 5.85386 6.60705C5.85899 6.57825 5.8583 6.54872 5.85182 6.52019C5.84534 6.49166 5.8332 6.46473 5.81613 6.44098C5.52737 6.01625 5.34232 5.52969 5.27586 5.02043C5.20939 4.51117 5.26336 3.99341 5.43343 3.5088C5.6035 3.0242 5.88492 2.58626 6.25506 2.23023C6.6252 1.87419 7.07373 1.60998 7.56457 1.45885C8.05542 1.30772 8.57488 1.27389 9.08118 1.36008C9.58748 1.44627 10.0665 1.65007 10.4797 1.95509C10.8929 2.26012 11.2287 2.65785 11.4602 3.11631C11.6917 3.57476 11.8124 4.08114 11.8125 4.59472C11.8124 4.85954 11.7807 5.1234 11.718 5.38069C11.7112 5.40862 11.7099 5.43761 11.7143 5.46602C11.7187 5.49442 11.7287 5.52169 11.7436 5.54625C11.7585 5.57081 11.7781 5.59219 11.8013 5.60916C11.8245 5.62613 11.8509 5.63837 11.8788 5.64516Z" fill="#2C1D43"/>
<path d="M8.53125 2.40625C8.58927 2.40625 8.64491 2.3832 8.68593 2.34218C8.72695 2.30116 8.75 2.24552 8.75 2.1875V1.96875C8.75 1.91073 8.72695 1.85509 8.68593 1.81407C8.64491 1.77305 8.58927 1.75 8.53125 1.75C8.47323 1.75 8.41759 1.77305 8.37657 1.81407C8.33555 1.85509 8.3125 1.91073 8.3125 1.96875V2.1875C8.3125 2.24552 8.33555 2.30116 8.37657 2.34218C8.41759 2.3832 8.47323 2.40625 8.53125 2.40625ZM7.10938 2.13106C7.05913 2.16007 7.02247 2.20785 7.00746 2.26389C6.99244 2.31993 7.00031 2.37963 7.02931 2.42987L7.13869 2.61931C7.1679 2.66915 7.21564 2.7054 7.27149 2.72016C7.32733 2.73493 7.38675 2.72701 7.43678 2.69812C7.4868 2.66924 7.52337 2.62174 7.53851 2.566C7.55364 2.51025 7.54611 2.45078 7.51756 2.40056L7.40819 2.21112C7.37918 2.16088 7.3314 2.12422 7.27536 2.10921C7.21932 2.0942 7.15962 2.10206 7.10938 2.13106ZM6.55681 3.20119L6.36716 3.09181C6.34227 3.07722 6.31474 3.0677 6.28616 3.06379C6.25758 3.05988 6.2285 3.06167 6.20061 3.06904C6.17272 3.07641 6.14656 3.08923 6.12365 3.10676C6.10073 3.12428 6.08151 3.14616 6.06708 3.17115C6.05266 3.19613 6.04332 3.22372 6.0396 3.25233C6.03588 3.28094 6.03786 3.31 6.04542 3.33784C6.05298 3.36568 6.06597 3.39175 6.08364 3.41455C6.10132 3.43735 6.12333 3.45643 6.14841 3.47069L6.33806 3.58006C6.36295 3.59465 6.39048 3.60418 6.41906 3.60808C6.44764 3.61199 6.47672 3.61021 6.50461 3.60283C6.5325 3.59546 6.55865 3.58264 6.58157 3.56512C6.60449 3.5476 6.62371 3.52571 6.63814 3.50073C6.65256 3.47574 6.6619 3.44815 6.66562 3.41955C6.66934 3.39094 6.66736 3.36188 6.6598 3.33404C6.65224 3.3062 6.63925 3.28012 6.62158 3.25732C6.6039 3.23452 6.58189 3.21545 6.55681 3.20119ZM6.34375 4.59375C6.34375 4.53573 6.3207 4.48009 6.27968 4.43907C6.23866 4.39805 6.18302 4.375 6.125 4.375H5.90625C5.84823 4.375 5.79259 4.39805 5.75157 4.43907C5.71055 4.48009 5.6875 4.53573 5.6875 4.59375C5.6875 4.65177 5.71055 4.70741 5.75157 4.74843C5.79259 4.78945 5.84823 4.8125 5.90625 4.8125H6.125C6.18302 4.8125 6.23866 4.78945 6.27968 4.74843C6.3207 4.70741 6.34375 4.65177 6.34375 4.59375ZM6.258 6.125C6.29641 6.12506 6.33415 6.11495 6.36737 6.09569L6.55681 5.98631C6.58189 5.97205 6.6039 5.95298 6.62158 5.93018C6.63925 5.90738 6.65224 5.8813 6.6598 5.85346C6.66736 5.82562 6.66934 5.79656 6.66562 5.76795C6.6619 5.73935 6.65256 5.71176 6.63814 5.68677C6.62371 5.66179 6.60449 5.6399 6.58157 5.62238C6.55865 5.60486 6.5325 5.59204 6.50461 5.58467C6.47672 5.57729 6.44764 5.57551 6.41906 5.57942C6.39048 5.58332 6.36295 5.59285 6.33806 5.60744L6.14841 5.71681C6.10669 5.7409 6.07409 5.77808 6.05567 5.82259C6.03725 5.8671 6.03403 5.91645 6.04652 5.96297C6.05901 6.0095 6.08651 6.0506 6.12475 6.07989C6.16299 6.10919 6.20983 6.12505 6.258 6.125ZM9.65431 6.97638C9.67353 7.00966 9.70118 7.0373 9.73447 7.0565C9.76777 7.0757 9.80553 7.08579 9.84397 7.08575C9.88235 7.08571 9.92004 7.07557 9.95327 7.05636C9.98649 7.03714 10.0141 7.00953 10.0332 6.97628C10.0524 6.94303 10.0625 6.90532 10.0625 6.86694C10.0625 6.82856 10.0524 6.79086 10.0332 6.75763L9.92381 6.56819C9.8946 6.51835 9.84686 6.4821 9.79101 6.46734C9.73517 6.45257 9.67575 6.46049 9.62572 6.48938C9.5757 6.51826 9.53913 6.56576 9.52399 6.6215C9.50886 6.67725 9.51639 6.73672 9.54494 6.78694L9.65431 6.97638ZM10.5057 5.98631L10.6953 6.09569C10.7456 6.12424 10.805 6.13177 10.8608 6.11663C10.9165 6.1015 10.964 6.06493 10.9929 6.0149C11.0218 5.96488 11.0297 5.90546 11.0149 5.84961C11.0002 5.79377 10.9639 5.74603 10.9141 5.71681L10.7244 5.60744C10.6996 5.59285 10.672 5.58332 10.6434 5.57942C10.6149 5.57551 10.5858 5.57729 10.5579 5.58467C10.53 5.59204 10.5038 5.60486 10.4809 5.62238C10.458 5.6399 10.4388 5.66179 10.4244 5.68677C10.4099 5.71176 10.4006 5.73935 10.3969 5.76795C10.3932 5.79656 10.3951 5.82562 10.4027 5.85346C10.4103 5.8813 10.4232 5.90738 10.4409 5.93018C10.4586 5.95298 10.4806 5.97205 10.5057 5.98631ZM11.375 4.59375C11.375 4.53573 11.352 4.48009 11.3109 4.43907C11.2699 4.39805 11.2143 4.375 11.1562 4.375H10.9375C10.8795 4.375 10.8238 4.39805 10.7828 4.43907C10.7418 4.48009 10.7188 4.53573 10.7188 4.59375C10.7188 4.65177 10.7418 4.70741 10.7828 4.74843C10.8238 4.78945 10.8795 4.8125 10.9375 4.8125H11.1562C11.2143 4.8125 11.2699 4.78945 11.3109 4.74843C11.352 4.70741 11.375 4.65177 11.375 4.59375ZM10.6153 3.60938C10.6537 3.60944 10.6914 3.59932 10.7247 3.58006L10.9141 3.47069C10.9392 3.45643 10.9612 3.43735 10.9789 3.41455C10.9965 3.39175 11.0095 3.36568 11.0171 3.33784C11.0246 3.31 11.0266 3.28094 11.0229 3.25233C11.0192 3.22372 11.0098 3.19613 10.9954 3.17115C10.981 3.14616 10.9618 3.12428 10.9389 3.10676C10.9159 3.08923 10.8898 3.07641 10.8619 3.06904C10.834 3.06167 10.8049 3.05988 10.7763 3.06379C10.7478 3.0677 10.7202 3.07722 10.6953 3.09181L10.5057 3.20119C10.464 3.22528 10.4314 3.26246 10.413 3.30697C10.3945 3.35148 10.3913 3.40082 10.4038 3.44735C10.4163 3.49387 10.4438 3.53497 10.482 3.56427C10.5203 3.59357 10.5671 3.60942 10.6153 3.60938ZM9.95312 2.13106C9.92826 2.11667 9.90079 2.10733 9.8723 2.10356C9.84382 2.0998 9.81487 2.10169 9.78711 2.10912C9.75936 2.11656 9.73334 2.1294 9.71056 2.1469C9.68777 2.1644 9.66866 2.18623 9.65431 2.21112L9.54494 2.40056C9.51639 2.45078 9.50886 2.51025 9.52399 2.566C9.53913 2.62174 9.5757 2.66924 9.62572 2.69812C9.67575 2.72701 9.73517 2.73493 9.79101 2.72016C9.84686 2.7054 9.8946 2.66915 9.92381 2.61931L10.0332 2.42987C10.0622 2.37963 10.0701 2.31993 10.055 2.26389C10.04 2.20785 10.0034 2.16007 9.95312 2.13106ZM8.3125 4.59375C8.3125 4.65177 8.33555 4.70741 8.37657 4.74843C8.41759 4.78945 8.47323 4.8125 8.53125 4.8125H9.625C9.68302 4.8125 9.73866 4.78945 9.77968 4.74843C9.8207 4.70741 9.84375 4.65177 9.84375 4.59375C9.84375 4.53573 9.8207 4.48009 9.77968 4.43907C9.73866 4.39805 9.68302 4.375 9.625 4.375H8.75V3.0625C8.75 3.00448 8.72695 2.94884 8.68593 2.90782C8.64491 2.8668 8.58927 2.84375 8.53125 2.84375C8.47323 2.84375 8.41759 2.8668 8.37657 2.90782C8.33555 2.94884 8.3125 3.00448 8.3125 3.0625V4.59375Z" fill="#2C1D43"/>
</g>
<defs>
<clipPath id="clip0_637_4672">
<rect width="14" height="14" fill="white"/>
</clipPath>
</defs>
</svg>
