<svg width="16" height="16" viewBox="0 0 16 16" fill="none" xmlns="http://www.w3.org/2000/svg">
<path d="M7.75181 7.74387C8.67827 7.74387 9.48043 7.41156 10.1361 6.75594C10.7915 6.10046 11.1238 5.29841 11.1238 4.37184C11.1238 3.44554 10.7916 2.64341 10.1359 1.98768C9.48032 1.33228 8.67816 1 7.75181 1C6.82521 1 6.02314 1.33228 5.36766 1.98779C4.71217 2.6433 4.37975 3.44546 4.37975 4.37184C4.37975 5.29841 4.71214 6.10057 5.36768 6.75608C6.02339 7.41148 6.82554 7.74387 7.75179 7.74387H7.75181ZM5.94786 2.56789C6.45082 2.0649 7.04087 1.82042 7.75181 1.82042C8.46264 1.82042 9.05277 2.0649 9.55584 2.56789C10.0588 3.07096 10.3034 3.66109 10.3034 4.37181C10.3034 5.08275 10.0588 5.6728 9.55584 6.17587C9.05277 6.67897 8.46264 6.92345 7.75181 6.92345C7.04107 6.92345 6.45107 6.67886 5.94786 6.17587C5.44477 5.67291 5.20018 5.08278 5.20018 4.37184C5.20018 3.66109 5.44477 3.07096 5.94786 2.56789ZM13.652 11.7653C13.633 11.4925 13.5948 11.1949 13.5385 10.8807C13.4817 10.5641 13.4086 10.2648 13.3209 9.99128C13.2304 9.70855 13.1074 9.42937 12.9552 9.16178C12.7974 8.88408 12.6121 8.64225 12.404 8.44327C12.1864 8.2351 11.92 8.06773 11.612 7.94561C11.305 7.82421 10.9648 7.76268 10.6009 7.76268C10.458 7.76268 10.3198 7.82131 10.0528 7.99511C9.8631 8.11866 9.6728 8.24134 9.48193 8.36315C9.29854 8.48002 9.05009 8.5895 8.74321 8.68862C8.44383 8.7855 8.13985 8.83464 7.83969 8.83464C7.53979 8.83464 7.23578 8.7855 6.93618 8.68862C6.62965 8.58959 6.3811 8.48013 6.198 8.36326C5.98554 8.2275 5.79332 8.10361 5.62657 7.99497C5.35986 7.8212 5.22164 7.76255 5.07874 7.76255C4.71472 7.76255 4.37464 7.82418 4.06776 7.94575C3.75993 8.06762 3.49343 8.23499 3.27564 8.44338C3.06758 8.64247 2.88216 8.88416 2.7245 9.16178C2.57252 9.42934 2.44948 9.70844 2.35889 9.99139C2.27139 10.2649 2.19824 10.5641 2.14142 10.8807C2.08501 11.1945 2.04689 11.4922 2.02797 11.7656C2.00938 12.033 2 12.3112 2 12.5924C2 13.3232 2.23231 13.9148 2.69043 14.3511C3.14289 14.7817 3.74147 15 4.46958 15H11.2107C11.9386 15 12.5372 14.7817 12.9897 14.3511C13.448 13.9151 13.6803 13.3233 13.6803 12.5922C13.6802 12.3102 13.6707 12.0319 13.652 11.7653ZM12.4241 13.7567C12.1251 14.0412 11.7282 14.1796 11.2106 14.1796H4.46961C3.95191 14.1796 3.55498 14.0412 3.25612 13.7568C2.96294 13.4777 2.82045 13.0967 2.82045 12.5924C2.82045 12.33 2.82909 12.071 2.84643 11.8224C2.86327 11.5784 2.89778 11.3104 2.94896 11.0256C2.99947 10.7444 3.06375 10.4805 3.14023 10.2416C3.21363 10.0124 3.3137 9.78557 3.43782 9.56704C3.55627 9.35874 3.69255 9.18005 3.84294 9.03608C3.98363 8.90139 4.16095 8.79116 4.36986 8.7085C4.56307 8.632 4.78023 8.59013 5.01596 8.58382C5.04467 8.59913 5.09586 8.62828 5.17874 8.68231C5.34739 8.79223 5.54178 8.91763 5.7567 9.05487C5.99897 9.20933 6.31104 9.34881 6.68393 9.46918C7.06513 9.59245 7.45393 9.65504 7.83983 9.65504C8.22576 9.65504 8.61464 9.59245 8.99565 9.46929C9.36884 9.3487 9.68083 9.20933 9.92343 9.05465C10.1434 8.9141 10.3323 8.79234 10.5009 8.68231C10.5838 8.62836 10.635 8.5991 10.6637 8.58384C10.8996 8.59013 11.1167 8.632 11.31 8.70848C11.5189 8.79116 11.6962 8.9015 11.8368 9.03605C11.9872 9.17994 12.1235 9.35866 12.242 9.56715C12.3662 9.78557 12.4664 10.0126 12.5396 10.2414C12.6162 10.4807 12.6806 10.7445 12.7311 11.0255C12.7821 11.3108 12.8167 11.5789 12.8336 11.8225V11.8227C12.851 12.0704 12.8598 12.3293 12.8599 12.5924C12.8598 13.0968 12.7173 13.4777 12.4241 13.7567H12.4241Z" fill="#9237E3"/>
</svg>
