<svg width="64" height="46" viewBox="0 0 64 46" fill="none" xmlns="http://www.w3.org/2000/svg">
<path d="M51.896 0.126465H12.104C10.5138 0.126464 8.9392 0.43981 7.47015 1.04859C6.00111 1.65738 4.66642 2.54966 3.54235 3.67447C2.41829 4.79928 1.52688 6.13456 0.919067 7.60401C0.311255 9.07345 -0.00104838 10.6483 2.644e-06 12.2385V33.7585C-0.00104838 35.3487 0.311255 36.9235 0.919067 38.3929C1.52688 39.8624 2.41829 41.1976 3.54235 42.3225C4.66642 43.4473 6.00111 44.3395 7.47015 44.9483C8.9392 45.5571 10.5138 45.8705 12.104 45.8705H51.896C53.4862 45.8705 55.0608 45.5571 56.5298 44.9483C57.9989 44.3395 59.3336 43.4473 60.4576 42.3225C61.5817 41.1976 62.4731 39.8624 63.0809 38.3929C63.6887 36.9235 64.001 35.3487 64 33.7585V12.2385C64.001 10.6483 63.6887 9.07345 63.0809 7.60401C62.4731 6.13456 61.5817 4.79928 60.4576 3.67447C59.3336 2.54966 57.9989 1.65738 56.5298 1.04859C55.0608 0.43981 53.4862 0.126464 51.896 0.126465ZM23.568 32.8065V13.1905L40.432 22.9985L23.568 32.8065Z" fill="white"/>
</svg>
