<svg width="88" height="27" viewBox="0 0 88 27" fill="none" xmlns="http://www.w3.org/2000/svg">
<path fill-rule="evenodd" clip-rule="evenodd" d="M54.4767 20.4288C49.473 24.1257 42.1948 26.0954 35.9173 26.0954C27.1229 26.0954 19.2382 22.853 13.2336 17.4591C12.7788 17.0348 13.173 16.4591 13.7492 16.7924C20.2086 20.55 28.1843 22.7924 36.4329 22.7924C41.9825 22.7924 48.1083 21.6409 53.7489 19.247C54.598 18.9136 55.2955 19.8227 54.4767 20.4288Z" fill="white" fill-opacity="0.7"/>
<path fill-rule="evenodd" clip-rule="evenodd" d="M56.5692 18.0349C55.9323 17.2167 52.3236 17.6409 50.7163 17.853C50.2311 17.9137 50.1401 17.4894 50.595 17.1864C53.476 15.1561 58.1765 15.7621 58.7223 16.4288C59.2682 17.0955 58.5707 21.8228 55.8717 24.0652C55.4471 24.3985 55.0529 24.2167 55.2348 23.7622C55.8414 22.247 57.206 18.8833 56.5692 18.0349Z" fill="white" fill-opacity="0.7"/>
<path fill-rule="evenodd" clip-rule="evenodd" d="M50.8073 2.94419V0.974491C50.8073 0.67146 51.0196 0.489639 51.2925 0.489639H60.087C60.3599 0.489639 60.6025 0.701763 60.6025 0.974491V2.64116C60.6025 2.91389 60.3599 3.27753 59.9354 3.88359L55.3865 10.3684C57.0847 10.3381 58.874 10.5806 60.3903 11.4291C60.7238 11.6109 60.8148 11.9139 60.8451 12.1866V14.2775C60.8451 14.5806 60.5419 14.9139 60.2083 14.7321C57.5093 13.3078 53.9005 13.1563 50.9286 14.7624C50.6254 14.9139 50.2918 14.6109 50.2918 14.3078V12.3078C50.2918 12.0048 50.2918 11.4594 50.6254 10.9745L55.902 3.42904H51.3228C51.0499 3.42904 50.8073 3.21692 50.8073 2.94419ZM18.7529 15.1563H16.0843C15.8417 15.126 15.6294 14.9442 15.5991 14.7018V1.0048C15.5991 0.732068 15.8417 0.519944 16.1146 0.519944H18.6013C18.8742 0.519944 19.0562 0.732066 19.0865 0.974491V2.76237H19.1472C19.784 1.0351 21.0274 0.216914 22.665 0.216914C24.3329 0.216914 25.3943 1.0351 26.1221 2.76237C26.7589 1.0351 28.2449 0.216914 29.8219 0.216914C30.9439 0.216914 32.1569 0.67146 32.9151 1.73207C33.7642 2.88358 33.5823 4.55026 33.5823 6.03511V14.7018C33.5823 14.9745 33.3396 15.1866 33.0667 15.1866H30.4284C30.1554 15.1563 29.9432 14.9442 29.9432 14.7018V7.42904C29.9432 6.85328 30.0038 5.39874 29.8825 4.85328C29.6702 3.94419 29.094 3.67146 28.3056 3.67146C27.6687 3.67146 26.9712 4.09571 26.6983 4.79268C26.4254 5.48965 26.4557 6.64116 26.4557 7.42904V14.7018C26.4557 14.9745 26.2131 15.1866 25.9402 15.1866H23.2715C22.9985 15.1563 22.7863 14.9442 22.7863 14.7018V7.42904C22.7863 5.91389 23.0289 3.64116 21.1487 3.64116C19.2381 3.64116 19.2988 5.82298 19.2988 7.42904V14.7018C19.2685 14.9442 19.0562 15.1563 18.7529 15.1563ZM68.184 0.216914C72.1567 0.216914 74.3098 3.61086 74.3098 7.9442C74.3098 12.126 71.9444 15.4594 68.184 15.4594C64.3023 15.4594 62.1795 12.0654 62.1795 7.82299C62.1492 3.55025 64.3023 0.216914 68.184 0.216914ZM68.184 3.0351C66.2128 3.0351 66.0915 5.73208 66.0915 7.39875C66.0915 9.06542 66.0612 12.6412 68.1537 12.6412C70.2158 12.6412 70.3371 9.76239 70.3371 8.00481C70.3371 6.85329 70.2765 5.45935 69.9429 4.36844C69.6396 3.39874 69.0331 3.0351 68.184 3.0351ZM79.4349 15.1563H76.7662C76.4933 15.126 76.281 14.9139 76.281 14.6715V0.944186C76.3113 0.701761 76.5236 0.489639 76.7965 0.489639H79.2832C79.5258 0.489639 79.7078 0.671464 79.7684 0.883585V2.9745H79.8291C80.5872 1.0957 81.6183 0.216914 83.4682 0.216914C84.6509 0.216914 85.8336 0.641153 86.5918 1.82297C87.2892 2.91388 87.2892 4.76237 87.2892 6.09571V14.7321C87.2589 14.9745 87.0466 15.1563 86.7737 15.1563H84.105C83.8624 15.126 83.6501 14.9442 83.6198 14.7321V7.27753C83.6198 5.76237 83.8018 3.58056 81.9519 3.58056C81.3151 3.58056 80.7085 4.0048 80.4053 4.67147C80.0414 5.51996 79.9807 6.33813 79.9807 7.27753V14.6715C79.9504 14.9442 79.7078 15.1563 79.4349 15.1563ZM43.802 8.61087C43.802 9.64118 43.8324 10.52 43.3168 11.4594C42.8923 12.2169 42.2251 12.6715 41.467 12.6715C40.4359 12.6715 39.8294 11.8836 39.8294 10.7321C39.8294 8.45936 41.8612 8.03511 43.802 8.03511V8.61087ZM46.501 15.126C46.3191 15.2775 46.0765 15.3078 45.8642 15.1866C44.9848 14.4594 44.8028 14.0957 44.3176 13.3988C42.8619 14.8836 41.8005 15.3382 39.9203 15.3382C37.6762 15.3382 35.9173 13.9442 35.9173 11.1866C35.9173 9.00481 37.1 7.55026 38.768 6.82298C40.2236 6.18662 42.2554 6.06541 43.802 5.88359V5.55026C43.802 4.91389 43.8627 4.15632 43.4685 3.61086C43.1349 3.12601 42.5284 2.91389 41.9825 2.91389C40.9514 2.91389 40.0416 3.42904 39.8294 4.51996C39.7687 4.76238 39.6171 5.0048 39.3745 5.0048L36.7968 4.73207C36.5845 4.67146 36.3419 4.51995 36.4026 4.18662C37.0091 1.0351 39.8294 0.0957031 42.3767 0.0957031C43.6807 0.0957031 45.379 0.429035 46.4101 1.42904C47.7141 2.64116 47.5928 4.27753 47.5928 6.03511V10.1866C47.5928 11.4291 48.1083 11.9745 48.5935 12.6715C48.7755 12.9139 48.8058 13.2169 48.5935 13.3684C48.0173 13.823 47.0469 14.6715 46.501 15.126ZM8.77575 8.61087C8.77575 9.64118 8.80608 10.52 8.29054 11.4594C7.86598 12.2169 7.19881 12.6715 6.44066 12.6715C5.40959 12.6715 4.80307 11.8836 4.80307 10.7321C4.80307 8.45936 6.8349 8.03511 8.77575 8.03511V8.61087ZM11.4444 15.126C11.2625 15.2775 11.0199 15.3078 10.8076 15.1866C9.92813 14.4594 9.74618 14.0957 9.26096 13.3988C7.80532 14.8836 6.74392 15.3382 4.86372 15.3382C2.61961 15.3382 0.860718 13.9442 0.860718 11.1866C0.860718 9.00481 2.04342 7.55026 3.71134 6.82298C5.16698 6.18662 7.19881 6.06541 8.74543 5.88359V5.55026C8.74543 4.91389 8.80607 4.15632 8.41184 3.61086C8.07826 3.12601 7.47174 2.91389 6.92588 2.91389C5.8948 2.91389 4.98502 3.42904 4.77274 4.51996C4.71209 4.76238 4.56046 5.0048 4.31786 5.0048L1.74016 4.73207C1.52788 4.67146 1.28528 4.51995 1.34593 4.18662C1.95245 1.0351 4.77275 0.0957031 7.32011 0.0957031C8.62412 0.0957031 10.3224 0.429035 11.3534 1.42904C12.6575 2.64116 12.5361 4.27753 12.5361 6.03511V10.1866C12.5361 11.4291 13.0517 11.9745 13.5369 12.6715C13.7189 12.9139 13.7492 13.2169 13.5369 13.3684C12.9607 13.823 11.9903 14.6715 11.4444 15.126Z" fill="white" fill-opacity="0.7"/>
</svg>
