<svg width="36" height="23" viewBox="0 0 36 23" fill="none" xmlns="http://www.w3.org/2000/svg">
<path d="M1.9318 0H34.1318C35.148 0 35.9718 0.823814 35.9718 1.84V21.16C35.9718 22.1762 35.148 23 34.1318 23H1.9318C0.915611 23 0.0917969 22.1762 0.0917969 21.16V1.84C0.0917969 0.823814 0.915611 0 1.9318 0Z" fill="#2557D6"/>
<path d="M0.103746 10.8424H1.82603L2.21436 9.94498H3.08376L3.47108 10.8424H6.85981V10.1564L7.16231 10.8454H8.92148L9.22398 10.1461V10.8425H17.6457L17.6418 9.36929H17.8047C17.9187 9.37311 17.9521 9.38319 17.9521 9.56369V10.8425H22.3078V10.4996C22.6592 10.6799 23.2056 10.8425 23.9246 10.8425H25.757L26.1492 9.94503H27.0186L27.4021 10.8425H30.9333V9.99002L31.4681 10.8425H34.2977V5.20703H31.4973V5.87256L31.1053 5.20703H28.2316V5.87256L27.8715 5.20703H23.99C23.3404 5.20703 22.7692 5.29393 22.3078 5.53607V5.20703H19.6293V5.53607C19.3357 5.28647 18.9357 5.20703 18.4908 5.20703H8.70478L8.04817 6.66252L7.37386 5.20703H4.29163V5.87256L3.95298 5.20703H1.32431L0.103516 7.88635V10.8424H0.103654L0.103746 10.8424ZM10.9754 10.0296H9.94204L9.93822 6.8651L8.47657 10.0296H7.59153L6.12606 6.86229V10.0296H4.07584L3.68852 9.12835H1.58968L1.19845 10.0296H0.103608L1.90869 5.98908H3.40641L5.12078 9.81462V5.98908H6.76602L8.0852 8.73008L9.29703 5.98908H10.9753L10.9754 10.0296ZM3.34399 8.28977L2.65408 6.67898L1.96799 8.28977H3.34399ZM15.0878 10.0295H11.7204V5.98903H15.0878V6.83042H12.7285V7.55873H15.0312V8.38696H12.7284V9.1939H15.0877L15.0878 10.0295ZM19.8331 7.07725C19.8331 7.72144 19.3844 8.05429 19.1229 8.1542C19.3435 8.23461 19.5319 8.37675 19.6216 8.49447C19.7639 8.69544 19.7885 8.87493 19.7885 9.2358V10.0295H18.7717L18.7679 9.51999C18.7679 9.27688 18.7922 8.92723 18.6088 8.73284C18.4615 8.5907 18.237 8.55988 17.8741 8.55988H16.792V10.0296H15.7839V5.98903H18.1024C18.6175 5.98903 18.9971 6.00205 19.323 6.18255C19.6419 6.36306 19.8331 6.62654 19.8331 7.07725ZM18.559 7.67719C18.4204 7.75778 18.2566 7.76044 18.0603 7.76044H16.8358V6.86298H18.077C18.2526 6.86298 18.4359 6.87053 18.555 6.93585C18.6858 6.99473 18.7667 7.11999 18.7667 7.29304C18.7667 7.46968 18.6897 7.61177 18.559 7.67719ZM21.4498 10.0295H20.4213V5.98903H21.4498V10.0295ZM33.3896 10.0295H31.9611L30.0505 6.99689V10.0295H27.9976L27.6054 9.1283H25.5114L25.131 10.0295H23.9512C23.4613 10.0295 22.8408 9.92571 22.4896 9.58264C22.1354 9.23957 21.951 8.77488 21.951 8.04012C21.951 7.44088 22.0612 6.89307 22.4944 6.46016C22.8203 6.1377 23.3307 5.98903 24.0253 5.98903H25.0012V6.8548H24.0457C23.6778 6.8548 23.47 6.90724 23.27 7.09414C23.0982 7.26429 22.9803 7.58588 22.9803 8.0094C22.9803 8.44226 23.0701 8.75441 23.2574 8.95828C23.4125 9.11818 23.6947 9.16666 23.9599 9.16666H24.4126L25.8333 5.98917H27.3437L29.0504 9.81089V5.98922H30.5852L32.3571 8.80322V5.98922H33.3896V10.0295ZM27.2624 8.28981L26.5648 6.67903L25.8711 8.28981H27.2624ZM35.9582 16.4815C35.7134 16.8245 35.2363 16.9984 34.5904 16.9984H32.6437V16.1318H34.5824C34.7748 16.1318 34.9093 16.1076 34.9904 16.0317C35.067 15.9639 35.1102 15.8683 35.1096 15.7682C35.1096 15.6504 35.0606 15.5569 34.9864 15.5009C34.9133 15.4392 34.8068 15.4112 34.6312 15.4112C33.6848 15.3804 32.504 15.4392 32.504 14.1603C32.504 13.5742 32.8924 12.9571 33.9502 12.9571H35.958V12.1531H34.0924C33.5295 12.1531 33.1205 12.2823 32.8309 12.4831V12.153H30.0715C29.6302 12.153 29.1123 12.2579 28.8673 12.4831V12.153H23.9398V12.4831C23.5477 12.212 22.886 12.153 22.5805 12.153H19.3304V12.4831C19.0201 12.1952 18.3302 12.153 17.9096 12.153H14.2721L13.4397 13.0162L12.6601 12.153H7.22611V17.7922H12.5575L13.4152 16.9153L14.2232 17.7922L17.5095 17.795V16.4684H17.8325C18.2685 16.4749 18.7829 16.4579 19.2366 16.2701V17.792H21.9473V16.3222H22.078C22.2449 16.3222 22.2613 16.3288 22.2613 16.4885V17.7918H30.4958C31.0185 17.7918 31.565 17.6636 31.8677 17.4309V17.7918H34.4795C35.023 17.7918 35.5538 17.7188 35.9577 17.5319L35.9578 16.4813L35.9582 16.4815ZM19.631 14.3124C19.631 15.435 18.7567 15.6668 17.8757 15.6668H16.6179V17.0224H14.6587L13.4174 15.6844L12.1275 17.0224H8.13461V12.9809H12.1888L13.429 14.3056L14.7113 12.9809H17.9322C18.7321 12.9809 19.631 13.1931 19.631 14.3124ZM11.6169 16.1723H9.13847V15.3682H11.3515V14.5436H9.13847V13.8088H11.6657L12.7682 14.9866L11.6169 16.1723ZM15.6101 16.6351L14.0625 14.9888L15.6101 13.3949V16.6351ZM17.8989 14.838H16.5963V13.8088H17.9106C18.2746 13.8088 18.5272 13.951 18.5272 14.3044C18.5272 14.6539 18.2863 14.838 17.8989 14.838ZM24.7235 12.9809H28.0878V13.8167H25.7274V14.5515H28.0302V15.3761H25.7274V16.1801L28.0878 16.1838V17.0224H24.7234L24.7235 12.9809ZM23.43 15.1442C23.6544 15.2236 23.8378 15.3658 23.9238 15.4835C24.0662 15.6809 24.0867 15.865 24.0908 16.2212V17.0224H23.0787V16.5168C23.0787 16.2736 23.1031 15.9136 22.9158 15.7257C22.7685 15.5809 22.544 15.5463 22.1763 15.5463H21.099V17.0225H20.0861V12.9809H22.4134C22.9237 12.9809 23.2953 13.0026 23.6262 13.1717C23.9443 13.3558 24.1444 13.6081 24.1444 14.0692C24.1444 14.7142 23.6953 15.0433 23.43 15.1442ZM22.8603 14.6333C22.7254 14.71 22.5587 14.7166 22.3627 14.7166H21.1381V13.8089H22.3792C22.5587 13.8089 22.7384 13.8126 22.8603 13.8819C22.9909 13.9474 23.0691 14.0727 23.0691 14.2455C23.0691 14.4183 22.9909 14.5576 22.8603 14.6333ZM31.96 14.8908C32.1564 15.0853 32.2615 15.331 32.2615 15.747C32.2615 16.6164 31.6947 17.0222 30.678 17.0222H28.7147V16.1556H30.6701C30.8614 16.1556 30.9969 16.1314 31.0818 16.0555C31.1512 15.9931 31.2009 15.9022 31.2009 15.792C31.2009 15.6742 31.1471 15.5808 31.0779 15.5247C31.0008 15.4631 30.8945 15.435 30.719 15.435C29.7763 15.4042 28.5957 15.4631 28.5957 14.1842C28.5957 13.598 28.9801 12.9809 30.0369 12.9809H32.0578V13.8411H30.2087C30.0254 13.8411 29.9062 13.8478 29.8048 13.9141C29.6944 13.9796 29.6535 14.0767 29.6535 14.2048C29.6535 14.3573 29.7472 14.461 29.8741 14.5059C29.9804 14.5413 30.0946 14.5517 30.2663 14.5517L30.8089 14.5658C31.3561 14.5785 31.7317 14.6692 31.96 14.8908ZM35.96 13.8088H34.1228C33.9395 13.8088 33.8175 13.8155 33.7149 13.8818C33.6086 13.9473 33.5676 14.0444 33.5676 14.1727C33.5676 14.3251 33.6574 14.4288 33.788 14.4737C33.8944 14.5091 34.0086 14.5195 34.1764 14.5195L34.7228 14.5335C35.2741 14.5465 35.642 14.6374 35.8664 14.8588C35.9074 14.8896 35.9318 14.9242 35.9599 14.9588V13.8088H35.96Z" fill="white"/>
</svg>
