<svg width="19" height="19" viewBox="0 0 19 19" fill="none" xmlns="http://www.w3.org/2000/svg">
<g clip-path="url(#clip0_145_2818)">
<path d="M8.80512 16.299H1.61638V6.6875H0.292969V17.6224H8.80512V16.299Z" fill="white"/>
<path d="M17.054 16.299H9.86523V17.6224H18.3774V6.6875H17.054V16.299Z" fill="white"/>
<path d="M2.67578 4.2463V12.7932C3.25786 12.7432 4.19176 12.704 5.20915 12.8222C6.25844 12.9441 7.16123 13.2089 7.90178 13.606C7.4814 12.9598 6.9522 12.452 6.31683 12.0875C5.37668 11.5482 4.53475 11.5336 4.52634 11.5335H3.99654L3.99919 4.19459C3.46077 4.18689 2.99426 4.21663 2.67578 4.2463Z" fill="white"/>
<path d="M10.3359 15.2402H15.9945V13.8588C14.8561 13.7542 11.8313 13.6483 10.3359 15.2402Z" fill="white"/>
<path d="M2.67578 13.8588V15.2402H8.33438C6.83904 13.6482 3.81422 13.7542 2.67578 13.8588Z" fill="white"/>
<path d="M9.86523 6.28507V14.2257C10.722 13.4777 11.9373 12.9996 13.461 12.8226C14.4785 12.7044 15.4124 12.7437 15.9944 12.7937V4.24748C14.7181 4.13033 11.0697 4.0107 9.86523 6.28507Z" fill="white"/>
<path d="M6.31663 2.47623C5.84016 2.20288 5.38887 2.06432 5.05859 1.99414V10.5273C5.48148 10.5975 6.11269 10.7601 6.78804 11.137C7.42285 11.4912 8.17429 12.0826 8.80475 13.0608V6.21959C8.39518 4.44804 7.55841 3.18853 6.31663 2.47623Z" fill="white"/>
</g>
<defs>
<clipPath id="clip0_145_2818">
<rect width="18.0839" height="18.0839" fill="white" transform="translate(0.292969 0.765625)"/>
</clipPath>
</defs>
</svg>
