<svg width="14" height="15" viewBox="0 0 14 15" fill="none" xmlns="http://www.w3.org/2000/svg">
<g clip-path="url(#clip0_145_1547)">
<mask id="mask0_145_1547" style="mask-type:luminance" maskUnits="userSpaceOnUse" x="0" y="0" width="14" height="15">
<path d="M14 0.287109H0V14.2871H14V0.287109Z" fill="white"/>
</mask>
<g mask="url(#mask0_145_1547)">
<path d="M11.375 2.47461H2.625C1.90013 2.47461 1.3125 3.06224 1.3125 3.78711V11.6621C1.3125 12.387 1.90013 12.9746 2.625 12.9746H11.375C12.0999 12.9746 12.6875 12.387 12.6875 11.6621V3.78711C12.6875 3.06224 12.0999 2.47461 11.375 2.47461Z" stroke="#444444" stroke-width="0.75" stroke-linejoin="round"/>
<path d="M8.09375 7.28711C8.45619 7.28711 8.75 6.9933 8.75 6.63086C8.75 6.26842 8.45619 5.97461 8.09375 5.97461C7.73131 5.97461 7.4375 6.26842 7.4375 6.63086C7.4375 6.9933 7.73131 7.28711 8.09375 7.28711Z" fill="#444444"/>
<path d="M10.2812 7.28711C10.6437 7.28711 10.9375 6.9933 10.9375 6.63086C10.9375 6.26842 10.6437 5.97461 10.2812 5.97461C9.91881 5.97461 9.625 6.26842 9.625 6.63086C9.625 6.9933 9.91881 7.28711 10.2812 7.28711Z" fill="#444444"/>
<path d="M8.09375 9.47461C8.45619 9.47461 8.75 9.1808 8.75 8.81836C8.75 8.45592 8.45619 8.16211 8.09375 8.16211C7.73131 8.16211 7.4375 8.45592 7.4375 8.81836C7.4375 9.1808 7.73131 9.47461 8.09375 9.47461Z" fill="#444444"/>
<path d="M10.2812 9.47461C10.6437 9.47461 10.9375 9.1808 10.9375 8.81836C10.9375 8.45592 10.6437 8.16211 10.2812 8.16211C9.91881 8.16211 9.625 8.45592 9.625 8.81836C9.625 9.1808 9.91881 9.47461 10.2812 9.47461Z" fill="#444444"/>
<path d="M3.71875 9.47461C4.08119 9.47461 4.375 9.1808 4.375 8.81836C4.375 8.45592 4.08119 8.16211 3.71875 8.16211C3.35631 8.16211 3.0625 8.45592 3.0625 8.81836C3.0625 9.1808 3.35631 9.47461 3.71875 9.47461Z" fill="#444444"/>
<path d="M5.90625 9.47461C6.26869 9.47461 6.5625 9.1808 6.5625 8.81836C6.5625 8.45592 6.26869 8.16211 5.90625 8.16211C5.54381 8.16211 5.25 8.45592 5.25 8.81836C5.25 9.1808 5.54381 9.47461 5.90625 9.47461Z" fill="#444444"/>
<path d="M3.71875 11.6621C4.08119 11.6621 4.375 11.3683 4.375 11.0059C4.375 10.6434 4.08119 10.3496 3.71875 10.3496C3.35631 10.3496 3.0625 10.6434 3.0625 11.0059C3.0625 11.3683 3.35631 11.6621 3.71875 11.6621Z" fill="#444444"/>
<path d="M5.90625 11.6621C6.26869 11.6621 6.5625 11.3683 6.5625 11.0059C6.5625 10.6434 6.26869 10.3496 5.90625 10.3496C5.54381 10.3496 5.25 10.6434 5.25 11.0059C5.25 11.3683 5.54381 11.6621 5.90625 11.6621Z" fill="#444444"/>
<path d="M8.09375 11.6621C8.45619 11.6621 8.75 11.3683 8.75 11.0059C8.75 10.6434 8.45619 10.3496 8.09375 10.3496C7.73131 10.3496 7.4375 10.6434 7.4375 11.0059C7.4375 11.3683 7.73131 11.6621 8.09375 11.6621Z" fill="#444444"/>
<path d="M3.5 1.59961V2.47461M10.5 1.59961V2.47461" stroke="#444444" stroke-width="0.75" stroke-linecap="round" stroke-linejoin="round"/>
<path d="M12.6875 4.66211H1.3125" stroke="#444444" stroke-width="0.75" stroke-linejoin="round"/>
</g>
</g>
<defs>
<clipPath id="clip0_145_1547">
<rect width="14" height="14" fill="white" transform="translate(0 0.287109)"/>
</clipPath>
</defs>
</svg>
