<svg width="22" height="23" viewBox="0 0 22 23" fill="none" xmlns="http://www.w3.org/2000/svg">
<g clip-path="url(#clip0_145_350)">
<path d="M5.92977 22.0957H0.00012207V19.6465C0.00012207 19.4804 0.134786 19.3457 0.300903 19.3457H5.92977V22.0957Z" fill="#FFF292"/>
<path d="M0.885328 19.3457V22.0959H0V19.6465C0 19.4804 0.134664 19.3457 0.300781 19.3457H0.885328Z" fill="#F9E77D"/>
<path d="M11.4298 22.0957H5.50012V16.8965C5.50012 16.7304 5.63479 16.5957 5.8009 16.5957H11.4298V22.0957Z" fill="#AEE69C"/>
<path d="M6.38533 16.5957V22.0957H5.5V16.8965C5.5 16.7304 5.63466 16.5957 5.80078 16.5957H6.38533Z" fill="#89DAA4"/>
<path d="M16.9296 22.0957H11V14.1465C11 13.9804 11.1347 13.8457 11.3008 13.8457H16.9296V22.0957Z" fill="#9BD8F9"/>
<path d="M11.8853 13.8457V22.0959H11V14.1465C11 13.9804 11.1347 13.8457 11.3008 13.8457H11.8853Z" fill="#73C3F9"/>
<path d="M10.188 6.97066H14.8099C14.9761 6.97066 15.1107 6.836 15.1107 6.66988V2.8457H10.188C9.94777 2.8457 9.80447 3.11344 9.93776 3.31333L11.001 4.9082L9.93776 6.50307C9.80447 6.70292 9.94777 6.97066 10.188 6.97066Z" fill="#F25A74"/>
<path d="M11.8862 4.90803L10.5113 6.97036H10.188C9.94777 6.97036 9.80447 6.70262 9.93776 6.50273L11.0009 4.90803L9.93776 3.31333C9.80451 3.11344 9.94777 2.8457 10.188 2.8457H10.5113L11.8862 4.90803Z" fill="#E83D5A"/>
<path d="M14.0508 5.59566H18.9921V1.4707H14.0508C13.8847 1.4707 13.75 1.60537 13.75 1.77148V5.29488C13.75 5.461 13.8847 5.59566 14.0508 5.59566Z" fill="#F25A74"/>
<path d="M14.6353 1.4707V5.59583H14.0508C13.8847 5.59583 13.75 5.46117 13.75 5.29505V1.77148C13.75 1.60537 13.8847 1.4707 14.0508 1.4707H14.6353Z" fill="#E83D5A"/>
<path d="M19.9375 11.5288H18.5625V0.396484C18.5625 0.230367 18.6972 0.0957031 18.8633 0.0957031H19.6367C19.8028 0.0957031 19.9375 0.230367 19.9375 0.396484V11.5288Z" fill="#46778C"/>
<path d="M19.2265 0.0957031V11.5289H18.5625V0.396484C18.5625 0.230367 18.6972 0.0957031 18.8633 0.0957031H19.2265Z" fill="#3A6684"/>
<path d="M22 22.0956H16.5V11.3965C16.5 11.2304 16.6347 11.0957 16.8008 11.0957H21.6992C21.8653 11.0957 22 11.2304 22 11.3965V22.0956Z" fill="#F9D264"/>
<path d="M17.3853 11.0957V22.0957H16.5V11.3965C16.5 11.2304 16.6347 11.0957 16.8008 11.0957H17.3853Z" fill="#EFC356"/>
</g>
<defs>
<clipPath id="clip0_145_350">
<rect width="22" height="22" fill="white" transform="translate(0 0.0957031)"/>
</clipPath>
</defs>
</svg>
