<svg width="12" height="14" viewBox="0 0 12 14" fill="none" xmlns="http://www.w3.org/2000/svg">
<path d="M8.16649 5.73567C7.39139 5.73567 6.61684 5.50601 5.84661 5.04723C5.60721 4.90424 5.45825 4.63775 5.45825 4.35067V2.7566C5.45825 2.60711 5.57958 2.48578 5.72908 2.48578C5.87857 2.48578 5.9999 2.60711 5.9999 2.7566V4.35067C5.9999 4.446 6.04865 4.53646 6.12394 4.58141C7.49864 5.40147 8.83434 5.40147 10.2085 4.58141C10.2843 4.53646 10.3331 4.446 10.3331 4.35067V2.7566C10.3331 2.60711 10.4544 2.48578 10.6039 2.48578C10.7534 2.48578 10.8747 2.60711 10.8747 2.7566V4.35067C10.8747 4.6372 10.7258 4.90369 10.4858 5.04669C9.71615 5.50601 8.94159 5.73567 8.16649 5.73567Z" fill="#fff"/>
<path d="M8.16629 4.11043C8.12783 4.11043 8.08884 4.10176 8.05309 4.08551L4.53238 2.46057C4.43596 2.41616 4.37476 2.32028 4.37476 2.21466C4.37476 2.10904 4.43596 2.01317 4.53238 1.96875L8.05309 0.343811C8.12513 0.310771 8.208 0.310771 8.28004 0.343811L11.8007 1.96875C11.8966 2.01317 11.9578 2.10904 11.9578 2.21466C11.9578 2.32028 11.8966 2.41616 11.8002 2.46057L8.2795 4.08551C8.24375 4.10176 8.20475 4.11043 8.16629 4.11043ZM5.29177 2.21466L8.16629 3.54116L11.0408 2.21466L8.16629 0.888167L5.29177 2.21466Z" fill="#fff"/>
<path d="M0.312572 10.0687C0.163077 10.0687 0.041748 9.94736 0.041748 9.79787V1.67315C0.041748 0.926218 0.649477 0.319031 1.39587 0.319031H4.64575C4.79525 0.319031 4.91658 0.44036 4.91658 0.589855C4.91658 0.739349 4.79525 0.860679 4.64575 0.860679H1.39587C0.947925 0.860679 0.583396 1.22521 0.583396 1.67315V9.79787C0.583396 9.94736 0.462067 10.0687 0.312572 10.0687Z" fill="#fff"/>
<path d="M3.56246 11.152H1.39587C0.649477 11.152 0.041748 10.5448 0.041748 9.79785C0.041748 9.05092 0.649477 8.44373 1.39587 8.44373H9.24976V7.08961C9.24976 6.94012 9.37109 6.81879 9.52059 6.81879C9.67008 6.81879 9.79141 6.94012 9.79141 7.08961V8.71455C9.79141 8.86405 9.67008 8.98538 9.52059 8.98538H1.39587C0.947925 8.98538 0.583396 9.34991 0.583396 9.79785C0.583396 10.2458 0.947925 10.6103 1.39587 10.6103H3.56246C3.71195 10.6103 3.83328 10.7317 3.83328 10.8811C3.83328 11.0306 3.71195 11.152 3.56246 11.152Z" fill="#fff"/>
<path d="M9.52047 11.1521H6.27058C6.12108 11.1521 5.99976 11.0308 5.99976 10.8813C5.99976 10.7318 6.12108 10.6105 6.27058 10.6105H9.24964V8.71473C9.24964 8.56524 9.37097 8.44391 9.52047 8.44391C9.66996 8.44391 9.79129 8.56524 9.79129 8.71473V10.8813C9.79129 11.0308 9.66996 11.1521 9.52047 11.1521Z" fill="#fff"/>
<path d="M6.27106 13.3188C6.21093 13.3188 6.15081 13.2988 6.10152 13.2598L4.91694 12.3119L3.73181 13.2598C3.65056 13.3248 3.53953 13.3372 3.44528 13.2923C3.35157 13.2468 3.29199 13.152 3.29199 13.048V9.79811C3.29199 9.64861 3.41332 9.52728 3.56282 9.52728C3.71231 9.52728 3.83364 9.64861 3.83364 9.79811V12.4847L4.74794 11.7529C4.84706 11.6738 4.98735 11.6738 5.08647 11.7529L6.00023 12.4847V9.79811C6.00023 9.64861 6.12156 9.52728 6.27106 9.52728C6.42055 9.52728 6.54188 9.64861 6.54188 9.79811V13.048C6.54188 13.152 6.4823 13.2468 6.38859 13.2917C6.35122 13.3096 6.31114 13.3188 6.27106 13.3188Z" fill="#fff"/>
<path d="M7.35415 10.0689H2.47932C2.32983 10.0689 2.2085 9.9476 2.2085 9.79811C2.2085 9.64861 2.32983 9.52728 2.47932 9.52728H7.35415C7.50365 9.52728 7.62498 9.64861 7.62498 9.79811C7.62498 9.9476 7.50365 10.0689 7.35415 10.0689Z" fill="#fff"/>
</svg>
