<svg width="14" height="15" viewBox="0 0 14 15" fill="none" xmlns="http://www.w3.org/2000/svg">
<g clip-path="url(#clip0_145_1536)">
<mask id="mask0_145_1536" style="mask-type:luminance" maskUnits="userSpaceOnUse" x="0" y="0" width="14" height="15">
<path d="M14 0.287109H0V14.2871H14V0.287109Z" fill="white"/>
</mask>
<g mask="url(#mask0_145_1536)">
<path d="M7 13.4121C3.6225 13.4121 0.875 10.6646 0.875 7.28711C0.875 3.90961 3.6225 1.16211 7 1.16211C10.3775 1.16211 13.125 3.90961 13.125 7.28711C13.125 10.6646 10.3775 13.4121 7 13.4121ZM7 2.03711C4.10375 2.03711 1.75 4.39086 1.75 7.28711C1.75 10.1834 4.10375 12.5371 7 12.5371C9.89625 12.5371 12.25 10.1834 12.25 7.28711C12.25 4.39086 9.89625 2.03711 7 2.03711Z" fill="#444444"/>
<path d="M8.75001 9.47461C8.67126 9.47461 8.59251 9.45711 8.52251 9.41336L6.33501 8.10086C6.27051 8.0616 6.21728 8.00631 6.18048 7.94038C6.14368 7.87445 6.12457 7.80011 6.12501 7.72461V4.22461C6.12501 3.97961 6.31751 3.78711 6.56251 3.78711C6.80751 3.78711 7.00001 3.97961 7.00001 4.22461V7.47961L8.97751 8.66086C9.05896 8.71078 9.12191 8.7859 9.15683 8.87482C9.19175 8.96374 9.19672 9.06163 9.171 9.15363C9.14528 9.24564 9.09026 9.32675 9.01429 9.38467C8.93832 9.44259 8.84554 9.47417 8.75001 9.47461Z" fill="#444444"/>
</g>
</g>
<defs>
<clipPath id="clip0_145_1536">
<rect width="14" height="14" fill="white" transform="translate(0 0.287109)"/>
</clipPath>
</defs>
</svg>
