<svg width="19" height="22" viewBox="0 0 19 22" fill="none" xmlns="http://www.w3.org/2000/svg">
<path d="M8.99467 4.41715C4.03497 4.41715 0 8.36099 0 13.2086C0 18.0562 4.03497 22 8.99467 22C13.9544 22 17.9893 18.0562 17.9893 13.2086C17.9893 8.36099 13.9544 4.41715 8.99467 4.41715ZM8.99467 20.2846C5.00275 20.2846 1.75506 17.1103 1.75506 13.2086C1.75506 9.30686 5.00275 6.13255 8.99467 6.13255C12.9866 6.13255 16.2343 9.30686 16.2343 13.2086C16.2343 17.1103 12.9866 20.2846 8.99467 20.2846ZM6.3197 2.5731C6.3197 1.15429 7.50068 0 8.95228 0C10.4039 0 11.5849 1.15193 11.5849 2.56787C11.5849 3.04157 11.192 3.42557 10.7073 3.42557C10.2227 3.42557 9.82981 3.04157 9.82981 2.56787C9.82981 2.09781 9.43615 1.7154 8.95228 1.7154C8.46842 1.7154 8.07476 2.10016 8.07476 2.5731C8.07476 3.04681 7.68189 3.4308 7.19723 3.4308C6.71257 3.4308 6.3197 3.04681 6.3197 2.5731ZM18.743 6.86919C18.5716 7.03661 18.3471 7.12037 18.1225 7.12037C17.8979 7.12037 17.6733 7.03661 17.502 6.86919L15.3081 4.72494C14.9654 4.38997 14.9654 3.84687 15.3081 3.51194C15.6509 3.17705 16.2065 3.17705 16.5491 3.51194L18.743 5.65619C19.0857 5.99112 19.0857 6.53421 18.743 6.86919ZM11.6218 9.42784L9.06781 11.9241C9.04359 11.9228 9.0192 11.922 8.99463 11.922C8.26768 11.922 7.67833 12.498 7.67833 13.2086C7.67833 13.9191 8.26768 14.4951 8.99463 14.4951C9.72157 14.4951 10.3109 13.9191 10.3109 13.2086C10.3109 13.1846 10.3101 13.1608 10.3088 13.1371L12.8628 10.6408C13.2055 10.3059 13.2055 9.76277 12.8628 9.42784C12.5201 9.0929 11.9644 9.09295 11.6218 9.42784Z" fill="#222222"/>
</svg>
