<svg width="156" height="312" viewBox="0 0 156 312" fill="none" xmlns="http://www.w3.org/2000/svg">
<path d="M54.0547 46.4848C49.7935 44.532 51.2761 39.4556 49.8111 39.5771C48.3461 39.6986 49.4589 42.7677 48.4025 42.169C47.4939 41.6513 46.58 40.1723 43.9881 38.3498C42.0512 36.9905 39.5649 42.7343 41.3116 45.2311C43.3454 48.1382 46.3846 46.6908 50.8359 50.9361C53.6655 53.639 54.0547 46.4848 54.0547 46.4848Z" fill="#F9E3E1"/>
<path d="M101.404 62.6229L107.164 60.7353C107.102 58.0659 104.019 52.588 103.495 50.2179C102.92 47.6189 99.5925 45.3457 99.5925 45.3457L97.8705 50.9293L98.0131 51.3853C98.0131 51.3853 98.6575 55.9634 97.9391 58.094C97.5289 59.3143 97.8828 61.0733 96.6872 62.9645C95.7945 64.3801 101.404 62.6229 101.404 62.6229Z" fill="#F9E3E1"/>
<path d="M94.9506 52.7337C98.1834 53.991 102.619 53.3236 103.874 51.9502C103.926 51.8948 103.975 51.836 104.019 51.7741C104.679 50.8021 105.491 48.4814 105.979 46.9741C106.239 46.1641 106.408 45.5901 106.408 45.5901L98.3084 42.8027C98.2908 42.845 98.2697 42.8873 98.2486 42.9313C97.87 43.7008 97.1146 44.6322 96.4314 45.4968C95.4277 46.7751 94.5826 47.9073 95.3556 48.1768C96.6814 48.631 93.5613 52.1932 94.9506 52.7337Z" fill="#F9E3E1"/>
<path d="M97.8526 42.6953C97.9812 42.7728 98.115 42.8502 98.2506 42.926C98.5024 43.0651 98.7612 43.2006 99.0148 43.338C100.339 44.0652 98.6714 44.648 99.2983 45.2749C99.9251 45.9017 100.047 45.6605 101.165 45.9141C101.682 46.0285 102.119 46.2134 102.221 46.5233C102.323 46.8332 102.101 47.2276 101.362 47.7981C99.8459 48.9691 101.397 49.4586 102.503 48.9673C103.538 48.506 103.931 47.7541 104.616 48.7912C105.063 49.478 103.468 51.156 103.869 51.9431C104.222 52.6175 110.148 50.0925 108.882 47.4847C108.833 47.386 108.789 47.2843 108.752 47.1801C108.621 46.8234 108.564 46.4433 108.587 46.0637C108.671 44.5934 109.793 43.4225 108.669 41.6863C107.882 40.4731 106.132 41.1387 105.465 40.8341C104.357 40.327 104.76 39.6279 103.503 39.1155C101.892 38.464 100.918 39.2916 100.158 38.8356C98.9778 38.1189 97.1906 37.9094 96.5884 40.3147C96.2978 41.4962 96.9687 42.153 97.8526 42.6953Z" fill="#191939"/>
<path d="M113.664 209.974C113.388 207.379 112.576 200.836 112.576 200.836L119.732 200.547L120.393 210.392L115.667 213.561L113.664 209.974Z" fill="white"/>
<path d="M80.9459 174.169C82.6821 176.013 83.7949 177.127 83.7949 177.127C84.6489 178.478 85.9748 178.587 87.2954 177.867C87.5933 177.702 87.8751 177.51 88.1371 177.293C88.9386 176.619 89.6151 175.81 90.1356 174.901C90.5086 174.264 90.8194 173.593 91.0636 172.896C91.2859 172.266 91.4515 171.618 91.5584 170.959C91.1851 170.008 90.0881 168.388 88.6354 166.423C87.343 164.676 85.7688 162.66 84.1718 160.612C79.8577 155.05 75.3677 149.183 75.836 147.526C76.7164 144.379 85.6491 139.233 93.0357 135.445C98.3639 132.718 102.886 130.691 102.995 130.649C103.898 139.511 104.594 147.51 105.208 153.842C105.265 154.439 105.323 155.018 105.384 155.584C105.696 158.716 105.99 161.375 106.286 163.447C107.342 170.919 108.263 178.631 109.022 185.343C109.115 186.158 109.205 186.957 109.292 187.741C110.348 197.215 111.061 204.205 111.368 204.783C112.584 207.072 121.205 207.572 121.425 205.556C121.501 204.851 121.057 197.399 120.545 188.608L120.385 185.854C119.876 177.118 119.342 167.657 119.193 162.423C119.148 160.14 119.224 157.858 119.422 155.584C119.477 154.879 119.541 154.169 119.614 153.453C120.63 143.298 123.1 131.946 123.57 127.955C123.736 126.546 123.857 125.276 123.949 124.102C124.211 120.726 124.234 117.335 124.016 113.956C123.931 112.343 123.839 110.875 123.866 109.288C123.884 108.018 123.836 106.748 123.721 105.483C122.804 95.2702 95.4005 105.992 95.4005 105.992C91.9317 117.59 62.894 132.066 61.0205 143.552C59.8214 150.817 74.5753 167.402 80.9459 174.169Z" fill="#A7A7A7"/>
<path opacity="0.46" d="M107.918 124.019C107.918 124.025 107.918 124.03 107.918 124.035C107.889 124.018 107.861 123.999 107.835 123.979C107.863 123.99 107.891 124.004 107.918 124.019Z" fill="#1F1F3B"/>
<path opacity="0.35" d="M124.119 121.008C123.87 120.954 112.348 118.497 110.789 112.732C110.789 112.732 120.807 113.593 124.011 113.937C124.145 116.566 124.212 119.519 124.119 121.008Z" fill="#1F1F3B"/>
<path d="M106.158 56.2188C103.567 55.5145 103.316 59.795 100.699 60.0011C99.3204 60.1102 99.625 59.5098 98.9735 58.8741C98.5738 58.4832 98.1618 58.0113 97.5649 58.698C85.9082 72.0169 98.0931 105.258 96.4573 107.584C95.1155 109.487 106.02 113.639 112.87 111.968C122.262 109.679 121.692 99.4768 121.42 97.5294C121.149 95.5819 115.097 62.4662 115.097 62.4662C115.097 62.4662 110.343 59.9482 106.158 56.2188Z" fill="white"/>
<path d="M69.1998 63.8248C75.095 66.3515 84.8922 67.364 88.155 70.4225C91.9936 74.0217 91.615 91.3516 91.5146 93.2163C91.3386 96.4298 92.1626 111.62 92.1626 111.62C96.6369 116.903 100.947 113.964 100.504 107.747C100.537 101.408 98.8484 95.9491 99.5809 88.9657C100.285 78.6209 95.4606 72.5003 97.4838 63.5184C97.6423 61.5709 97.6933 59.8717 97.5701 58.7061C93.073 58.4349 76.2783 56.1546 72.1386 54.7741C67.9989 53.3937 56.7526 46.8188 53.7838 44.697C52.5231 43.7972 47.8446 50.0957 49.6441 51.3564C54.1342 54.4907 64.1603 61.6642 69.1998 63.8248Z" fill="url(#paint0_linear_145_749)"/>
<path d="M106.121 83.3545C106.528 88.438 108.437 95.7613 109.668 99.8464C111.886 107.208 112.485 109.196 115.478 112.348C116.034 112.934 116.633 113.475 117.273 113.968C120.729 116.634 127.396 120.332 130.393 116.666C131.769 114.981 128.876 112.672 127.646 109.799C127.2 108.76 126.69 107.629 126.168 106.453C125.004 103.812 123.791 100.922 123.175 98.2282C122.412 94.9231 121.798 91.9368 121.833 90.1196C121.854 89.0085 121.886 88.0894 121.919 87.2776C121.949 86.5592 121.979 85.9236 122.009 85.3073C122.081 83.7648 122.136 82.3544 122.09 80.097C122.067 78.9912 122.022 77.6829 121.946 76.0559C121.706 71.094 120.289 64.3095 118.035 61.9694C112.673 56.3788 106.158 56.2168 106.158 56.2168C105.917 59.2736 105.253 72.5449 106.121 83.3545Z" fill="url(#paint1_linear_145_749)"/>
<path opacity="0.24" d="M123.434 99.5717C118.024 94.7312 117.392 80.6816 117.392 80.6816L121.923 86.8075C121.891 87.6193 121.858 88.5367 121.838 89.6495C121.803 91.4667 122.669 96.2666 123.434 99.5717Z" fill="#1F1F3B"/>
<path opacity="0.2" d="M117.278 113.974H117.287C118.085 114.478 125.295 110.981 127.66 109.798C127.215 108.759 126.704 107.628 126.183 106.452L126.164 106.426L117.28 113.971L117.278 113.974Z" fill="#1F1F3B"/>
<path opacity="0.4" d="M105.204 153.818C105.26 154.415 105.318 154.994 105.38 155.559H119.414C119.469 154.855 119.533 154.145 119.605 153.429L118.984 151.758L105.47 152.663L105.204 153.818Z" fill="#1F1F3B"/>
<path opacity="0.55" d="M85.028 170.975C85.4101 173.699 83.7955 177.138 83.7955 177.138C84.6495 178.488 85.9754 178.597 87.296 177.877C87.2113 177.951 87.1192 178.016 87.0213 178.071C86.9596 178.405 87.2132 178.814 87.4368 179.069C87.0477 179.321 86.8223 179.722 87.1216 180.272C87.4431 180.86 87.7101 181.475 87.9193 182.112L88.0285 179.715L88.0707 178.814L88.1376 177.303V177.173L88.6289 166.432L84.1652 160.621L85.028 170.975Z" fill="#1F1F3B"/>
<path opacity="0.4" d="M86.5844 122.155H102.99C102.99 122.155 106.601 124.037 109.162 123.365C111.722 122.692 114.611 122.836 114.611 122.836L122.551 123.513L121.757 120.394L87.456 120.016L86.5844 122.155Z" fill="#1F1F3B"/>
<path opacity="0.4" d="M109.016 185.319C109.109 186.134 109.199 186.933 109.285 187.717L120.535 188.584L120.375 185.83L119.938 184.219L109.016 185.319Z" fill="#1F1F3B"/>
<path d="M83.7955 88.1938V299.492H87.0195V88.1092C87.0195 88.0547 87.009 88.0001 87.0019 87.9472C86.9811 87.8167 86.9451 87.689 86.8945 87.5669C86.8734 87.5176 86.8505 87.4701 86.8258 87.4243C86.7512 87.2884 86.6575 87.1639 86.5476 87.0545C86.5116 87.0176 86.4734 86.9829 86.4332 86.9506C86.3542 86.8835 86.2687 86.8245 86.1779 86.7745L86.1057 86.7376C85.8596 86.6201 85.5878 86.5669 85.3157 86.5828C85.0435 86.5988 84.7798 86.6834 84.5491 86.8288C84.3185 86.9742 84.1284 87.1756 83.9966 87.4143C83.8648 87.653 83.7956 87.9211 83.7955 88.1938Z" fill="#E1E1E1"/>
<path d="M85.8611 119.084V119.483C85.8611 120.093 85.9667 120.753 86.3224 121.135C86.351 121.17 86.3828 121.202 86.4175 121.23C86.4518 121.259 86.4877 121.285 86.5249 121.309C86.775 121.47 86.8137 121.399 87.1201 121.399H121.808C121.867 121.399 121.926 121.395 121.984 121.387C122.365 121.331 122.41 121.077 122.689 120.683C122.715 120.646 122.738 120.607 122.761 120.57C122.946 120.249 123.042 119.884 123.039 119.513V119.115C123.039 118.059 122.752 117.168 121.806 117.168H87.1183C86.1745 117.166 85.8611 118.027 85.8611 119.084Z" fill="#6B3E45"/>
<path opacity="0.24" d="M86.2758 121.145C86.3211 121.174 86.3682 121.201 86.4167 121.226C86.6341 121.34 86.8756 121.4 87.121 121.402H121.809C121.868 121.402 121.927 121.398 121.985 121.389C122.366 121.333 122.411 121.08 122.69 120.685C122.716 120.648 122.739 120.609 122.762 120.572C113.408 118.776 90.6321 119.947 86.3251 121.145H86.2758Z" fill="#1F1F3B"/>
<path d="M85.8611 151.551V151.958C85.8611 152.567 85.9667 153.228 86.3224 153.612C86.3514 153.645 86.3832 153.676 86.4175 153.705C86.4514 153.734 86.4873 153.76 86.5249 153.784C86.775 153.944 86.8137 153.874 87.1201 153.874H121.808C121.867 153.874 121.926 153.87 121.984 153.862C122.365 153.805 122.41 153.552 122.689 153.157C122.715 153.12 122.738 153.082 122.761 153.045C122.946 152.723 123.042 152.359 123.039 151.988V151.59C123.039 150.534 122.752 149.643 121.806 149.643H87.1183C86.1745 149.634 85.8611 150.495 85.8611 151.551Z" fill="#6B3E45"/>
<path opacity="0.24" d="M86.2758 153.617C86.3211 153.647 86.3682 153.674 86.4167 153.698C86.6341 153.812 86.8756 153.872 87.121 153.874H121.809C121.868 153.874 121.927 153.87 121.985 153.862C122.366 153.805 122.411 153.552 122.69 153.157C122.716 153.12 122.739 153.082 122.762 153.045C113.408 151.249 90.6321 152.421 86.3251 153.619L86.2758 153.617Z" fill="#1F1F3B"/>
<path d="M85.8611 184.019V184.418C85.8611 185.027 85.9667 185.688 86.3224 186.072C86.3514 186.105 86.3832 186.137 86.4175 186.165C86.4514 186.194 86.4873 186.22 86.5249 186.244C86.775 186.404 86.8137 186.334 87.1201 186.334H121.808C121.867 186.334 121.926 186.33 121.984 186.323C122.365 186.265 122.41 186.012 122.689 185.61C122.715 185.575 122.738 185.535 122.761 185.498C122.946 185.176 123.042 184.812 123.039 184.441V184.043C123.039 182.987 122.752 182.096 121.806 182.096H87.1183C86.1745 182.101 85.8611 182.962 85.8611 184.019Z" fill="#6B3E45"/>
<path opacity="0.24" d="M86.2758 186.085C86.3211 186.115 86.3682 186.142 86.4167 186.166C86.6341 186.28 86.8756 186.34 87.121 186.342H121.809C121.868 186.342 121.927 186.338 121.985 186.331C122.366 186.273 122.411 186.02 122.69 185.618C122.716 185.583 122.739 185.542 122.762 185.505C113.408 183.709 90.6321 184.882 86.3251 186.08L86.2758 186.085Z" fill="#1F1F3B"/>
<path d="M85.8611 218.801V219.2C85.8611 219.811 85.9667 220.472 86.3224 220.854C86.351 220.888 86.3828 220.919 86.4175 220.947C86.4514 220.977 86.4873 221.004 86.5249 221.028C86.775 221.187 86.8137 221.118 87.1201 221.118H121.808C121.867 221.118 121.926 221.114 121.984 221.106C122.365 221.048 122.41 220.794 122.689 220.401C122.715 220.366 122.738 220.327 122.761 220.29C122.946 219.969 123.042 219.605 123.039 219.234V218.836C123.039 217.779 122.752 216.887 121.806 216.887H87.1183C86.1745 216.883 85.8611 217.744 85.8611 218.801Z" fill="#6B3E45"/>
<path opacity="0.24" d="M86.2759 220.868C86.3213 220.897 86.3683 220.924 86.4168 220.947C86.6339 221.062 86.8756 221.122 87.1211 221.123H121.809C121.868 221.123 121.927 221.119 121.985 221.111C122.366 221.053 122.411 220.799 122.69 220.407C122.716 220.372 122.739 220.333 122.762 220.296C113.408 218.498 90.6322 219.671 86.3252 220.868H86.2759Z" fill="#1F1F3B"/>
<path d="M85.8611 253.584V253.983C85.8611 254.593 85.9667 255.253 86.3224 255.635C86.351 255.67 86.3828 255.702 86.4175 255.73C86.4518 255.759 86.4877 255.785 86.5249 255.809C86.775 255.97 86.8137 255.899 87.1201 255.899H121.808C121.867 255.899 121.926 255.895 121.984 255.887C122.365 255.831 122.41 255.577 122.689 255.183C122.715 255.146 122.738 255.107 122.761 255.07C122.946 254.749 123.042 254.384 123.039 254.013V253.615C123.039 252.559 122.752 251.668 121.806 251.668H87.1183C86.1745 251.666 85.8611 252.527 85.8611 253.584Z" fill="#6B3E45"/>
<path opacity="0.24" d="M86.2758 255.649C86.3211 255.678 86.3682 255.705 86.4167 255.73C86.6341 255.844 86.8756 255.904 87.121 255.906H121.809C121.868 255.906 121.927 255.902 121.985 255.893C122.366 255.837 122.411 255.583 122.69 255.189C122.716 255.152 122.739 255.113 122.762 255.076C113.408 253.28 90.6321 254.451 86.3251 255.649H86.2758Z" fill="#1F1F3B"/>
<path d="M85.8611 290.092V290.491C85.8611 291.102 85.9667 291.761 86.3224 292.145C86.3514 292.179 86.3832 292.21 86.4175 292.238C86.4514 292.267 86.4873 292.294 86.5249 292.317C86.7749 292.478 86.8137 292.409 87.1201 292.409H121.808C121.867 292.409 121.926 292.405 121.984 292.397C122.365 292.339 122.41 292.085 122.689 291.692C122.715 291.656 122.739 291.619 122.761 291.58C122.946 291.258 123.042 290.894 123.039 290.523V290.125C123.039 289.069 122.752 288.178 121.806 288.178H87.1183C86.1745 288.174 85.8611 289.035 85.8611 290.092Z" fill="#6B3E45"/>
<path opacity="0.24" d="M86.2758 292.158C86.3216 292.186 86.3674 292.212 86.4167 292.237C86.6338 292.352 86.8755 292.412 87.121 292.413H121.809C121.868 292.413 121.927 292.409 121.985 292.401C122.366 292.343 122.411 292.089 122.69 291.696C122.716 291.66 122.74 291.622 122.762 291.584C113.408 289.788 90.6321 290.96 86.3251 292.158H86.2758Z" fill="#1F1F3B"/>
<path d="M122 88.7733L122.016 119.354V122.761V123.829L122.031 153.665V158.131L122.047 187.969V192.435L122.065 224.718V228.134V229.189L122.084 261.474V265.94L122.101 300.05V304.516V312H125V88.7045C125 88.2523 124.849 87.8187 124.582 87.4991C124.314 87.1795 123.951 87 123.573 87C122.787 87.0316 122 87.8299 122 88.7733Z" fill="#E1E1E1"/>
<path d="M84 181V312H87V183.832C86.7523 184.035 86.4947 184.221 86.2283 184.39C85.4746 183.29 84.6685 182.043 84 181Z" fill="#E1E1E1"/>
<path d="M83.7958 88.1938V171.954L87.0216 169.375V88.2008C87.0216 87.773 86.8517 87.3628 86.5492 87.0603C86.2467 86.7578 85.8365 86.5879 85.4087 86.5879C84.9809 86.5879 84.5707 86.7578 84.2682 87.0603C83.9657 87.3628 83.7958 87.773 83.7958 88.2008V88.1938Z" fill="#E1E1E1"/>
<path d="M85.8612 119.084V119.482C85.8612 120.093 85.9651 120.753 86.3208 121.135C86.3504 121.17 86.3828 121.202 86.4176 121.231C86.4512 121.26 86.4871 121.286 86.525 121.31C86.7434 121.451 86.8015 121.414 87.0198 121.403H87.1202H121.808C121.867 121.404 121.926 121.4 121.984 121.391C122.365 121.334 122.411 121.081 122.689 120.686C122.714 120.65 122.738 120.613 122.759 120.574C122.945 120.253 123.042 119.888 123.039 119.517V119.119C123.039 118.063 122.75 117.172 121.807 117.172H87.1184H87.0181C86.1517 117.228 85.8612 118.065 85.8612 119.084Z" fill="#E1E1E1"/>
<path opacity="0.24" d="M86.2752 121.143C86.321 121.171 86.3685 121.199 86.4179 121.224C86.6043 121.323 86.8093 121.383 87.02 121.4H121.805C121.864 121.401 121.923 121.397 121.981 121.388C122.361 121.331 122.407 121.078 122.685 120.683C122.711 120.647 122.734 120.609 122.756 120.571C122.437 120.509 122.104 120.453 121.756 120.394C119.335 120.016 116.22 119.798 112.837 119.702C111.404 119.662 109.925 119.643 108.435 119.643C99.7279 119.643 90.4748 120.284 87.0253 120.977C86.7559 121.03 86.5235 121.085 86.321 121.139C86.3058 121.141 86.2905 121.143 86.2752 121.143Z" fill="#1F1F3B"/>
<path d="M85.8611 151.551V151.958C85.8611 152.567 85.9667 153.228 86.3224 153.612C86.3514 153.645 86.3832 153.676 86.4175 153.705C86.4514 153.734 86.4873 153.76 86.5249 153.784C86.775 153.944 86.8137 153.874 87.1201 153.874H121.808C121.867 153.874 121.926 153.87 121.984 153.862C122.365 153.805 122.41 153.552 122.689 153.157C122.715 153.12 122.738 153.082 122.761 153.045C122.946 152.723 123.042 152.359 123.039 151.988V151.59C123.039 150.534 122.752 149.643 121.806 149.643H87.1183C86.1745 149.634 85.8611 150.495 85.8611 151.551Z" fill="#E1E1E1"/>
<path opacity="0.24" d="M86.2758 153.617C86.3211 153.647 86.3682 153.674 86.4167 153.698C86.6341 153.812 86.8756 153.872 87.121 153.874H121.809C121.868 153.874 121.927 153.87 121.985 153.862C122.366 153.805 122.411 153.552 122.69 153.157C122.716 153.12 122.739 153.082 122.762 153.045C113.408 151.249 90.6321 152.421 86.3251 153.619L86.2758 153.617Z" fill="#1F1F3B"/>
<path d="M85.8611 184.019V184.419C85.8611 185.028 85.965 185.688 86.3207 186.07C86.3502 186.105 86.3826 186.136 86.4175 186.165C86.4515 186.195 86.4873 186.222 86.5249 186.246C86.7432 186.385 86.8014 186.348 87.0197 186.338H87.1201H121.808C121.867 186.338 121.926 186.335 121.984 186.327C122.365 186.269 122.41 186.016 122.689 185.614C122.714 185.578 122.738 185.54 122.759 185.502C122.945 185.181 123.042 184.816 123.039 184.445V184.047C123.039 182.991 122.75 182.1 121.806 182.1H87.1183H87.0179C86.1516 182.163 85.8611 183.001 85.8611 184.019Z" fill="#E1E1E1"/>
<path opacity="0.24" d="M86.2752 186.085C86.321 186.113 86.3685 186.141 86.4179 186.166C86.6043 186.265 86.8093 186.325 87.02 186.342H121.805C121.864 186.342 121.923 186.339 121.981 186.331C122.361 186.273 122.407 186.02 122.685 185.618C122.711 185.582 122.735 185.544 122.756 185.505C122.452 185.446 122.132 185.39 121.796 185.34C115.665 184.373 105.058 184.447 96.9088 184.919C95.9456 184.974 95.0159 185.035 94.132 185.095C91.033 185.326 88.4974 185.613 87.0183 185.909C86.7489 185.961 86.5164 186.016 86.314 186.071C86.3013 186.076 86.2884 186.081 86.2752 186.085Z" fill="#1F1F3B"/>
<path d="M85.8616 218.801V219.2C85.8616 219.811 85.9655 220.47 86.3212 220.854C86.3503 220.888 86.3827 220.919 86.418 220.947C86.4511 220.977 86.4871 221.003 86.5254 221.026C86.7438 221.167 86.8019 221.132 87.0202 221.121H87.1206H121.821C121.877 221.121 121.934 221.121 121.988 221.109C122.369 221.051 122.414 220.797 122.693 220.405C122.718 220.369 122.742 220.332 122.763 220.294C122.949 219.973 123.046 219.608 123.043 219.237V218.838C123.043 217.781 122.758 216.901 121.825 216.89H87.1206C87.0871 216.888 87.0536 216.888 87.0202 216.89C86.1521 216.946 85.8616 217.783 85.8616 218.801Z" fill="#E1E1E1"/>
<path opacity="0.24" d="M86.274 220.867C86.32 220.896 86.3676 220.923 86.4167 220.946C86.6025 221.047 86.8079 221.107 87.0189 221.122H87.1192H121.82C121.876 221.122 121.932 221.122 121.987 221.11C122.367 221.052 122.413 220.798 122.691 220.406C122.717 220.37 122.741 220.333 122.762 220.295C122.464 220.237 122.151 220.182 121.825 220.131C120.647 219.944 119.302 219.797 117.84 219.684C116.379 219.571 114.847 219.492 113.236 219.443C103.402 219.133 91.1269 219.881 87.0242 220.705C86.7547 220.758 86.5223 220.813 86.3198 220.867H86.274Z" fill="#1F1F3B"/>
<path d="M85.8611 253.584V253.983C85.8611 254.593 85.9667 255.253 86.3224 255.635C86.351 255.67 86.3828 255.702 86.4175 255.73C86.4518 255.759 86.4877 255.785 86.5249 255.809C86.775 255.97 86.8137 255.899 87.1201 255.899H121.808C121.867 255.899 121.926 255.895 121.984 255.887C122.365 255.831 122.41 255.577 122.689 255.183C122.715 255.146 122.738 255.107 122.761 255.07C122.946 254.749 123.042 254.384 123.039 254.013V253.615C123.039 252.559 122.752 251.668 121.806 251.668H87.1183C86.1745 251.666 85.8611 252.527 85.8611 253.584Z" fill="#E1E1E1"/>
<path opacity="0.24" d="M86.2758 255.649C86.3211 255.678 86.3682 255.705 86.4167 255.73C86.6341 255.844 86.8756 255.904 87.121 255.906H121.809C121.868 255.906 121.927 255.902 121.985 255.893C122.366 255.837 122.411 255.583 122.69 255.189C122.716 255.152 122.739 255.113 122.762 255.076C113.408 253.28 90.6321 254.451 86.3251 255.649H86.2758Z" fill="#1F1F3B"/>
<path d="M85.8611 290.092V290.491C85.8611 291.102 85.9667 291.761 86.3224 292.145C86.3514 292.179 86.3832 292.21 86.4175 292.238C86.4514 292.267 86.4873 292.294 86.5249 292.317C86.7749 292.478 86.8137 292.409 87.1201 292.409H121.808C121.867 292.409 121.926 292.405 121.984 292.397C122.365 292.339 122.41 292.085 122.689 291.692C122.715 291.656 122.739 291.619 122.761 291.58C122.946 291.258 123.042 290.894 123.039 290.523V290.125C123.039 289.069 122.752 288.178 121.806 288.178H87.1183C86.1745 288.174 85.8611 289.035 85.8611 290.092Z" fill="#E1E1E1"/>
<path opacity="0.24" d="M86.2758 292.158C86.3216 292.186 86.3674 292.212 86.4167 292.237C86.6338 292.352 86.8755 292.412 87.121 292.413H121.809C121.868 292.413 121.927 292.409 121.985 292.401C122.366 292.343 122.411 292.089 122.69 291.696C122.716 291.66 122.74 291.622 122.762 291.584C113.408 289.788 90.6321 290.96 86.3251 292.158H86.2758Z" fill="#1F1F3B"/>
<path d="M110.78 70.07C125.173 93.6755 125.591 89.1713 125.952 93.0328C126.313 96.8943 108.463 108.392 109.138 111.317C109.812 114.242 115.901 115.68 116.559 114.663C117.218 113.645 136.719 98.7555 136.723 93.9256C136.723 85.3557 119.808 64.0709 117.986 61.9579C116.163 59.8449 108.292 58.9363 108.377 62.7168C108.461 66.4973 110.78 70.07 110.78 70.07Z" fill="url(#paint2_linear_145_749)"/>
<path opacity="0.55" d="M107.004 116.869L107.157 117.167L108.43 119.632L109.337 121.393H112.291C112.507 120.837 112.69 120.269 112.839 119.692C113.035 119.03 113.283 118.197 113.637 117.16L107.004 116.869Z" fill="#1F1F3B"/>
<path opacity="0.24" d="M101.643 61.1C101.875 60.9239 104.666 65.3911 108.091 66.643C109.041 67.007 110.053 67.1834 111.07 67.1625C114.081 67.0603 121.424 66.2697 121.424 66.2697C121.424 66.2697 119.663 64.03 118.466 62.7481C115.793 63.8345 112.766 64.2096 111.186 64.1814C110.049 64.155 108.921 63.9598 107.841 63.6021C105.869 62.9647 104.154 61.9082 102.845 60.9732C102.178 60.496 102.027 59.6931 101.261 59.7318C100.273 59.7758 101.345 61.3236 101.643 61.1Z" fill="#1F1F3B"/>
<path d="M99.5956 60.5554C99.5918 60.3989 99.6197 60.2433 99.6775 60.0979C99.7353 59.9524 99.8218 59.8202 99.932 59.709C100.042 59.5978 100.174 59.5101 100.319 59.451C100.464 59.3919 100.619 59.3627 100.775 59.3651C101.48 59.3299 101.55 59.5993 102.165 60.0395C104.014 61.3601 106.743 62.9448 109.851 62.9994C112.958 63.054 119.711 58.4847 124.342 59.0481C128.973 59.6116 130.649 63.4766 137.309 63.9168C143.968 64.357 150.857 61.0185 152.822 61.1735C154.787 61.3284 155.991 61.6365 156 62.3919C156.009 63.1473 155.12 64.4732 153.801 65.1247C152.482 65.7762 140.506 67.6357 137.302 67.5001C132.069 67.2782 127.286 63.1139 123.92 63.1192C120.553 63.1244 113.666 65.6125 109.736 65.7445C105.354 65.8942 101.444 61.2527 101.17 61.4657C100.895 61.6788 100.642 61.8831 100.073 61.795C99.6872 61.7352 99.5974 60.985 99.5956 60.5554Z" fill="#FEC04B"/>
<path d="M104.171 121.568C104.999 122.79 108.397 122.591 110.119 121.954C111.841 121.316 111.352 119.745 112.438 117.564C112.933 116.571 114.217 114.97 114.324 114.813C112.292 114.424 110.392 113.635 109.332 111.871C106.543 115.171 105.231 115.847 104.738 116.625C104.034 117.758 106.446 116.83 105.971 117.215C105.495 117.601 103.384 120.408 104.171 121.568Z" fill="#EFAEA6"/>
<path d="M115.022 209.034C114.404 208.569 113.199 208.279 113 209.386C111.861 215.738 105.688 218.719 104.915 219.951C103.626 221.987 106.292 223.779 109.956 223.732C113.126 223.691 116.056 219.011 119.383 216.812C119.987 216.412 120.915 215.403 121.084 214.734C121.685 212.316 121.459 208.326 120.493 208.256C119.114 208.923 117.04 210.547 115.022 209.034Z" fill="#1F1F3B"/>
<path d="M87.4359 179.058V179.067L87.5239 179.166C87.7 179.361 87.8655 179.543 88.0205 179.705C88.1032 179.791 88.1825 179.881 88.2564 179.948L91.5122 181.261L91.7516 181.358L91.7869 181.251L93.3047 176.371L92.132 174.813L91.0596 172.904C90.8585 173.614 90.5466 174.288 90.1352 174.901C89.5714 175.737 88.902 176.497 88.1437 177.162C87.909 177.365 87.6842 177.553 87.4693 177.725L87.2933 177.866C87.2085 177.94 87.1165 178.005 87.0186 178.06C86.9657 178.395 87.2123 178.803 87.4359 179.058Z" fill="white"/>
<path d="M87.9184 182.102C89.5471 187.059 87.3003 191.982 87.4412 193.225C87.7071 195.562 90.8272 195.291 93.5812 193.014C95.9635 191.044 95.3244 185.698 96.5059 181.993C96.7207 181.319 96.814 179.991 96.527 179.375C95.5128 177.19 92.9402 174.33 92.1355 174.797L92.1144 174.809C91.4787 176.161 90.8959 178.662 88.4396 178.748C88.3152 178.753 88.1915 178.769 88.0698 178.795C87.8452 178.843 87.6306 178.929 87.4359 179.051C87.0468 179.303 86.8214 179.704 87.1207 180.253C87.4427 180.844 87.7097 181.463 87.9184 182.102Z" fill="#1F1F3B"/>
<path opacity="0.42" d="M111.783 221.118H116.757L117.837 219.67C118.617 218.626 119.422 217.545 119.938 216.883H115.416L113.232 219.429L111.783 221.118Z" fill="#1F1F3B"/>
<path opacity="0.2" d="M121.737 98.7168L112.093 107.229L111.54 105.783L121.737 98.7168Z" fill="#1F1F3B"/>
<path opacity="0.42" d="M93.833 186.334H96.6503C96.7207 185.925 96.8088 185.453 96.9197 184.911C97.0958 184.071 97.3229 183.104 97.6152 182.094H94.8789L94.1429 185.087L93.833 186.334Z" fill="#1F1F3B"/>
<path opacity="0.55" d="M93.0291 135.421C98.3573 132.693 102.879 130.666 102.988 130.624L102.712 126.592C102.712 126.592 95.2671 132.765 93.0291 135.421Z" fill="#747480"/>
<path d="M10.4188 36.979L8.32867 51.0638L20.7794 44.1543L20.9115 44.2212L33.5295 50.495L30.8055 36.5194L40.7753 26.3524L26.6412 24.6233L20.0628 12.0194L20.0522 12L14.0408 24.9086L-3.8147e-06 27.2733L10.4188 36.979Z" fill="white" fill-opacity="0.7"/>
<path d="M11.4258 18.1548C8.04677 17.6829 7.56255 16.3254 6.93569 12.1152C6.49725 16.1088 5.93906 17.6231 2.50194 18.0791C5.49534 19.2184 6.55183 19.6322 7.08888 24.242C7.83547 19.5723 8.49402 19.1585 11.4258 18.1548Z" fill="white" fill-opacity="0.7"/>
<path d="M29.1211 58.2229C24.749 57.6119 24.1239 55.8546 23.3104 50.4102C22.7452 55.5764 22.0215 57.5362 17.5772 58.1243C21.451 59.5981 22.8156 60.1316 23.5076 66.1026C24.4567 60.0559 25.316 59.5153 29.1211 58.2229Z" fill="white" fill-opacity="0.7"/>
<path d="M36.1837 5.5994C33.0495 5.16096 32.6022 3.90197 32.0282 0C31.6214 3.69772 31.1038 5.10637 27.9167 5.52897C30.697 6.58546 31.6725 6.96756 32.1691 11.2481C32.847 6.91297 33.4562 6.52911 36.1837 5.5994Z" fill="white" fill-opacity="0.7"/>
<path opacity="0.15" d="M10.4188 36.9772L8.32872 51.0638L20.7795 44.1543L20.9115 44.2212C23.5369 29.5325 21.8254 18.8654 20.0646 12.0194L20.0522 12L14.0408 24.9086L5.91278e-05 27.2733L10.4188 36.9772Z" fill="white"/>
<defs>
<linearGradient id="paint0_linear_145_749" x1="100.535" y1="79.4845" x2="49.2373" y2="79.4845" gradientUnits="userSpaceOnUse">
<stop stop-color="#9237E3"/>
<stop offset="1" stop-color="#2C1D43"/>
</linearGradient>
<linearGradient id="paint1_linear_145_749" x1="130.756" y1="87.2102" x2="105.688" y2="87.2102" gradientUnits="userSpaceOnUse">
<stop stop-color="#9237E3"/>
<stop offset="1" stop-color="#2C1D43"/>
</linearGradient>
<linearGradient id="paint2_linear_145_749" x1="136.723" y1="87.5576" x2="108.376" y2="87.5576" gradientUnits="userSpaceOnUse">
<stop stop-color="#9237E3"/>
<stop offset="1" stop-color="#2C1D43"/>
</linearGradient>
</defs>
</svg>
