<svg width="22" height="23" viewBox="0 0 22 23" fill="none" xmlns="http://www.w3.org/2000/svg">
<path d="M17.0153 4.77991C16.9275 4.77991 16.8383 4.76186 16.7529 4.72375C16.4279 4.5786 16.282 4.19747 16.4271 3.87237L17.5013 1.46595C17.6464 1.14084 18.0276 0.995051 18.3526 1.14011C18.6777 1.28526 18.8236 1.66639 18.6785 1.9915L17.6042 4.39792C17.4972 4.63764 17.2618 4.77991 17.0153 4.77991Z" fill="#FFC34D"/>
<path d="M14.4548 5.52124C14.432 5.52382 14.4097 5.52468 14.3874 5.52468C14.0612 5.52511 13.7815 5.27843 13.7471 4.94714C13.5679 3.22697 12.5676 2.59787 12.4937 2.55404C12.4198 2.51021 11.9214 2.14665 12.263 1.64649C12.605 1.1463 13.1168 1.42516 13.1168 1.42516C13.1168 1.42516 13.1168 1.42516 13.1172 1.42559C13.1894 1.46555 14.7749 2.37099 15.0293 4.81351C15.0658 5.16761 14.8089 5.48472 14.4548 5.52124Z" fill="#FFC34D"/>
<path d="M17.7446 7.06658C17.7597 7.08386 17.7756 7.09958 17.7921 7.11467C18.0324 7.33518 18.4052 7.34206 18.6543 7.12085C19.9477 5.97282 21.1103 6.18405 21.1944 6.20162C21.2785 6.2192 21.8916 6.28752 21.9773 5.68789C22.0627 5.08796 21.4968 4.94818 21.4968 4.94818C21.4968 4.94818 21.4968 4.94818 21.4962 4.94823C21.416 4.92898 19.6351 4.52644 17.7986 6.15659C17.5326 6.39314 17.5081 6.80061 17.7446 7.06658Z" fill="#FFC34D"/>
<path d="M21.9996 11.7852C21.9829 12.5149 21.3667 13.0894 20.6358 13.0894H16.3402L15.4379 15.7619L9.12274 17.5661L4.08203 15.7619V9.96663C4.2943 9.94472 4.50957 9.91679 4.72656 9.88112C6.1398 9.65124 7.62867 9.10507 8.85027 7.77677L10.377 6.11633C10.6408 5.82969 11.0009 5.68359 11.3627 5.68359C11.6858 5.68359 12.0098 5.80047 12.2663 6.03598C12.8103 6.53575 12.8459 7.38099 12.3466 7.92416L10.0547 10.4174H20.6629C21.032 10.4174 21.3663 10.5665 21.6082 10.8084C21.8574 11.0577 22.0086 11.4036 21.9996 11.7852Z" fill="#FFD5CC"/>
<path d="M15.4378 15.7618L13.6327 21.107H10.0547C8.31059 21.107 6.80539 20.4384 5.76984 20.0323C5.3827 19.8802 5.04711 19.7598 4.72656 19.6657C4.50914 19.6021 4.29816 19.551 4.08203 19.5102V15.7617H15.4378V15.7618Z" fill="#FFBFB3"/>
<path d="M12.7072 13.0898C11.9693 13.0898 11.3711 13.6881 11.3711 14.426C11.3711 15.164 11.9693 15.7622 12.7072 15.7622L13.888 16.5019L15.4502 15.7622H16.3413C17.0792 15.7622 17.6774 15.164 17.6774 14.426C17.6774 13.6881 17.0792 13.0898 16.3413 13.0898H12.7072Z" fill="#FFBFB3"/>
<path d="M4.72656 9.44145V15.7613L2.60313 17.5656L0 15.7614V9.44145C0 9.08562 0.28875 8.79688 0.644531 8.79688H4.08203C4.43781 8.79688 4.72656 9.08567 4.72656 9.44145Z" fill="#AA99FF"/>
<path d="M4.72656 15.7617V19.841C4.72656 20.1969 4.43781 20.4856 4.08203 20.4856H0.644531C0.28875 20.4856 0 20.1969 0 19.841V15.7617H4.72656Z" fill="#9966FF"/>
<path d="M15.4502 15.7617H12.7072C11.9693 15.7617 11.3711 16.36 11.3711 17.098C11.3711 17.8359 11.9693 18.4342 12.7072 18.4342C11.9693 18.4342 11.3711 19.0324 11.3711 19.7704C11.3711 20.5083 11.9693 21.1066 12.7072 21.1066H14.5607C15.2986 21.1066 15.8968 20.5083 15.8968 19.7704C15.8968 19.0324 15.2986 18.4342 14.5607 18.4342H15.4502C16.1881 18.4342 16.7863 17.8359 16.7863 17.098C16.7863 16.36 16.1881 15.7617 15.4502 15.7617Z" fill="#FFAA99"/>
</svg>
