<svg width="22" height="22" viewBox="0 0 22 22" fill="none" xmlns="http://www.w3.org/2000/svg">
<path d="M18.9824 2.99939H2.98242C1.88242 2.99939 0.992422 3.89939 0.992422 4.99939L0.982422 16.9994C0.982422 18.0994 1.88242 18.9994 2.98242 18.9994H18.9824C20.0824 18.9994 20.9824 18.0994 20.9824 16.9994V4.99939C20.9824 3.89939 20.0824 2.99939 18.9824 2.99939ZM18.5824 7.24939L11.5124 11.6694C11.1924 11.8694 10.7724 11.8694 10.4524 11.6694L3.38242 7.24939C3.28215 7.1931 3.19434 7.11705 3.12431 7.02584C3.05428 6.93464 3.00348 6.83017 2.975 6.71876C2.94651 6.60735 2.94092 6.49132 2.95858 6.3777C2.97623 6.26407 3.01676 6.1552 3.0777 6.05769C3.13865 5.96018 3.21875 5.87605 3.31315 5.81038C3.40755 5.74472 3.51429 5.6989 3.62692 5.67569C3.73954 5.65248 3.8557 5.65236 3.96838 5.67534C4.08105 5.69832 4.18789 5.74392 4.28242 5.80939L10.9824 9.99939L17.6824 5.80939C17.777 5.74392 17.8838 5.69832 17.9965 5.67534C18.1091 5.65236 18.2253 5.65248 18.3379 5.67569C18.4505 5.6989 18.5573 5.74472 18.6517 5.81038C18.7461 5.87605 18.8262 5.96018 18.8871 6.05769C18.9481 6.1552 18.9886 6.26407 19.0063 6.3777C19.0239 6.49132 19.0183 6.60735 18.9898 6.71876C18.9614 6.83017 18.9106 6.93464 18.8405 7.02584C18.7705 7.11705 18.6827 7.1931 18.5824 7.24939Z" fill="white"/>
</svg>
