<svg width="15" height="17" viewBox="0 0 15 17" fill="none" xmlns="http://www.w3.org/2000/svg">
<path d="M14.9082 10.7442C14.9082 9.95804 14.348 9.3003 13.6059 9.14903V7.3907C13.6059 7.23051 13.5273 7.08055 13.3957 6.98929C13.264 6.89803 13.096 6.87713 12.946 6.93342L12.0139 7.28296C11.4018 6.64661 10.6578 6.16733 9.84248 5.8731C10.6437 5.27943 11.164 4.3273 11.164 3.25581C11.164 1.46053 9.70349 0 7.9082 0C6.11291 0 4.65239 1.46053 4.65239 3.25581C4.65239 4.3273 5.17273 5.27943 5.97392 5.8731C5.15857 6.16736 4.41458 6.64665 3.80249 7.28296L2.87038 6.93342C2.72042 6.87713 2.55236 6.89803 2.42072 6.98929C2.28906 7.08055 2.21053 7.23051 2.21053 7.3907V9.14903C1.46837 9.3003 0.908203 9.958 0.908203 10.7442C0.908203 11.5304 1.46837 12.1881 2.21053 12.3393V14.2279C2.21053 14.4315 2.33682 14.6137 2.52742 14.6852L7.73672 16.6387C7.84657 16.6796 7.9698 16.6796 8.07965 16.6387L13.289 14.6852C13.4796 14.6137 13.6058 14.4315 13.6058 14.2279V12.3393C14.348 12.1881 14.9082 11.5303 14.9082 10.7442ZM5.62913 3.25581C5.62913 1.99913 6.65152 0.976744 7.9082 0.976744C9.16488 0.976744 10.1873 1.99913 10.1873 3.25581C10.1873 4.51249 9.16488 5.53488 7.9082 5.53488C6.65152 5.53488 5.62913 4.51249 5.62913 3.25581ZM7.9082 6.51163C9.05239 6.51163 10.1452 6.92515 10.9979 7.66396L7.9082 8.82261L4.81847 7.66396C5.6712 6.92515 6.76405 6.51163 7.9082 6.51163ZM1.88495 10.7442C1.88495 10.3851 2.17706 10.093 2.53611 10.093H2.86169V11.3953H2.53611C2.17706 11.3953 1.88495 11.1032 1.88495 10.7442ZM3.18727 12.3557C3.55834 12.2801 3.83844 11.9512 3.83844 11.5581V9.93023C3.83844 9.53716 3.55834 9.20829 3.18727 9.13266V8.09542L7.41983 9.68263V15.4767L3.18727 13.8895V12.3557ZM8.39657 15.4767V9.68263L12.6291 8.09542V9.13266C12.2581 9.20829 11.978 9.53716 11.978 9.93023V11.5581C11.978 11.9512 12.2581 12.2801 12.6291 12.3557V13.8895L8.39657 15.4767ZM13.2803 11.3953H12.9547V10.093H13.2803C13.6393 10.093 13.9315 10.3851 13.9315 10.7442C13.9315 11.1032 13.6394 11.3953 13.2803 11.3953Z" fill="#9237E3"/>
</svg>
