<svg width="112" height="23" viewBox="0 0 112 23" fill="none" xmlns="http://www.w3.org/2000/svg">
<path d="M57.6402 10.7822C56.7252 10.7822 56.0657 11.082 55.3969 11.3874V18.2986C56.0375 18.3595 56.4047 18.3595 57.0124 18.3595C59.2085 18.3595 59.5095 17.3546 59.5095 15.9514V12.6506C59.5095 11.6144 59.1654 10.7822 57.6402 10.7822ZM43.0556 10.405C41.5319 10.405 41.1842 11.2408 41.1842 12.276V12.8577H44.925V12.276C44.925 11.2408 44.5772 10.405 43.0556 10.405ZM14.8025 17.5985C14.8025 18.4175 15.1891 18.8428 16.0425 18.8428C16.958 18.8428 17.5001 18.5445 18.1683 18.2381V16.5987H16.1666C15.2189 16.5987 14.8025 16.775 14.8025 17.5985ZM71.8273 10.7822C70.301 10.7822 69.7722 11.6144 69.7722 12.6506V16.4321C69.7722 17.4709 70.301 18.3057 71.8273 18.3057C73.3494 18.3057 73.8823 17.4709 73.8823 16.4321V12.6506C73.8818 11.6144 73.3489 10.7822 71.8273 10.7822ZM7.32299 21.8387H2.83653V10.9877H0.594849V7.24868H2.83705V5.00304C2.83705 1.9523 4.10226 0.138672 7.69839 0.138672H10.6924V3.87868H8.82103C7.42094 3.87868 7.32863 4.4014 7.32863 5.37663L7.32299 7.24817H10.713L10.3165 10.9872H7.32299V21.8387ZM22.6558 21.8669H18.9166L18.755 20.9219C17.0477 21.8669 15.524 22.0201 14.5188 22.0201C11.7766 22.0201 10.317 20.1896 10.317 17.658C10.317 14.6713 12.0202 13.6054 15.0671 13.6054H18.1683V12.9596C18.1683 11.435 17.9934 10.9877 15.6471 10.9877H11.811L12.1859 7.24868H16.379C21.527 7.24868 22.6558 8.87372 22.6558 12.9899V21.8669ZM35.371 11.2618C33.0442 10.8631 32.3759 10.7755 31.2564 10.7755C29.2455 10.7755 28.6377 11.2188 28.6377 12.9253V16.1534C28.6377 17.8599 29.2455 18.3052 31.2564 18.3052C32.3759 18.3052 33.0442 18.2161 35.371 17.8158V21.4631C33.3329 21.9197 32.0051 22.0396 30.883 22.0396C26.0663 22.0396 24.1518 19.5085 24.1518 15.852V13.2328C24.1518 9.57325 26.0663 7.03754 30.883 7.03754C32.0051 7.03754 33.3329 7.15797 35.371 7.61663V11.2618ZM49.4109 15.852H41.1837V16.1534C41.1837 17.8599 41.7919 18.3052 43.8023 18.3052C45.6096 18.3052 46.7128 18.2161 49.0355 17.8158V21.4631C46.7953 21.9197 45.6281 22.0396 43.4305 22.0396C38.6133 22.0396 36.6978 19.5085 36.6978 15.852V12.8572C36.6978 9.6578 38.1189 7.03754 43.0551 7.03754C47.9913 7.03754 49.4109 9.62757 49.4109 12.8572V15.852ZM63.9949 15.9212C63.9949 19.4552 62.9841 22.0329 56.8606 22.0329C54.6492 22.0329 53.3522 21.8387 50.9115 21.4636V1.26201L55.3964 0.514313V7.58076C56.3657 7.22101 57.6202 7.03806 58.7618 7.03806C63.2472 7.03806 63.9944 9.04745 63.9944 12.2765V15.9212H63.9949ZM78.3718 15.9981C78.3718 19.0468 77.1122 22.0037 71.8421 22.0037C66.5695 22.0037 65.2863 19.0468 65.2863 15.9981V13.0545C65.2863 10.0042 66.5695 7.04677 71.8421 7.04677C77.1122 7.04677 78.3718 10.0042 78.3718 13.0545V15.9981ZM92.7389 15.9981C92.7389 19.0468 91.4778 22.0037 86.2087 22.0037C80.9361 22.0037 79.6529 19.0468 79.6529 15.9981V13.0545C79.6529 10.0042 80.9361 7.04677 86.2087 7.04677C91.4778 7.04677 92.7389 10.0042 92.7389 13.0545V15.9981ZM107.483 21.8387H102.622L98.51 14.9803V21.8387H94.0236V1.26149L98.51 0.5138V13.7606L102.622 7.24868H107.483L102.994 14.3551L107.483 21.8387ZM86.1933 10.7822C84.6696 10.7822 84.1409 11.6144 84.1409 12.6506V16.4321C84.1409 17.4709 84.6696 18.3057 86.1933 18.3057C87.715 18.3057 88.2535 17.4709 88.2535 16.4321V12.6506C88.2535 11.6144 87.715 10.7822 86.1933 10.7822ZM110.044 19.2794C110.799 19.2794 111.401 19.8949 111.401 20.6636C111.401 21.4441 110.799 22.0529 110.038 22.0529C109.281 22.0529 108.667 21.4441 108.667 20.6636C108.667 19.8949 109.281 19.2794 110.038 19.2794H110.044ZM110.038 19.4947C109.429 19.4947 108.931 20.0179 108.931 20.6636C108.931 21.3211 109.43 21.8377 110.044 21.8377C110.658 21.8438 111.149 21.3211 111.149 20.6698C111.149 20.0184 110.658 19.4947 110.044 19.4947H110.038ZM109.78 21.4692H109.534V19.9246C109.663 19.9067 109.786 19.8888 109.971 19.8888C110.205 19.8888 110.357 19.938 110.451 20.0051C110.542 20.0732 110.591 20.1773 110.591 20.3244C110.591 20.5283 110.456 20.6508 110.291 20.7005V20.7123C110.426 20.7374 110.518 20.8594 110.549 21.0864C110.585 21.3267 110.622 21.4185 110.646 21.4687H110.388C110.352 21.4185 110.314 21.2775 110.284 21.0741C110.248 20.8778 110.148 20.804 109.951 20.804H109.781V21.4692H109.78ZM109.78 20.6144H109.958C110.161 20.6144 110.332 20.5401 110.332 20.349C110.332 20.2137 110.235 20.0789 109.958 20.0789C109.878 20.0789 109.822 20.085 109.78 20.0907V20.6144Z" fill="white" fill-opacity="0.7"/>
</svg>
