<svg width="312" height="317" viewBox="0 0 312 317" fill="none" xmlns="http://www.w3.org/2000/svg">
<g clip-path="url(#clip0_145_1206)">
<path opacity="0.2" d="M275.835 272.83C269.429 279.573 263.367 283.923 258.578 287.359C202.278 327.747 135.66 315.974 121.505 313.099C100.602 308.853 60.1857 300.647 30.9637 266.293C-13.2344 214.319 -6.35128 132.436 27.9351 78.3872C34.2071 68.5054 67.3358 13.6248 134.669 4.82429C175.421 -0.505084 222.92 10.2366 257.319 39.0518C329.525 99.5366 324.385 221.731 275.835 272.83Z" fill="#D2D2D2"/>
<path d="M213.291 306.325C213.023 306.289 212.766 306.201 212.533 306.064C212.301 305.928 212.098 305.746 211.936 305.53C207.184 299.126 172.63 249.018 218.616 203.215C262.27 159.734 282.058 150.806 284.689 125.259C284.996 122.276 289.03 121.559 290.357 124.249C300.277 144.354 315.73 191.255 264.589 222.045C208.174 256.007 212.796 293.234 215.525 303.814C215.609 304.136 215.612 304.473 215.535 304.797C215.457 305.12 215.301 305.42 215.08 305.669C214.859 305.918 214.58 306.108 214.268 306.224C213.956 306.339 213.62 306.377 213.291 306.332V306.325Z" fill="url(#paint0_linear_145_1206)"/>
<path d="M220.294 307.276C219.67 307.193 219.089 306.91 218.638 306.47C218.188 306.029 217.892 305.455 217.795 304.832C216.449 296.119 213.137 263.559 237.132 254.925C263.542 245.421 284.864 270.013 304.271 250.765C305.294 249.752 307.01 250.634 306.771 252.052C305.042 262.106 297.342 285.396 263.104 290.082C226.453 295.098 222.329 299.302 223.068 304.516C223.119 304.892 223.082 305.274 222.96 305.633C222.838 305.992 222.634 306.318 222.366 306.586C222.097 306.853 221.77 307.054 221.41 307.174C221.05 307.294 220.667 307.329 220.292 307.276H220.294Z" fill="url(#paint1_linear_145_1206)"/>
<path opacity="0.47" d="M283.413 151.307C282.967 153.162 282.381 154.98 281.659 156.746C280.956 158.507 280.163 160.232 279.282 161.911C277.548 165.288 275.467 168.482 273.189 171.525C268.602 177.596 263.053 182.929 256.936 187.451C253.872 189.683 250.689 191.747 247.399 193.632C244.258 195.461 241.235 197.487 238.348 199.695C232.561 204.126 227.3 209.206 222.671 214.835C213.435 226.066 206.88 239.621 204.721 254.052C203.634 261.285 203.593 268.637 204.599 275.882C205.579 283.151 207.651 290.268 210.383 297.13C210.446 297.301 210.441 297.49 210.369 297.657C210.297 297.825 210.164 297.958 209.997 298.031C209.83 298.103 209.641 298.109 209.47 298.048C209.298 297.986 209.157 297.861 209.075 297.698C205.88 290.916 203.492 283.707 202.171 276.262C200.8 268.788 200.583 261.148 201.528 253.608C202.446 246.057 204.577 238.659 207.644 231.696C210.712 224.734 214.787 218.223 219.535 212.287C224.284 206.351 229.789 201.026 235.811 196.38C238.829 194.054 241.99 191.921 245.275 189.992C248.498 188.143 251.558 186.263 254.522 184.124C260.439 179.9 265.906 175.021 270.61 169.454C272.985 166.684 275.16 163.746 277.117 160.665C279.048 157.58 280.852 154.326 282.15 150.962L282.168 150.917C282.225 150.761 282.341 150.633 282.491 150.559C282.64 150.486 282.812 150.472 282.972 150.521C283.131 150.571 283.265 150.679 283.347 150.824C283.429 150.97 283.452 151.141 283.411 151.303L283.413 151.307Z" fill="#8E8E8E"/>
<path opacity="0.47" d="M218.766 301.368C218.88 301.052 218.843 300.759 218.833 300.459L218.806 299.561L218.784 297.766C218.784 296.569 218.811 295.373 218.865 294.178C218.971 291.787 219.175 289.4 219.494 287.022C220.146 282.278 221.222 277.547 223.137 273.092C225.031 268.663 227.9 264.44 232.062 261.677C234.143 260.317 236.463 259.362 238.9 258.865C241.322 258.354 243.811 258.279 246.245 258.492C255.788 259.599 265.137 261.427 274.513 262.912C279.183 263.608 283.919 264.231 288.504 263.604C289.641 263.441 290.762 263.185 291.857 262.837C292.943 262.474 293.992 262.005 294.988 261.439C296.981 260.303 298.736 258.745 300.301 257.018L300.306 257.012C300.41 256.902 300.553 256.837 300.704 256.831C300.855 256.824 301.003 256.877 301.116 256.977C301.229 257.077 301.298 257.218 301.309 257.369C301.321 257.52 301.273 257.669 301.176 257.785C299.585 259.612 297.774 261.306 295.654 262.573C294.593 263.209 293.472 263.738 292.308 264.155C291.141 264.554 289.942 264.855 288.725 265.055C283.84 265.771 279 265.169 274.277 264.515C269.538 263.841 264.861 262.963 260.166 262.203C255.471 261.443 250.753 260.706 246.092 260.159C243.792 259.931 241.466 259.989 239.222 260.441C236.976 260.878 234.833 261.737 232.907 262.973C229.033 265.439 226.223 269.364 224.314 273.612C222.383 277.881 221.237 282.504 220.51 287.167C220.151 289.503 219.907 291.86 219.758 294.223C219.682 295.404 219.634 296.587 219.614 297.772L219.601 299.547L219.612 300.433C219.62 300.726 219.607 301.029 219.751 301.307C219.792 301.386 219.813 301.475 219.812 301.564C219.81 301.653 219.787 301.741 219.743 301.819C219.699 301.897 219.637 301.963 219.561 302.011C219.486 302.059 219.4 302.087 219.31 302.093C219.221 302.1 219.132 302.084 219.05 302.047C218.969 302.01 218.898 301.954 218.843 301.883C218.789 301.812 218.753 301.729 218.739 301.64C218.725 301.552 218.733 301.462 218.763 301.377L218.766 301.368Z" fill="#8E8E8E"/>
<path d="M168.917 3.69349C154.543 3.57991 140.044 5.85841 127.216 11.181C97.3557 23.5685 72.0133 56.3466 81.9307 89.8268C85.1525 100.704 83.4598 112.703 94.2964 117.428C100.159 119.986 116.127 121.508 122.198 119.493C138.33 114.136 148.941 99.4746 140.166 83.2173C137.355 78.0117 133.718 73.2548 131.291 67.8596C128.864 62.4643 127.758 56.0593 130.232 50.6845C135.091 40.1359 151.223 36.7829 161.685 37.0986C174.035 37.4723 185.225 43.5798 191.87 54.0556C200.152 67.1179 202.251 82.9947 201.038 98.1514C199.741 114.369 192.902 126.754 182.653 139.195C173.828 149.906 164.111 160.189 158.245 172.766C152.861 184.313 151.102 197.106 150.861 209.739C150.815 212.187 138.637 235.26 138.689 242.309C138.697 243.305 152.501 246.604 153.497 246.615L178.83 246.899C179.365 246.906 179.881 246.699 180.265 246.326C180.648 245.952 180.868 245.442 180.875 244.907C181.26 210.611 191.812 177.915 218.518 154.882C228.237 146.502 238.702 139.677 246.259 129.099C257.03 114.021 262.343 99.1839 260.809 80.5753C259.408 63.5808 253.811 46.5773 242.733 33.3913C230.824 19.2193 213.395 10.37 195.281 6.55014C186.61 4.72625 177.778 3.76933 168.917 3.69349Z" fill="#9237E3" fill-opacity="0.28"/>
<path d="M195.426 285.344C195.426 301.114 186.678 315.066 170.91 315.066C167.502 315.066 155.915 315.097 152.884 314.003C141.889 310.028 141.85 301.585 141.85 289.221C141.85 273.451 147.175 257.941 162.948 257.941C178.72 257.941 195.426 269.574 195.426 285.344Z" fill="#9237E3" fill-opacity="0.28"/>
<path d="M155.259 0.0997376C140.885 -0.0138467 126.386 2.26579 113.558 7.58722C83.6975 19.9747 58.355 52.7529 68.2725 86.233C71.4943 97.1099 78.9432 110.8 89.7798 115.528C95.6428 118.084 102.469 117.913 108.54 115.9C124.672 110.543 135.283 95.8831 126.507 79.6247C123.697 74.4191 120.059 69.6622 117.633 64.2669C115.206 58.8717 114.1 52.4667 116.574 47.0919C121.431 36.5421 137.564 33.1891 148.027 33.5049C160.377 33.8786 171.567 39.986 178.212 50.463C186.494 63.5196 188.592 79.4009 187.38 94.5576C186.084 110.775 179.244 123.16 168.995 135.601C160.17 146.313 150.453 156.595 144.587 169.172C139.204 180.719 137.444 193.512 137.203 206.145C137.155 208.593 137.98 234.162 138.032 241.211C138.036 241.689 138.227 242.147 138.564 242.486C138.902 242.824 139.359 243.017 139.838 243.021L165.171 243.305C165.706 243.312 166.222 243.106 166.606 242.732C166.989 242.359 167.209 241.848 167.216 241.313C167.602 207.017 178.152 174.322 204.859 151.288C214.578 142.908 225.043 136.083 232.6 125.505C243.37 110.428 248.683 95.5901 247.15 76.9827C245.751 59.986 240.155 42.9835 229.076 29.7975C217.168 15.6256 199.739 6.77623 181.624 2.95638C172.952 1.13236 164.12 0.175435 155.259 0.0997376Z" fill="#C585FF"/>
<path d="M156.763 314.056C172.536 314.056 185.322 301.271 185.322 285.5C185.322 269.73 172.536 256.945 156.763 256.945C140.99 256.945 128.203 269.73 128.203 285.5C128.203 301.271 140.99 314.056 156.763 314.056Z" fill="#C585FF"/>
<path d="M77.7218 82.9524C77.6384 82.9525 77.5575 82.924 77.4926 82.8717C77.4277 82.8194 77.3827 82.7465 77.365 82.665C75.3634 73.6294 75.0691 59.4802 85.0355 43.3853C94.7621 27.6743 108.407 17.1621 125.592 12.1405C143.96 6.77252 165.764 7.92198 190.415 15.556C190.507 15.5861 190.582 15.6509 190.626 15.7363C190.671 15.8217 190.679 15.921 190.651 16.0129C190.622 16.1047 190.559 16.1817 190.474 16.2273C190.39 16.2729 190.291 16.2835 190.198 16.2568C165.695 8.66483 144.03 7.51763 125.803 12.8493C108.799 17.8197 95.2949 28.224 85.666 43.776C75.8303 59.6631 76.1166 73.6101 78.0887 82.5083C78.1093 82.6032 78.0915 82.7023 78.0391 82.7841C77.9867 82.8658 77.9041 82.9235 77.8092 82.9444C77.7805 82.9505 77.7511 82.9532 77.7218 82.9524Z" fill="white"/>
<path d="M83.7334 97.4906C83.6755 97.4907 83.6184 97.4771 83.5669 97.4509C83.5153 97.4246 83.4708 97.3864 83.4369 97.3395C83.3505 97.226 81.2921 94.3784 79.3779 89.3705C79.3542 89.2828 79.364 89.1895 79.4052 89.1086C79.4464 89.0277 79.5161 88.965 79.6008 88.9325C79.6856 88.9 79.7794 88.9001 79.8641 88.9327C79.9488 88.9654 80.0184 89.0283 80.0595 89.1092C81.9385 94.0263 84.0049 96.8795 84.0253 96.9079C84.0655 96.9624 84.0898 97.0271 84.0954 97.0946C84.101 97.1621 84.0877 97.2298 84.0571 97.2902C84.0265 97.3506 83.9797 97.4014 83.9219 97.4367C83.8642 97.4721 83.7977 97.4908 83.73 97.4906H83.7334Z" fill="white"/>
<path d="M166.305 267.121C166.248 267.121 166.191 267.107 166.14 267.081C163.232 265.601 160.012 264.834 156.749 264.844C156.655 264.839 156.567 264.798 156.503 264.73C156.438 264.662 156.402 264.572 156.402 264.478C156.402 264.384 156.438 264.294 156.503 264.226C156.567 264.158 156.655 264.117 156.749 264.111C160.128 264.101 163.461 264.895 166.472 266.427C166.546 266.465 166.605 266.526 166.639 266.601C166.674 266.676 166.682 266.76 166.663 266.84C166.643 266.921 166.598 266.992 166.533 267.043C166.468 267.094 166.388 267.122 166.305 267.121Z" fill="white"/>
<path d="M144.922 303.533C144.849 303.533 144.777 303.511 144.717 303.47C141.644 301.396 139.159 298.565 137.502 295.249C135.845 291.934 135.073 288.247 135.26 284.545C135.447 280.843 136.586 277.253 138.569 274.121C140.551 270.989 143.309 268.422 146.575 266.668C146.66 266.628 146.757 266.622 146.846 266.651C146.936 266.68 147.011 266.743 147.055 266.826C147.1 266.909 147.111 267.005 147.086 267.096C147.061 267.187 147.003 267.265 146.922 267.314C143.766 269.006 141.101 271.486 139.185 274.511C137.268 277.537 136.167 281.006 135.986 284.583C135.806 288.159 136.552 291.722 138.154 294.925C139.755 298.128 142.158 300.863 145.127 302.865C145.192 302.91 145.241 302.973 145.267 303.047C145.293 303.121 145.295 303.201 145.272 303.276C145.249 303.351 145.202 303.417 145.139 303.463C145.076 303.51 145 303.535 144.922 303.536V303.533Z" fill="white"/>
<g opacity="0.3">
<path d="M61.7472 53.5186C61.6758 53.6068 61.5877 53.6801 61.488 53.7343C61.3882 53.7885 61.2788 53.8224 61.1659 53.8342C61.0529 53.8461 60.9388 53.8355 60.83 53.8032C60.7212 53.7708 60.6198 53.7173 60.5317 53.6458C59.8103 53.0631 59.0549 52.502 58.2812 51.9795C58.0943 51.8523 57.9645 51.657 57.9198 51.4354C57.875 51.2138 57.9187 50.9835 58.0415 50.7937L58.0506 50.7789C58.1798 50.5897 58.3788 50.4594 58.604 50.4168C58.8291 50.3742 59.062 50.4228 59.2514 50.5518C60.0636 51.1015 60.86 51.6876 61.6189 52.3066C61.7833 52.4407 61.8926 52.6305 61.9262 52.8399C61.9597 53.0494 61.915 53.2638 61.8006 53.4425C61.7836 53.4697 61.7666 53.4947 61.7472 53.5186ZM54.3506 49.6931C53.5145 49.2807 52.6534 48.898 51.79 48.5572C51.58 48.4712 51.4123 48.306 51.323 48.0974C51.2338 47.8888 51.2301 47.6535 51.3129 47.4422C51.3956 47.2309 51.5582 47.0606 51.7654 46.9681C51.9726 46.8756 52.2079 46.8683 52.4205 46.9477C53.3293 47.3044 54.2381 47.7042 55.1151 48.1381C55.3205 48.2397 55.4772 48.4186 55.5507 48.6357C55.6242 48.8527 55.6085 49.09 55.5071 49.2955C55.4924 49.3265 55.4757 49.3565 55.4571 49.3852C55.3423 49.5631 55.1663 49.6927 54.9623 49.7494C54.7584 49.8061 54.5407 49.7861 54.3506 49.6931ZM47.4526 47.201C46.5438 46.9852 45.6248 46.8069 44.7046 46.6694C44.4935 46.6196 44.3088 46.4923 44.1872 46.3127C44.0656 46.1331 44.016 45.9144 44.0482 45.6999C44.0804 45.4855 44.192 45.2909 44.3609 45.1549C44.5299 45.0189 44.7438 44.9514 44.9602 44.9657C45.9281 45.1111 46.9017 45.2985 47.8537 45.5256C48.0766 45.579 48.2692 45.7187 48.3891 45.914C48.5091 46.1093 48.5465 46.3443 48.4932 46.5672C48.4719 46.6634 48.4334 46.755 48.3796 46.8375C48.2816 46.9864 48.1398 47.1013 47.9738 47.1664C47.8078 47.2314 47.6258 47.2435 47.4526 47.201ZM40.1707 46.3151C39.2403 46.3071 38.2986 46.3389 37.3727 46.4105C37.1475 46.4221 36.9267 46.3453 36.7574 46.1964C36.5881 46.0476 36.4836 45.8385 36.4663 45.6137C36.4489 45.3889 36.5201 45.1663 36.6646 44.9933C36.8091 44.8202 37.0155 44.7105 37.2398 44.6874C38.2156 44.6124 39.2062 44.5738 40.1855 44.5863C40.4148 44.5883 40.6339 44.6812 40.7946 44.8447C40.9554 45.0082 41.0446 45.2288 41.0426 45.4581C41.0407 45.6873 40.9477 45.9064 40.7842 46.0671C40.6207 46.2278 40.4 46.317 40.1707 46.3151ZM32.8729 47.0727C31.9641 47.2703 31.0553 47.51 30.1646 47.786C29.945 47.8536 29.7075 47.8312 29.5043 47.7238C29.3012 47.6163 29.1491 47.4325 29.0814 47.2129C29.0138 46.9933 29.0362 46.7559 29.1437 46.5528C29.2511 46.3496 29.4349 46.1975 29.6546 46.1299C30.5906 45.8403 31.5494 45.5881 32.5037 45.3791C32.6146 45.3549 32.7292 45.3527 32.841 45.3728C32.9527 45.3928 33.0594 45.4347 33.155 45.496C33.2506 45.5572 33.3332 45.6367 33.398 45.7299C33.4628 45.8231 33.5087 45.9281 33.5329 46.0391C33.5572 46.15 33.5593 46.2645 33.5393 46.3763C33.5192 46.488 33.4774 46.5947 33.4161 46.6903C33.3548 46.7858 33.2753 46.8684 33.1821 46.9332C33.0889 46.998 32.9838 47.0439 32.8729 47.0681V47.0727ZM25.925 49.4239C25.0832 49.818 24.2482 50.2542 23.4428 50.7187C23.2444 50.8306 23.0099 50.8596 22.7902 50.7996C22.5705 50.7395 22.3833 50.5952 22.2694 50.398C22.1556 50.2008 22.1241 49.9666 22.1819 49.7464C22.2398 49.5261 22.3822 49.3375 22.5783 49.2217C23.4269 48.7321 24.3062 48.2744 25.1911 47.8587C25.2941 47.809 25.4059 47.7803 25.5201 47.7741C25.6342 47.7679 25.7485 47.7845 25.8562 47.8227C25.964 47.861 26.063 47.9203 26.1477 47.9971C26.2324 48.0739 26.301 48.1668 26.3495 48.2703C26.398 48.3738 26.4255 48.4859 26.4304 48.6001C26.4353 48.7143 26.4175 48.8284 26.3781 48.9357C26.3386 49.043 26.2782 49.1413 26.2004 49.2251C26.1227 49.3089 26.029 49.3765 25.925 49.4239ZM6.44558 74.9281C6.33335 74.9112 6.22556 74.8723 6.12838 74.8137C6.03119 74.7551 5.94652 74.6779 5.87921 74.5865C5.81189 74.4952 5.76325 74.3914 5.73607 74.2813C5.70888 74.1711 5.70369 74.0566 5.72079 73.9445C5.8662 72.9778 6.0616 72.0044 6.2888 71.0515C6.31558 70.9411 6.36384 70.837 6.43083 70.7453C6.49781 70.6536 6.58222 70.5759 6.67922 70.5168C6.77621 70.4577 6.88391 70.4183 6.99615 70.4008C7.10839 70.3833 7.22298 70.388 7.33338 70.4148C7.44378 70.4416 7.54781 70.4898 7.63956 70.5568C7.7313 70.6238 7.80896 70.7082 7.86809 70.8052C7.92722 70.9022 7.96665 71.0098 7.98416 71.122C8.00167 71.2343 7.9969 71.3488 7.97012 71.4592C7.752 72.3679 7.57138 73.2879 7.43278 74.2057C7.41517 74.3274 7.37095 74.4438 7.30327 74.5465C7.21247 74.6861 7.08314 74.7965 6.93092 74.8642C6.77871 74.9319 6.61013 74.9541 6.44558 74.9281ZM19.6712 53.2573C18.9384 53.8253 18.2227 54.4386 17.5423 55.0747C17.4591 55.1519 17.3615 55.2121 17.2551 55.2516C17.1487 55.2912 17.0355 55.3094 16.9221 55.3052C16.8086 55.3011 16.6971 55.2746 16.5939 55.2274C16.4906 55.1801 16.3977 55.113 16.3205 55.0298C16.2432 54.9467 16.183 54.8491 16.1435 54.7427C16.1039 54.6363 16.0857 54.5232 16.0899 54.4097C16.094 54.2963 16.1205 54.1848 16.1678 54.0816C16.215 53.9784 16.2822 53.8855 16.3653 53.8082C17.0822 53.1426 17.8422 52.4997 18.6079 51.8977C18.7693 51.7729 18.9697 51.7091 19.1737 51.7177C19.3776 51.7262 19.5719 51.8066 19.7224 51.9445C19.8728 52.0824 19.9697 52.2691 19.9959 52.4714C20.022 52.6738 19.9758 52.879 19.8654 53.0506C19.8127 53.1299 19.7471 53.1998 19.6712 53.2573ZM8.21437 67.6076C8.00105 67.5235 7.82987 67.3582 7.73847 67.148C7.64707 66.9377 7.64295 66.6998 7.72701 66.4865C8.08599 65.5778 8.48928 64.6692 8.92438 63.7934C9.02992 63.5945 9.20891 63.4447 9.42327 63.3757C9.63763 63.3068 9.87044 63.3241 10.0722 63.4242C10.2739 63.5242 10.4286 63.699 10.5035 63.9114C10.5783 64.1237 10.5673 64.3569 10.4728 64.5613C10.0593 65.395 9.67757 66.2559 9.33676 67.1203C9.29526 67.226 9.23331 67.3225 9.15446 67.4042C9.07561 67.4859 8.9814 67.5513 8.87725 67.5966C8.77309 67.6418 8.66102 67.6661 8.54747 67.668C8.43392 67.6699 8.3211 67.6493 8.2155 67.6076H8.21437ZM14.4455 58.3891C13.8593 59.1092 13.2969 59.8657 12.7732 60.6335C12.6432 60.8166 12.4469 60.9419 12.226 60.9829C12.0051 61.0238 11.777 60.9772 11.5899 60.8529C11.4028 60.7286 11.2715 60.5363 11.2237 60.3169C11.1759 60.0974 11.2154 59.868 11.3339 59.6771L11.3441 59.6624C11.8951 58.8525 12.487 58.0574 13.1038 57.2987C13.2442 57.1295 13.4437 57.0202 13.6618 56.9929C13.8799 56.9656 14.1003 57.0224 14.278 57.1518C14.4557 57.2811 14.5774 57.4733 14.6185 57.6892C14.6595 57.9052 14.6167 58.1286 14.4988 58.3141C14.4773 58.3391 14.4591 58.3641 14.4455 58.3891Z" fill="url(#paint2_linear_145_1206)"/>
<path d="M6.94733 80.6016C7.04296 80.4536 7.0913 80.2801 7.08593 80.1041C7.07116 79.6588 7.06662 79.2056 7.07003 78.7581C7.07516 78.6421 7.05689 78.5264 7.0163 78.4176C6.97572 78.3089 6.91365 78.2094 6.83379 78.1252C6.75393 78.041 6.65792 77.9737 6.55149 77.9273C6.44507 77.881 6.33039 77.8566 6.21431 77.8555C6.09824 77.8544 5.98313 77.8767 5.87587 77.9211C5.76861 77.9655 5.67138 78.031 5.58999 78.1137C5.50859 78.1965 5.4447 78.2948 5.40212 78.4028C5.35953 78.5107 5.33913 78.6262 5.34213 78.7422C5.34213 79.2136 5.34213 79.6895 5.35804 80.1586C5.36355 80.3429 5.42787 80.5206 5.5416 80.6658C5.65533 80.8109 5.81251 80.9159 5.99017 80.9654C6.16783 81.0149 6.35666 81.0063 6.52907 80.9408C6.70148 80.8754 6.84844 80.7565 6.94847 80.6016H6.94733Z" fill="url(#paint3_linear_145_1206)"/>
</g>
<g opacity="0.3">
<path d="M17.9879 104.52C18.0996 104.348 18.1462 104.142 18.1196 103.938C18.093 103.735 17.9947 103.547 17.8425 103.41C17.5119 103.111 17.1814 102.8 16.8621 102.486C16.7827 102.4 16.6867 102.332 16.5799 102.284C16.4731 102.236 16.3577 102.211 16.2408 102.209C16.1239 102.207 16.0078 102.229 15.8996 102.274C15.7914 102.318 15.6934 102.384 15.6114 102.467C15.5294 102.551 15.4652 102.65 15.4226 102.759C15.38 102.868 15.36 102.984 15.3637 103.101C15.3674 103.218 15.3948 103.333 15.4442 103.439C15.4936 103.545 15.564 103.639 15.6511 103.717C15.9919 104.048 16.3328 104.376 16.6826 104.691C16.853 104.844 17.0771 104.924 17.3059 104.912C17.5348 104.901 17.7498 104.799 17.9039 104.629C17.9344 104.595 17.9625 104.559 17.9879 104.52Z" fill="url(#paint4_linear_145_1206)"/>
<path d="M67.8264 99.3437C67.76 99.4357 67.6762 99.5137 67.5796 99.5732C67.4831 99.6328 67.3758 99.6727 67.2638 99.6908C67.1518 99.7089 67.0374 99.7048 66.927 99.6786C66.8166 99.6525 66.7125 99.6049 66.6205 99.5385C66.5286 99.4721 66.4506 99.3883 66.391 99.2918C66.3314 99.1953 66.2915 99.088 66.2734 98.976C66.2553 98.8641 66.2594 98.7496 66.2855 98.6393C66.3117 98.5289 66.3593 98.4248 66.4257 98.3328C66.9574 97.5957 67.4663 96.8244 67.9434 96.0327C68.0686 95.8517 68.2582 95.7253 68.4734 95.6792C68.6887 95.6331 68.9134 95.6709 69.1017 95.7847C69.2901 95.8986 69.4279 96.08 69.4871 96.292C69.5463 96.504 69.5224 96.7306 69.4203 96.9255C69.2135 97.2685 69.0018 97.607 68.7852 97.941C68.4796 98.4157 68.1559 98.8883 67.8264 99.3437ZM70.4393 93.1886C70.3348 93.1439 70.2401 93.0791 70.1607 92.9978C70.0813 92.9165 70.0187 92.8204 69.9765 92.7149C69.9343 92.6094 69.9133 92.4966 69.9148 92.383C69.9162 92.2694 69.94 92.1572 69.9849 92.0528C70.3473 91.2111 70.679 90.349 70.9687 89.4801C71.046 89.2688 71.2027 89.0961 71.4054 88.9985C71.6082 88.901 71.8409 88.8862 72.0543 88.9575C72.2677 89.0288 72.4449 89.1804 72.5483 89.3802C72.6517 89.58 72.6731 89.8122 72.6079 90.0275C72.3023 90.9362 71.9547 91.8517 71.5719 92.7365C71.5531 92.7822 71.5299 92.826 71.5026 92.8671C71.3916 93.0367 71.2245 93.1619 71.0305 93.2207C70.8365 93.2794 70.628 93.2681 70.4415 93.1886H70.4393ZM64.8125 102.965C64.1491 103.66 63.4493 104.336 62.7234 104.974C62.6388 105.052 62.5395 105.112 62.4314 105.151C62.3233 105.19 62.2085 105.207 62.0938 105.201C61.979 105.195 61.8666 105.166 61.7631 105.116C61.6596 105.066 61.5671 104.996 61.491 104.91C61.4149 104.824 61.3567 104.724 61.3198 104.615C61.283 104.506 61.2682 104.391 61.2763 104.276C61.2844 104.162 61.3153 104.05 61.3672 103.947C61.419 103.845 61.4908 103.754 61.5783 103.679C62.2599 103.073 62.9324 102.43 63.5629 101.771C63.7111 101.614 63.9128 101.518 64.1282 101.502C64.3437 101.486 64.5572 101.552 64.7267 101.686C64.8962 101.82 65.0093 102.012 65.0437 102.226C65.0781 102.439 65.0313 102.657 64.9125 102.838C64.8843 102.883 64.8515 102.926 64.8148 102.965H64.8125ZM72.7863 86.1543C72.5611 86.1119 72.362 85.9818 72.2327 85.7927C72.1034 85.6036 72.0545 85.3709 72.0967 85.1457C72.266 84.2461 72.3978 83.3283 72.4898 82.4197C72.5163 82.1943 72.6304 81.9884 72.8074 81.8464C72.9844 81.7044 73.2101 81.6377 73.4359 81.6607C73.6616 81.6837 73.8693 81.7944 74.0141 81.9692C74.1589 82.1439 74.2291 82.3685 74.2097 82.5946C74.1132 83.5521 73.9734 84.5176 73.7962 85.4649C73.7752 85.5764 73.7324 85.6828 73.6703 85.7778C73.6082 85.8729 73.5279 85.9548 73.4341 86.0188C73.3403 86.0828 73.2349 86.1277 73.1237 86.151C73.0125 86.1742 72.8979 86.1754 72.7863 86.1543ZM58.9938 107.841C58.1986 108.373 57.3591 108.878 56.5139 109.343C56.3129 109.453 56.0763 109.479 55.8561 109.415C55.636 109.351 55.4502 109.202 55.3398 109.001C55.2294 108.8 55.2033 108.564 55.2673 108.344C55.3313 108.123 55.4802 107.938 55.6812 107.827C56.4843 107.387 57.2716 106.907 58.0362 106.402C58.2018 106.292 58.4001 106.243 58.5977 106.262C58.7954 106.282 58.9804 106.368 59.1215 106.508C59.2627 106.648 59.3515 106.832 59.3729 107.029C59.3943 107.227 59.3471 107.426 59.2392 107.592C59.1758 107.691 59.0922 107.776 58.9938 107.841ZM52.2436 111.327C51.3438 111.668 50.4191 111.982 49.4955 112.251C49.2753 112.315 49.0386 112.289 48.8376 112.179C48.6366 112.068 48.4877 111.883 48.4237 111.663C48.3597 111.442 48.3858 111.206 48.4962 111.005C48.6067 110.804 48.7925 110.655 49.0127 110.591C49.8909 110.336 50.769 110.041 51.6256 109.713C51.8391 109.633 52.0753 109.641 52.283 109.735C52.4906 109.829 52.6529 110.001 52.7345 110.213C52.8161 110.426 52.8104 110.662 52.7187 110.871C52.627 111.079 52.4566 111.243 52.2447 111.327H52.2436ZM44.8912 113.258C43.9381 113.399 42.9679 113.501 42.008 113.561C41.7834 113.569 41.5646 113.489 41.3979 113.339C41.2312 113.188 41.1297 112.978 41.1149 112.754C41.1001 112.53 41.1732 112.309 41.3187 112.138C41.4642 111.966 41.6707 111.858 41.8944 111.837C42.8032 111.779 43.7279 111.681 44.6345 111.547C44.8613 111.513 45.0925 111.571 45.277 111.707C45.4615 111.843 45.5842 112.047 45.6183 112.274C45.6523 112.501 45.5948 112.732 45.4585 112.917C45.3221 113.101 45.1181 113.224 44.8912 113.258ZM37.2969 113.537C36.3358 113.466 35.3657 113.353 34.4159 113.196C34.2983 113.185 34.1842 113.15 34.0807 113.093C33.9771 113.036 33.8864 112.959 33.814 112.865C33.7417 112.772 33.6892 112.665 33.6599 112.55C33.6306 112.436 33.6251 112.317 33.6437 112.2C33.6623 112.083 33.7046 111.972 33.768 111.872C33.8314 111.772 33.9146 111.687 34.0124 111.62C34.1102 111.554 34.2206 111.509 34.3367 111.487C34.4528 111.465 34.5722 111.467 34.6874 111.493C35.5906 111.637 36.5051 111.744 37.4241 111.811C37.6528 111.828 37.8654 111.935 38.0152 112.108C38.165 112.282 38.2396 112.508 38.2228 112.736C38.2059 112.965 38.0989 113.178 37.9252 113.327C37.7516 113.477 37.5256 113.552 37.2969 113.535V113.537ZM29.8219 112.14C28.9028 111.861 27.9826 111.537 27.0874 111.179C26.8784 111.091 26.7123 110.925 26.6247 110.716C26.5372 110.507 26.5353 110.272 26.6195 110.061C26.7037 109.851 26.8672 109.682 27.0747 109.591C27.2823 109.5 27.5174 109.494 27.7293 109.574C28.579 109.915 29.4526 110.222 30.3262 110.483C30.4349 110.516 30.5359 110.57 30.6236 110.642C30.7112 110.715 30.7838 110.803 30.8372 110.903C30.8906 111.004 30.9237 111.113 30.9347 111.226C30.9456 111.339 30.9342 111.453 30.9011 111.562C30.8773 111.639 30.8429 111.713 30.7988 111.781C30.6965 111.938 30.5462 112.057 30.3704 112.12C30.1946 112.184 30.0029 112.189 29.8241 112.134L29.8219 112.14ZM22.8523 109.135C22.2355 108.786 21.622 108.413 21.029 108.027C20.8143 107.889 20.6019 107.747 20.3906 107.604C20.2959 107.54 20.2148 107.459 20.1519 107.364C20.0891 107.269 20.0458 107.163 20.0247 107.051C20.0035 106.939 20.0049 106.824 20.0287 106.713C20.0525 106.602 20.0983 106.496 20.1634 106.403C20.2925 106.214 20.4916 106.084 20.7167 106.041C20.9419 105.998 21.1748 106.047 21.3642 106.176C21.5641 106.312 21.7663 106.447 21.9708 106.58C22.5388 106.946 23.117 107.3 23.7044 107.632C23.9038 107.745 24.0501 107.933 24.1113 108.153C24.1724 108.374 24.1433 108.61 24.0304 108.81C24.0213 108.826 24.0122 108.841 24.002 108.855C23.882 109.039 23.6962 109.171 23.4826 109.223C23.2689 109.275 23.0435 109.243 22.8523 109.135Z" fill="url(#paint5_linear_145_1206)"/>
<path d="M74.2246 78.3704C74.3217 78.2219 74.3702 78.0468 74.3632 77.8695C74.3461 77.4016 74.3189 76.9256 74.2825 76.4543C74.2763 76.3392 74.2471 76.2266 74.1967 76.123C74.1463 76.0194 74.0756 75.9269 73.989 75.851C73.9023 75.775 73.8013 75.7172 73.692 75.6808C73.5826 75.6445 73.4671 75.6304 73.3522 75.6393C73.2373 75.6483 73.1254 75.6801 73.023 75.7329C72.9206 75.7857 72.8297 75.8585 72.7559 75.9469C72.682 76.0353 72.6265 76.1376 72.5927 76.2477C72.5589 76.3579 72.5475 76.4737 72.5592 76.5883C72.5944 77.0358 72.6205 77.4879 72.6364 77.932C72.6428 78.1159 72.7078 78.293 72.8219 78.4375C72.9359 78.5819 73.0931 78.6862 73.2706 78.7351C73.4481 78.784 73.6365 78.775 73.8085 78.7095C73.9805 78.6439 74.127 78.5251 74.2268 78.3704H74.2246Z" fill="url(#paint6_linear_145_1206)"/>
</g>
<path d="M63.3847 68.2706C63.3587 68.1907 63.3086 68.1209 63.2413 68.0706C63.1739 68.0204 63.0927 67.9922 63.0087 67.99L58.0931 67.8764C56.8967 65.8794 55.3826 64.0908 53.6104 62.5811L54.3124 57.7197C54.3241 57.6364 54.3096 57.5516 54.271 57.4769C54.2323 57.4022 54.1714 57.3414 54.0966 57.3029L48.8538 54.6052C48.7791 54.5665 48.6941 54.5522 48.6108 54.5642C48.5274 54.5762 48.45 54.614 48.3892 54.6723L44.8403 58.0684C42.5815 57.5043 40.2458 57.3125 37.9253 57.5005L34.9807 53.5637C34.9301 53.4965 34.8598 53.4468 34.7796 53.4213C34.6994 53.3959 34.6132 53.396 34.5331 53.4217L28.9178 55.2209C28.8376 55.2464 28.7675 55.2964 28.7171 55.3639C28.6668 55.4313 28.6389 55.5127 28.6371 55.5968L28.5326 60.5139C26.5358 61.7108 24.747 63.2246 23.2365 64.9959L18.3743 64.2951C18.2911 64.283 18.2062 64.2972 18.1314 64.3356C18.0567 64.3741 17.9958 64.435 17.9574 64.5098L15.2548 69.754C15.2165 69.8287 15.2024 69.9135 15.2147 69.9966C15.2269 70.0797 15.2647 70.1569 15.3229 70.2174L18.7197 73.7669C18.1554 76.0253 17.9635 78.3606 18.1516 80.6808L14.2142 83.6249C14.147 83.6753 14.0972 83.7453 14.0717 83.8254C14.0462 83.9054 14.0464 83.9914 14.0722 84.0713L15.8716 89.6858C15.897 89.7658 15.9468 89.8359 16.014 89.8862C16.0813 89.9365 16.1626 89.9645 16.2465 89.9663L21.1621 90.0799C22.3582 92.0771 23.8724 93.8657 25.6449 95.3752L24.9439 100.238C24.9318 100.321 24.946 100.406 24.9845 100.481C25.023 100.555 25.0839 100.616 25.1586 100.655L30.4025 103.352C30.4771 103.391 30.5619 103.405 30.645 103.393C30.7282 103.381 30.8054 103.343 30.866 103.285L34.4161 99.889C36.6749 100.453 39.0105 100.645 41.3311 100.457L44.2757 104.393C44.3258 104.46 44.3958 104.51 44.4759 104.536C44.556 104.562 44.6421 104.562 44.7221 104.536L50.3375 102.737C50.4177 102.711 50.488 102.661 50.5383 102.594C50.5886 102.526 50.6165 102.445 50.6181 102.361L50.7317 97.4459C52.7286 96.2486 54.5164 94.7331 56.0244 92.9593L60.8877 93.6612C60.9709 93.6728 61.0556 93.6584 61.1303 93.62C61.2049 93.5816 61.2658 93.521 61.3047 93.4465L64.0027 88.2035C64.0411 88.1287 64.0553 88.0438 64.0433 87.9605C64.0313 87.8773 63.9937 87.7999 63.9357 87.7389L60.539 84.1905C61.1026 81.9321 61.2945 79.5968 61.107 77.2767L65.0445 74.3326C65.1119 74.2824 65.1619 74.2123 65.1876 74.1323C65.2132 74.0523 65.2133 73.9662 65.1876 73.8862L63.3847 68.2706Z" fill="#C9C9C9"/>
<path opacity="0.56" d="M44.0741 82.898C43.0595 84.0502 41.6376 84.764 40.1074 84.8895C38.5772 85.0149 37.058 84.5423 35.8692 83.5708C34.6804 82.5994 33.9147 81.2049 33.7331 79.6806C33.5515 78.1563 33.9681 76.621 34.8954 75.3975C35.8226 74.174 37.1883 73.3577 38.7051 73.1202C40.222 72.8828 41.7718 73.2427 43.0287 74.1242C44.2856 75.0058 45.1517 76.3403 45.4447 77.8472C45.7378 79.354 45.435 80.9158 44.6001 82.204C44.442 82.4479 44.2662 82.6799 44.0741 82.898ZM35.0916 79.2633C35.1583 80.3122 35.5867 81.3054 36.3037 82.0739C37.0207 82.8424 37.982 83.3385 39.0239 83.4779C40.0657 83.6173 41.1236 83.3912 42.0175 82.8382C42.9113 82.2852 43.5858 81.4395 43.926 80.4452C44.2662 79.4508 44.2511 78.3692 43.8833 77.3847C43.5154 76.4002 42.8176 75.5737 41.9087 75.0459C40.9997 74.518 39.9359 74.3216 38.8984 74.49C37.8608 74.6584 36.9138 75.1812 36.2185 75.9694C36.0696 76.1383 35.9333 76.3178 35.8107 76.5066C35.2789 77.3235 35.0266 78.2908 35.0916 79.2633Z" fill="white"/>
<path opacity="0.56" d="M51.7073 86.97C51.9796 86.5513 52.2306 86.1191 52.4594 85.6752C52.5321 85.5343 52.6025 85.3923 52.6695 85.2492C53.0041 84.5456 53.2818 83.8163 53.5 83.0684C53.5 83.0582 53.5 83.0479 53.5091 83.0377L53.5341 82.9514C53.55 82.8946 53.5647 82.8378 53.5806 82.7822C53.6003 82.7117 53.5968 82.6368 53.5707 82.5684C53.5445 82.5001 53.497 82.442 53.4352 82.4028C53.405 82.3826 53.3716 82.3676 53.3364 82.3585C53.2925 82.346 53.2466 82.3424 53.2013 82.348C53.1561 82.3536 53.1124 82.3682 53.0729 82.391C53.0334 82.4138 52.9988 82.4442 52.9713 82.4806C52.9438 82.517 52.9238 82.5585 52.9126 82.6027C52.1736 85.3441 50.6124 87.7934 48.4393 89.6211C46.2661 91.4487 43.5851 92.5669 40.7572 92.8253C38.1311 93.0707 35.4896 92.5582 33.1458 91.3487C32.7221 91.1305 32.3096 90.8913 31.9098 90.632C28.9341 88.6852 26.8188 85.671 26.0003 82.2109C25.1817 78.7508 25.7222 75.1085 27.5103 72.0351C29.2984 68.9617 32.1978 66.6914 35.6107 65.6924C39.0236 64.6934 42.6898 65.0417 45.8534 66.6657C48.0864 67.8132 49.9659 69.5452 51.2915 71.677C51.3184 71.72 51.3545 71.7565 51.3972 71.7838C51.4623 71.8329 51.5429 71.8571 51.6243 71.8518C51.7057 71.8466 51.7826 71.8124 51.8409 71.7553C51.8992 71.6983 51.9351 71.6222 51.9421 71.5409C51.949 71.4596 51.9266 71.3786 51.8789 71.3124C50.7517 69.4993 49.2391 67.9567 47.4484 66.794C47.0349 66.526 46.6077 66.2784 46.1669 66.0512C39.0213 62.3733 30.2149 65.197 26.5376 72.3392C24.8882 75.5462 24.4864 79.2507 25.4096 82.7367C26.3328 86.2227 28.5155 89.2428 31.5361 91.2135C31.9526 91.4839 32.3851 91.7349 32.8334 91.9666C36.0408 93.6162 39.746 94.0183 43.2327 93.0952C46.7194 92.1721 49.7401 89.9893 51.7107 86.9689L51.7073 86.97Z" fill="white"/>
<g opacity="0.3">
<path d="M96.968 41.1302C97.031 41.0337 97.0609 40.9193 97.0531 40.8043C97.0453 40.6894 97.0003 40.5801 96.9249 40.4929C96.6306 40.1522 96.3205 39.8114 96.0058 39.4832C95.9069 39.3839 95.7729 39.3275 95.6327 39.3262C95.4925 39.3249 95.3575 39.3787 95.2567 39.4761C95.1559 39.5734 95.0974 39.7065 95.0939 39.8466C95.0903 39.9867 95.1421 40.1226 95.2379 40.2249C95.5389 40.5361 95.8343 40.8598 96.1149 41.1881C96.2074 41.2952 96.3386 41.3614 96.4797 41.372C96.6209 41.3827 96.7605 41.337 96.8681 41.2449C96.9067 41.2116 96.9404 41.173 96.968 41.1302Z" fill="url(#paint7_linear_145_1206)"/>
<path d="M93.9892 38.313C93.9452 38.3676 93.8909 38.413 93.8293 38.4466C93.7678 38.4802 93.7002 38.5014 93.6305 38.5089C93.5607 38.5164 93.4902 38.51 93.4229 38.4903C93.3556 38.4705 93.2929 38.4377 93.2383 38.3937C92.655 37.9252 92.0484 37.4865 91.4207 37.0795C91.29 36.9943 91.156 36.9102 91.0219 36.8262C90.9018 36.7514 90.8162 36.632 90.784 36.4942C90.7519 36.3564 90.7757 36.2115 90.8504 36.0913C90.9282 35.9748 91.0475 35.8922 91.184 35.8604C91.3205 35.8285 91.464 35.8498 91.5854 35.9198C91.7263 36.0072 91.8648 36.0947 92.0023 36.1844C92.6592 36.6111 93.2939 37.071 93.904 37.5622C94.0071 37.645 94.0757 37.7631 94.0967 37.8936C94.1177 38.0241 94.0895 38.1578 94.0176 38.2687L93.9892 38.313ZM88.6397 35.5404C87.8186 35.1613 86.9753 34.8324 86.1143 34.5556C86.0472 34.5342 85.9849 34.4998 85.9311 34.4544C85.8773 34.4089 85.8329 34.3533 85.8006 34.2907C85.7682 34.2281 85.7486 34.1597 85.7426 34.0895C85.7367 34.0193 85.7447 33.9486 85.7661 33.8815C85.7875 33.8144 85.8219 33.7521 85.8674 33.6983C85.9129 33.6445 85.9685 33.6002 86.0311 33.5678C86.0937 33.5355 86.1621 33.5158 86.2323 33.5099C86.3025 33.504 86.3732 33.512 86.4403 33.5334C87.343 33.8229 88.227 34.1677 89.0873 34.5659C89.1509 34.5953 89.2081 34.637 89.2556 34.6886C89.3031 34.7401 89.34 34.8006 89.3642 34.8664C89.3883 34.9322 89.3993 35.0021 89.3964 35.0722C89.3935 35.1422 89.3769 35.211 89.3474 35.2746C89.3374 35.2983 89.3249 35.3208 89.3099 35.3416C89.241 35.45 89.1351 35.5298 89.012 35.5663C88.8888 35.6028 88.7566 35.5936 88.6397 35.5404ZM83.4867 33.89C82.5973 33.7237 81.6985 33.6122 80.7954 33.5561C80.6563 33.5445 80.5271 33.4789 80.4358 33.3733C80.3444 33.2677 80.2981 33.1305 80.3067 32.9911C80.3153 32.8518 80.3782 32.7213 80.4819 32.6278C80.5856 32.5342 80.7218 32.485 80.8613 32.4907C81.8083 32.5492 82.7507 32.666 83.6832 32.8405C83.8224 32.8666 83.9456 32.9468 84.0256 33.0637C84.1056 33.1805 84.1358 33.3244 84.1098 33.4635C84.0837 33.6027 84.0034 33.7258 83.8866 33.8058C83.7697 33.8858 83.6259 33.9161 83.4867 33.89ZM78.0849 33.5561C77.1825 33.6121 76.2845 33.7236 75.3959 33.89C75.2567 33.9162 75.1128 33.8861 74.9958 33.8062C74.8789 33.7263 74.7985 33.6033 74.7722 33.4641C74.746 33.3249 74.7762 33.181 74.8561 33.0641C74.936 32.9471 75.059 32.8667 75.1982 32.8405C76.1305 32.6666 77.0725 32.5497 78.019 32.4907C78.1585 32.485 78.2948 32.5342 78.3984 32.6278C78.5021 32.7213 78.565 32.8518 78.5736 32.9911C78.5822 33.1305 78.5359 33.2677 78.4445 33.3733C78.3532 33.4789 78.2241 33.5445 78.0849 33.5561ZM72.766 34.5511C71.9044 34.8251 71.0603 35.1513 70.2384 35.5279C70.1104 35.5826 69.9661 35.5852 69.8363 35.5351C69.7065 35.485 69.6014 35.3862 69.5433 35.2597C69.4853 35.1333 69.4789 34.9892 69.5255 34.8581C69.5722 34.727 69.6681 34.6193 69.793 34.5579C70.6544 34.1635 71.5392 33.8221 72.4423 33.5357C72.5094 33.5144 72.58 33.5066 72.6502 33.5126C72.7204 33.5187 72.7886 33.5385 72.8511 33.5709C72.9136 33.6033 72.9691 33.6478 73.0145 33.7016C73.0598 33.7555 73.0941 33.8178 73.1153 33.8849C73.1366 33.952 73.1444 34.0227 73.1384 34.0928C73.1323 34.163 73.1125 34.2313 73.0801 34.2938C73.0476 34.3563 73.0032 34.4117 72.9493 34.4571C72.8954 34.5024 72.8331 34.5367 72.766 34.5579V34.5511ZM67.8493 36.8069C67.0809 37.2814 66.3426 37.803 65.6386 38.3687C65.5279 38.4522 65.3889 38.4894 65.2513 38.4723C65.1136 38.4553 64.988 38.3853 64.901 38.2772C64.814 38.1691 64.7725 38.0315 64.7853 37.8933C64.7981 37.7552 64.8642 37.6275 64.9695 37.5372C65.708 36.9433 66.4827 36.3959 67.2892 35.8982C67.3925 35.8351 67.514 35.8089 67.6341 35.8239C67.7541 35.8389 67.8655 35.8943 67.95 35.9808C68.0345 36.0674 68.087 36.1801 68.0991 36.3005C68.1111 36.4208 68.082 36.5417 68.0163 36.6433C67.9737 36.7097 67.9166 36.7657 67.8493 36.8069ZM63.6358 40.194C63.0073 40.8438 62.4192 41.5315 61.875 42.2533C61.7897 42.3664 61.663 42.441 61.5227 42.4607C61.3824 42.4804 61.24 42.4436 61.1269 42.3583C61.0137 42.2731 60.9391 42.1464 60.9194 42.0061C60.8997 41.8658 60.9365 41.7235 61.0218 41.6104C61.5927 40.8538 62.2096 40.1331 62.869 39.4523C62.9612 39.3566 63.0858 39.2988 63.2184 39.2901C63.351 39.2814 63.482 39.3225 63.586 39.4052C63.6899 39.488 63.7592 39.6065 63.7804 39.7377C63.8016 39.8688 63.7731 40.0032 63.7005 40.1145C63.6818 40.1432 63.6601 40.1698 63.6358 40.194ZM58.4726 47.2248C58.408 47.1976 58.3494 47.1578 58.3001 47.1079C58.2509 47.0579 58.212 46.9988 58.1856 46.9338C58.1592 46.8688 58.1459 46.7993 58.1464 46.7292C58.1469 46.6591 58.1612 46.5897 58.1886 46.5252C58.5104 45.7686 58.8722 45.0296 59.2723 44.3114C59.3325 44.1978 59.3939 44.0933 59.4564 43.9854C59.4903 43.9225 59.5365 43.8671 59.5923 43.8225C59.6481 43.7778 59.7123 43.7448 59.781 43.7253C59.8498 43.7059 59.9218 43.7005 59.9927 43.7094C60.0636 43.7183 60.132 43.7413 60.1938 43.7772C60.2556 43.813 60.3097 43.8608 60.3526 43.9179C60.3956 43.975 60.4267 44.0401 60.4441 44.1094C60.4614 44.1787 60.4647 44.2508 60.4537 44.3214C60.4427 44.392 60.4176 44.4597 60.3799 44.5204C60.322 44.6215 60.2663 44.7237 60.2061 44.8282C59.8241 45.515 59.479 46.2218 59.1724 46.9454C59.1453 47.0102 59.1057 47.069 59.0558 47.1184C59.0059 47.1678 58.9467 47.2068 58.8816 47.2332C58.8166 47.2596 58.7469 47.2729 58.6767 47.2722C58.6065 47.2716 58.5371 47.257 58.4726 47.2294V47.2248Z" fill="url(#paint8_linear_145_1206)"/>
</g>
<g opacity="0.3">
<path d="M98.581 68.3296C98.0624 69.1043 97.4979 69.8473 96.8906 70.5547C96.7982 70.6621 96.667 70.7284 96.5258 70.7391C96.3845 70.7497 96.2448 70.7038 96.1374 70.6115C96.03 70.5192 95.9637 70.388 95.953 70.2467C95.9424 70.1055 95.9883 69.9658 96.0806 69.8585C96.6603 69.1844 97.1986 68.4758 97.6926 67.7367C97.7712 67.62 97.8926 67.539 98.0306 67.5113C98.1685 67.4836 98.3118 67.5115 98.4293 67.5889C98.5468 67.6662 98.629 67.7869 98.658 67.9245C98.6871 68.0621 98.6606 68.2057 98.5844 68.3239L98.581 68.3296ZM99.274 66.1511C99.2115 66.1194 99.1559 66.0757 99.1103 66.0226C99.0647 65.9694 99.0301 65.9078 99.0083 65.8412C98.9866 65.7746 98.9782 65.7044 98.9836 65.6346C98.9891 65.5648 99.0082 65.4967 99.04 65.4343C99.4419 64.6406 99.7962 63.8236 100.101 62.9877C100.123 62.9198 100.159 62.857 100.206 62.8031C100.253 62.7493 100.311 62.7054 100.375 62.6741C100.439 62.6429 100.509 62.6249 100.581 62.6212C100.652 62.6174 100.723 62.6281 100.791 62.6526C100.858 62.677 100.92 62.7147 100.972 62.7634C101.024 62.8121 101.066 62.8708 101.096 62.9361C101.125 63.0014 101.141 63.0719 101.142 63.1434C101.144 63.2149 101.131 63.2859 101.104 63.3523C100.785 64.2286 100.413 65.0851 99.9919 65.9171C99.9832 65.9344 99.9733 65.9511 99.9624 65.967C99.8905 66.0771 99.7804 66.1567 99.6534 66.1907C99.5263 66.2246 99.3912 66.2105 99.274 66.1511ZM94.94 72.5595C94.2499 73.1866 93.5223 73.7711 92.7611 74.3098C92.704 74.3522 92.639 74.3828 92.5699 74.3998C92.5008 74.4167 92.429 74.4197 92.3588 74.4085C92.2885 74.3973 92.2212 74.3722 92.1608 74.3346C92.1004 74.2971 92.0481 74.2478 92.007 74.1897C91.9659 74.1317 91.9368 74.066 91.9214 73.9965C91.906 73.9271 91.9047 73.8553 91.9175 73.7853C91.9303 73.7153 91.957 73.6486 91.9959 73.5891C92.0348 73.5295 92.0853 73.4784 92.1443 73.4386C92.8699 72.924 93.5641 72.3664 94.2232 71.7689C94.3193 71.6846 94.4425 71.6376 94.5704 71.6364C94.6982 71.6353 94.8223 71.68 94.9199 71.7625C95.0176 71.845 95.0824 71.9598 95.1026 72.0861C95.1227 72.2123 95.0969 72.3416 95.0298 72.4504C95.0046 72.4905 94.9745 72.5271 94.94 72.5595ZM101.257 61.0716C101.12 61.0394 101 60.9539 100.925 60.8338C100.85 60.7138 100.826 60.5689 100.858 60.4309C101.057 59.5642 101.203 58.6861 101.296 57.8015C101.311 57.6606 101.382 57.5316 101.492 57.4426C101.602 57.3537 101.743 57.3122 101.884 57.3272C102.025 57.3423 102.154 57.4127 102.243 57.5229C102.332 57.6332 102.373 57.7742 102.358 57.9151C102.263 58.8427 102.111 59.7637 101.904 60.6729C101.89 60.7338 101.865 60.7918 101.831 60.8444C101.771 60.9367 101.683 61.0081 101.58 61.0488C101.478 61.0894 101.365 61.0974 101.257 61.0716ZM90.388 75.7819C89.567 76.2239 88.7202 76.6164 87.8524 76.9575C87.787 76.9831 87.7173 76.9955 87.6471 76.9941C87.577 76.9928 87.5078 76.9776 87.4435 76.9495C87.3792 76.9214 87.321 76.8809 87.2724 76.8303C87.2238 76.7798 87.1856 76.7201 87.16 76.6548C87.1344 76.5894 87.1219 76.5197 87.1233 76.4495C87.1247 76.3794 87.1398 76.3102 87.1679 76.2459C87.1961 76.1816 87.2366 76.1235 87.2871 76.0749C87.3377 76.0262 87.3974 75.9881 87.4627 75.9625C88.2905 75.6384 89.0978 75.2644 89.8802 74.8425C89.9846 74.7862 90.1048 74.7663 90.2218 74.7859C90.3388 74.8056 90.4459 74.8636 90.5263 74.9508C90.6067 75.0381 90.6557 75.1496 90.6656 75.2678C90.6755 75.386 90.6458 75.5041 90.5811 75.6035C90.5323 75.6779 90.466 75.7392 90.388 75.7819ZM85.1929 77.8184C84.2899 78.0509 83.3737 78.2296 82.4494 78.3534C82.309 78.3719 82.167 78.334 82.0547 78.2478C81.9423 78.1616 81.8687 78.0344 81.8502 77.894C81.8317 77.7536 81.8697 77.6116 81.9558 77.4992C82.042 77.3869 82.1693 77.3133 82.3097 77.2948C83.1901 77.1768 84.0626 77.0061 84.9226 76.7837C84.9905 76.7662 85.0612 76.7623 85.1307 76.7722C85.2002 76.7821 85.267 76.8055 85.3274 76.8413C85.3878 76.877 85.4406 76.9242 85.4827 76.9803C85.5248 77.0364 85.5555 77.1002 85.5729 77.1682C85.5904 77.2361 85.5943 77.3068 85.5844 77.3763C85.5745 77.4457 85.5511 77.5125 85.5154 77.5729C85.4797 77.6333 85.4324 77.6861 85.3763 77.7282C85.3202 77.7703 85.2564 77.801 85.1884 77.8184H85.1929ZM79.6605 78.5533C78.7278 78.5637 77.7952 78.517 76.8682 78.4136C76.7965 78.4087 76.7266 78.3893 76.6627 78.3567C76.5987 78.3241 76.5419 78.279 76.4958 78.2239C76.4497 78.1689 76.4151 78.1051 76.3942 78.0365C76.3733 77.9678 76.3665 77.8956 76.3741 77.8242C76.3818 77.7528 76.4038 77.6837 76.4387 77.621C76.4737 77.5583 76.521 77.5033 76.5777 77.4593C76.6344 77.4153 76.6994 77.3832 76.7689 77.3649C76.8383 77.3466 76.9107 77.3424 76.9818 77.3527C77.8658 77.4516 78.7551 77.4959 79.6446 77.4856C79.7147 77.4847 79.7843 77.4976 79.8495 77.5236C79.9146 77.5496 79.9739 77.5882 80.0242 77.6372C80.0744 77.6861 80.1144 77.7445 80.1421 77.8089C80.1698 77.8733 80.1845 77.9426 80.1854 78.0127C80.1868 78.1179 80.1567 78.2211 80.099 78.3091C80.0517 78.3828 79.9869 78.4438 79.9104 78.4866C79.834 78.5294 79.7481 78.5527 79.6605 78.5545V78.5533Z" fill="url(#paint9_linear_145_1206)"/>
<path d="M102.393 55.3946C102.45 55.3049 102.48 55.2002 102.479 55.0936C102.47 54.6393 102.448 54.1849 102.413 53.7306C102.4 53.5914 102.332 53.463 102.225 53.373C102.118 53.2831 101.98 53.2388 101.84 53.2497C101.701 53.2605 101.571 53.3257 101.479 53.4311C101.387 53.5366 101.34 53.6739 101.349 53.8135C101.382 54.2406 101.403 54.6779 101.411 55.1141C101.413 55.2283 101.452 55.3387 101.522 55.4293C101.592 55.5198 101.688 55.5856 101.798 55.617C101.908 55.6484 102.025 55.6437 102.132 55.6037C102.239 55.5637 102.33 55.4904 102.393 55.3946Z" fill="url(#paint10_linear_145_1206)"/>
</g>
<path d="M95.1657 48.2511C95.1488 48.1975 95.1154 48.1505 95.0704 48.1169C95.0253 48.0833 94.9708 48.0647 94.9146 48.0637L91.6258 47.991C90.8261 46.6551 89.8139 45.4585 88.629 44.4483L89.0982 41.1941C89.1065 41.1386 89.0971 41.0818 89.0714 41.0319C89.0457 40.982 89.005 40.9414 88.955 40.9158L85.4481 39.1098C85.3981 39.0843 85.3414 39.0749 85.2858 39.083C85.2302 39.0912 85.1785 39.1164 85.138 39.1553L82.7626 41.427C81.2512 41.0491 79.6884 40.9202 78.1355 41.0453L76.1657 38.4113C76.1319 38.3661 76.0848 38.3326 76.031 38.3155C75.9772 38.2983 75.9194 38.2985 75.8657 38.3159L72.1089 39.5199C72.0552 39.5367 72.0081 39.57 71.9742 39.6151C71.9404 39.6601 71.9216 39.7146 71.9203 39.7709L71.8488 43.0648C70.5122 43.8657 69.3151 44.8789 68.3044 46.0646L65.0508 45.5955C64.9951 45.5873 64.9382 45.5967 64.8881 45.6223C64.8381 45.648 64.7972 45.6887 64.7713 45.7386L62.9662 49.2472C62.9403 49.2971 62.9306 49.3538 62.9386 49.4094C62.9465 49.465 62.9717 49.5167 63.0105 49.5573L65.2825 51.9324C64.9044 53.4434 64.7759 55.0061 64.902 56.5587L62.2664 58.5282C62.2214 58.5622 62.1881 58.6093 62.171 58.663C62.1539 58.7167 62.1539 58.7744 62.171 58.8281L63.3752 62.5855C63.3927 62.6389 63.4264 62.6856 63.4715 62.7191C63.5167 62.7527 63.5711 62.7715 63.6274 62.7729L66.9161 62.8444C67.7167 64.1807 68.7297 65.3777 69.9153 66.3883L69.4415 69.639C69.4338 69.6948 69.4435 69.7516 69.4693 69.8016C69.4951 69.8517 69.5358 69.8925 69.5858 69.9185L73.0938 71.7233C73.1439 71.7493 73.2008 71.759 73.2566 71.7511C73.3124 71.7431 73.3643 71.7179 73.4051 71.679L75.7805 69.4073C77.2919 69.7852 78.8547 69.9141 80.4076 69.789L82.3774 72.423C82.4112 72.4678 82.4581 72.5011 82.5117 72.5182C82.5652 72.5353 82.6227 72.5354 82.6762 72.5184L86.4342 71.3144C86.4878 71.297 86.5348 71.2635 86.5686 71.2183C86.6023 71.1731 86.6213 71.1186 86.6228 71.0623L86.6943 67.7683C88.0308 66.9678 89.228 65.955 90.2387 64.7697L93.4923 65.2388C93.5479 65.2465 93.6045 65.2367 93.6544 65.2109C93.7042 65.185 93.7448 65.1444 93.7706 65.0945L95.5769 61.587C95.6024 61.5368 95.6117 61.48 95.6036 61.4242C95.5955 61.3685 95.5703 61.3167 95.5315 61.2758L93.2594 58.9008C93.6373 57.3897 93.7663 55.8271 93.6411 54.2745L96.2756 52.3049C96.3207 52.2713 96.3542 52.2245 96.3713 52.1709C96.3884 52.1173 96.3883 52.0597 96.371 52.0062L95.1657 48.2511Z" fill="#C9C9C9"/>
<path opacity="0.56" d="M82.2976 58.0878C81.6063 58.8724 80.6377 59.3585 79.5954 59.4439C78.5532 59.5292 77.5184 59.2073 76.7086 58.5457C75.8988 57.884 75.3771 56.9343 75.2531 55.8961C75.1292 54.8578 75.4126 53.812 76.0439 52.9783C76.6751 52.1447 77.6051 51.5883 78.6382 51.4259C79.6713 51.2636 80.7271 51.5081 81.5836 52.1079C82.4402 52.7078 83.0308 53.6163 83.2313 54.6425C83.4318 55.6687 83.2266 56.7327 82.6588 57.6108C82.5501 57.7783 82.4293 57.9377 82.2976 58.0878ZM77.2991 57.646C77.8902 58.1667 78.6639 58.4315 79.4502 58.3821C80.2364 58.3326 80.9709 57.9731 81.4921 57.3825C81.9793 56.7877 82.2169 56.0274 82.1549 55.2611C82.093 54.4949 81.7363 53.7826 81.16 53.2738C80.5836 52.765 79.8324 52.4995 79.0643 52.533C78.2962 52.5666 77.571 52.8965 77.0412 53.4536C76.9451 53.563 76.8571 53.6791 76.7776 53.8011C76.391 54.399 76.2315 55.1156 76.328 55.821C76.4245 56.5264 76.7706 57.1739 77.3036 57.646H77.2991Z" fill="white"/>
<path opacity="0.56" d="M87.6147 60.9198C88.1749 60.0591 88.6006 59.1181 88.8768 58.129L88.9007 58.0404C88.9221 57.9718 88.9295 57.8996 88.9223 57.828C88.9152 57.7565 88.8936 57.6871 88.859 57.6241C88.8243 57.5611 88.7773 57.5057 88.7207 57.4613C88.6642 57.4169 88.5992 57.3844 88.5298 57.3657C88.4603 57.347 88.3878 57.3426 88.3166 57.3526C88.2454 57.3626 88.1769 57.3869 88.1154 57.4241C88.0538 57.4612 88.0003 57.5104 87.9582 57.5687C87.9161 57.627 87.8862 57.6932 87.8703 57.7633C87.7035 58.3805 87.4716 58.9783 87.1785 59.5466C87.1626 59.5772 87.1455 59.6079 87.1296 59.6397C86.4368 60.9586 85.4239 62.0826 84.1839 62.9087C83.5091 63.3574 82.777 63.7134 82.0073 63.9673H81.988L81.9301 63.9866C80.8064 64.3496 79.622 64.4863 78.4452 64.3888C77.2685 64.2913 76.1227 63.9616 75.0742 63.4187C74.8014 63.2777 74.536 63.123 74.2789 62.9552C72.3487 61.6967 70.9757 59.7451 70.4434 57.5034C69.9111 55.2617 70.2603 52.9012 71.4188 50.9096C72.5773 48.9179 74.4566 47.4472 76.6686 46.8012C78.8805 46.1553 81.2561 46.3834 83.3046 47.4385C83.5776 47.5758 83.843 47.7274 84.0999 47.8928C85.202 48.61 86.1328 49.5608 86.8263 50.6779C86.8675 50.7446 86.923 50.8012 86.9888 50.8437C87.0904 50.9105 87.2118 50.9405 87.3328 50.9288C87.4538 50.9171 87.5672 50.8643 87.6541 50.7793C87.741 50.6943 87.7962 50.5821 87.8105 50.4614C87.8248 50.3407 87.7974 50.2187 87.7329 50.1157C86.9556 48.865 85.9127 47.8005 84.6781 46.9978C84.3923 46.8123 84.0973 46.6413 83.7943 46.4855C81.5023 45.305 78.8445 45.0497 76.3697 45.7724C73.8949 46.495 71.7923 48.1405 70.4961 50.3688C69.1999 52.5971 68.8093 55.2381 69.4048 57.7461C70.0003 60.2542 71.5366 62.4377 73.6962 63.8457C73.9839 64.032 74.2823 64.205 74.5913 64.3648C76.8044 65.5 79.3594 65.7761 81.764 65.14C84.1685 64.504 86.2526 63.0007 87.6147 60.9198Z" fill="white"/>
<path d="M297.445 103.723L209.241 108.003C208.704 108.028 208.168 107.944 207.664 107.756C207.161 107.569 206.701 107.281 206.312 106.91C205.923 106.54 205.613 106.094 205.401 105.601C205.189 105.107 205.079 104.576 205.078 104.039V67.7566C205.078 65.8598 205.817 64.0376 207.138 62.6759C208.458 61.3141 210.257 60.5198 212.153 60.4611L291.649 58.002C294.492 58.002 297.218 59.131 299.228 61.1408C301.238 63.1506 302.367 65.8764 302.367 68.7186V98.5572C302.367 99.8856 301.856 101.163 300.94 102.125C300.023 103.087 298.772 103.659 297.445 103.723Z" fill="#C9C9C9"/>
<path opacity="0.85" d="M211.879 106.547C210.434 106.545 209.049 105.97 208.028 104.947C207.007 103.925 206.434 102.54 206.434 101.095V68.3918C206.434 64.5378 209.524 61.4256 213.469 61.3064L290.438 58.9824C296.272 58.9824 301.013 63.611 301.013 69.3004V97.4932C301.013 100.206 298.84 102.434 296.065 102.565L212.144 106.54C212.056 106.545 211.967 106.547 211.879 106.547ZM290.444 59.3675L213.477 61.6903C209.739 61.8039 206.812 64.7468 206.812 68.3918V101.093C206.812 101.779 206.951 102.458 207.222 103.088C207.492 103.719 207.887 104.288 208.384 104.762C208.88 105.235 209.468 105.603 210.111 105.843C210.754 106.083 211.439 106.19 212.124 106.157L296.043 102.182C298.614 102.06 300.627 100 300.627 97.4921V69.3004C300.63 63.8245 296.066 59.3675 290.444 59.3675Z" fill="white"/>
<path opacity="0.94" d="M290.188 65.9817L219.658 68.6179C218.965 68.6441 218.419 69.1029 218.442 69.6402L218.469 70.2592C218.492 70.7919 219.062 71.2009 219.749 71.1759L290.281 68.6009C290.974 68.5748 291.52 68.1159 291.498 67.5786L291.468 66.8971C291.445 66.3644 290.873 65.9555 290.188 65.9817Z" fill="white"/>
<path opacity="0.94" d="M283.876 83.8393L213.345 86.4643C212.653 86.4904 212.108 86.9652 212.132 87.5218L212.16 88.1635C212.183 88.7155 212.754 89.1392 213.44 89.1142L283.974 86.5551C284.667 86.5302 285.212 86.0554 285.188 85.4977L285.158 84.7889C285.134 84.2346 284.561 83.8098 283.876 83.8393Z" fill="white"/>
<path opacity="0.94" d="M292.114 91.3042L213.488 94.2721C212.717 94.3005 212.108 94.7833 212.132 95.3455L212.159 95.9941C212.183 96.5506 212.818 96.9766 213.582 96.9482L292.211 94.0472C292.984 94.0188 293.594 93.5361 293.574 92.9739L293.544 92.2583C293.515 91.7006 292.885 91.2746 292.114 91.3042Z" fill="white"/>
<path opacity="0.94" d="M251.518 76.508L213.076 77.6279C212.699 77.6393 212.417 78.1573 212.448 78.782L212.483 79.5032C212.513 80.1211 212.84 80.6118 213.213 80.6016L251.659 79.5555C252.036 79.5453 252.319 79.0273 252.288 78.4015L252.248 77.6064C252.216 76.9873 251.892 76.4966 251.518 76.508Z" fill="white"/>
<path opacity="0.94" d="M293.874 75.1779L257.54 76.2195C257.183 76.2297 256.917 76.7465 256.948 77.3723L256.984 78.0925C257.015 78.7115 257.325 79.2022 257.677 79.1931L294.021 78.2265C294.377 78.2163 294.643 77.6995 294.613 77.0736L294.573 76.2785C294.538 75.6595 294.228 75.1677 293.874 75.1779Z" fill="white"/>
<path d="M71.1504 303.838C71.1504 303.838 70.4233 307.953 70.0666 312.027C70.0347 312.405 70.0796 312.785 70.1988 313.145C70.3179 313.505 70.5087 313.837 70.7596 314.121C71.0106 314.406 71.3165 314.636 71.659 314.799C72.0014 314.961 72.3733 315.053 72.7522 315.068C78.1778 315.295 89.7846 315.734 93.9492 315.547C94.0947 315.541 94.2365 315.5 94.3628 315.427C94.4891 315.355 94.596 315.253 94.6748 315.131C94.7535 315.008 94.8016 314.869 94.8151 314.724C94.8287 314.579 94.8071 314.433 94.7524 314.298C94.5584 313.81 94.1842 313.416 93.7073 313.196L74.5357 304.387L71.1504 303.838Z" fill="black"/>
<path d="M70.5547 301.422L71.1386 306.345C71.1386 306.345 74.4967 307.908 76.7903 306.148L75.3998 300.662L70.5547 301.422Z" fill="url(#paint11_linear_145_1206)"/>
<path d="M70.9933 208.879C70.7411 210.165 69.6391 273.027 76.3598 301.197C76.4146 301.419 76.3882 301.653 76.2852 301.858C76.1823 302.062 76.0097 302.222 75.7987 302.31C74.0497 302.986 72.1993 303.362 70.3253 303.422C69.9604 303.434 69.602 303.324 69.3063 303.11C69.0107 302.896 68.7945 302.59 68.6917 302.24C66.7707 295.704 57.5655 262.962 56.3658 231.674C55.0242 196.719 56.3658 230.484 56.3658 230.484L57.1519 208.877L70.9933 208.879Z" fill="black"/>
<path d="M49.0955 305.986C49.0955 305.986 47.9379 308.064 46.8235 313.585C46.7757 313.82 46.7777 314.061 46.8292 314.295C46.8808 314.529 46.9807 314.749 47.1227 314.942C47.2646 315.134 47.4454 315.295 47.6533 315.414C47.8612 315.532 48.0917 315.606 48.3298 315.63C50.1213 315.806 52.8739 316.033 55.0892 316.017C55.3297 316.017 55.5674 315.966 55.7867 315.867C56.006 315.768 56.2019 315.624 56.3616 315.444C56.5213 315.265 56.6411 315.053 56.7131 314.824C56.7851 314.594 56.8078 314.352 56.7796 314.113C56.5353 312.098 55.7731 308.792 53.4169 306.215L49.0955 305.986Z" fill="black"/>
<path d="M48.0801 299.654L49.4433 307.098C49.4433 307.098 50.7929 308.102 53.4626 307.374L52.8116 299.365L48.0801 299.654Z" fill="url(#paint12_linear_145_1206)"/>
<path d="M44.393 210.808C38.8969 243.974 45.5858 292.781 47.842 302.334C47.9077 302.621 48.0571 302.882 48.2712 303.084C48.4854 303.286 48.7546 303.42 49.045 303.47C50.0515 303.637 51.709 303.773 53.3437 303.298C53.6189 303.217 53.8615 303.051 54.0369 302.824C54.2123 302.597 54.3116 302.321 54.3207 302.034C54.6229 294.31 54.0787 246.898 59.2056 228.161C59.4656 227.212 60.046 226.382 60.8483 225.812L70.7885 218.747L71.5508 207.326L44.393 210.808Z" fill="black"/>
<path d="M79.4161 147.963C62.9438 147.692 44.7674 152.289 44.7674 152.289C39.8575 180.934 43.9085 213.973 43.9085 213.973C56.6615 217.317 71.0459 211.928 71.0459 211.928C73.1657 199.956 83.0548 166.261 83.0548 166.261C91.1024 165.261 97.7334 162.94 103.193 159.87C99.0284 155.044 97.0586 148.902 96.2122 145.271C90.3901 147.081 84.4976 148.047 79.4161 147.963Z" fill="#9237E3"/>
<path d="M128.072 123.707C126.455 121.753 124.406 122.678 124.406 122.678C121.982 132.915 109.272 141.216 96.2147 145.273C97.0667 148.908 99.0309 155.041 103.196 159.872C124.868 147.688 128.072 123.707 128.072 123.707Z" fill="url(#paint13_linear_145_1206)"/>
<path d="M127.679 124.203C127.848 124.742 125.887 125.566 124.733 123.359C124.694 122.304 124.052 117.786 124.682 116.926C128.039 112.348 134.55 106.611 134.55 106.611C135.649 107.697 134.744 108.763 134.744 108.763L131.586 112.057C132.246 113.25 133.051 114.258 133.43 115.701C133.706 116.803 133.548 117.97 132.988 118.958C132.433 119.956 131.678 121.255 130.962 122.27C129.609 124.189 127.679 124.203 127.679 124.203Z" fill="url(#paint14_linear_145_1206)"/>
<path d="M130.207 114.186L127.329 116.625L126.42 119.054L128.986 121.9C128.986 121.9 129.848 117.081 130.49 116.038C131.132 114.995 130.802 114.491 130.207 114.186Z" fill="url(#paint15_linear_145_1206)"/>
<path d="M51.0883 168.232L44.7698 152.285C44.7698 152.285 29.3846 162.735 26.8535 175.989C29.7606 176.204 35.0511 176.959 40.2291 179.574C41.3696 173.32 51.0883 168.232 51.0883 168.232Z" fill="#9237E3"/>
<path d="M64.5339 183.241C64.5339 183.241 47.2595 193.001 41.4306 184.667C40.2207 182.937 39.931 181.217 40.2298 179.577C35.0518 176.964 29.7613 176.207 26.8542 175.992C26.092 179.988 26.4953 184.237 28.8434 188.531C39.0529 207.205 66.8196 187.499 66.8196 187.499L64.5339 183.241Z" fill="url(#paint16_linear_145_1206)"/>
<path d="M62.457 195.589L71.886 162.67C71.9377 162.488 72.0425 162.325 72.1871 162.202C72.3318 162.079 72.5097 162.001 72.6983 161.98C74.4023 161.78 79.3554 161.221 85.0707 160.737C91.9539 160.156 99.9526 159.683 104.724 160.085C104.881 160.098 105.032 160.148 105.165 160.233C105.298 160.317 105.408 160.433 105.485 160.569C105.563 160.706 105.606 160.86 105.611 161.017C105.616 161.174 105.582 161.33 105.512 161.471C102.795 166.966 91.6222 189.317 86.0261 196.639C85.9354 196.759 85.8179 196.856 85.6829 196.922C85.548 196.988 85.3994 197.022 85.2491 197.021L63.3749 196.817C63.2265 196.816 63.0804 196.78 62.948 196.713C62.8156 196.646 62.7005 196.55 62.6116 196.431C62.5228 196.312 62.4626 196.174 62.4358 196.028C62.409 195.882 62.4162 195.732 62.457 195.589Z" fill="url(#paint17_linear_145_1206)"/>
<path d="M86.047 157.883L92.8824 156.747C92.9657 156.733 93.0511 156.741 93.1304 156.77C93.2097 156.799 93.2802 156.847 93.3352 156.912C93.3901 156.976 93.4276 157.053 93.444 157.135C93.4604 157.218 93.4552 157.304 93.4289 157.384L92.7472 159.429C92.7183 159.516 92.6653 159.594 92.5944 159.652C92.5235 159.711 92.4375 159.749 92.3462 159.761L85.7686 160.639C85.6899 160.65 85.6099 160.641 85.5353 160.614C85.4607 160.587 85.3939 160.542 85.3405 160.483C85.2871 160.424 85.2487 160.353 85.2287 160.277C85.2087 160.2 85.2077 160.119 85.2256 160.042L85.6448 158.252C85.6676 158.157 85.718 158.072 85.7897 158.006C85.8613 157.94 85.9509 157.897 86.047 157.883Z" fill="url(#paint18_linear_145_1206)"/>
<path d="M80.9299 163.67L81.4979 160.738C81.5258 160.595 81.5989 160.464 81.7065 160.366C81.814 160.267 81.9504 160.206 82.0955 160.191L95.8993 158.79C96.0068 158.78 96.1153 158.795 96.2157 158.835C96.3161 158.875 96.4055 158.939 96.4766 159.02C96.5477 159.101 96.5985 159.198 96.6247 159.303C96.651 159.408 96.6519 159.517 96.6275 159.623L95.7493 163.277C95.7147 163.419 95.6352 163.546 95.5227 163.639C95.4102 163.733 95.2706 163.788 95.1245 163.796L81.6331 164.477C81.5301 164.482 81.4273 164.464 81.3325 164.424C81.2376 164.383 81.1532 164.322 81.0855 164.244C81.0178 164.166 80.9686 164.074 80.9417 163.975C80.9147 163.875 80.9107 163.771 80.9299 163.67Z" fill="url(#paint19_linear_145_1206)"/>
<path d="M64.7358 187.636C64.7358 187.636 63.4225 182.236 63.9519 180.321C64.4813 178.406 65.5083 175.942 68.93 176.49C72.3517 177.037 76.3868 178.477 76.3868 178.477C76.3868 178.477 76.1824 180.976 73.582 180.168L75.1952 181.417C75.1952 181.417 74.968 183.415 72.7686 182.348L74.2682 184.002C74.2682 184.002 73.3241 185.643 71.7087 184.591C70.0933 183.538 69.3162 188.285 64.7358 187.636Z" fill="url(#paint20_linear_145_1206)"/>
<path d="M62.7264 134.592L57.4859 149.746C57.4433 149.868 57.4449 150 57.4904 150.12C57.5359 150.241 57.6224 150.341 57.7347 150.404C59.1638 151.199 64.3111 153.471 70.5138 149.544C70.834 149.344 71.1061 149.076 71.3108 148.758C71.5154 148.441 71.6474 148.083 71.6976 147.709L73.405 134.592H62.7264Z" fill="url(#paint21_linear_145_1206)"/>
<path d="M74.1366 120.561C74.1366 120.561 79.8917 131.392 79.1544 135.768C78.4172 140.145 71.2841 139.829 65.0552 136.276L60.7031 124.577L74.1366 120.561Z" fill="url(#paint22_linear_145_1206)"/>
<path d="M65.3301 130.531C65.3896 130.505 65.4428 130.467 65.4858 130.418C65.5289 130.369 65.5608 130.312 65.5794 130.25C65.598 130.187 65.6028 130.122 65.5935 130.057C65.5842 129.993 65.561 129.932 65.5255 129.877C65.0643 129.173 64.1998 127.736 63.9237 126.479C63.9237 126.479 62.8888 125.815 66.557 124.939C70.2252 124.062 75.6952 122.697 76.8449 119.576C77.9661 116.532 75.0204 108.879 70.3218 114.977C70.2801 115.031 70.2265 115.075 70.1651 115.105C70.1038 115.136 70.0363 115.151 69.9679 115.151C69.8995 115.151 69.8321 115.136 69.7707 115.105C69.7093 115.075 69.6558 115.031 69.6141 114.977C68.8438 113.975 66.8183 111.894 64.0066 113.16C61.3756 114.34 61.0791 116.267 61.1155 117.239C61.1181 117.305 61.1057 117.372 61.0792 117.433C61.0526 117.494 61.0126 117.549 60.962 117.593C60.9115 117.636 60.8517 117.668 60.7872 117.685C60.7227 117.703 60.6551 117.705 60.5895 117.693C59.2592 117.439 56.067 117.22 54.5776 120.495C53.3496 123.192 54.1471 124.719 54.8741 125.466C54.9281 125.52 54.967 125.588 54.987 125.662C55.0069 125.737 55.0073 125.815 54.9881 125.889C54.9689 125.964 54.9307 126.032 54.8773 126.087C54.8239 126.143 54.757 126.183 54.6833 126.205C53.8097 126.472 52.6805 127.214 52.7929 129.262C52.9497 132.093 56.1158 131.843 57.0167 131.714C57.0892 131.703 57.1634 131.71 57.2325 131.735C57.3016 131.759 57.3637 131.8 57.4132 131.855C58.1868 132.71 61.6687 136.341 65.438 136.779C65.513 136.785 65.5885 136.773 65.6577 136.743C65.7268 136.714 65.7875 136.667 65.8343 136.608C65.881 136.549 65.9124 136.479 65.9255 136.405C65.9386 136.331 65.9331 136.255 65.9095 136.183L64.2793 131.442C64.2426 131.336 64.2472 131.22 64.292 131.117C64.3368 131.015 64.4186 130.932 64.5213 130.887L65.3301 130.531Z" fill="black"/>
<path d="M65.9846 131.203C65.9846 131.203 61.8869 128.392 61.5882 130.759C61.2894 133.126 65.278 134.188 67.2535 133.305L65.9846 131.203Z" fill="url(#paint23_linear_145_1206)"/>
</g>
<defs>
<linearGradient id="paint0_linear_145_1206" x1="195.018" y1="122.578" x2="318.58" y2="135.635" gradientUnits="userSpaceOnUse">
<stop stop-color="#FBE3F1"/>
<stop offset="1" stop-color="#CCF4FF"/>
</linearGradient>
<linearGradient id="paint1_linear_145_1206" x1="216.842" y1="250.328" x2="315.055" y2="278.865" gradientUnits="userSpaceOnUse">
<stop stop-color="#FBE3F1"/>
<stop offset="1" stop-color="#CCF4FF"/>
</linearGradient>
<linearGradient id="paint2_linear_145_1206" x1="45.7317" y1="40.6888" x2="19.1175" y2="82.0953" gradientUnits="userSpaceOnUse">
<stop stop-color="#B37CFF"/>
<stop offset="1" stop-color="#F895E7"/>
</linearGradient>
<linearGradient id="paint3_linear_145_1206" x1="6.90957" y1="77.0939" x2="5.35543" y2="79.5118" gradientUnits="userSpaceOnUse">
<stop stop-color="#B37CFF"/>
<stop offset="1" stop-color="#F895E7"/>
</linearGradient>
<linearGradient id="paint4_linear_145_1206" x1="17.3211" y1="101.523" x2="16.2546" y2="103.182" gradientUnits="userSpaceOnUse">
<stop stop-color="#B37CFF"/>
<stop offset="1" stop-color="#F895E7"/>
</linearGradient>
<linearGradient id="paint5_linear_145_1206" x1="62.3228" y1="73.0238" x2="34.9094" y2="115.674" gradientUnits="userSpaceOnUse">
<stop stop-color="#B37CFF"/>
<stop offset="1" stop-color="#F895E7"/>
</linearGradient>
<linearGradient id="paint6_linear_145_1206" x1="74.0465" y1="74.5508" x2="72.512" y2="76.9382" gradientUnits="userSpaceOnUse">
<stop stop-color="#B37CFF"/>
<stop offset="1" stop-color="#F895E7"/>
</linearGradient>
<linearGradient id="paint7_linear_145_1206" x1="96.0551" y1="38.2263" x2="95.2965" y2="39.4066" gradientUnits="userSpaceOnUse">
<stop stop-color="#B37CFF"/>
<stop offset="1" stop-color="#F895E7"/>
</linearGradient>
<linearGradient id="paint8_linear_145_1206" x1="83.1031" y1="29.2259" x2="68.2351" y2="52.3576" gradientUnits="userSpaceOnUse">
<stop stop-color="#B37CFF"/>
<stop offset="1" stop-color="#F895E7"/>
</linearGradient>
<linearGradient id="paint9_linear_145_1206" x1="98.6431" y1="53.8025" x2="81.6739" y2="80.2032" gradientUnits="userSpaceOnUse">
<stop stop-color="#B37CFF"/>
<stop offset="1" stop-color="#F895E7"/>
</linearGradient>
<linearGradient id="paint10_linear_145_1206" x1="102.159" y1="51.9612" x2="100.998" y2="53.7675" gradientUnits="userSpaceOnUse">
<stop stop-color="#B37CFF"/>
<stop offset="1" stop-color="#F895E7"/>
</linearGradient>
<linearGradient id="paint11_linear_145_1206" x1="70.5547" y1="303.823" x2="76.7903" y2="303.823" gradientUnits="userSpaceOnUse">
<stop stop-color="#F9B776"/>
<stop offset="1" stop-color="#F47960"/>
</linearGradient>
<linearGradient id="paint12_linear_145_1206" x1="48.0801" y1="303.502" x2="53.4637" y2="303.502" gradientUnits="userSpaceOnUse">
<stop stop-color="#F9B776"/>
<stop offset="1" stop-color="#F47960"/>
</linearGradient>
<linearGradient id="paint13_linear_145_1206" x1="123.16" y1="104.051" x2="112.161" y2="135.483" gradientUnits="userSpaceOnUse">
<stop stop-color="#F9B776"/>
<stop offset="1" stop-color="#F47960"/>
</linearGradient>
<linearGradient id="paint14_linear_145_1206" x1="132.563" y1="107.344" x2="121.565" y2="138.775" gradientUnits="userSpaceOnUse">
<stop stop-color="#F9B776"/>
<stop offset="1" stop-color="#F47960"/>
</linearGradient>
<linearGradient id="paint15_linear_145_1206" x1="124.112" y1="127.424" x2="132.397" y2="110.707" gradientUnits="userSpaceOnUse">
<stop stop-color="#F9B776"/>
<stop offset="1" stop-color="#F47960"/>
</linearGradient>
<linearGradient id="paint16_linear_145_1206" x1="26.5043" y1="186.282" x2="66.8207" y2="186.282" gradientUnits="userSpaceOnUse">
<stop stop-color="#F9B776"/>
<stop offset="1" stop-color="#F47960"/>
</linearGradient>
<linearGradient id="paint17_linear_145_1206" x1="97.5215" y1="138.014" x2="76.7597" y2="194.648" gradientUnits="userSpaceOnUse">
<stop stop-color="#2B3582"/>
<stop offset="1" stop-color="#150E42"/>
</linearGradient>
<linearGradient id="paint18_linear_145_1206" x1="-224.844" y1="983.075" x2="-244.978" y2="1035.93" gradientUnits="userSpaceOnUse">
<stop stop-color="#53D8FF"/>
<stop offset="1" stop-color="#3840F7"/>
</linearGradient>
<linearGradient id="paint19_linear_145_1206" x1="-224.301" y1="983.282" x2="-244.434" y2="1036.14" gradientUnits="userSpaceOnUse">
<stop stop-color="#53D8FF"/>
<stop offset="1" stop-color="#3840F7"/>
</linearGradient>
<linearGradient id="paint20_linear_145_1206" x1="63.827" y1="182.054" x2="76.3868" y2="182.054" gradientUnits="userSpaceOnUse">
<stop stop-color="#F9B776"/>
<stop offset="1" stop-color="#F47960"/>
</linearGradient>
<linearGradient id="paint21_linear_145_1206" x1="57.4598" y1="143.187" x2="73.3993" y2="143.187" gradientUnits="userSpaceOnUse">
<stop stop-color="#F9B776"/>
<stop offset="1" stop-color="#F47960"/>
</linearGradient>
<linearGradient id="paint22_linear_145_1206" x1="78.9341" y1="134.521" x2="61.3046" y2="123.777" gradientUnits="userSpaceOnUse">
<stop stop-color="#F9B776"/>
<stop offset="1" stop-color="#F47960"/>
</linearGradient>
<linearGradient id="paint23_linear_145_1206" x1="74.3046" y1="138.529" x2="58.4436" y2="128.863" gradientUnits="userSpaceOnUse">
<stop stop-color="#F9B776"/>
<stop offset="1" stop-color="#F47960"/>
</linearGradient>
<clipPath id="clip0_145_1206">
<rect width="312" height="316.819" fill="white" transform="translate(0 0.0957031)"/>
</clipPath>
</defs>
</svg>
