<svg width="93" height="83" viewBox="0 0 93 83" fill="none" xmlns="http://www.w3.org/2000/svg">
<circle cx="38" cy="38.0957" r="38" fill="#F3E9FC"/>
<path d="M77.0902 50.8238C73.8379 50.8238 70.5879 49.8602 67.3561 47.9352C66.3516 47.3352 65.7266 46.217 65.7266 45.0125V38.3239C65.7266 37.6966 66.2357 37.1875 66.8629 37.1875C67.4902 37.1875 67.9993 37.6966 67.9993 38.3239V45.0125C67.9993 45.4125 68.2038 45.792 68.5197 45.9807C74.2879 49.4216 79.8925 49.4216 85.6583 45.9807C85.9765 45.792 86.1811 45.4125 86.1811 45.0125V38.3239C86.1811 37.6966 86.6902 37.1875 87.3174 37.1875C87.9447 37.1875 88.4538 37.6966 88.4538 38.3239V45.0125C88.4538 46.2148 87.8288 47.3329 86.822 47.9329C83.5924 49.8602 80.3424 50.8238 77.0902 50.8238Z" fill="#9237E3"/>
<path d="M77.0907 44.0042C76.9293 44.0042 76.7657 43.9678 76.6157 43.8997L61.843 37.0815C61.4385 36.8951 61.1816 36.4928 61.1816 36.0497C61.1816 35.6065 61.4385 35.2042 61.843 35.0179L76.6157 28.1997C76.918 28.061 77.2657 28.061 77.568 28.1997L92.3407 35.0179C92.743 35.2042 92.9998 35.6065 92.9998 36.0497C92.9998 36.4928 92.743 36.8951 92.3384 37.0815L77.5657 43.8997C77.4157 43.9678 77.2521 44.0042 77.0907 44.0042ZM65.0294 36.0497L77.0907 41.6156L89.1521 36.0497L77.0907 30.4838L65.0294 36.0497Z" fill="#9237E3"/>
<path d="M44.1364 69.0047C43.5091 69.0047 43 68.4956 43 67.8684V33.7775C43 30.6434 45.55 28.0957 48.6818 28.0957H62.3182C62.9454 28.0957 63.4545 28.6048 63.4545 29.2321C63.4545 29.8593 62.9454 30.3684 62.3182 30.3684H48.6818C46.8023 30.3684 45.2727 31.898 45.2727 33.7775V67.8684C45.2727 68.4956 44.7636 69.0047 44.1364 69.0047Z" fill="#9237E3"/>
<path d="M57.7727 73.549H48.6818C45.55 73.549 43 71.0013 43 67.8672C43 64.7331 45.55 62.1854 48.6818 62.1854H81.6363V56.5035C81.6363 55.8763 82.1454 55.3672 82.7727 55.3672C83.3999 55.3672 83.909 55.8763 83.909 56.5035V63.3217C83.909 63.949 83.3999 64.4581 82.7727 64.4581H48.6818C46.8023 64.4581 45.2727 65.9876 45.2727 67.8672C45.2727 69.7467 46.8023 71.2763 48.6818 71.2763H57.7727C58.4 71.2763 58.9091 71.7853 58.9091 72.4126C58.9091 73.0399 58.4 73.549 57.7727 73.549Z" fill="#9237E3"/>
<path d="M82.7727 73.5492H69.1364C68.5091 73.5492 68 73.0401 68 72.4128C68 71.7855 68.5091 71.2764 69.1364 71.2764H81.6363V63.3219C81.6363 62.6946 82.1454 62.1855 82.7727 62.1855C83.4 62.1855 83.9091 62.6946 83.9091 63.3219V72.4128C83.9091 73.0401 83.4 73.5492 82.7727 73.5492Z" fill="#9237E3"/>
<path d="M69.1367 82.6415C68.8844 82.6415 68.6322 82.5574 68.4253 82.3938L63.4549 78.4165L58.4822 82.3938C58.1413 82.6665 57.6754 82.7188 57.2799 82.5301C56.8867 82.3392 56.6367 81.9415 56.6367 81.5051V67.8688C56.6367 67.2415 57.1458 66.7324 57.7731 66.7324C58.4004 66.7324 58.9094 67.2415 58.9094 67.8688V79.1415L62.7458 76.071C63.1617 75.7392 63.7503 75.7392 64.1663 76.071L68.0003 79.1415V67.8688C68.0003 67.2415 68.5094 66.7324 69.1367 66.7324C69.764 66.7324 70.2731 67.2415 70.2731 67.8688V81.5051C70.2731 81.9415 70.0231 82.3392 69.6299 82.5279C69.4731 82.6029 69.3049 82.6415 69.1367 82.6415Z" fill="#9237E3"/>
<path d="M73.6827 69.0051H53.2282C52.6009 69.0051 52.0918 68.4961 52.0918 67.8688C52.0918 67.2415 52.6009 66.7324 53.2282 66.7324H73.6827C74.3099 66.7324 74.819 67.2415 74.819 67.8688C74.819 68.4961 74.3099 69.0051 73.6827 69.0051Z" fill="#9237E3"/>
</svg>
