<svg width="9" height="14" viewBox="0 0 9 14" fill="none" xmlns="http://www.w3.org/2000/svg">
<path d="M8.55469 3.52539L6.07031 1.04102C5.77344 0.744141 5.42188 0.595703 5.01562 0.595703H1.5C1.07812 0.611328 0.726562 0.759766 0.445312 1.04102C0.164062 1.32227 0.015625 1.67383 0 2.0957V11.0957C0.015625 11.5176 0.164062 11.8691 0.445312 12.1504C0.726562 12.4316 1.07812 12.5801 1.5 12.5957H7.5C7.92188 12.5801 8.27344 12.4316 8.55469 12.1504C8.83594 11.8691 8.98438 11.5176 9 11.0957V4.58008C9 4.17383 8.85156 3.82227 8.55469 3.52539ZM8.03906 4.06445C8.11719 4.14258 8.17188 4.23633 8.20312 4.3457H5.625C5.39062 4.33008 5.26562 4.20508 5.25 3.9707V1.39258C5.35938 1.42383 5.45312 1.47852 5.53125 1.55664L8.03906 4.06445ZM8.25 11.0957C8.25 11.3145 8.17969 11.4941 8.03906 11.6348C7.89844 11.7754 7.71875 11.8457 7.5 11.8457H1.5C1.28125 11.8457 1.10156 11.7754 0.960938 11.6348C0.820312 11.4941 0.75 11.3145 0.75 11.0957V2.0957C0.75 1.87695 0.820312 1.69727 0.960938 1.55664C1.10156 1.41602 1.28125 1.3457 1.5 1.3457H4.5V3.9707C4.51562 4.2832 4.625 4.54883 4.82812 4.76758C5.04688 4.9707 5.3125 5.08008 5.625 5.0957H8.25V11.0957Z" fill="#4D5765"/>
</svg>
