<svg width="22" height="23" viewBox="0 0 22 23" fill="none" xmlns="http://www.w3.org/2000/svg">
<g clip-path="url(#clip0_145_284)">
<path d="M12.375 6.92765V2.8647C12.375 2.80359 12.4245 2.75405 12.4856 2.75405H13.2156C13.4128 2.75405 13.5115 2.51566 13.3721 2.37623L11.1564 0.160543C11.07 0.0740898 10.9299 0.0740898 10.8435 0.160543L8.62777 2.37623C8.48834 2.51566 8.58708 2.75405 8.78427 2.75405H9.51426C9.57536 2.75405 9.62491 2.80359 9.62491 2.8647V11.0957H14.2631C15.1188 11.0957 15.8125 11.7893 15.8125 12.645V15.7339C15.8125 16.5896 15.1188 17.2832 14.2632 17.2832H11V20.0332H15.0212C16.977 20.0332 18.5625 18.4477 18.5625 16.492V11.8869C18.5625 9.93116 16.977 8.3457 15.0212 8.3457L12.375 6.92765Z" fill="#80D261"/>
<path d="M21.6222 2.37618L19.4065 0.160543C19.32 0.0740898 19.1799 0.0740898 19.0935 0.160543L16.8778 2.37623C16.7384 2.51566 16.8371 2.75405 17.0343 2.75405H17.7643C17.8254 2.75405 17.875 2.80359 17.875 2.8647V4.04642C17.875 4.90206 17.1814 5.5957 16.3257 5.5957H6.97873C5.02296 5.5957 3.4375 7.18116 3.4375 9.13693V16.4919C3.4375 18.4477 5.02296 20.0332 6.97873 20.0332H11V17.2832H7.73678C6.88114 17.2832 6.1875 16.5896 6.1875 15.7339V9.89498C6.1875 9.03935 6.88114 8.3457 7.73678 8.3457H17.0837C19.0395 8.3457 20.625 6.76024 20.625 4.80448V2.8647C20.625 2.80359 20.6745 2.75405 20.7356 2.75405H21.4656C21.6629 2.75401 21.7616 2.51562 21.6222 2.37618Z" fill="#FFC344"/>
<path d="M4.12495 4.04642V2.8647C4.12495 2.80359 4.17449 2.75405 4.23559 2.75405H4.96559C5.16277 2.75405 5.26152 2.51566 5.12208 2.37623L2.90644 0.160543C2.81999 0.0740898 2.67987 0.0740898 2.59346 0.160543L0.377774 2.37618C0.238341 2.51562 0.337083 2.75401 0.534266 2.75401H1.26426C1.32536 2.75401 1.37491 2.80355 1.37491 2.86465V4.80443C1.37495 6.76024 2.96041 8.3457 4.91618 8.3457H8.07563C8.93131 8.3457 9.62495 9.03935 9.62495 9.89498V18.6582H12.375V9.13693C12.375 7.18116 10.7895 5.5957 8.83372 5.5957H5.67427C4.81859 5.5957 4.12495 4.90206 4.12495 4.04642Z" fill="#01C0FA"/>
<path d="M11 15.0451C10.0932 15.0451 9.33394 14.358 9.24371 13.4557L9.08214 11.8399C8.96866 10.7052 9.85966 9.7207 11 9.7207C12.1403 9.7207 13.0313 10.7052 12.9178 11.8399L12.7562 13.4557C12.666 14.358 11.9067 15.0451 11 15.0451Z" fill="#0067C5"/>
<path d="M15.082 21.6531V18.26C15.082 17.2439 14.2583 16.4202 13.2422 16.4202H8.75776C7.74168 16.4202 6.91797 17.2439 6.91797 18.26V21.6531C6.91797 21.8976 7.11614 22.0958 7.36063 22.0958H14.6394C14.8839 22.0958 15.082 21.8976 15.082 21.6531Z" fill="#0067C5"/>
<path d="M13.2422 16.4202H13.1826C13.3518 16.6984 13.4492 17.0252 13.4492 17.3746V20.0748C13.4492 20.702 12.9408 21.2105 12.3136 21.2105H6.91797V21.6531C6.91797 21.8976 7.11614 22.0958 7.36063 22.0958H14.6394C14.8839 22.0958 15.082 21.8976 15.082 21.6531V18.26C15.082 17.2439 14.2583 16.4202 13.2422 16.4202Z" fill="#0055A3"/>
<path d="M13.7715 19.082C13.7715 18.9041 13.6272 18.7598 13.4492 18.7598C13.2712 18.7598 13.127 18.9041 13.127 19.082V22.0954H13.7715V19.082Z" fill="#004281"/>
<path d="M8.87305 22.0954V19.082C8.87305 18.9041 8.7288 18.7598 8.55078 18.7598C8.37276 18.7598 8.22852 18.9041 8.22852 19.082V22.0954H8.87305Z" fill="#004281"/>
<path d="M10.973 13.4375H10.7891C10.611 13.4375 10.4668 13.2932 10.4668 13.1152C10.4668 12.9373 10.611 12.793 10.7891 12.793H10.8872V12.4707C10.8872 12.2927 11.0314 12.1484 11.2094 12.1484C11.3874 12.1484 11.5317 12.2927 11.5317 12.4707V12.8788C11.5317 13.1869 11.2811 13.4375 10.973 13.4375Z" fill="#004281"/>
</g>
<defs>
<clipPath id="clip0_145_284">
<rect width="22" height="22" fill="white" transform="translate(0 0.0957031)"/>
</clipPath>
</defs>
</svg>
