<svg width="83" height="84" viewBox="0 0 83 84" fill="none" xmlns="http://www.w3.org/2000/svg">
<g clip-path="url(#clip0_145_1488)">
<path d="M62.7503 0.787109H7.4167C3.59868 0.791605 0.504496 3.88579 0.5 7.7038V51.9707C0.499654 55.1255 2.63415 57.8806 5.6889 58.6688L6.38057 55.9906C5.4892 55.7608 4.69954 55.2412 4.13583 54.5134C3.57212 53.7857 3.26637 52.8912 3.26668 51.9707V7.7038C3.26668 5.41179 5.12468 3.55379 7.4167 3.55379H62.7503C65.0423 3.55379 66.9003 5.41179 66.9003 7.7038V9.08714H69.667V7.7038C69.6625 3.88579 66.5683 0.791605 62.7503 0.787109Z" fill="#706680"/>
<path d="M6.0332 6.32031H8.79988V9.08699H6.0332V6.32031ZM11.5666 6.32031H14.3332V9.08699H11.5666V6.32031ZM17.0999 6.32031H19.8666V9.08699H17.0999V6.32031ZM81.7115 77.2759L68.5906 64.155C69.2798 62.9247 69.831 61.622 70.234 60.2705H72.4335V57.5039H70.8288C71.3498 54.1553 70.9481 50.7281 69.6668 47.5909V33.9871H66.9001V42.7962C66.0786 41.7468 65.1515 40.7844 64.1334 39.9244V28.4537H61.3668V37.9905C60.4812 37.4772 59.556 37.0355 58.6001 36.6694V22.9204H55.8334V35.8297C54.9219 35.633 53.9972 35.503 53.0667 35.441V25.6871H50.3001V35.441C49.3696 35.503 48.4449 35.633 47.5334 35.8297V31.2204H44.7667V36.6694C43.8108 37.0355 42.8857 37.4773 42 37.9905V29.8371H39.2333V39.9244C38.2153 40.7844 37.2882 41.7468 36.4667 42.7962V32.6038H33.7V47.5909C32.4187 50.7281 32.0169 54.1553 32.538 57.5039H14.3332V60.2705H33.1328C36.1668 70.5041 46.9223 76.3404 57.1557 73.3064C59.1723 72.7085 61.0779 71.7854 62.7971 70.5737L75.6055 83.382C75.8649 83.6413 76.2167 83.787 76.5835 83.787C76.9503 83.787 77.3021 83.6413 77.5615 83.382L81.7115 79.232C81.9709 78.9726 82.1166 78.6208 82.1166 78.254C82.1166 77.8871 81.9709 77.5353 81.7115 77.2759ZM51.6834 71.3372C42.5195 71.3274 35.0932 63.9011 35.0833 54.7372C35.0833 45.5693 42.5155 38.1371 51.6834 38.1371C60.8513 38.1371 68.2835 45.5693 68.2835 54.7372C68.2835 63.9051 60.8513 71.3372 51.6834 71.3372ZM76.5835 80.4479L64.9468 68.8113C65.7008 68.0989 66.3969 67.3278 67.0288 66.5052L78.7775 78.254L76.5835 80.4479Z" fill="#706680"/>
<path d="M51.683 40.9043C44.043 40.9043 37.8496 47.0977 37.8496 54.7377C37.8496 62.3777 44.043 68.5711 51.683 68.5711C59.323 68.5711 65.5164 62.3777 65.5164 54.7377C65.5081 47.1011 59.3196 40.9126 51.683 40.9043ZM51.683 65.8044C49.7428 65.8019 47.8373 65.2894 46.1576 64.3182C44.478 63.347 43.0832 61.9513 42.1131 60.271H61.2529C60.2828 61.9513 58.888 63.347 57.2084 64.3182C55.5287 65.2894 53.6232 65.8019 51.683 65.8044ZM40.9801 57.5044C39.867 53.2921 41.3533 48.8205 44.7663 46.1126V54.7377H47.533V44.4858C48.4201 44.1268 49.3501 43.885 50.2997 43.7664V54.7377H53.0663V43.7664C54.0159 43.885 54.946 44.1268 55.833 44.4858V54.7377H58.5997V46.1126C62.0127 48.8205 63.499 53.2921 62.3859 57.5044H40.9801Z" fill="#706680"/>
<path d="M71.051 11.8535H15.7175C11.8995 11.858 8.80528 14.9522 8.80078 18.7702V63.0371C8.80528 66.8551 11.8995 69.9493 15.7175 69.9538H33.7009V67.1871H15.7175C13.4255 67.1871 11.5675 65.3291 11.5675 63.0371V18.7702C11.5675 16.4782 13.4255 14.6202 15.7175 14.6202H71.051C73.3431 14.6202 75.2011 16.4782 75.2011 18.7702V63.0371C75.2009 64.0477 74.832 65.0236 74.1636 65.7816L76.2386 67.6118C77.3535 66.3487 77.9685 64.7218 77.9677 63.0371V18.7702C77.9632 14.9522 74.8691 11.858 71.051 11.8535Z" fill="#706680"/>
<path d="M14.334 17.3867H17.1007V20.1534H14.334V17.3867ZM19.8673 17.3867H22.634V20.1534H19.8673V17.3867ZM25.4007 17.3867H28.1674V20.1534H25.4007V17.3867ZM17.1007 46.4368H19.8673V54.7369H17.1007V46.4368ZM22.634 38.1368H25.4007V54.7369H22.634V38.1368ZM28.1674 42.2868H30.9341V54.7369H28.1674V42.2868Z" fill="#706680"/>
</g>
<defs>
<clipPath id="clip0_145_1488">
<rect width="83" height="83" fill="white" transform="translate(0 0.787109)"/>
</clipPath>
</defs>
</svg>
