<svg width="78" height="25" viewBox="0 0 78 25" fill="none" xmlns="http://www.w3.org/2000/svg">
<path fill-rule="evenodd" clip-rule="evenodd" d="M10.0927 0.173828H10.7786C13.1603 0.222916 15.5029 1.12986 17.1855 2.73543C16.5642 3.33602 15.9301 3.91207 15.3218 4.51251C14.377 3.70374 13.2379 3.07861 11.9953 2.858C10.1575 2.49029 8.17708 2.82119 6.63687 3.81404C4.95426 4.85569 3.81518 6.62064 3.56925 8.50802C3.29756 10.371 3.85406 12.332 5.13538 13.7782C6.36502 15.1877 8.24188 16.0701 10.1832 16.1315C11.9953 16.2295 13.8851 15.7024 15.2053 14.5014C16.2407 13.6556 16.7196 12.3688 16.875 11.1187C14.7264 11.1187 12.5779 11.1308 10.4292 11.1187V8.59393H19.4765C19.9424 11.3025 19.2694 14.3542 17.095 16.2907C15.6453 17.6634 13.6392 18.4723 11.5941 18.6317C9.61376 18.8155 7.56874 18.4601 5.80852 17.5531C3.6987 16.4869 2.01609 14.6851 1.18774 12.5649C0.411231 10.6162 0.398271 8.41 1.12309 6.44898C1.78312 4.65963 3.05163 3.0786 4.68241 1.9756C6.24854 0.884718 8.15116 0.284129 10.0927 0.173828Z" fill="white" fill-opacity="0.7"/>
<path fill-rule="evenodd" clip-rule="evenodd" d="M61.9952 0.811035H64.7651V18.3129C63.846 18.3129 62.9142 18.325 61.9952 18.3006C62.008 12.4789 61.9952 6.64499 61.9952 0.811035Z" fill="white" fill-opacity="0.7"/>
<path fill-rule="evenodd" clip-rule="evenodd" d="M25.6376 6.87782C27.3462 6.57131 29.1971 6.91449 30.6079 7.8828C31.8892 8.74066 32.7823 10.089 33.0542 11.5597C33.4036 13.2633 32.9635 15.1261 31.7986 16.4744C30.5432 17.9818 28.4852 18.7907 26.4789 18.6681C24.641 18.5701 22.8548 17.7 21.7676 16.2782C20.5381 14.7095 20.2403 12.5524 20.9133 10.7139C21.5865 8.74066 23.4891 7.23326 25.6376 6.87782ZM26.026 9.2064C25.3271 9.37806 24.6798 9.75791 24.2139 10.2973C22.9584 11.7189 23.0361 14.0354 24.421 15.359C25.2106 16.119 26.4013 16.4744 27.5015 16.2659C28.524 16.0944 29.4171 15.4449 29.909 14.5869C30.7632 13.1284 30.5173 11.1185 29.2101 9.97865C28.3688 9.24322 27.1391 8.93686 26.026 9.2064Z" fill="white" fill-opacity="0.7"/>
<path fill-rule="evenodd" clip-rule="evenodd" d="M39.3576 6.87819C41.312 6.52275 43.4476 7.03744 44.9102 8.33665C47.2919 10.3589 47.5506 14.1461 45.5186 16.4748C44.2889 17.9455 42.2957 18.7544 40.3283 18.6685C38.4516 18.6196 36.6007 17.7372 35.4875 16.2786C34.2321 14.673 33.9603 12.467 34.6721 10.5917C35.384 8.67982 37.2479 7.22137 39.3576 6.87819ZM39.7459 9.20678C39.047 9.37844 38.3998 9.75828 37.9338 10.2854C36.6914 11.6826 36.7431 13.9623 38.0762 15.2981C38.8657 16.0948 40.0953 16.4871 41.2344 16.2663C42.2439 16.0825 43.15 15.4453 43.6419 14.5873C44.4832 13.1165 44.2372 11.1066 42.917 9.96676C42.0757 9.23132 40.8461 8.93723 39.7459 9.20678Z" fill="white" fill-opacity="0.7"/>
<path fill-rule="evenodd" clip-rule="evenodd" d="M50.9933 7.58889C52.4819 6.70648 54.4621 6.46134 56.0671 7.22131C56.5719 7.42964 56.986 7.78509 57.3873 8.14054L57.4003 7.12328L60.0147 7.13541V17.9455C60.0018 19.5754 59.5618 21.3036 58.3192 22.4925C56.9601 23.8038 54.8763 24.2083 52.9995 23.9386C50.9933 23.6568 49.2459 22.2719 48.4694 20.5192C49.2459 20.1637 50.0615 19.8819 50.8639 19.551C51.3169 20.556 52.2359 21.4139 53.3878 21.6101C54.5397 21.8061 55.8729 21.5364 56.6236 20.6295C57.426 19.698 57.426 18.4235 57.3873 17.2836C56.7919 17.8352 56.1058 18.3253 55.2775 18.5092C53.4784 18.9872 51.4982 18.3989 50.1132 17.2468C48.7153 16.0947 47.887 14.3177 47.9646 12.5527C48.0035 10.5549 49.1942 8.63068 50.9933 7.58889ZM53.6726 9.15778C52.883 9.28036 52.1452 9.69702 51.6404 10.2731C50.4239 11.6458 50.4239 13.8396 51.6534 15.1878C52.3524 15.9844 53.4784 16.4256 54.5656 16.3153C55.5882 16.2173 56.533 15.6044 57.0378 14.7589C57.8921 13.3248 57.7497 11.3761 56.5977 10.1259C55.8858 9.35384 54.7469 8.97385 53.6726 9.15778Z" fill="white" fill-opacity="0.7"/>
<path fill-rule="evenodd" clip-rule="evenodd" d="M68.0914 8.21383C69.6445 6.84113 72.039 6.37539 74.0323 7.09855C75.922 7.77263 77.1257 9.47622 77.7341 11.2289C74.9253 12.3319 72.1296 13.4226 69.321 14.5258C69.7093 15.2244 70.3047 15.8617 71.1071 16.1191C72.2332 16.4989 73.5792 16.3642 74.5242 15.6533C74.8996 15.3837 75.1972 15.0282 75.482 14.685L77.6176 16.0332C76.6079 17.4672 74.9124 18.4722 73.0875 18.6316C71.0683 18.8645 68.9197 18.129 67.6125 16.6338C65.4639 14.2807 65.671 10.3341 68.0914 8.21383ZM69.4764 10.4812C69.0362 11.0818 68.8551 11.8171 68.868 12.5402C70.7447 11.805 72.6214 11.0695 74.4983 10.322C74.1876 9.63561 73.437 9.21881 72.6733 9.10851C71.4436 8.90018 70.1623 9.52516 69.4764 10.4812Z" fill="white" fill-opacity="0.7"/>
</svg>
