<svg width="25" height="26" viewBox="0 0 25 26" fill="none" xmlns="http://www.w3.org/2000/svg">
<path d="M5.54052 15.6079L4.67031 18.8565L1.4897 18.9238C0.53916 17.1608 0 15.1436 0 13.0001C0 10.9273 0.504101 8.97261 1.39765 7.25146H1.39834L4.22998 7.7706L5.4704 10.5853C5.21079 11.3421 5.06928 12.1546 5.06928 13.0001C5.06938 13.9177 5.23559 14.7968 5.54052 15.6079Z" fill="#FBBB00"/>
<path d="M24.781 10.6649C24.9245 11.4211 24.9994 12.202 24.9994 13.0001C24.9994 13.895 24.9053 14.768 24.726 15.61C24.1175 18.4754 22.5275 20.9774 20.325 22.748L20.3243 22.7474L16.7577 22.5654L16.2529 19.4143C17.7144 18.5571 18.8566 17.2158 19.4583 15.61H12.7742V10.6649H24.781Z" fill="#518EF8"/>
<path d="M20.3244 22.7472L20.3251 22.7479C18.1829 24.4698 15.4618 25.5 12.4995 25.5C7.73925 25.5 3.60053 22.8393 1.48926 18.9238L5.54008 15.6078C6.5957 18.4251 9.31342 20.4306 12.4995 20.4306C13.869 20.4306 15.152 20.0604 16.253 19.4141L20.3244 22.7472Z" fill="#28B446"/>
<path d="M20.4783 3.37776L16.4288 6.69299C15.2894 5.98079 13.9425 5.56936 12.4996 5.56936C9.24132 5.56936 6.47276 7.66687 5.47003 10.5852L1.39792 7.25139H1.39723C3.4776 3.24041 7.66852 0.500031 12.4996 0.500031C15.5325 0.500031 18.3134 1.5804 20.4783 3.37776Z" fill="#F14336"/>
</svg>
