<svg width="16" height="18" viewBox="0 0 16 18" fill="none" xmlns="http://www.w3.org/2000/svg">
<path d="M6.97877 14.0613C6.27705 14.7098 5.30649 14.855 4.44565 14.4405C4.13445 14.2906 3.87183 14.0837 3.66624 13.8359L2.4941 16.4284C2.44076 16.5464 2.50032 16.6353 2.52837 16.668C2.55643 16.7007 2.63521 16.7731 2.75988 16.7384L3.61319 16.5009C3.70841 16.4744 3.8068 16.4609 3.90565 16.4608C4.11016 16.4609 4.31051 16.5186 4.48369 16.6274C4.65687 16.7362 4.79587 16.8916 4.88472 17.0758L5.2701 17.8733C5.32639 17.9899 5.43196 18.0015 5.47591 18.0006C5.51901 18.0001 5.62504 17.9861 5.67834 17.8681L7.54278 13.7441C7.33257 13.8043 7.1394 13.913 6.97877 14.0613ZM13.5072 16.4284L12.3351 13.8359C12.1295 14.0838 11.8669 14.2907 11.5557 14.4405C10.6948 14.855 9.72429 14.7098 9.02258 14.0613C8.86193 13.913 8.66873 13.8043 8.45849 13.7441L10.3229 17.8681C10.3763 17.9861 10.4823 18.0001 10.5254 18.0006C10.5693 18.0015 10.6749 17.9899 10.7312 17.8733L11.1166 17.0758C11.2054 16.8916 11.3444 16.7362 11.5176 16.6274C11.6908 16.5186 11.8911 16.4609 12.0956 16.4608C12.1925 16.4608 12.2909 16.4739 12.3881 16.5009L13.2414 16.7384C13.3661 16.7731 13.4449 16.7007 13.4729 16.668C13.501 16.6353 13.5606 16.5463 13.5072 16.4284Z" fill="url(#paint0_linear_145_3758)"/>
<path d="M14.4273 7.30515C13.4538 6.63859 13.1518 5.31513 13.7397 4.29219C14.093 3.67727 13.9091 3.06963 13.6192 2.70601C13.3292 2.3425 12.7777 2.02802 12.0996 2.23562C10.9717 2.5811 9.74847 1.99216 9.31521 0.894727C9.05477 0.235055 8.46502 0 8.00001 0C7.535 0 6.94525 0.235055 6.68481 0.894762C6.25155 1.99223 5.02846 2.5811 3.90041 2.23566C3.22228 2.02809 2.67085 2.3425 2.38085 2.70605C2.09091 3.06967 1.90701 3.67724 2.26037 4.29223C2.84825 5.31513 2.54619 6.63863 1.57271 7.30519C0.987499 7.70593 0.889589 8.33316 0.993018 8.78653C1.09645 9.23991 1.45687 9.7625 2.15799 9.86963C3.32426 10.0478 4.17062 11.1091 4.08487 12.2858C4.03326 12.9932 4.46262 13.4608 4.88158 13.6626C5.30057 13.8644 5.93388 13.9086 6.45475 13.4272C6.88795 13.0268 7.44408 12.8266 7.99998 12.8266C8.55608 12.8266 9.1119 13.0267 9.54516 13.4272C10.0661 13.9086 10.6994 13.8644 11.1184 13.6626C11.5374 13.4609 11.9667 12.9932 11.9151 12.2858C11.8294 11.1091 12.6757 10.0478 13.842 9.86963C14.5431 9.7625 14.9035 9.23987 15.007 8.78653C15.1104 8.33309 15.0125 7.70586 14.4273 7.30515ZM8.00001 11.8098C5.44855 11.8098 3.37278 9.73403 3.37278 7.18256C3.37278 4.6311 5.44851 2.5553 8.00001 2.5553C10.5515 2.5553 12.6272 4.63106 12.6272 7.18253C12.6272 9.73399 10.5515 11.8098 8.00001 11.8098Z" fill="url(#paint1_linear_145_3758)"/>
<path d="M8.00082 3.41797C5.92506 3.41797 4.23633 5.10673 4.23633 7.18246C4.23633 9.2582 5.92502 10.947 8.00082 10.947C10.0766 10.947 11.7653 9.2582 11.7653 7.18246C11.7653 5.10673 10.0766 3.41797 8.00082 3.41797ZM9.93002 6.81747L7.58714 8.5287C7.54085 8.56252 7.48829 8.58677 7.43252 8.60004C7.37675 8.6133 7.3189 8.61532 7.26234 8.60597C7.20578 8.59662 7.15165 8.5761 7.10312 8.54559C7.05459 8.51508 7.01262 8.47521 6.97968 8.4283L6.27887 7.43049C6.14194 7.23548 6.18901 6.96643 6.38395 6.8295C6.57893 6.69256 6.84795 6.7396 6.98491 6.93458L7.43316 7.5728L9.42117 6.12078C9.61358 5.98033 9.88348 6.02224 10.024 6.21468C10.1645 6.40706 10.1224 6.67692 9.93002 6.81747Z" fill="url(#paint2_linear_145_3758)"/>
<defs>
<linearGradient id="paint0_linear_145_3758" x1="2.47266" y1="15.8724" x2="13.5287" y2="15.8724" gradientUnits="userSpaceOnUse">
<stop stop-color="#9237E3"/>
<stop offset="1" stop-color="#2C1D43"/>
</linearGradient>
<linearGradient id="paint1_linear_145_3758" x1="0.957031" y1="6.90313" x2="15.043" y2="6.90313" gradientUnits="userSpaceOnUse">
<stop stop-color="#9237E3"/>
<stop offset="1" stop-color="#2C1D43"/>
</linearGradient>
<linearGradient id="paint2_linear_145_3758" x1="4.23633" y1="7.18246" x2="11.7653" y2="7.18246" gradientUnits="userSpaceOnUse">
<stop stop-color="#9237E3"/>
<stop offset="1" stop-color="#2C1D43"/>
</linearGradient>
</defs>
</svg>
