<svg width="118" height="173" viewBox="0 0 118 173" fill="none" xmlns="http://www.w3.org/2000/svg">
<circle cx="3.44225" cy="3.44225" r="3.44225" fill="#D6A8FF"/>
<circle cx="3.44225" cy="30.9794" r="3.44225" fill="#D6A8FF"/>
<circle cx="3.44225" cy="58.5183" r="3.44225" fill="#D6A8FF"/>
<circle cx="3.44225" cy="86.0555" r="3.44225" fill="#D6A8FF"/>
<circle cx="3.44225" cy="113.594" r="3.44225" fill="#D6A8FF"/>
<circle cx="3.44225" cy="141.132" r="3.44225" fill="#D6A8FF"/>
<circle cx="3.44225" cy="168.671" r="3.44225" fill="#D6A8FF"/>
<circle cx="30.9794" cy="3.44225" r="3.44225" fill="#D6A8FF"/>
<circle cx="30.9794" cy="30.9794" r="3.44225" fill="#D6A8FF"/>
<circle cx="30.9794" cy="58.5183" r="3.44225" fill="#D6A8FF"/>
<circle cx="30.9794" cy="86.0555" r="3.44225" fill="#D6A8FF"/>
<circle cx="30.9794" cy="113.595" r="3.44225" fill="#D6A8FF"/>
<circle cx="30.9794" cy="141.132" r="3.44225" fill="#D6A8FF"/>
<circle cx="30.9794" cy="168.671" r="3.44225" fill="#D6A8FF"/>
<circle cx="58.5184" cy="3.44225" r="3.44225" fill="#D6A8FF"/>
<circle cx="58.5184" cy="30.9794" r="3.44225" fill="#D6A8FF"/>
<circle cx="58.5184" cy="58.5183" r="3.44225" fill="#D6A8FF"/>
<circle cx="58.5184" cy="86.0555" r="3.44225" fill="#D6A8FF"/>
<circle cx="58.5184" cy="113.594" r="3.44225" fill="#D6A8FF"/>
<circle cx="58.5184" cy="141.132" r="3.44225" fill="#D6A8FF"/>
<circle cx="58.5184" cy="168.671" r="3.44225" fill="#D6A8FF"/>
<circle cx="86.0555" cy="3.44225" r="3.44225" fill="#D6A8FF"/>
<circle cx="86.0555" cy="30.9794" r="3.44225" fill="#D6A8FF"/>
<circle cx="86.0555" cy="58.5183" r="3.44225" fill="#D6A8FF"/>
<circle cx="86.0555" cy="86.0555" r="3.44225" fill="#D6A8FF"/>
<circle cx="86.0555" cy="113.595" r="3.44225" fill="#D6A8FF"/>
<circle cx="86.0555" cy="141.132" r="3.44225" fill="#D6A8FF"/>
<circle cx="86.0555" cy="168.671" r="3.44225" fill="#D6A8FF"/>
<circle cx="113.594" cy="3.44225" r="3.44225" fill="#D6A8FF"/>
<circle cx="113.595" cy="30.9794" r="3.44225" fill="#D6A8FF"/>
<circle cx="113.594" cy="58.5183" r="3.44225" fill="#D6A8FF"/>
<circle cx="113.595" cy="86.0555" r="3.44225" fill="#D6A8FF"/>
<circle cx="113.594" cy="113.594" r="3.44225" fill="#D6A8FF"/>
<circle cx="113.595" cy="141.132" r="3.44225" fill="#D6A8FF"/>
<circle cx="113.595" cy="168.671" r="3.44225" fill="#D6A8FF"/>
</svg>
