<svg width="68" height="63" viewBox="0 0 68 63" fill="none" xmlns="http://www.w3.org/2000/svg">
<path d="M51.922 40.7406C49.8101 40.7406 48.0922 38.9679 48.0922 36.7685C48.0922 34.569 49.8101 32.7964 51.922 32.7964C54.0339 32.7964 55.7519 34.569 55.7519 36.7685C55.7519 38.957 54.0339 40.7296 51.922 40.7296V40.7406ZM51.922 30.7501C48.7159 30.7501 46.1116 33.442 46.1116 36.7685C46.1116 40.095 48.7159 42.7868 51.922 42.7868C55.1282 42.7868 57.7325 40.095 57.7325 36.7685C57.7325 33.442 55.1391 30.7501 51.922 30.7392V30.7501ZM65.6548 44.8768C65.6548 45.4459 65.2062 45.9054 64.659 45.9054H59.527C59.7787 45.7632 60.0194 45.5881 60.2164 45.3802C60.8839 44.5267 61.2559 43.4653 61.2778 42.371C61.3106 41.8786 61.4091 41.3862 61.5514 40.9157C61.7593 40.4889 62.0219 40.095 62.3174 39.7448C63.904 38.388 64.1229 35.9587 62.8098 34.3174C62.6566 34.1313 62.4924 33.9672 62.3174 33.814C62.0876 33.5295 61.8687 33.2231 61.6717 32.9167V11.6336C61.6717 11.0756 61.2341 10.616 60.6869 10.6051C59.0456 10.6051 57.7106 9.2263 57.7106 7.51928C57.7106 6.95027 57.2619 6.49068 56.7148 6.49068H10.8987C10.3516 6.49068 9.90296 6.95027 9.90296 7.51928C9.90296 9.21536 8.56798 10.5941 6.92661 10.6051C6.37949 10.6051 5.93085 11.0646 5.93085 11.6336V36.6809C5.93085 37.25 6.37949 37.7095 6.92661 37.7095C8.56798 37.7095 9.89202 39.0883 9.90296 40.7844C9.90296 41.3534 10.3516 41.813 10.8987 41.813H42.4787C42.5006 41.988 42.5224 42.185 42.5443 42.382C42.5443 43.4762 42.9273 44.5486 43.6057 45.3911C43.8137 45.599 44.0434 45.7741 44.3061 45.9164H2.97638C2.42926 45.9164 1.98062 45.4568 1.98062 44.8878V3.40491C1.98062 2.8359 2.42926 2.37632 2.97638 2.37632H64.67C65.2171 2.37632 65.6657 2.8359 65.6657 3.40491V44.8768H65.6548ZM41.5048 39.7448H11.7851C11.3802 37.7314 9.87013 36.1666 7.93332 35.7399V12.5419C9.88108 12.1261 11.4021 10.5503 11.796 8.53693H55.8504C56.2552 10.5503 57.7762 12.1261 59.7131 12.5419V27.7409C58.969 27.3361 58.1592 27.1172 57.3276 27.0735C56.8461 27.0406 56.3756 26.9421 55.916 26.789C55.5111 26.5701 55.1282 26.3075 54.7889 25.9902C54.023 25.1914 53.0053 24.6989 51.922 24.5895C50.8387 24.6989 49.8211 25.1914 49.0551 25.9902C48.7159 26.3075 48.3329 26.5701 47.928 26.789C47.4684 26.9421 46.9979 27.0406 46.5164 27.0735C45.455 27.0735 44.4264 27.4674 43.6057 28.1677C42.9383 29.0212 42.5662 30.0826 42.5443 31.1769C42.5115 31.6693 42.413 32.1617 42.2708 32.6432C42.0629 33.0699 41.8002 33.4639 41.5048 33.814C39.9181 35.1818 39.7102 37.611 41.0233 39.2524C41.1656 39.4384 41.3297 39.6026 41.5048 39.7558V39.7448ZM58.8267 43.9249C58.3015 44.2531 57.6996 44.4282 57.0869 44.4282C56.4303 44.4829 55.7738 44.6252 55.15 44.855C54.5701 45.1395 54.0339 45.5115 53.5524 45.9492C53.1147 46.4197 52.5457 46.748 51.922 46.8903C51.2983 46.748 50.7293 46.4197 50.2916 45.9492C49.8101 45.5115 49.2739 45.1395 48.694 44.855C48.0703 44.6252 47.4137 44.472 46.7572 44.4282C46.1444 44.4282 45.5426 44.2531 45.0173 43.9249C44.7 43.3777 44.5249 42.754 44.5249 42.1193C44.4811 41.5722 44.3827 41.0251 44.2404 40.4999C44.2404 40.478 44.2295 40.4561 44.2185 40.4342C44.1857 40.3248 44.1529 40.2263 44.1091 40.1169C43.8355 39.515 43.4854 38.957 43.0586 38.4536C42.599 37.994 42.2817 37.4031 42.1504 36.7685C42.2927 36.1229 42.61 35.5429 43.0586 35.0833C43.4854 34.58 43.8355 34.0219 44.1091 33.4201C44.3389 32.7745 44.4811 32.096 44.5249 31.4176C44.5249 30.783 44.689 30.1592 45.0173 29.6121C45.5426 29.2838 46.1444 29.1088 46.7572 29.1088C47.4137 29.054 48.0703 28.9118 48.694 28.682C49.2739 28.3975 49.8101 28.0255 50.2916 27.5878C50.7293 27.1172 51.2983 26.789 51.922 26.6467C52.5457 26.789 53.1147 27.1172 53.5524 27.5878C54.0339 28.0255 54.5701 28.3975 55.15 28.682C55.7738 28.9118 56.4303 29.065 57.0869 29.1088C57.6996 29.1088 58.3015 29.2838 58.8267 29.6121C59.144 30.1592 59.3191 30.783 59.3191 31.4176C59.3629 32.107 59.5051 32.7745 59.7349 33.4201C59.7568 33.4639 59.7678 33.5076 59.7896 33.5405L59.8115 33.6061C60.0742 34.1313 60.4024 34.6238 60.7745 35.0833C61.2341 35.5429 61.5514 36.1229 61.6827 36.7685C61.5404 37.4141 61.2231 37.994 60.7745 38.4536C60.3477 38.957 59.9976 39.515 59.724 40.1169C59.4942 40.7625 59.352 41.4409 59.3082 42.1193C59.3082 42.754 59.144 43.3777 58.8158 43.9249H58.8267ZM56.9556 60.2072L52.9834 57.4935C52.3488 57.0558 51.5171 57.0558 50.8825 57.4935L46.8994 60.2072V46.5182C47.2496 46.551 47.5997 46.6386 47.939 46.7589C48.3438 46.9778 48.7268 47.2404 49.066 47.5577C49.832 48.3565 50.8497 48.849 51.933 48.9584C53.0163 48.849 54.0339 48.3565 54.7999 47.5577C55.1391 47.2404 55.5221 46.9778 55.927 46.7589C56.2662 46.6386 56.6054 46.551 56.9665 46.5182V60.2072H56.9556ZM64.67 0.330078H2.97638C1.33501 0.330078 0 1.70883 0 3.40491V44.8768C0 46.5729 1.33501 47.9517 2.97638 47.9626H44.9079V60.3495C44.9079 61.4437 45.7614 62.3301 46.8228 62.3301C47.1949 62.3301 47.5669 62.2206 47.8733 62.0018L51.922 59.2443L55.9707 62.0018C56.8571 62.6036 58.0389 62.352 58.6188 61.4328C58.8267 61.1045 58.9361 60.7325 58.9361 60.3385V47.9517H64.67C66.3114 47.9517 67.6354 46.5729 67.6354 44.8768V3.40491C67.6354 1.70883 66.3004 0.330078 64.659 0.330078H64.67Z" fill="#9237E3"/>
<path d="M35.4537 35.291C33.7686 36.035 31.8974 36.2101 30.1138 35.7834C29.5338 35.6083 28.9758 35.3676 28.4505 35.0721C27.6846 34.6235 26.8529 34.3171 25.9885 34.1639C24.0298 33.8903 22.0382 34.3061 20.3422 35.3566C19.8497 35.6083 19.6528 36.232 19.9045 36.7354C20.1452 37.2387 20.747 37.4466 21.2394 37.184C21.2613 37.184 21.2723 37.1621 21.2942 37.1512C22.6072 36.3305 24.1501 35.9913 25.6821 36.1882C26.3496 36.3195 26.9842 36.5603 27.5751 36.8995C28.2207 37.2606 28.9101 37.5451 29.6104 37.753C30.3655 37.9609 31.1424 38.0703 31.9302 38.0703C33.3746 38.0485 34.8081 37.753 36.154 37.1949C36.6574 36.9761 36.8872 36.3633 36.6683 35.849C36.4713 35.3676 35.9461 35.1159 35.4537 35.28V35.291Z" fill="#9237E3"/>
<path d="M39.7662 29.0645H12.8805C12.3334 29.0863 11.9067 29.5678 11.9285 30.1368C11.9504 30.673 12.3662 31.0998 12.8805 31.1216H39.7662C40.3133 31.0998 40.74 30.6183 40.7182 30.0493C40.6963 29.5131 40.2805 29.0863 39.7662 29.0645Z" fill="#9237E3"/>
<path d="M39.7662 24.9609H12.8805C12.3334 24.9828 11.9067 25.4643 11.9285 26.0333C11.9504 26.5695 12.3662 26.9962 12.8805 27.0181H39.7662C40.3133 26.9962 40.74 26.5148 40.7182 25.9458C40.6963 25.4096 40.2805 24.9828 39.7662 24.9609Z" fill="#9237E3"/>
<path d="M23.7773 21.886C23.7773 22.455 24.226 22.9146 24.7731 22.9146H54.7664C55.3135 22.9365 55.7731 22.4988 55.795 21.9298C55.8169 21.3608 55.3901 20.8793 54.843 20.8574C54.8211 20.8574 54.7883 20.8574 54.7664 20.8574H24.7731C24.226 20.8574 23.7773 21.317 23.7773 21.886Z" fill="#9237E3"/>
<path d="M12.8794 22.9048H19.0947C19.6418 22.9267 20.1014 22.489 20.1233 21.92C20.1452 21.351 19.7184 20.8695 19.1713 20.8477C19.1494 20.8477 19.1166 20.8477 19.0947 20.8477H12.8903C12.3432 20.8695 11.9164 21.351 11.9383 21.92C11.9602 22.4562 12.376 22.883 12.8903 22.9048H12.8794Z" fill="#9237E3"/>
<path d="M20.813 14.6978H46.8451C47.3922 14.6759 47.8189 14.1945 47.7971 13.6254C47.7752 13.0893 47.3594 12.6625 46.8451 12.6406H20.8239C20.2768 12.6625 19.85 13.144 19.8719 13.713C19.8938 14.2492 20.3096 14.6759 20.8239 14.6978H20.813Z" fill="#9237E3"/>
</svg>
