<svg width="64" height="64" viewBox="0 0 64 64" fill="none" xmlns="http://www.w3.org/2000/svg">
<path d="M22.3401 17.8889V19.2324C22.3401 20.0027 22.6462 20.7415 23.1909 21.2863C23.7356 21.831 24.4744 22.137 25.2448 22.137H27.1802C27.9505 22.137 28.6893 21.831 29.234 21.2863C29.7787 20.7415 30.0848 20.0027 30.0848 19.2324V17.8998C30.1097 17.2043 30.3627 16.5363 30.805 15.999C31.5959 14.9904 32.0239 13.7449 32.0202 12.4633C32.0228 11.5748 31.8202 10.6978 31.4284 9.90034C31.0364 9.10293 30.4657 8.40669 29.7606 7.86607C29.0466 7.31595 28.2151 6.93803 27.3311 6.76175C26.4471 6.58547 25.5344 6.61563 24.6639 6.84983C23.7427 7.10206 22.8982 7.57815 22.2054 8.2357C21.5127 8.89324 20.9933 9.7118 20.6934 10.6186C20.3935 11.5255 20.3225 12.4923 20.4866 13.4332C20.6506 14.3741 21.0449 15.2598 21.6339 16.0115C22.0711 16.5416 22.3196 17.2022 22.3401 17.8889ZM28.1478 19.2324C28.1478 19.489 28.0458 19.7353 27.8644 19.9167C27.6829 20.0981 27.4368 20.2 27.1802 20.2H25.2448C24.9881 20.2 24.742 20.0981 24.5606 19.9167C24.3791 19.7353 24.2771 19.489 24.2771 19.2324V18.2648H28.1494L28.1478 19.2324ZM22.4967 11.3328C22.6793 10.7059 23.0199 10.1365 23.4862 9.67936C23.9523 9.22225 24.5284 8.89276 25.1586 8.7226C25.5036 8.63164 25.8588 8.58538 26.2156 8.58478C27.2426 8.58478 28.2275 8.99274 28.9537 9.71901C29.6799 10.4452 30.0879 11.43 30.0879 12.4571C30.0904 13.3086 29.8058 14.136 29.2799 14.8058C28.9173 15.2669 28.6303 15.7828 28.4296 16.3341H24C23.8029 15.7876 23.5184 15.2768 23.1575 14.8215C22.7751 14.3365 22.5156 13.7663 22.4011 13.1593C22.2866 12.5525 22.3204 11.9269 22.4998 11.336L22.4967 11.3328ZM62.0277 55.0491H57.1876V52.1445C57.1876 52.1132 57.172 52.0881 57.1705 52.06C57.1885 51.8961 57.1631 51.7303 57.0968 51.5792L48.3987 33.0399L48.9953 29.7391C49.1317 28.9815 48.9618 28.2006 48.5228 27.5682C48.0838 26.9359 47.4119 26.5035 46.6543 26.3663L42.8526 25.679C42.6007 25.6332 42.341 25.6891 42.1304 25.8343C41.9196 25.9796 41.775 26.2024 41.7283 26.454L37.9326 47.4142C37.887 47.6659 37.9429 47.9256 38.0881 48.1364C38.2333 48.347 38.4562 48.4916 38.7077 48.5384L42.5174 49.2258C43.2753 49.3627 44.0565 49.193 44.6893 48.754C45.3221 48.3151 45.7545 47.6427 45.8918 46.8849L46.5056 43.4886L49.9503 51.1737H44.6047C43.8343 51.1737 43.0955 51.4797 42.5508 52.0244C42.0061 52.5691 41.7001 53.3079 41.7001 54.0783V55.046H27.6076C27.9563 54.4603 28.1423 53.7922 28.1463 53.1106C28.1463 52.0837 27.7383 51.0987 27.012 50.3725C26.2859 49.6464 25.301 49.2383 24.274 49.2383H19.2931L13.3571 44.4939C13.139 44.3172 12.9059 44.16 12.6603 44.0241V40.5292C12.6558 40.496 12.6496 40.4631 12.6415 40.4306C14.3309 39.4815 15.5958 37.9249 16.1789 36.0769C16.7621 34.2288 16.6197 32.2282 15.7809 30.4814C15.7732 30.4641 15.7644 30.4472 15.7543 30.4313C15.3324 29.4972 14.7285 28.6567 13.9782 27.9585C13.2279 27.2602 12.3461 26.7185 11.3842 26.3648C10.4223 26.011 9.39957 25.8523 8.37565 25.8979C7.35184 25.9436 6.34726 26.1927 5.42067 26.6307C4.49408 27.0687 3.66398 27.6867 2.97879 28.4489C2.29361 29.2111 1.76705 30.1021 1.42987 31.0699C1.09256 32.0377 0.951491 33.0631 1.0147 34.0861C1.07802 35.1089 1.34431 36.1091 1.79805 37.0281L1.80911 37.0499C2.48576 38.4685 3.57794 39.6476 4.94073 40.4306C4.93268 40.4631 4.92643 40.496 4.92198 40.5292V43.5325C3.82752 43.7547 2.84373 44.3484 2.13716 45.2131C1.43047 46.0778 1.04462 47.1603 1.04498 48.277V61.8292C1.04498 61.9562 1.06997 62.0821 1.11864 62.1995C1.16719 62.3169 1.23856 62.4235 1.32833 62.5134C1.41821 62.6033 1.52492 62.6745 1.64232 62.7232C1.75972 62.7718 1.88553 62.7969 2.01267 62.7969H58.1569C59.4405 62.7969 60.6716 62.2869 61.5793 61.3793C62.4869 60.4716 62.9969 59.2405 62.9969 57.9569V56.0168C62.9969 55.8895 62.9718 55.7636 62.923 55.6461C62.8743 55.5286 62.803 55.4219 62.7128 55.332C62.6228 55.2421 62.516 55.1708 62.3984 55.1223C62.2808 55.0739 62.1548 55.0489 62.0277 55.0491ZM43.9924 46.542C43.9702 46.6677 43.9234 46.7878 43.8546 46.8952C43.7858 47.0027 43.6964 47.0955 43.5916 47.1683C43.4879 47.242 43.3703 47.2939 43.246 47.3208C43.1216 47.3477 42.993 47.3492 42.8682 47.3249L40.0105 46.8082L43.4428 27.7567L46.302 28.2735C46.5533 28.3203 46.7758 28.4646 46.9211 28.6751C47.0663 28.8853 47.1224 29.1447 47.0771 29.3962L43.9924 46.542ZM47.1241 40.1221L47.8067 36.3328L54.7732 51.1799H52.0752L47.1241 40.1221ZM43.6354 54.0799C43.6354 53.9528 43.6604 53.827 43.7091 53.7095C43.7578 53.5921 43.829 53.4855 43.9189 53.3956C44.0087 53.3058 44.1154 53.2345 44.2328 53.1858C44.3502 53.1373 44.476 53.1122 44.6031 53.1122H55.2507V55.0476H43.6354V54.0799ZM22.3401 51.1768H24.2755C24.789 51.1768 25.2815 51.3808 25.6446 51.744C26.0077 52.107 26.2117 52.5995 26.2117 53.113C26.2117 53.6265 26.0077 54.1189 25.6446 54.4821C25.2815 54.8452 24.789 55.0491 24.2755 55.0491H22.3401V51.1768ZM3.33725 35.6892C2.86572 34.3818 2.88086 32.9482 3.37979 31.6511C3.87883 30.3538 4.8285 29.2797 6.05466 28.6254C7.28094 27.9711 8.7019 27.7804 10.0572 28.0882C11.4127 28.3959 12.6118 29.1815 13.4353 30.3012L7.25499 31.5226C6.59636 31.6551 6.00359 32.0112 5.57736 32.5304C5.15102 33.0498 4.9173 33.7005 4.91561 34.3724V34.7184C4.91561 34.9751 4.81371 35.2212 4.63226 35.4027C4.45082 35.5842 4.2046 35.6861 3.94792 35.6861L3.33725 35.6892ZM4.44901 37.5682C5.12122 37.4509 5.73058 37.1007 6.17026 36.579C6.61006 36.0574 6.8522 35.3976 6.85412 34.7153V34.3693C6.85364 34.1457 6.93054 33.9288 7.07186 33.7555C7.21317 33.5823 7.41012 33.4633 7.62918 33.4188L14.3231 32.0925C14.4958 32.6278 14.5887 33.1854 14.5988 33.7476C14.6037 34.9277 14.2475 36.0811 13.5781 37.0528C12.9086 38.0247 11.958 38.7686 10.8536 39.1846C9.74925 39.6006 8.54412 39.6688 7.39991 39.3802C6.25569 39.0916 5.22708 38.4599 4.45214 37.5698L4.44901 37.5682ZM10.7249 41.2151V43.4588C10.5949 43.4495 10.465 43.426 10.3381 43.426H6.85255V41.2214C7.4833 41.3955 8.13376 41.4881 8.78793 41.4969C9.44223 41.4881 10.0926 41.3955 10.7233 41.2214L10.7249 41.2151ZM10.7249 56.0106V60.8506H2.98036V48.277C2.98036 47.5066 3.2863 46.7678 3.831 46.2231C4.37571 45.6784 5.11461 45.3723 5.88487 45.3723H10.3381C10.9979 45.3725 11.6379 45.5973 12.1529 46.0096L18.3473 50.9717C18.52 51.1088 18.7344 51.1828 18.9549 51.1815H20.4048V55.0538H17.8243L10.3381 49.434C10.2364 49.3577 10.1207 49.3022 9.99763 49.2707C9.87446 49.2391 9.74625 49.2322 9.62044 49.2501C9.49462 49.2681 9.3735 49.3106 9.26415 49.3754C9.1548 49.4402 9.05915 49.5257 8.98284 49.6275C8.90666 49.7292 8.85114 49.8449 8.81954 49.9679C8.78793 50.0911 8.78096 50.2193 8.79887 50.3451C8.81689 50.4709 8.85943 50.5921 8.9242 50.7014C8.98897 50.8108 9.07465 50.9064 9.17631 50.9827L14.5972 55.0538H11.6926C11.4367 55.0538 11.1914 55.1551 11.0099 55.3356C10.8286 55.5161 10.7261 55.761 10.7249 56.0168V56.0106ZM61.06 57.9459C61.06 58.7163 60.7539 59.4551 60.2092 59.9998C59.6645 60.5445 58.9257 60.8506 58.1553 60.8506H12.6603V56.9845H61.06V57.9459ZM18.4695 33.746C18.4682 34.5123 18.6943 35.2617 19.1191 35.8993C19.5439 36.537 20.1483 37.0342 20.8559 37.3283C21.5634 37.6222 22.3423 37.6997 23.0939 37.5508C23.8456 37.402 24.536 37.0336 25.0782 36.4921C25.6203 35.9507 25.9896 35.2606 26.1394 34.5091C26.2891 33.7577 26.2126 32.9788 25.9194 32.2709C25.6263 31.563 25.1298 30.9579 24.4925 30.5323C23.8554 30.1067 23.1064 29.8797 22.3401 29.8801C21.3135 29.8804 20.3289 30.2886 19.603 31.0148C18.8772 31.7409 18.4695 32.7256 18.4695 33.7524V33.746ZM24.2771 33.746C24.2783 34.129 24.1659 34.5038 23.9541 34.8228C23.7422 35.1419 23.4405 35.3909 23.0871 35.5384C22.7337 35.686 22.3444 35.7253 21.9686 35.6514C21.5928 35.5776 21.2474 35.3938 20.976 35.1236C20.7047 34.8533 20.5196 34.5087 20.4442 34.1332C20.3688 33.7577 20.4066 33.3682 20.5527 33.0142C20.6987 32.6602 20.9466 32.3575 21.2647 32.1443C21.583 31.9312 21.9572 31.8172 22.3401 31.817C22.5944 31.8168 22.8463 31.8666 23.0813 31.9638C23.3162 32.0611 23.5298 32.2036 23.7097 32.3832C23.8896 32.563 24.0323 32.7764 24.1296 33.0113C24.227 33.2462 24.2771 33.498 24.2771 33.7524V33.746ZM11.2228 18.7392C11.2418 20.4703 11.7411 22.1621 12.6653 23.626C13.5894 25.0899 14.9019 26.2684 16.4566 27.0301C18.0113 27.7917 19.747 28.1067 21.47 27.9396C23.1932 27.7727 24.8361 27.1304 26.2156 26.0845C27.3814 26.9741 28.7411 27.5752 30.1837 27.8387C31.6263 28.1021 33.1108 28.0205 34.5157 27.6003C35.9207 27.1802 37.2062 26.4336 38.2674 25.4215C39.3286 24.4093 40.1351 23.1604 40.6212 21.7769C42.4391 21.1365 44.0129 19.9467 45.1246 18.3723C46.2364 16.7979 46.8312 14.9169 46.8265 12.9894C46.8233 10.5034 45.8348 8.1201 44.0776 6.36148C42.3205 4.60287 39.938 3.61247 37.452 3.60706C36.1334 3.6091 34.8312 3.8987 33.636 4.45566C32.8959 3.48497 31.9719 2.66953 30.9166 2.05597C29.8612 1.44241 28.6953 1.04286 27.4855 0.879913C26.2757 0.71709 25.0457 0.794235 23.8656 1.10678C22.6857 1.41945 21.5789 1.96152 20.6083 2.70197C19.5542 1.90732 18.3438 1.34471 17.0566 1.05127C15.7695 0.757826 14.4348 0.740161 13.1403 0.999357C11.8459 1.25867 10.6209 1.78896 9.54617 2.55549C8.4713 3.32191 7.5709 4.30726 6.90399 5.44666C6.23719 6.58607 5.81914 7.85369 5.67722 9.16625C5.53543 10.4787 5.6729 11.8064 6.08086 13.062C6.48882 14.3175 7.15789 15.4725 8.04411 16.451C8.93033 17.4295 10.0136 18.2093 11.2228 18.7392ZM14.9808 2.73803C16.8175 2.74596 18.5858 3.43558 19.9429 4.6734C20.1207 4.83382 20.3517 4.92262 20.5911 4.92262C20.8306 4.92262 21.0616 4.83382 21.2394 4.6734C22.0385 3.94256 22.9889 3.39677 24.0228 3.07485C25.0568 2.75281 26.149 2.66256 27.2218 2.81036C28.2946 2.95817 29.3216 3.34053 30.2299 3.93018C31.1383 4.51983 31.9056 5.30223 32.4774 6.22197C32.6105 6.43166 32.8193 6.58211 33.0603 6.64219C33.3014 6.70227 33.5562 6.6673 33.7723 6.54449C34.8843 5.89428 36.1481 5.54856 37.4364 5.54244C39.2257 5.53354 40.9582 6.17114 42.3148 7.33794C43.6715 8.50486 44.5612 10.1223 44.8201 11.8929C45.0791 13.6635 44.6899 15.4681 43.7242 16.9746C42.7585 18.481 41.2813 19.588 39.5642 20.092C39.411 20.138 39.2716 20.2214 39.1586 20.3345C39.0454 20.4477 38.9621 20.5871 38.9161 20.7403C38.5662 21.9438 37.9151 23.0381 37.0247 23.9201C36.1341 24.802 35.0334 25.4422 33.8266 25.7805C32.6198 26.1188 31.3468 26.1437 30.1276 25.8531C28.9085 25.5624 27.7835 24.9657 26.8592 24.1194C26.6813 23.9589 26.4504 23.8701 26.2109 23.8701C25.9714 23.8701 25.7405 23.9589 25.5626 24.1194C24.4898 25.0982 23.1527 25.7399 21.7178 25.9646C20.2829 26.1892 18.8137 25.9868 17.493 25.3826C16.1723 24.7785 15.0585 23.7991 14.2902 22.5666C13.522 21.3342 13.1331 19.9029 13.1723 18.451C13.1863 18.3555 13.1973 18.2569 13.2036 18.1677C13.2153 17.958 13.1586 17.7502 13.042 17.5758C12.9253 17.4012 12.7551 17.2692 12.5569 17.2C10.8853 16.6347 9.46951 15.4928 8.56334 13.9786C7.65706 12.4645 7.31964 10.6772 7.61128 8.93698C7.90292 7.19663 8.80476 5.61706 10.1552 4.48114C11.5056 3.34522 13.2163 2.72733 14.9808 2.73803Z" fill="#9237E3" stroke="#9237E3" stroke-width="0.782914"/>
</svg>
