<svg width="53" height="63" viewBox="0 0 53 63" fill="none" xmlns="http://www.w3.org/2000/svg">
<path fill-rule="evenodd" clip-rule="evenodd" d="M14.8766 28.1875C14.8437 28.4063 14.9859 29.5548 15.0078 29.8501C15.1172 30.9439 15.1938 32.0596 15.3032 33.1425C15.336 33.416 15.3469 33.6894 15.3797 33.9738C15.4016 34.2473 15.4453 34.5317 15.4453 34.7942C15.5657 34.7723 16.9548 33.58 17.0751 33.4816L20.291 30.8236C20.5644 30.5939 20.816 30.397 21.0894 30.1564C21.177 30.0798 21.1988 30.047 21.3629 30.047H32.5636C33.012 30.047 33.5371 30.0689 33.9855 30.047V28.1C33.1652 28.0781 32.3229 28.1 31.5026 28.1H20.9472C20.641 28.1 20.63 28.0563 20.4332 28.2094C20.2035 28.4063 19.9738 28.5813 19.7441 28.7782C19.5143 28.9751 19.2846 29.1501 19.044 29.3579C18.8362 29.5329 17.0533 31.0314 16.9767 31.0424L16.6923 28.0234L14.8438 28.2094L14.8766 28.1875Z" fill="#9237E3"/>
<path fill-rule="evenodd" clip-rule="evenodd" d="M30.8555 24.3694H32.6931V20.4316H30.8555V24.3694Z" fill="#9237E3"/>
<path fill-rule="evenodd" clip-rule="evenodd" d="M29.8721 57.1178H1.88136C1.87043 56.8772 1.84855 55.3458 1.8923 55.2036C2.47203 55.1708 3.15019 55.2036 3.74085 55.2036H28.0127C30.069 55.2036 29.9159 55.2365 29.8612 57.1178H29.8721ZM9.24275 44.3092C9.28651 44.4186 9.35214 45.1843 9.38495 45.3702C9.47246 46.0703 9.76779 48.7611 9.86623 49.122C9.89904 49.2533 9.99749 49.472 9.99749 49.5814C10.0194 49.9643 9.99749 50.4237 9.99749 50.8065C9.99749 51.6159 9.99749 52.4254 9.99749 53.2457H5.78629C5.83005 53.0816 5.93943 52.8519 6.00505 52.6769C6.08162 52.491 6.14725 52.305 6.22382 52.1191C6.36602 51.7472 6.51915 51.3644 6.65041 51.0034C6.9348 50.2487 7.21919 49.5267 7.51452 48.7611L9.22088 44.342C9.22088 44.342 9.22088 44.3202 9.24275 44.3092ZM40.9744 29.0833C41.5213 29.0177 42.1229 29.1599 42.5823 29.3568C42.8667 29.488 43.3917 29.8162 43.5995 30.0459C43.9714 30.4396 44.223 30.7131 44.5074 31.3475C45.6778 33.9727 44.1246 37.1775 41.5541 37.3854C39.3337 37.5604 37.7586 35.6681 37.6054 33.5461C37.5179 32.321 37.9445 31.2162 38.5024 30.5053C39.0493 29.8052 39.7384 29.2583 40.9744 29.0942V29.0833ZM11.0366 28.0989L13.6071 49.3736C13.3664 49.3955 13.0274 49.3736 12.7867 49.3736C12.3273 49.3736 11.9226 49.2752 11.7257 48.772C11.6382 48.5532 11.6273 48.2798 11.6054 48.0282C11.2444 44.9983 10.8288 41.87 10.5006 38.862C10.1616 35.8103 9.75685 32.7585 9.39589 29.6958C9.33026 29.1052 9.24275 28.6895 9.62559 28.3395C9.77872 28.1973 9.93186 28.1098 10.2053 28.0879C10.4022 28.066 10.8397 28.066 11.0366 28.0879V28.0989ZM7.56921 28.1754C7.33951 28.9083 7.48171 29.6083 7.56921 30.3631C7.89736 33.2726 8.28019 36.1603 8.61928 39.0589C8.66303 39.4199 8.71772 39.8027 8.75054 40.1527C8.77241 40.3715 8.53177 40.8637 8.4552 41.0825C8.2255 41.6622 8.00674 42.231 7.78798 42.8216L5.09719 49.7893C5.00968 50.019 3.8393 53.1363 3.74085 53.2676H0V59.0648C0.251578 59.1414 1.2032 59.0429 1.56416 59.0867L1.60791 61.9853C1.67354 62.0072 3.34708 61.9853 3.47834 61.9634C3.53303 61.5259 3.39083 59.2617 3.45646 59.0758H18.3871C18.4418 59.2836 18.3871 61.5368 18.398 61.9744H20.2684C20.2684 61.7009 20.2466 59.3164 20.2684 59.1414C20.2684 59.1414 20.2684 59.1305 20.2684 59.1195C20.2684 59.1195 20.2684 59.1195 20.2684 59.1086C20.2684 59.1086 20.2684 59.1086 20.2684 59.0976C20.3669 59.0101 31.4035 59.1523 31.6879 59.0648C31.6551 58.4414 31.6879 57.7085 31.7207 57.085C31.7316 56.7678 31.7426 56.4287 31.7316 56.1006C31.7316 55.7724 31.6441 55.4333 31.6332 55.2146C32.2676 55.2146 32.913 55.2146 33.5474 55.2146C33.8427 55.2146 35.0787 55.1927 35.3631 55.2146H35.4287C35.5053 55.0724 35.4287 61.4165 35.4615 61.9853H37.3429V55.1161C37.4414 55.0615 37.6273 55.0177 37.7476 54.9739C38.1305 54.8208 38.4258 54.6021 38.7321 54.3395C38.8633 54.2302 38.8852 54.1755 38.9946 54.0551C39.6399 53.3113 39.8915 52.3707 40.165 51.3972C40.329 50.8174 42.5714 42.9857 42.5714 42.8107L40.7775 42.2747C40.6681 42.7779 40.2962 43.9811 40.1321 44.5608C39.9134 45.3265 39.7056 46.0922 39.4868 46.8469C39.0493 48.3673 38.6555 49.8986 38.1961 51.419C37.9773 52.1738 37.6492 52.9176 37.0257 53.1582C36.5444 53.3442 34.9146 53.2676 34.2802 53.2676H25.7594C24.7312 53.2676 24.0421 53.4098 23.2983 52.8629C23.0358 52.6769 22.7733 52.4144 22.6092 52.1081C22.4014 51.7253 22.3357 51.4081 22.4889 50.9378C22.6967 50.3033 23.2655 49.6361 23.8999 49.4502C24.1734 49.3736 24.9609 49.4064 25.289 49.4064H29.5659C30.0253 49.4064 34.9146 49.4392 35.2318 49.4064C35.3084 49.2752 36.5772 44.9218 36.6866 44.5499C36.7632 44.2874 37.0913 43.0732 37.1788 42.931H37.3429C37.3539 42.756 37.3429 42.581 37.3429 42.406C37.3429 42.3185 37.3867 42.22 37.3867 42.1872C37.3867 42.0888 37.3867 42.1982 37.3539 42.0888C37.2992 41.8481 37.3867 41.2028 37.4632 41.0059C37.6601 40.4809 37.9992 40.1199 38.4695 39.9011C38.9836 39.6605 39.7603 39.7371 40.3728 39.7371H44.5183C44.8902 39.7371 45.0981 39.7371 45.3606 39.923C45.5247 40.0543 45.7106 40.284 45.7434 40.6012C45.7762 40.9075 45.7434 41.3559 45.7434 41.6731V53.4317C45.7434 56.2756 45.7106 59.1414 45.7434 61.9962H47.6139C47.6357 61.1321 47.6139 60.2461 47.6139 59.382V46.3984C47.6139 45.9281 47.581 44.1561 47.6357 43.828C47.9201 42.2638 50.1187 42.2747 50.3812 43.8608C50.4359 44.167 50.4031 44.8014 50.4031 45.1405V59.4039C50.4031 60.0493 50.3703 61.4275 50.4031 61.9853C50.5453 62.0291 52.0329 62.0072 52.2735 61.9853C52.3063 61.4603 52.2735 60.8587 52.2735 60.3337V45.4687C52.2735 44.342 52.372 43.4561 51.9126 42.5482C51.5844 41.881 50.9938 41.2575 50.25 40.9621C48.7514 40.3606 47.9639 40.9622 47.6029 41.0059C47.6029 40.4809 47.581 40.1418 47.4279 39.6933C47.0451 38.5995 46.0497 37.8448 44.9121 37.801C44.934 37.7245 45.109 37.5604 45.1746 37.4947C45.459 37.1885 45.6778 36.8713 45.8966 36.4884C47.4826 33.7211 46.7607 30.1005 44.3652 28.2301C43.523 27.5738 42.3088 27.0816 40.9306 27.1472C38.5352 27.2785 36.6866 29.0067 35.9756 31.2928C35.3631 33.2398 35.735 35.6024 36.9929 37.1775C37.0804 37.2869 37.157 37.3963 37.2554 37.4838L37.8023 38.0526C37.7367 38.1182 37.6054 38.151 37.5289 38.1948C36.5444 38.7417 35.7897 39.6386 35.56 40.809C35.4506 41.3669 35.5053 41.881 35.385 42.3075C35.1334 43.1717 34.8709 44.0358 34.6193 44.889C34.4443 45.4687 33.974 46.9781 33.8536 47.4594C33.6239 47.5032 29.3362 47.4594 28.9752 47.4594C27.3564 47.4594 25.7156 47.4266 24.0968 47.4594C21.942 47.5032 19.9403 50.2158 20.6841 52.4254C20.8153 52.8082 20.9575 52.9832 21.0779 53.2785H11.846V51.255C11.9773 51.255 12.1414 51.3097 12.2726 51.3315C12.5242 51.3644 15.5213 51.3644 15.7072 51.3315L12.6664 26.1737C12.4258 26.13 10.6866 26.1737 10.3038 26.1737C9.00211 26.1737 7.96299 26.9285 7.54734 28.1973L7.56921 28.1754Z" fill="#9237E3"/>
<path fill-rule="evenodd" clip-rule="evenodd" d="M4.6691 27.126H6.53953C6.57234 26.7869 6.53953 21.9522 6.53953 21.46V4.4074C6.53953 3.53235 6.57234 2.94169 7.3052 2.35103C7.93961 1.84787 8.74904 1.96819 9.67878 1.96819H42.6027C43.4996 1.96819 44.3528 1.84787 44.9872 2.32915C45.7201 2.89794 45.7747 3.47766 45.7747 4.37459V25.704C45.7747 26.1525 45.7419 26.6994 45.7747 27.126H47.6452C47.678 26.8963 47.6452 14.8643 47.6452 14.7877V5.53403C47.6452 4.57148 47.7217 3.49954 47.4483 2.6573C46.9889 1.25721 45.7638 0.119641 44.0465 0.0211974C43.5762 -0.000678914 43.0402 0.0211974 42.5589 0.0211974H9.77722C8.26776 0.0211974 7.37083 -0.131937 6.102 0.84156C5.63166 1.20252 5.10663 1.89162 4.86599 2.64636C4.58159 3.51047 4.65816 4.5496 4.65816 5.5231V26.3603C4.65816 26.5791 4.63628 26.9291 4.65816 27.1369L4.6691 27.126Z" fill="#9237E3"/>
<path fill-rule="evenodd" clip-rule="evenodd" d="M25.846 6.83684C26.2945 6.74933 26.7867 6.86965 27.1477 7.03373C27.6289 7.25249 27.7164 7.40562 28.0337 7.67908C28.2196 7.84315 28.5149 8.31349 28.6462 8.6307C29.5322 10.7418 28.4712 13.2904 26.4914 13.5747C25.3538 13.7388 24.4897 13.0716 23.9537 12.284C22.7615 10.5121 23.3631 7.30718 25.846 6.83684ZM22.6302 13.7279C22.3677 13.8263 22.1161 13.9576 21.8426 14.067C20.3879 14.6904 18.6268 15.4342 17.4674 16.5171L16.9205 17.1187C16.1657 18.125 15.8595 19.0438 15.8595 20.6736C15.8595 21.2096 15.8267 25.1692 15.8704 25.3333C16.111 25.3333 17.6096 25.3661 17.719 25.3223C17.7955 25.1911 17.719 20.8596 17.7408 20.2689C17.7846 18.6938 18.4846 17.9828 19.7097 17.239C20.727 16.6265 22.6849 15.8061 23.9318 15.2702C24.4678 15.0405 24.1834 15.1061 24.8069 15.3249C25.6819 15.6202 26.5789 15.6311 27.4649 15.3358C28.1321 15.117 27.6946 15.0295 28.7665 15.4889C29.9916 16.014 31.9167 16.7906 32.9886 17.4906C33.2512 17.6547 33.4699 17.8297 33.6777 18.0485C34.1262 18.4969 34.4215 19.011 34.52 19.7001C34.6184 20.433 34.5747 21.4284 34.5747 22.205C34.5747 23.0581 34.5747 23.9004 34.5747 24.7536C34.5747 24.8629 34.52 25.2895 34.6075 25.3442H36.4342C36.4779 25.2239 36.456 21.1987 36.456 20.7064C36.456 19.1423 36.1716 18.0813 35.4169 17.1297C34.345 15.7843 32.8464 15.1608 31.2604 14.4607C31.1729 14.417 29.74 13.8263 29.6634 13.7607L30.0244 13.2138C30.987 11.6168 31.0635 9.6917 30.4072 7.97441C29.8275 6.44306 28.2415 4.87891 26.1742 4.87891C24.0522 4.87891 22.5536 6.38837 21.9192 7.91972C21.2301 9.61513 21.3395 11.5621 22.2583 13.17C22.3349 13.3013 22.5974 13.6513 22.6193 13.7498L22.6302 13.7279Z" fill="#9237E3"/>
<path fill-rule="evenodd" clip-rule="evenodd" d="M19.6113 24.3588C19.7426 24.3917 21.2302 24.3698 21.4927 24.3698C21.4927 24.1073 21.5146 20.5852 21.4927 20.4102H19.6332V24.3588H19.6113Z" fill="#9237E3"/>
<path fill-rule="evenodd" clip-rule="evenodd" d="M30.8578 24.3701V20.4324H32.6954V24.3811L32.7282 22.4012C32.7282 22.0731 32.772 20.6183 32.7173 20.4214C32.597 20.3777 30.9234 20.3886 30.8359 20.4214C30.8141 20.6183 30.8359 23.3747 30.8359 23.8779C30.8359 23.9763 30.8031 24.3045 30.8578 24.3701Z" fill="#9237E3"/>
</svg>
