<svg width="75" height="62" viewBox="0 0 75 62" fill="none" xmlns="http://www.w3.org/2000/svg">
<path d="M74.3294 52.8126L73.4813 49.2392C73.4075 48.922 73.2418 48.6336 73.005 48.4099C72.7682 48.1863 72.4707 48.0374 72.1497 47.982V43.8294C72.3444 43.7555 72.5116 43.6235 72.6287 43.4513C72.7459 43.2791 72.8072 43.0751 72.8044 42.8669C72.8018 42.6586 72.7351 42.4563 72.6135 42.2872C72.4921 42.1182 72.3215 41.9906 72.125 41.9217L51.9728 34.8311C51.7542 34.7542 51.5161 34.7542 51.2977 34.8311L31.1459 41.9217C30.9472 41.9915 30.7751 42.1212 30.6533 42.2931C30.5315 42.4649 30.4661 42.6704 30.4661 42.8811C30.4661 43.0916 30.5315 43.2971 30.6533 43.469C30.7751 43.6408 30.9472 43.7706 31.1459 43.8404L37.759 46.1686V56.2304C37.759 57.6121 38.5377 59.5249 42.2475 60.7907C44.5333 61.5705 47.6582 62 51.0466 62C54.5424 62 58.0112 61.5352 60.5637 60.7243C64.6569 59.4241 65.516 57.5628 65.516 56.2304V46.1672L70.1153 44.5479V47.9827C69.7945 48.0382 69.4973 48.1869 69.2606 48.4102C69.0237 48.6336 68.858 48.9218 68.784 49.2387L67.9339 52.8204C67.8773 53.0644 67.8766 53.318 67.9317 53.5623C67.9869 53.8067 68.0965 54.0354 68.2523 54.2313C68.4083 54.4273 68.6064 54.5856 68.832 54.6944C69.0575 54.8032 69.3048 54.8595 69.5553 54.8593H72.7095C72.9606 54.8596 73.2086 54.8029 73.4347 54.6937C73.6609 54.5844 73.8593 54.4254 74.0151 54.2284C74.171 54.0314 74.2802 53.8017 74.3345 53.5565C74.3889 53.3113 74.3874 53.057 74.3294 52.8126ZM63.4821 56.2304C63.4821 57.9972 58.3751 59.9659 51.0469 59.9659C47.876 59.9659 44.9845 59.5752 42.9046 58.8655C41.7425 58.469 39.7935 57.5997 39.7935 56.2304V46.8849L51.298 50.9352C51.5166 51.012 51.7549 51.012 51.9735 50.9352L63.4823 46.8833L63.4821 56.2304ZM51.6352 48.8975L34.547 42.8814L51.6352 36.8685L68.7236 42.8812L51.6352 48.8975ZM70.0235 52.8249L70.6957 49.9924H71.5695L72.2419 52.8249H70.0235ZM33.4106 27.7363V15.2034C33.8716 14.8061 34.2407 14.3134 34.4924 13.7594C34.7441 13.2054 34.8724 12.6032 34.8685 11.9947V7.88108C34.8685 5.85709 33.5722 4.64877 31.4013 4.64877H27.0942V2.94412C27.0942 1.3207 25.8216 0 24.2571 0H10.6113C9.04702 0 7.7742 1.3207 7.7742 2.94412V4.64877H3.46313C1.29465 4.64877 9.91952e-05 5.85709 9.91952e-05 7.88108V11.9988C-0.00408428 12.6075 0.124105 13.2099 0.375799 13.7642C0.627493 14.3185 0.996684 14.8115 1.45778 15.209V27.7369C1.45778 29.6192 2.92997 31.1505 4.73944 31.1505H30.1249C31.9365 31.1499 33.4106 29.6186 33.4106 27.7363ZM9.80842 2.94412C9.80842 2.45024 10.1761 2.03421 10.6113 2.03421H24.2571C24.6929 2.03421 25.06 2.45082 25.06 2.94412V4.64877H9.80842V2.94412ZM2.03373 11.9988V7.88108C2.03373 7.22555 2.14122 6.68298 3.46255 6.68298H31.4013C32.7245 6.68298 32.8341 7.24949 32.8341 7.88108V11.9947C32.8424 12.3928 32.7398 12.7855 32.5377 13.1288C32.3357 13.4719 32.0422 13.7522 31.6901 13.9383C28.0742 15.9447 24.4226 17.2003 20.819 17.682V15.9228C20.819 15.6532 20.7118 15.3945 20.5211 15.2038C20.3304 15.0131 20.0719 14.9059 19.8022 14.9059H15.0625C14.7928 14.9059 14.5342 15.0131 14.3435 15.2038C14.1528 15.3945 14.0457 15.6532 14.0457 15.9228V17.6871C10.4342 17.2078 6.78272 15.9511 3.17447 13.9405C2.82306 13.7542 2.53045 13.474 2.32895 13.1312C2.12755 12.7884 2.02534 12.3963 2.03373 11.9988ZM18.7841 16.9399V20.9217H16.0804V16.9399H18.7841ZM3.49195 27.7363V16.4114C6.99085 18.1897 10.5315 19.3066 14.0453 19.739V21.9387C14.0453 22.2084 14.1525 22.467 14.3432 22.6577C14.5339 22.8484 14.7926 22.9555 15.0622 22.9555H19.8019C20.0715 22.9555 20.3302 22.8484 20.5209 22.6577C20.7116 22.467 20.8187 22.2084 20.8187 21.9387V19.7341C24.328 19.2992 27.8691 18.1817 31.3762 16.4043V27.7363C31.3762 28.4969 30.8147 29.1163 30.1246 29.1163H4.73944C4.05172 29.1157 3.49195 28.4969 3.49195 27.7363ZM35.7084 52.8045C35.7084 53.0742 35.6013 53.3328 35.4106 53.5235C35.2199 53.7142 34.9612 53.8213 34.6916 53.8213H17.4348C17.1651 53.8213 16.9064 53.7142 16.7157 53.5235C16.5251 53.3328 16.418 53.0742 16.418 52.8045V36.3746L15.4962 37.1349C15.3932 37.2199 15.2745 37.2837 15.1468 37.3229C15.0192 37.3619 14.8849 37.3755 14.752 37.3627C14.6191 37.35 14.49 37.3112 14.3721 37.2486C14.2542 37.186 14.1497 37.1007 14.0648 36.9976C13.9797 36.8946 13.9159 36.7759 13.8767 36.6482C13.8377 36.5206 13.8241 36.3863 13.8369 36.2534C13.8497 36.1205 13.8885 35.9914 13.9511 35.8735C14.0137 35.7556 14.0989 35.6511 14.202 35.5661L16.7876 33.4332C16.9698 33.2828 17.1986 33.2005 17.4348 33.2005C17.671 33.2005 17.8998 33.2828 18.082 33.4332L20.6677 35.5661C20.7706 35.6511 20.8559 35.7556 20.9186 35.8735C20.9812 35.9914 21.02 36.1205 21.0328 36.2534C21.0455 36.3863 21.032 36.5206 20.9928 36.6482C20.9538 36.7759 20.8899 36.8946 20.8049 36.9976C20.72 37.1007 20.6155 37.186 20.4975 37.2486C20.3796 37.3112 20.2505 37.35 20.1175 37.3627C19.9846 37.3755 19.8505 37.3619 19.7228 37.3229C19.5951 37.2837 19.4764 37.2199 19.3733 37.1349L18.4512 36.3746V51.7866H34.6912C34.8249 51.7866 34.9572 51.8129 35.0807 51.864C35.2042 51.9152 35.3163 51.9902 35.4108 52.0847C35.5053 52.1793 35.5801 52.2914 35.6312 52.415C35.6823 52.5385 35.7085 52.6709 35.7084 52.8045ZM36.9141 11.6815C36.9141 11.4118 37.0211 11.1533 37.2118 10.9626C37.4025 10.7719 37.6612 10.6647 37.9309 10.6647H51.6343C51.904 10.6647 52.1626 10.7719 52.3533 10.9626C52.544 11.1533 52.6511 11.4118 52.6511 11.6815V28.9843L53.5728 28.2242C53.6758 28.1391 53.7946 28.0753 53.9222 28.0361C54.0499 27.9971 54.184 27.9835 54.317 27.9963C54.4499 28.009 54.579 28.0479 54.697 28.1105C54.8149 28.1731 54.9194 28.2583 55.0043 28.3614C55.0893 28.4644 55.1532 28.5831 55.1922 28.7108C55.2314 28.8385 55.2449 28.9726 55.2322 29.1056C55.2194 29.2385 55.1806 29.3676 55.118 29.4856C55.0554 29.6035 54.9701 29.7079 54.8671 29.793L52.2815 31.9257C52.0993 32.0761 51.8704 32.1582 51.6343 32.1582C51.3982 32.1582 51.1694 32.0761 50.9872 31.9257L48.4015 29.793C48.1935 29.6213 48.0622 29.374 48.0365 29.1055C48.0107 28.837 48.0928 28.5693 48.2644 28.3613C48.436 28.1533 48.6833 28.0219 48.9518 27.9963C49.2202 27.9705 49.488 28.0525 49.696 28.2242L50.6174 28.9843V12.6988H37.9317C37.7982 12.6988 37.6658 12.6726 37.5424 12.6214C37.419 12.5703 37.3069 12.4955 37.2124 12.401C37.118 12.3065 37.0431 12.1944 36.9919 12.0709C36.9408 11.9475 36.914 11.8151 36.9141 11.6815Z" fill="#9237E3"/>
</svg>
