<svg width="39" height="62" viewBox="0 0 39 62" fill="none" xmlns="http://www.w3.org/2000/svg">
<path d="M35.364 53.4316C35.3603 53.4316 35.3563 53.4325 35.3528 53.4325C34.7889 53.4381 34.3351 53.9264 34.3351 54.4903C34.3351 55.145 33.9438 55.814 33.172 56.4783C32.7415 56.8485 32.6929 57.4976 33.0635 57.9281C33.2668 58.1643 33.5539 58.2855 33.8432 58.2855C34.0804 58.2855 34.3195 58.2036 34.5133 58.0366C35.7419 56.9795 36.3913 55.7529 36.3909 54.5112C36.3913 54.4975 36.3909 54.4228 36.3905 54.4092C36.3796 53.8493 35.9227 53.4316 35.364 53.4316Z" fill="#9237E3"/>
<path d="M29.1983 58.5326C28.2705 58.8419 27.2496 59.1069 26.1641 59.3206C25.6069 59.4298 25.2439 59.9704 25.3535 60.5278C25.4499 61.0178 25.8801 61.3576 26.3612 61.3576C26.4271 61.3576 26.4937 61.3512 26.5609 61.3383C27.7319 61.1078 28.8384 60.8202 29.8488 60.4829C30.3874 60.3029 30.6786 59.7214 30.4987 59.1824C30.3195 58.6442 29.7371 58.3503 29.1983 58.5326Z" fill="#9237E3"/>
<path d="M13.5276 59.4686C12.4417 59.2854 11.4095 59.0518 10.4593 58.7739C9.91432 58.6156 9.34318 58.9272 9.18418 59.4726C9.02476 60.0172 9.33755 60.5883 9.8825 60.7481C10.9096 61.0478 12.0208 61.3 13.1854 61.4959C13.2433 61.5055 13.3011 61.5104 13.3577 61.5104C13.8505 61.5104 14.286 61.1554 14.3702 60.6533C14.4645 60.0936 14.0875 59.5626 13.5276 59.4686Z" fill="#9237E3"/>
<path d="M9.52525 49.3886C9.32287 48.8585 8.72799 48.5958 8.19799 48.7951C6.97549 49.2617 5.92407 49.8015 5.07258 50.3983C4.60795 50.7244 4.4951 51.3654 4.82119 51.8304C5.02122 52.1156 5.34004 52.2682 5.66377 52.2682C5.8678 52.2682 6.07346 52.208 6.25333 52.0818C6.96618 51.5822 7.86709 51.1228 8.9313 50.7164C9.46182 50.514 9.72774 49.9195 9.52525 49.3886Z" fill="#9237E3"/>
<path d="M4.63045 55.0126C4.4606 54.4712 3.88107 54.17 3.34165 54.3403C2.79987 54.5106 2.49865 55.0873 2.66891 55.6294C3.0127 56.7243 3.84004 57.7299 5.12761 58.6199C5.30595 58.7436 5.50956 58.8022 5.71113 58.8022C6.03722 58.8022 6.35819 58.6472 6.55781 58.3588C6.88062 57.8914 6.76378 57.2512 6.29628 56.9283C5.40714 56.3139 4.83119 55.6511 4.63045 55.0126Z" fill="#9237E3"/>
<path d="M21.4461 59.8916C20.7935 59.9254 20.1345 59.943 19.4856 59.943C19.0863 59.9422 18.6679 59.9366 18.2642 59.9254C17.6899 59.8699 17.2224 60.3543 17.2055 60.9213C17.1887 61.4892 17.635 61.9631 18.2023 61.98C18.6264 61.9928 19.0577 61.9976 19.4866 61.9992C20.1703 61.9992 20.8655 61.9808 21.5538 61.9446C22.1209 61.9149 22.5566 61.4314 22.5265 60.8643C22.4968 60.2972 22.0028 59.8674 21.4461 59.8916Z" fill="#9237E3"/>
<path d="M33.3456 51.2701C33.6295 50.7785 33.4608 50.1496 32.9693 49.8653C32.0652 49.344 30.9945 48.8773 29.7865 48.478C29.2476 48.2998 28.666 48.5921 28.4877 49.1311C28.3097 49.6709 28.6021 50.2516 29.1416 50.43C30.2166 50.7857 31.1585 51.1946 31.9412 51.6468C32.103 51.7399 32.2798 51.7841 32.4544 51.7841C32.8095 51.7841 33.1552 51.6002 33.3456 51.2701Z" fill="#9237E3"/>
<path d="M19.4405 0C8.72066 0 0 8.7194 0 19.4372C0 22.6164 0.854662 25.8554 2.47159 28.804C3.71169 31.0647 5.4073 32.9744 7.04756 34.821C7.69257 35.5471 8.35835 36.2977 8.97768 37.0487C11.0075 39.5138 12.7849 42.4328 14.1175 45.4898C14.3766 46.0842 14.602 46.6712 14.8108 47.2539C14.2376 47.3232 13.672 47.4015 13.1227 47.495C12.5633 47.5907 12.187 48.1224 12.2826 48.6814C12.3681 49.1827 12.8026 49.5369 13.2946 49.5369C13.3521 49.5369 13.4103 49.5321 13.4688 49.5224C14.1037 49.4139 14.7646 49.3308 15.4331 49.2582C15.6001 49.8909 15.7468 50.5169 15.8484 51.1264L15.883 51.3349C16.0059 52.0827 16.132 52.8558 16.4638 53.616C16.8204 54.4365 17.3778 55.0422 18.0758 55.3671C18.479 55.555 18.9376 55.6506 19.442 55.6514C19.9433 55.6506 20.4019 55.555 20.8043 55.3675C21.5031 55.0422 22.0606 54.4365 22.4164 53.6172C22.749 52.8558 22.875 52.0827 22.9979 51.3349L23.0325 51.1268C23.1342 50.5166 23.281 49.8899 23.4483 49.2566C23.817 49.2968 24.1864 49.3354 24.5457 49.3867C24.5948 49.3939 24.6434 49.3971 24.6916 49.3971C25.1952 49.3971 25.6353 49.0269 25.7084 48.5136C25.7883 47.9513 25.3972 47.4308 24.8349 47.3513C24.5835 47.3158 24.3242 47.2903 24.0678 47.2607C24.2773 46.6758 24.5034 46.0866 24.7634 45.4898C26.096 42.4328 27.8736 39.5138 29.9032 37.0491C30.5226 36.2977 31.1885 35.5471 31.8335 34.821C33.4736 32.9744 35.1692 31.0647 36.4094 28.804C38.0263 25.8554 38.8809 22.6164 38.8809 19.4372C38.8809 8.7194 30.1604 0 19.4405 0ZM34.607 27.8153C33.4784 29.8727 31.9322 31.6129 30.296 33.4559C29.6391 34.1957 28.9595 34.9608 28.3161 35.7419C26.1667 38.352 24.2863 41.4387 22.8791 44.6681C21.961 46.7746 21.3297 48.8341 21.0035 50.7891L20.969 51.0024C20.8622 51.6542 20.761 52.2698 20.5312 52.7968C20.4244 53.0425 20.2349 53.3646 19.936 53.5036C19.6782 53.6241 19.1987 53.6229 18.9441 53.5032C18.6461 53.3646 18.4565 53.0425 18.3489 52.7955C18.12 52.2698 18.0188 51.6542 17.912 51.0024L17.8774 50.7887C17.5513 48.8341 16.92 46.7746 16.0019 44.6681C14.5946 41.4387 12.7143 38.3519 10.5648 35.7415C9.92146 34.9608 9.24197 34.1957 8.58489 33.4559C6.94872 31.6129 5.40249 29.8727 4.27402 27.8152C2.82336 25.1691 2.05628 22.2718 2.05628 19.4372C2.05628 9.85319 9.85486 2.05625 19.4405 2.05625C29.0262 2.05625 36.8246 9.85309 36.8246 19.4372C36.8246 22.2718 36.0576 25.1691 34.607 27.8153Z" fill="#9237E3"/>
<path d="M21.9998 6.97852L22.2726 6.99253C22.9047 7.05597 23.4991 7.33571 23.9522 7.78887L24.1351 7.99167C24.5378 8.483 24.7617 9.10049 24.7626 9.7413V10.8154H29.0342C29.9364 10.8154 30.8022 11.1737 31.4403 11.8116L31.5561 11.9346C32.1212 12.5586 32.4364 13.3719 32.4364 14.2177V27.0075C32.4364 27.8533 32.1212 28.6665 31.5561 29.2906L31.4403 29.4136C30.8022 30.0515 29.9364 30.4097 29.0342 30.4097H9.84954C9.00368 30.4097 8.19046 30.0945 7.56642 29.5294L7.44343 29.4136C6.80548 28.7755 6.44727 27.9097 6.44727 27.0075V14.2177L6.45125 14.0489C6.493 13.208 6.84538 12.4098 7.44343 11.8116L7.56642 11.6958C8.19046 11.1307 9.00368 10.8154 9.84954 10.8154H14.1211V9.7413L14.1351 9.46853C14.1986 8.8364 14.4783 8.24204 14.9315 7.78887L15.1343 7.60603C15.6256 7.20331 16.2431 6.97944 16.8839 6.97852H21.9998ZM23.5455 21.4139L23.5446 21.415C23.4589 21.4431 23.369 21.4562 23.2788 21.4559L15.6049 21.4569C15.5147 21.4572 15.4248 21.4431 15.3391 21.415L15.3382 21.4139L8.13592 19.0128V27.0075C8.13592 27.462 8.3161 27.898 8.63748 28.2195C8.95897 28.5409 9.39505 28.7211 9.84954 28.7211H29.0342C29.4887 28.7211 29.9247 28.5409 30.2462 28.2195C30.5676 27.898 30.7478 27.462 30.7478 27.0075V19.0128L23.5455 21.4139ZM9.84954 12.5041C9.45183 12.5041 9.06834 12.6419 8.76344 12.8918L8.63748 13.0057C8.3161 13.3271 8.13592 13.7632 8.13592 14.2177V17.2393L8.19087 17.2512L8.19782 17.2533L15.7398 19.7683H23.1439L30.6859 17.2543L30.6928 17.2523L30.7478 17.2403V14.2177C30.7478 13.82 30.61 13.4365 30.3601 13.1316L30.2462 13.0057C29.9247 12.6843 29.4887 12.5041 29.0342 12.5041H9.84954ZM16.8839 8.66717C16.6348 8.66717 16.3945 8.75353 16.2035 8.90997L16.1245 8.9819C15.923 9.18336 15.8098 9.45635 15.8098 9.7413V10.8154H23.0739V9.7413C23.0739 9.49216 22.9876 9.25192 22.8311 9.06089L22.7592 8.9819C22.5577 8.78044 22.2848 8.66717 21.9998 8.66717H16.8839Z" fill="#9237E3" stroke="#9237E3" stroke-width="0.4"/>
<path d="M20.7209 18.0547H18.1629C17.8097 18.0547 17.5234 18.341 17.5234 18.6942V21.2521C17.5234 21.6053 17.8097 21.8916 18.1629 21.8916H20.7209C21.0741 21.8916 21.3604 21.6053 21.3604 21.2521V18.6942C21.3604 18.341 21.0741 18.0547 20.7209 18.0547Z" fill="#E9EFF2" stroke="#9237E3" stroke-width="1.25"/>
</svg>
