<svg width="62" height="62" viewBox="0 0 62 62" fill="none" xmlns="http://www.w3.org/2000/svg">
<path d="M56.7088 51.9986H56.6827C57.3446 51.1384 57.7053 50.0844 57.7092 48.9989C57.6863 47.6881 57.1494 46.4386 56.2142 45.5198C55.2791 44.6008 54.0205 44.0859 52.7095 44.0859C51.3984 44.0859 50.1398 44.6008 49.2046 45.5198C48.2695 46.4386 47.7326 47.6881 47.7096 48.9989C47.7135 50.0844 48.0743 51.1384 48.7361 51.9986H48.7101C47.9309 52.0008 47.1632 52.1858 46.4684 52.5387C45.7737 52.8915 45.1714 53.4023 44.7099 54.0301C44.2484 53.4023 43.6462 52.8915 42.9514 52.5387C42.2568 52.1858 41.4889 52.0008 40.7098 51.9986H40.6837C41.3456 51.1384 41.7063 50.0844 41.7102 48.9989C41.6872 47.6881 41.1503 46.4386 40.2153 45.5198C39.2801 44.6008 38.0215 44.0859 36.7104 44.0859C35.3993 44.0859 34.1408 44.6008 33.2056 45.5198C32.2704 46.4386 31.7336 47.6881 31.7107 48.9989C31.7146 50.0844 32.0753 51.1384 32.7371 51.9986H32.7111C31.3852 51.9994 30.1138 52.5263 29.176 53.4635C28.2382 54.4008 27.7106 55.6718 27.709 56.9976V61.9982H29.7037V56.9976C29.7049 56.2024 30.0214 55.4401 30.5836 54.8779C31.1459 54.3156 31.9082 53.9991 32.7034 53.9979H40.7037C41.4989 53.9991 42.2612 54.3156 42.8234 54.8779C43.3857 55.4401 43.7022 56.2024 43.7034 56.9976V61.9982H45.6981V56.9976C45.6993 56.2024 46.0157 55.4401 46.578 54.8779C47.1403 54.3156 47.9026 53.9991 48.6978 53.9979H56.7088C57.504 53.9991 58.2663 54.3156 58.8286 54.8779C59.3909 55.4401 59.7073 56.2024 59.7085 56.9976V61.9982H61.7032V56.9976C61.7016 55.6732 61.1751 54.4033 60.2389 53.4662C59.3027 52.5292 58.0333 52.0015 56.7088 51.9986ZM33.7084 48.9989C33.7084 48.4056 33.8843 47.8257 34.214 47.3324C34.5436 46.8391 35.012 46.4546 35.5601 46.2276C36.1084 46.0005 36.7115 45.9411 37.2934 46.0569C37.8752 46.1726 38.4097 46.4583 38.8293 46.8778C39.2488 47.2973 39.5345 47.8318 39.6502 48.4137C39.766 48.9956 39.7066 49.5987 39.4796 50.1469C39.2525 50.695 38.8679 51.1635 38.3746 51.4931C37.8814 51.8227 37.3014 51.9986 36.7081 51.9986C35.9129 51.9974 35.1506 51.681 34.5883 51.1187C34.0261 50.5564 33.7096 49.7941 33.7084 48.9989ZM49.7075 48.9989C49.7075 48.4056 49.8833 47.8257 50.213 47.3324C50.5425 46.8391 51.0111 46.4546 51.5592 46.2276C52.1073 46.0005 52.7104 45.9411 53.2923 46.0569C53.8742 46.1726 54.4087 46.4583 54.8282 46.8778C55.2478 47.2973 55.5334 47.8318 55.6492 48.4137C55.7649 48.9956 55.7056 49.5987 55.4785 50.1469C55.2515 50.695 54.867 51.1635 54.3737 51.4931C53.8804 51.8227 53.3004 51.9986 52.7072 51.9986C51.9122 51.997 51.1503 51.6804 50.5884 51.1181C50.0263 50.5559 49.7087 49.7938 49.7075 48.9989Z" fill="#9237E3"/>
<path d="M48.7084 57H46.709V62.0005H48.7084V57Z" fill="#9237E3"/>
<path d="M58.7064 57H56.707V62.0005H58.7064V57Z" fill="#9237E3"/>
<path d="M32.7063 57H30.707V62.0005H32.7063V57Z" fill="#9237E3"/>
<path d="M42.7063 57H40.707V62.0005H42.7063V57Z" fill="#9237E3"/>
<path d="M50.8017 4.03545L49.4837 6.8433L46.5561 7.28986C46.3742 7.31764 46.2035 7.395 46.0629 7.51353C45.9221 7.63195 45.8169 7.78698 45.7585 7.9614C45.7001 8.13582 45.6909 8.32299 45.7321 8.50232C45.7732 8.68153 45.8629 8.84604 45.9914 8.97765L48.1395 11.178L47.6302 14.2973C47.5998 14.4828 47.6221 14.6729 47.6948 14.8462C47.7674 15.0194 47.8874 15.1687 48.041 15.2769C48.1945 15.3852 48.3755 15.4479 48.563 15.4582C48.7506 15.4684 48.9372 15.4256 49.1016 15.3346L51.7101 13.8923L54.3185 15.3331C54.4828 15.4239 54.6696 15.4668 54.8571 15.4566C55.0447 15.4464 55.2256 15.3835 55.3791 15.2753C55.5326 15.1672 55.6526 15.0178 55.7252 14.8446C55.7979 14.6714 55.8204 14.4812 55.79 14.2958L55.2805 11.1764L57.4287 8.97612C57.5572 8.84451 57.6469 8.68001 57.688 8.50068C57.7291 8.32147 57.7199 8.1343 57.6616 7.95988C57.6033 7.78546 57.4979 7.63043 57.3573 7.512C57.2165 7.39347 57.0459 7.31612 56.8641 7.28834L53.9287 6.8433L52.6138 4.03392C52.533 3.86244 52.4052 3.71744 52.2452 3.6159C52.0852 3.51436 51.8995 3.46043 51.7101 3.46043C51.5205 3.46043 51.3349 3.51436 51.1749 3.6159C51.0149 3.71744 50.887 3.86244 50.8063 4.03392L50.8017 4.03545ZM51.707 6.81268L52.3469 8.17515C52.4166 8.32376 52.5218 8.45286 52.6532 8.55134C52.7845 8.64983 52.938 8.71454 53.1002 8.73982L54.6346 8.9746L53.493 10.1438C53.3836 10.2557 53.302 10.3918 53.2548 10.541C53.2076 10.6903 53.1962 10.8486 53.2214 11.003L53.4792 12.5819L52.1918 11.8699C52.0437 11.7879 51.8771 11.7449 51.7078 11.7449C51.5384 11.7449 51.3718 11.7879 51.2236 11.8699L49.9363 12.5819L50.1956 10.9969C50.2206 10.8425 50.209 10.6843 50.1618 10.535C50.1147 10.3858 50.0333 10.2497 49.924 10.1377L48.7778 8.97307L50.3122 8.73829C50.4744 8.71302 50.6279 8.6483 50.7592 8.54982C50.8906 8.45133 50.9958 8.32223 51.0657 8.17363L51.707 6.81268ZM57.9412 4.98828L59.5001 3.73465C59.0311 3.15288 58.499 2.62482 57.9135 2.16039L56.6692 3.72702C57.1394 4.09863 57.565 4.52167 57.9412 4.98828ZM55.1793 17.2065L56.0477 19.0079C56.7213 18.6824 57.3565 18.2825 57.9412 17.8157L56.6937 16.2537C56.2268 16.6262 55.7206 16.9461 55.1839 17.2081L55.1793 17.2065ZM51.6824 1.99468V0C50.9342 0.00174313 50.1884 0.0871563 49.4591 0.254714L49.9087 2.20342C50.4904 2.06855 51.0853 1.99849 51.6824 1.99468ZM59.5077 8.18136L61.4564 7.73175C61.2876 7.00192 61.0364 6.29356 60.7077 5.62049L58.9047 6.50121C59.1669 7.03885 59.3672 7.60461 59.5016 8.18746L59.5077 8.18136ZM59.5077 11.7733L61.4564 12.2167C61.622 11.4872 61.7054 10.7415 61.705 9.99345V9.9612L59.7104 9.99955C59.71 10.5985 59.6426 11.1956 59.5094 11.7794L59.5077 11.7733ZM41.959 12.2336C42.1271 12.9629 42.3763 13.671 42.7017 14.345L44.503 13.4734C44.2423 12.9348 44.0427 12.3686 43.9077 11.7856L41.959 12.2336ZM59.5261 16.2231C59.9931 15.6381 60.3926 15.0025 60.7169 14.3281L58.9155 13.4596C58.6552 13.9987 58.3356 14.5073 57.9627 14.9755L59.5261 16.2231ZM56.0155 0.974299C55.3402 0.650731 54.6303 0.404623 53.8997 0.240878L53.4623 2.19416C54.0452 2.32457 54.6114 2.52078 55.1501 2.77876L56.0155 0.974299ZM48.2163 2.7987L47.3417 1.00045C46.6691 1.32794 46.035 1.72929 45.4513 2.19721L46.7034 3.75774C47.1707 3.38319 47.6781 3.06158 48.2163 2.7987ZM51.7162 19.9991C52.4648 19.9992 53.2111 19.9153 53.941 19.7491L53.4961 17.7988C52.9126 17.9318 52.3161 17.9987 51.7177 17.9983V19.993L51.7162 19.9991ZM43.9031 8.2366L41.9529 7.79929C41.7906 8.52193 41.7088 9.26036 41.709 10.0011V10.0195L43.7037 10.0011C43.7046 9.40733 43.7715 8.81554 43.9031 8.2366ZM45.4375 5.02663L43.8678 3.78531C43.4056 4.37056 43.0094 5.00506 42.6863 5.67725L44.4893 6.54261C44.7497 6.00387 45.0688 5.49542 45.4406 5.02663H45.4375ZM47.3755 19.0156C48.0507 19.3404 48.7605 19.5879 49.4913 19.7537L49.9316 17.8034C49.3486 17.6716 48.7824 17.4739 48.2439 17.2142L47.3755 19.0156ZM45.4789 17.8264L46.7248 16.2629C46.2563 15.8898 45.8307 15.4658 45.4559 14.9986L43.8954 16.2491C44.364 16.8322 44.8962 17.3612 45.482 17.8264H45.4789Z" fill="#9237E3"/>
<path d="M7.69533 32.0001H9.69001V33.2874C9.58869 33.4224 9.48291 33.5529 9.38311 33.694C8.37406 35.198 7.79229 36.9479 7.69991 38.7567C7.60752 40.5656 8.008 42.3656 8.85865 43.9647C9.70929 45.5637 10.9781 46.9017 12.5298 47.836C14.0814 48.7703 15.8576 49.2657 17.6688 49.2695C18.3235 49.2694 18.9766 49.2057 19.619 49.0793C21.0367 48.8099 22.3787 48.2349 23.5516 47.3944C24.7246 46.5539 25.7004 45.468 26.4113 44.2122C27.1222 42.9564 27.551 41.5608 27.6679 40.1225C27.7848 38.6842 27.587 37.2377 27.0884 35.8836L33.3609 29.9532L34.7419 31.4063C34.8776 31.5502 35.0532 31.6507 35.2461 31.6949C35.439 31.7391 35.6408 31.7251 35.8257 31.6546C36.0107 31.5841 36.1706 31.4603 36.2852 31.299C36.3998 31.1376 36.464 30.9459 36.4696 30.7481L36.7074 22.2659C36.7111 22.1347 36.6889 22.0041 36.642 21.8815C36.5952 21.759 36.5247 21.6468 36.4345 21.5514C36.3443 21.4561 36.2362 21.3795 36.1164 21.3259C35.9965 21.2724 35.8673 21.243 35.7361 21.2394L27.2541 21.0016H27.2265C27.0307 21.0011 26.8392 21.0581 26.6757 21.1655C26.5121 21.273 26.3836 21.4261 26.3064 21.6059C26.229 21.7857 26.2062 21.9843 26.2408 22.1769C26.2753 22.3695 26.3657 22.5477 26.5007 22.6895L27.8816 24.1425L23.7051 28.092V20.6195L35.1515 14.8963C35.3668 14.7886 35.5361 14.6069 35.6283 14.3846C35.7204 14.1622 35.7293 13.914 35.6533 13.6857L34.6391 10.6829C34.5964 10.5548 34.5282 10.4366 34.4385 10.3356C34.3487 10.2346 34.2396 10.1528 34.1174 10.0953C33.9954 10.0393 33.8636 10.0081 33.7295 10.0037C33.5954 9.99918 33.4618 10.0214 33.3364 10.0691L20.7437 14.9132C21.2899 14.163 21.6165 13.2756 21.6873 12.3503C21.7582 11.4252 21.5703 10.4984 21.1448 9.67376C20.7191 8.84916 20.0726 8.15909 19.2774 7.68082C18.4823 7.20255 17.5698 6.9547 16.6418 6.96516C15.7139 6.97573 14.8073 7.24395 14.0231 7.74009C13.2389 8.23623 12.6081 8.94067 12.2013 9.77465C11.7944 10.6087 11.6275 11.5395 11.7192 12.4629C11.8109 13.3863 12.1575 14.266 12.7204 15.0037H11.694C10.3681 15.0049 9.09691 15.5322 8.15933 16.4697C7.22185 17.4073 6.69456 18.6784 6.69336 20.0043V31.0043C6.69456 31.269 6.80078 31.5225 6.9886 31.7092C7.17631 31.8959 7.43048 32.0005 7.69533 32.0001ZM24.3388 43.7243C23.1562 45.4861 21.3221 46.7061 19.2401 47.1157C17.1581 47.5253 14.9986 47.0911 13.2367 45.9085C11.4749 44.7259 10.255 42.8919 9.84537 40.8098C9.43573 38.7278 9.86999 36.5684 11.0526 34.8065C11.2449 34.5243 11.455 34.2548 11.6816 33.9993H11.694V33.9856C12.8512 32.6593 14.4165 31.7551 16.1436 31.4155C16.6576 31.314 17.1802 31.2626 17.7041 31.2621C19.5537 31.2689 21.3438 31.9161 22.7703 33.0933C24.1969 34.2706 25.1718 35.9055 25.5295 37.7202C25.7377 38.75 25.7396 39.8109 25.5353 40.8415C25.3309 41.872 24.9242 42.8519 24.3388 43.7243ZM30.016 23.4935L29.6139 23.0669L34.6774 23.2096L34.5347 28.273L34.1312 27.8465C33.9485 27.6542 33.6971 27.5421 33.4321 27.5347C33.167 27.5272 32.9097 27.6249 32.7165 27.8066L26.1862 33.9902C25.4759 32.8474 24.541 31.8608 23.4381 31.0901L29.9746 24.9097C30.1671 24.7275 30.2794 24.4763 30.2869 24.2113C30.2943 23.9464 30.1964 23.6893 30.0144 23.4965L30.016 23.4935ZM16.6975 19.6406L17.6089 22.8306L16.6975 24.1977L15.7862 22.8306L16.6975 19.6406ZM13.6947 12.0009C13.6947 11.4076 13.8707 10.8277 14.2002 10.3344C14.5299 9.8411 14.9984 9.45664 15.5465 9.22959C16.0947 9.00255 16.6978 8.94307 17.2797 9.05888C17.8616 9.17458 18.3961 9.46034 18.8156 9.87978C19.2352 10.2993 19.5208 10.8338 19.6365 11.4157C19.7523 11.9976 19.6928 12.6007 19.4658 13.1489C19.2389 13.697 18.8543 14.1655 18.361 14.4951C17.8677 14.8247 17.2878 15.0006 16.6944 15.0006C15.8992 14.9995 15.137 14.683 14.5747 14.1207C14.0124 13.5584 13.6959 12.7961 13.6947 12.0009ZM8.69425 19.9996C8.69545 19.2044 9.01183 18.4421 9.57409 17.8799C10.1365 17.3176 10.8988 17.0012 11.694 16.9999H15.3673L13.7316 22.7248C13.692 22.8643 13.6832 23.0108 13.7057 23.1541C13.7282 23.2974 13.7816 23.4341 13.862 23.5548L15.8566 26.5545C15.9482 26.6913 16.0718 26.8034 16.2169 26.8808C16.3619 26.9584 16.5238 26.9989 16.6883 26.9989C16.8528 26.9989 17.0147 26.9584 17.1597 26.8808C17.3049 26.8034 17.4285 26.6913 17.5199 26.5545L19.5147 23.5548C19.5952 23.4341 19.6486 23.2974 19.671 23.1541C19.6936 23.0108 19.6848 22.8643 19.6451 22.7248L18.0094 16.9999H20.6839C20.8066 17.0001 20.9283 16.9778 21.0429 16.934L33.0648 12.3094L33.4607 13.4939L22.2459 19.1067C22.0798 19.1898 21.9403 19.3175 21.8427 19.4755C21.7452 19.6334 21.6935 19.8155 21.6935 20.0012V29.9747L21.606 30.056C19.9931 29.369 18.2275 29.1194 16.4873 29.3322C14.7471 29.545 13.0938 30.2128 11.694 31.2682V19.9996H9.69927V29.9993H8.69425V19.9996Z" fill="#9237E3"/>
<path d="M8.98037 47.2891L0 56.2948L1.41553 57.7063L10.3959 48.7006L8.98037 47.2891Z" fill="#9237E3"/>
<path d="M5.98601 43.291L0 49.294L1.41575 50.7057L7.40175 44.7028L5.98601 43.291Z" fill="#9237E3"/>
<path d="M12.986 50.2891L7 56.292L8.41575 57.7037L14.4018 51.7008L12.986 50.2891Z" fill="#9237E3"/>
</svg>
