<svg width="23" height="23" viewBox="0 0 23 23" fill="none" xmlns="http://www.w3.org/2000/svg">
<path d="M9.80631 16.3375H4.29916C4.11305 16.3375 3.96224 16.4883 3.96224 16.6744C3.96224 16.8605 4.11305 17.0113 4.29916 17.0113H9.80631C9.99242 17.0113 10.1432 16.8605 10.1432 16.6744C10.1432 16.4883 9.99238 16.3375 9.80631 16.3375ZM9.80631 14.316H4.29916C4.11305 14.316 3.96224 14.4668 3.96224 14.6529C3.96224 14.839 4.11305 14.9898 4.29916 14.9898H9.80631C9.99242 14.9898 10.1432 14.839 10.1432 14.6529C10.1432 14.4668 9.99238 14.316 9.80631 14.316ZM18.7008 8.25154H13.1937C13.0076 8.25154 12.8568 8.40235 12.8568 8.58846C12.8568 8.77457 13.0076 8.92537 13.1937 8.92537H18.7008C18.887 8.92537 19.0378 8.77457 19.0378 8.58846C19.0378 8.40235 18.8869 8.25154 18.7008 8.25154ZM21.9893 7.56222H20.7314V6.49811C20.7314 6.13896 20.4392 5.84674 20.0801 5.84674H13.7461C12.7845 5.84674 11.9446 6.37525 11.5 7.15662C11.0554 6.3752 10.2155 5.84674 9.25391 5.84674H2.91992C2.56077 5.84674 2.26855 6.13896 2.26855 6.49811V7.56222H1.01074C0.453441 7.56222 0 8.01566 0 8.57296V20.1543C0 20.7116 0.453441 21.165 1.01074 21.165H21.9893C22.5466 21.165 23 20.7116 23 20.1543V8.57296C23 8.01566 22.5466 7.56222 21.9893 7.56222ZM1.01074 20.4912C0.824945 20.4912 0.673828 20.3401 0.673828 20.1543V8.57296C0.673828 8.38716 0.824945 8.23605 1.01074 8.23605H2.26855V18.4923C2.26855 18.8514 2.56077 19.1436 2.91992 19.1436H8.39217C9.41944 19.1436 10.3664 19.6588 10.9293 20.4912H1.01074ZM11.1631 19.6998C10.4662 18.9302 9.46499 18.4697 8.39217 18.4697H2.94238V6.52053H9.25391C10.3067 6.52053 11.1631 7.37696 11.1631 8.4297V19.6998ZM22.3262 20.1543C22.3262 20.3401 22.1751 20.4912 21.9893 20.4912H12.0707C12.6336 19.6588 13.5806 19.1436 14.6078 19.1436H20.0801C20.4392 19.1436 20.7314 18.8514 20.7314 18.4923V15.527C20.7314 15.3409 20.5806 15.1901 20.3945 15.1901C20.2084 15.1901 20.0576 15.3409 20.0576 15.527V18.4698H14.6078C13.535 18.4698 12.5338 18.9303 11.8369 19.6998V8.42975C11.8369 7.37701 12.6933 6.52057 13.7461 6.52057H20.0576V13.9548C20.0576 14.1409 20.2084 14.2917 20.3945 14.2917C20.5806 14.2917 20.7314 14.1409 20.7314 13.9548V8.23605H21.9893C22.1751 8.23605 22.3262 8.38716 22.3262 8.57296V20.1543ZM2.62047 3.73187L3.64725 4.52743C3.68526 4.54693 3.71922 4.59293 3.85353 4.598H7.60455C7.79067 4.598 7.94147 4.4472 7.94147 4.26109C7.94147 4.07498 7.79067 3.92418 7.60455 3.92418H4.4585C4.52278 3.76785 4.57291 3.58632 4.59066 3.38134C4.62021 3.04088 4.55014 2.7452 4.45261 2.50977H17.9367V3.92418H9.17682C8.99071 3.92418 8.83991 4.07498 8.83991 4.26109C8.83991 4.4472 8.99071 4.598 9.17682 4.598H19.8458C20.2793 4.598 20.6319 4.24532 20.6319 3.81187V2.62207C20.6319 2.18862 20.2793 1.83594 19.8458 1.83594H3.85362C3.81679 1.85027 3.81989 1.80454 3.64725 1.90651L2.62052 2.70208C2.4601 2.82637 2.36806 3.01401 2.36806 3.21702C2.36806 3.42002 2.4601 3.60766 2.62047 3.73187ZM18.6105 2.50977H19.8458C19.9078 2.50977 19.9581 2.56012 19.9581 2.62207V3.81187C19.9581 3.87382 19.9078 3.92418 19.8458 3.92418H18.6105V2.50977ZM3.77964 2.65639C3.86629 2.82161 3.94297 3.05085 3.91934 3.32317C3.90358 3.50488 3.84751 3.65815 3.78265 3.77993L3.05608 3.21702L3.77964 2.65639ZM9.80631 12.2945H4.29916C4.11305 12.2945 3.96224 12.4453 3.96224 12.6314C3.96224 12.8175 4.11305 12.9683 4.29916 12.9683H9.80631C9.99242 12.9683 10.1432 12.8175 10.1432 12.6314C10.1432 12.4453 9.99238 12.2945 9.80631 12.2945ZM18.7008 16.3375H13.1937C13.0076 16.3375 12.8568 16.4883 12.8568 16.6744C12.8568 16.8605 13.0076 17.0113 13.1937 17.0113H18.7008C18.887 17.0113 19.0378 16.8605 19.0378 16.6744C19.0378 16.4883 18.8869 16.3375 18.7008 16.3375ZM18.7008 14.316H13.1937C13.0076 14.316 12.8568 14.4668 12.8568 14.6529C12.8568 14.839 13.0076 14.9898 13.1937 14.9898H18.7008C18.887 14.9898 19.0378 14.839 19.0378 14.6529C19.0378 14.4668 18.8869 14.316 18.7008 14.316ZM18.7008 10.273H13.1937C13.0076 10.273 12.8568 10.4238 12.8568 10.6099C12.8568 10.7961 13.0076 10.9469 13.1937 10.9469H18.7008C18.887 10.9469 19.0378 10.7961 19.0378 10.6099C19.0378 10.4238 18.8869 10.273 18.7008 10.273ZM9.80631 10.273H4.29916C4.11305 10.273 3.96224 10.4238 3.96224 10.6099C3.96224 10.7961 4.11305 10.9469 4.29916 10.9469H9.80631C9.99242 10.9469 10.1432 10.7961 10.1432 10.6099C10.1432 10.4238 9.99238 10.273 9.80631 10.273ZM9.80631 8.25154H4.29916C4.11305 8.25154 3.96224 8.40235 3.96224 8.58846C3.96224 8.77457 4.11305 8.92537 4.29916 8.92537H9.80631C9.99242 8.92537 10.1432 8.77457 10.1432 8.58846C10.1432 8.40235 9.99238 8.25154 9.80631 8.25154ZM18.7008 12.2945H13.1937C13.0076 12.2945 12.8568 12.4453 12.8568 12.6314C12.8568 12.8175 13.0076 12.9683 13.1937 12.9683H18.7008C18.887 12.9683 19.0378 12.8175 19.0378 12.6314C19.0378 12.4453 18.8869 12.2945 18.7008 12.2945Z" fill="black"/>
</svg>
