<svg width="17" height="17" viewBox="0 0 17 17" fill="none" xmlns="http://www.w3.org/2000/svg">
<path d="M7.24814 12.076H3.17764C3.04008 12.076 2.92862 12.1874 2.92862 12.325C2.92862 12.4625 3.04008 12.574 3.17764 12.574H7.24814C7.3857 12.574 7.49717 12.4625 7.49717 12.325C7.49717 12.1874 7.38567 12.076 7.24814 12.076ZM7.24814 10.5818H3.17764C3.04008 10.5818 2.92862 10.6933 2.92862 10.8308C2.92862 10.9684 3.04008 11.0799 3.17764 11.0799H7.24814C7.3857 11.0799 7.49717 10.9684 7.49717 10.8308C7.49717 10.6933 7.38567 10.5818 7.24814 10.5818ZM13.8224 6.09939H9.75186C9.6143 6.09939 9.50283 6.21086 9.50283 6.34842C9.50283 6.48598 9.6143 6.59744 9.75186 6.59744H13.8224C13.9599 6.59744 14.0714 6.48598 14.0714 6.34842C14.0714 6.21086 13.9599 6.09939 13.8224 6.09939ZM16.2529 5.58989H15.3232V4.80338C15.3232 4.53792 15.1073 4.32193 14.8418 4.32193H10.1602C9.44944 4.32193 8.82864 4.71256 8.5 5.2901C8.17136 4.71253 7.55056 4.32193 6.83984 4.32193H2.1582C1.89274 4.32193 1.67676 4.53792 1.67676 4.80338V5.58989H0.74707C0.335152 5.58989 0 5.92504 0 6.33696V14.8971C0 15.309 0.335152 15.6441 0.74707 15.6441H16.2529C16.6648 15.6441 17 15.309 17 14.8971V6.33696C17 5.92504 16.6648 5.58989 16.2529 5.58989ZM0.74707 15.1461C0.609742 15.1461 0.498047 15.0344 0.498047 14.8971V6.33696C0.498047 6.19963 0.609742 6.08794 0.74707 6.08794H1.67676V13.6686C1.67676 13.9341 1.89274 14.1501 2.1582 14.1501H6.20291C6.9622 14.1501 7.66209 14.5309 8.07815 15.1461H0.74707ZM8.25098 14.5611C7.7359 13.9923 6.99587 13.652 6.20291 13.652H2.1748V4.81994H6.83984C7.61796 4.81994 8.25098 5.45296 8.25098 6.23108V14.5611ZM16.502 14.8971C16.502 15.0344 16.3903 15.1461 16.2529 15.1461H8.92181C9.33788 14.5309 10.0378 14.1501 10.7971 14.1501H14.8418C15.1073 14.1501 15.3232 13.9341 15.3232 13.6686V11.4769C15.3232 11.3394 15.2118 11.2279 15.0742 11.2279C14.9367 11.2279 14.8252 11.3394 14.8252 11.4769V13.652H10.7971C10.0041 13.652 9.2641 13.9924 8.74902 14.5612V6.23111C8.74902 5.45299 9.38204 4.81998 10.1602 4.81998H14.8252V10.3148C14.8252 10.4524 14.9367 10.5639 15.0742 10.5639C15.2118 10.5639 15.3232 10.4524 15.3232 10.3148V6.08794H16.2529C16.3903 6.08794 16.502 6.19963 16.502 6.33696V14.8971ZM1.93687 2.75876L2.6958 3.34679C2.72388 3.3612 2.74899 3.3952 2.84826 3.39895H5.62076C5.75832 3.39895 5.86978 3.28749 5.86978 3.14993C5.86978 3.01237 5.75832 2.9009 5.62076 2.9009H3.29541C3.34292 2.78536 3.37998 2.65118 3.39309 2.49968C3.41494 2.24803 3.36314 2.02949 3.29106 1.85547H13.2575V2.9009H6.78287C6.64531 2.9009 6.53384 3.01237 6.53384 3.14993C6.53384 3.28749 6.64531 3.39895 6.78287 3.39895H14.6686C14.989 3.39895 15.2497 3.13827 15.2497 2.81789V1.93848C15.2497 1.6181 14.989 1.35742 14.6686 1.35742H2.84833C2.8211 1.36801 2.82339 1.33421 2.6958 1.40958L1.9369 1.99761C1.81834 2.08948 1.7503 2.22817 1.7503 2.37822C1.7503 2.52826 1.81834 2.66695 1.93687 2.75876ZM13.7556 1.85547H14.6686C14.7144 1.85547 14.7517 1.89269 14.7517 1.93848V2.81789C14.7517 2.86368 14.7144 2.9009 14.6686 2.9009H13.7556V1.85547ZM2.79364 1.96384C2.85769 2.08596 2.91437 2.2554 2.89691 2.45668C2.88525 2.59098 2.84381 2.70427 2.79587 2.79429L2.25884 2.37822L2.79364 1.96384ZM7.24814 9.08767H3.17764C3.04008 9.08767 2.92862 9.19914 2.92862 9.3367C2.92862 9.47426 3.04008 9.58572 3.17764 9.58572H7.24814C7.3857 9.58572 7.49717 9.47426 7.49717 9.3367C7.49717 9.19914 7.38567 9.08767 7.24814 9.08767ZM13.8224 12.076H9.75186C9.6143 12.076 9.50283 12.1874 9.50283 12.325C9.50283 12.4625 9.6143 12.574 9.75186 12.574H13.8224C13.9599 12.574 14.0714 12.4625 14.0714 12.325C14.0714 12.1874 13.9599 12.076 13.8224 12.076ZM13.8224 10.5818H9.75186C9.6143 10.5818 9.50283 10.6933 9.50283 10.8308C9.50283 10.9684 9.6143 11.0799 9.75186 11.0799H13.8224C13.9599 11.0799 14.0714 10.9684 14.0714 10.8308C14.0714 10.6933 13.9599 10.5818 13.8224 10.5818ZM13.8224 7.59353H9.75186C9.6143 7.59353 9.50283 7.705 9.50283 7.84256C9.50283 7.98012 9.6143 8.09158 9.75186 8.09158H13.8224C13.9599 8.09158 14.0714 7.98012 14.0714 7.84256C14.0714 7.705 13.9599 7.59353 13.8224 7.59353ZM7.24814 7.59353H3.17764C3.04008 7.59353 2.92862 7.705 2.92862 7.84256C2.92862 7.98012 3.04008 8.09158 3.17764 8.09158H7.24814C7.3857 8.09158 7.49717 7.98012 7.49717 7.84256C7.49717 7.705 7.38567 7.59353 7.24814 7.59353ZM7.24814 6.09939H3.17764C3.04008 6.09939 2.92862 6.21086 2.92862 6.34842C2.92862 6.48598 3.04008 6.59744 3.17764 6.59744H7.24814C7.3857 6.59744 7.49717 6.48598 7.49717 6.34842C7.49717 6.21086 7.38567 6.09939 7.24814 6.09939ZM13.8224 9.08767H9.75186C9.6143 9.08767 9.50283 9.19914 9.50283 9.3367C9.50283 9.47426 9.6143 9.58572 9.75186 9.58572H13.8224C13.9599 9.58572 14.0714 9.47426 14.0714 9.3367C14.0714 9.19914 13.9599 9.08767 13.8224 9.08767Z" fill="white"/>
</svg>
