<svg width="16" height="17" viewBox="0 0 16 17" fill="none" xmlns="http://www.w3.org/2000/svg">
<path d="M10.2511 4.09654C10.2511 3.88821 10.324 3.71112 10.4699 3.56529C10.6157 3.41946 10.7928 3.34654 11.0011 3.34654H15.0011C15.1053 3.34654 15.2016 3.36477 15.2902 3.40123C15.3787 3.43769 15.4594 3.49237 15.5324 3.56529C15.6053 3.63821 15.66 3.71894 15.6964 3.80748C15.7329 3.89602 15.7511 3.99237 15.7511 4.09654V8.09654C15.7511 8.30487 15.6782 8.48196 15.5324 8.62779C15.3865 8.77362 15.2094 8.84654 15.0011 8.84654C14.7928 8.84654 14.6157 8.77362 14.4699 8.62779C14.324 8.48196 14.2511 8.30487 14.2511 8.09654V4.84654H11.0011C10.7928 4.84654 10.6157 4.77362 10.4699 4.62779C10.324 4.48196 10.2511 4.30487 10.2511 4.09654ZM15.5324 3.56529C15.6782 3.71112 15.7511 3.88821 15.7511 4.09654C15.7511 4.30487 15.6782 4.48196 15.5324 4.62779L9.53237 10.6278C9.38653 10.7736 9.20945 10.8465 9.00112 10.8465C8.79278 10.8465 8.6157 10.7736 8.46987 10.6278L5.28237 7.47154L1.56362 11.5965C1.41778 11.7528 1.2433 11.8361 1.04018 11.8465C0.837054 11.857 0.657366 11.7945 0.501116 11.659C0.344866 11.5132 0.261533 11.3387 0.251116 11.1356C0.240699 10.9325 0.303199 10.7528 0.438616 10.5965L4.70424 5.89341C4.76674 5.81008 4.84487 5.74758 4.93862 5.70591C5.03237 5.66425 5.13132 5.64341 5.23549 5.64341C5.33966 5.633 5.43862 5.64862 5.53237 5.69029C5.62612 5.73196 5.70945 5.78925 5.78237 5.86216L9.00112 9.03404L14.4699 3.56529C14.6157 3.41946 14.7928 3.34654 15.0011 3.34654C15.2094 3.34654 15.3865 3.41946 15.5324 3.56529Z" fill="url(#paint0_linear_145_1964)"/>
<defs>
<linearGradient id="paint0_linear_145_1964" x1="0.25" y1="7.5971" x2="15.7511" y2="7.5971" gradientUnits="userSpaceOnUse">
<stop stop-color="#9237E3"/>
<stop offset="1" stop-color="#2C1D43"/>
</linearGradient>
</defs>
</svg>
