<svg width="15" height="14" viewBox="0 0 15 14" fill="none" xmlns="http://www.w3.org/2000/svg">
<path d="M11.8457 10.9922C12.1477 10.9922 12.3926 11.237 12.3926 11.5391C12.3926 11.8411 12.1477 12.0859 11.8457 12.0859H10.6699C10.3679 12.0859 10.123 11.8411 10.123 11.5391C10.123 11.237 10.3679 10.9922 10.6699 10.9922H11.8457ZM14.9082 13.4531C14.9082 13.7552 14.6634 14 14.3613 14H1.45508C1.15304 14 0.908203 13.7552 0.908203 13.4531C0.908203 11.913 1.39883 10.4518 2.32704 9.22756C3.02043 8.31302 3.93907 7.57818 4.97444 7.09748C4.21967 6.34457 3.75195 5.30403 3.75195 4.15625C3.75195 1.86449 5.61644 0 7.9082 0C10.2 0 12.0645 1.86449 12.0645 4.15625C12.0645 5.30321 11.5974 6.34312 10.8436 7.09589C11.9068 7.58554 12.8271 8.33298 13.5359 9.28968C14.4337 10.5013 14.9082 11.941 14.9082 13.4531ZM7.9082 7.21875C9.59687 7.21875 10.9707 5.84492 10.9707 4.15625C10.9707 2.46758 9.59687 1.09375 7.9082 1.09375C6.21954 1.09375 4.8457 2.46758 4.8457 4.15625C4.8457 5.84492 6.21954 7.21875 7.9082 7.21875ZM7.45424 10.5708L7.9082 11.0325L8.36216 10.5708L7.9082 9.42791L7.45424 10.5708ZM13.7895 12.9062C13.5778 10.5898 12.0312 8.60926 9.80012 7.85638C9.43404 8.04431 9.03654 8.17928 8.61788 8.25163L9.51022 10.4983C9.59017 10.6996 9.5438 10.9291 9.3919 11.0836L8.29815 12.1959C8.19534 12.3005 8.05485 12.3594 7.9082 12.3594C7.76156 12.3594 7.62107 12.3005 7.51825 12.1959L6.4245 11.0836C6.27264 10.9291 6.22623 10.6996 6.30619 10.4983L7.19852 8.25161C6.77981 8.17925 6.38229 8.04429 6.01618 7.8563C3.81463 8.60114 2.24468 10.6066 2.02768 12.9062H13.7895Z" fill="#9237E3"/>
</svg>
