<svg width="13" height="14" viewBox="0 0 13 14" fill="none" xmlns="http://www.w3.org/2000/svg">
<path d="M11.8621 0H2.63633C1.68345 0 0.908203 0.77525 0.908203 1.72812V12.2719C0.908203 13.2248 1.68345 14 2.6363 14H11.8621C12.0886 14 12.2722 13.8164 12.2722 13.5898V10.9539V0.410156C12.2723 0.183641 12.0887 0 11.8621 0ZM1.72854 1.72812C1.72854 1.22757 2.13583 0.820312 2.63633 0.820312H11.452V10.5438H2.63633C2.3035 10.5438 1.99257 10.6386 1.72854 10.8023V1.72812ZM2.63636 13.1797C2.13577 13.1797 1.72854 12.7725 1.72854 12.2719C1.72854 11.7713 2.13577 11.3641 2.63633 11.3641H11.452V13.1797H2.63636Z" fill="#9237E3"/>
<path d="M9.22698 2.63672H3.95508C3.72859 2.63672 3.54492 2.82036 3.54492 3.04687C3.54492 3.27339 3.72859 3.45703 3.95508 3.45703H9.22698C9.45352 3.45703 9.63714 3.27339 9.63714 3.04687C9.63714 2.82036 9.4535 2.63672 9.22698 2.63672Z" fill="#9237E3"/>
</svg>
