<svg width="46" height="46" viewBox="0 0 46 46" fill="none" xmlns="http://www.w3.org/2000/svg">
<path d="M23 45.6914C35.4264 45.6914 45.5 35.6178 45.5 23.1914C45.5 10.765 35.4264 0.691406 23 0.691406C10.5736 0.691406 0.5 10.765 0.5 23.1914C0.5 35.6178 10.5736 45.6914 23 45.6914Z" fill="#007AB9"/>
<path d="M36.4444 25.0032V34.2794H31.0663V25.6248C31.0663 23.4518 30.2898 21.9678 28.3425 21.9678C26.8565 21.9678 25.9737 22.9669 25.5839 23.9343C25.4423 24.28 25.4058 24.7601 25.4058 25.245V34.279H20.0272C20.0272 34.279 20.0994 19.621 20.0272 18.1037H25.4062V20.3959C25.3954 20.414 25.3801 20.4316 25.3705 20.4488H25.4062V20.3959C26.1209 19.2961 27.3956 17.7239 30.2533 17.7239C33.7916 17.7239 36.4444 20.0357 36.4444 25.0032ZM14.4008 10.3066C12.5611 10.3066 11.3574 11.5143 11.3574 13.101C11.3574 14.654 12.5262 15.8965 14.3303 15.8965H14.3651C16.241 15.8965 17.4074 14.654 17.4074 13.101C17.3717 11.5143 16.241 10.3066 14.4008 10.3066ZM11.6771 34.2794H17.0536V18.1037H11.6771V34.2794Z" fill="#F1F2F2"/>
</svg>
