<svg width="79" height="24" viewBox="0 0 79 24" fill="none" xmlns="http://www.w3.org/2000/svg">
<g clip-path="url(#clip0_145_229)">
<path d="M0.289307 17.0251V0.559681H3.18152V17.025H0.289307V17.0251V17.0251ZM10.5854 5.08003C6.87694 5.08003 4.31079 7.93128 4.31079 11.1948C4.31079 14.837 7.10259 17.3463 10.6142 17.3463C13.9469 17.3463 16.8391 14.8834 16.8391 11.187C16.8391 8.07872 14.4425 5.08008 10.5854 5.08008V5.08003ZM10.5513 7.8703C12.492 7.8703 13.9204 9.38085 13.9204 11.2053C13.9204 13.1398 12.3454 14.5508 10.6036 14.5508C8.5455 14.5508 7.25019 12.9196 7.25019 11.2105C7.25024 9.33725 8.71265 7.87024 10.5513 7.87024V7.8703ZM24.106 5.08003C20.3976 5.08003 17.8314 7.93128 17.8314 11.1948C17.8314 14.837 20.6232 17.3463 24.1348 17.3463C27.4676 17.3463 30.3596 14.8834 30.3596 11.187C30.3596 9.01029 29.417 8.04453 29.417 8.04453L30.2187 7.76957V5.4222H26.1108C26.1108 5.4222 25.2201 5.08003 24.106 5.08003ZM24.0719 7.8703C26.0126 7.8703 27.4411 9.38085 27.4411 11.2053C27.4411 13.1398 25.8661 14.5508 24.1243 14.5508C22.0662 14.5508 20.7709 12.9196 20.7709 11.2105C20.771 9.33725 22.2334 7.87024 24.0719 7.87024V7.8703ZM27.4206 17.83C27.4206 19.7644 25.8458 21.186 24.1039 21.186C22.0457 21.186 20.7452 19.5389 20.7452 17.83H17.811C17.811 21.4722 20.6027 23.9814 24.1144 23.9814C27.4471 23.9814 30.3392 21.5262 30.3392 17.83H27.4206ZM31.5181 17.0251V5.4222H34.4105V17.0251H31.5181ZM37.219 17.0251V8.02117H35.668V5.4222H37.219V1.85917H40.1113V5.4222H41.7042V8.02117H40.1113V17.0251H37.219ZM34.8736 2.12678C34.8736 3.18454 34.016 4.04208 32.9583 4.04208C31.9004 4.04208 31.043 3.18449 31.043 2.12678C31.043 1.06896 31.9005 0.211426 32.9583 0.211426C34.0161 0.211426 34.8736 1.06896 34.8736 2.12678ZM48.2067 5.0722C44.4808 5.0722 42.0788 7.92483 42.0788 11.2996C42.0788 14.7871 44.4888 17.3542 48.267 17.3542C51.7914 17.3542 53.5251 15.1534 53.5251 15.1534L51.5916 13.2173C51.5916 13.2173 50.1317 14.7919 48.3036 14.7919C46.7797 14.7919 45.5613 13.9413 45.1362 12.3816H54.1486V11.5852C54.1487 8.40727 52.3093 5.0722 48.2067 5.0722ZM48.1151 7.61875C49.4474 7.61875 50.8101 8.33154 51.1148 10.0342H45.0576C45.2974 8.83733 46.3446 7.61875 48.1151 7.61875ZM61.3831 17.3557C57.6468 17.3557 55.1008 14.5098 55.1008 11.1545C55.1008 7.69168 57.9781 5.07004 61.3711 5.07004C64.6512 5.07004 66.3303 7.38554 66.3303 7.38554L64.3125 9.39411C64.3125 9.39411 63.1438 7.88398 61.3574 7.88398C59.3776 7.88398 58.0238 9.39855 58.0238 11.1989C58.0238 13.0997 59.4638 14.5583 61.3351 14.5583C63.1503 14.5583 64.3097 13.0506 64.3097 13.0506L66.3476 15.058C66.3476 15.058 64.6849 17.3558 61.3832 17.3558H61.3831V17.3557V17.3557ZM67.3999 17.0335V0.517827H70.2922V6.58577C70.2922 6.58577 71.3997 5.07004 73.8088 5.07004C76.8374 5.07004 78.592 7.32139 78.592 10.2009V17.0334H75.6997V10.638C75.6997 8.70352 74.4954 7.90089 73.1611 7.90089C71.6409 7.90089 70.2923 8.76604 70.2923 10.7876V17.0335H67.3999Z" fill="white" fill-opacity="0.7"/>
</g>
<defs>
<clipPath id="clip0_145_229">
<rect width="78.3028" height="23.7727" fill="white" transform="translate(0.289307 0.209473)"/>
</clipPath>
</defs>
</svg>
