<svg width="16" height="17" viewBox="0 0 16 17" fill="none" xmlns="http://www.w3.org/2000/svg">
<path d="M8 3.1582C7.4375 3.1582 6.89583 3.26237 6.375 3.4707C5.85417 3.67904 5.39583 3.98112 5 4.37695C4.60417 4.76237 4.29948 5.21029 4.08594 5.7207C3.8724 6.23112 3.76562 6.75716 3.76562 7.29883C3.76562 7.70508 3.82812 8.10091 3.95312 8.48633C4.07812 8.88216 4.24219 9.26497 4.44531 9.63477C4.64844 10.0046 4.88542 10.3613 5.15625 10.7051C5.41667 11.0384 5.69271 11.3561 5.98438 11.6582C6.26562 11.9603 6.54427 12.2285 6.82031 12.4629C7.09635 12.6973 7.33854 12.8978 7.54688 13.0645C7.64062 13.1374 7.72396 13.2025 7.79688 13.2598C7.86979 13.3171 7.9375 13.3665 8 13.4082C8.0625 13.3665 8.13021 13.3171 8.20312 13.2598C8.27604 13.2025 8.35938 13.1374 8.45312 13.0645C8.66146 12.8978 8.90365 12.6973 9.17969 12.4629C9.45573 12.2285 9.73438 11.9603 10.0156 11.6582C10.3073 11.3561 10.5833 11.0384 10.8438 10.7051C11.1146 10.3613 11.3516 10.0046 11.5547 9.63477C11.7578 9.26497 11.9219 8.88216 12.0469 8.48633C12.1719 8.10091 12.2344 7.70508 12.2344 7.29883C12.2344 6.75716 12.1276 6.23112 11.9141 5.7207C11.7005 5.21029 11.3958 4.76237 11 4.37695C10.6042 3.98112 10.1458 3.67904 9.625 3.4707C9.10417 3.26237 8.5625 3.1582 8 3.1582ZM8 13.9707C7.875 14.1686 7.79948 14.2858 7.77344 14.3223C7.7474 14.3587 7.73438 14.377 7.73438 14.377V14.3613H7.71875L7.6875 14.3301C7.66667 14.3197 7.64323 14.304 7.61719 14.2832C7.59115 14.2624 7.5625 14.2415 7.53125 14.2207C7.45833 14.179 7.375 14.1217 7.28125 14.0488C7.1875 13.9759 7.08333 13.8978 6.96875 13.8145C6.75 13.6374 6.49479 13.4212 6.20312 13.166C5.91146 12.9108 5.61458 12.627 5.3125 12.3145C5.01042 12.002 4.71354 11.6582 4.42188 11.2832C4.11979 10.9186 3.85156 10.5228 3.61719 10.0957C3.38281 9.66862 3.19271 9.2207 3.04688 8.75195C2.90104 8.2832 2.82812 7.79883 2.82812 7.29883C2.82812 6.62174 2.95833 5.97331 3.21875 5.35352C3.47917 4.73372 3.85417 4.18425 4.34375 3.70508C4.83333 3.22591 5.39323 2.85872 6.02344 2.60352C6.65365 2.34831 7.3125 2.2207 8 2.2207C8.6875 2.2207 9.34635 2.34831 9.97656 2.60352C10.6068 2.85872 11.1667 3.22591 11.6562 3.70508C12.1458 4.18425 12.5208 4.73372 12.7812 5.35352C13.0417 5.97331 13.1719 6.62174 13.1719 7.29883C13.1719 7.79883 13.099 8.2832 12.9531 8.75195C12.8073 9.2207 12.6172 9.66862 12.3828 10.0957C12.1484 10.5228 11.8802 10.9186 11.5781 11.2832C11.2865 11.6582 10.9896 12.002 10.6875 12.3145C10.3854 12.627 10.0885 12.9108 9.79688 13.166C9.50521 13.4212 9.25 13.6374 9.03125 13.8145C8.91667 13.8978 8.8125 13.9759 8.71875 14.0488C8.625 14.1217 8.54167 14.179 8.46875 14.2207C8.4375 14.2415 8.40885 14.2624 8.38281 14.2832C8.35677 14.304 8.33333 14.3197 8.3125 14.3301L8.28125 14.3613L8.26562 14.377C8.26562 14.377 8.2526 14.3587 8.22656 14.3223C8.20052 14.2858 8.125 14.1686 8 13.9707ZM8 13.9707L8.26562 14.377C8.18229 14.429 8.09375 14.4551 8 14.4551C7.90625 14.4551 7.81771 14.429 7.73438 14.377L8 13.9707ZM8 5.9707C7.61458 5.9707 7.28385 6.10872 7.00781 6.38477C6.73177 6.66081 6.59375 6.99674 6.59375 7.39258C6.59375 7.77799 6.73177 8.10872 7.00781 8.38477C7.28385 8.66081 7.61458 8.79883 8 8.79883C8.38542 8.79883 8.71615 8.66081 8.99219 8.38477C9.26823 8.10872 9.40625 7.77799 9.40625 7.39258C9.40625 6.99674 9.26823 6.66081 8.99219 6.38477C8.71615 6.10872 8.38542 5.9707 8 5.9707ZM5.64062 7.39258C5.64062 6.73633 5.8724 6.17904 6.33594 5.7207C6.79948 5.26237 7.35417 5.0332 8 5.0332C8.64583 5.0332 9.20052 5.26237 9.66406 5.7207C10.1276 6.17904 10.3594 6.73633 10.3594 7.39258C10.3594 8.03841 10.1276 8.59049 9.66406 9.04883C9.20052 9.50716 8.64583 9.73633 8 9.73633C7.35417 9.73633 6.79948 9.50716 6.33594 9.04883C5.8724 8.59049 5.64062 8.03841 5.64062 7.39258Z" fill="#9237E3"/>
</svg>
