<svg width="12" height="17" viewBox="0 0 12 17" fill="none" xmlns="http://www.w3.org/2000/svg">
<path d="M5.25 16.0801C4.6875 15.3926 3.98958 14.4655 3.15625 13.2988C2.34375 12.153 1.625 10.9655 1 9.73633C0.375 8.50716 0.0416667 7.42383 0 6.48633C0.0416667 4.778 0.625 3.36133 1.75 2.23633C2.875 1.11133 4.29167 0.527995 6 0.486328C7.70833 0.527995 9.125 1.11133 10.25 2.23633C11.375 3.36133 11.9583 4.778 12 6.48633C11.9583 7.42383 11.625 8.50716 11 9.73633C10.3542 10.9655 9.625 12.153 8.8125 13.2988C8 14.4655 7.3125 15.3926 6.75 16.0801C6.54167 16.3301 6.29167 16.4551 6 16.4551C5.70833 16.4551 5.45833 16.3301 5.25 16.0801ZM6 8.48633C6.5625 8.46549 7.03125 8.26758 7.40625 7.89258C7.78125 7.51758 7.97917 7.04883 8 6.48633C7.97917 5.92383 7.78125 5.45508 7.40625 5.08008C7.03125 4.70508 6.5625 4.50716 6 4.48633C5.4375 4.50716 4.96875 4.70508 4.59375 5.08008C4.21875 5.45508 4.02083 5.92383 4 6.48633C4.02083 7.04883 4.21875 7.51758 4.59375 7.89258C4.96875 8.26758 5.4375 8.46549 6 8.48633Z" fill="white" fill-opacity="0.8"/>
</svg>
