<svg width="22" height="23" viewBox="0 0 22 23" fill="none" xmlns="http://www.w3.org/2000/svg">
<path d="M0.164062 3.56129C0.164062 1.63031 1.74334 0.0681841 3.68071 0.0960708C5.55737 0.123055 7.08332 1.66211 7.09518 3.5389C7.10184 4.58996 6.64044 5.53325 5.90731 6.1731C5.82992 6.2406 5.84109 6.36384 5.92948 6.41613L6.58248 6.8025C6.68805 6.86498 6.64375 7.0268 6.52107 7.0268L3.56405 7.02607C1.68034 6.99105 0.164062 5.45333 0.164062 3.56129Z" fill="#7ACAA6"/>
<path d="M6.582 6.80252L5.92897 6.41615C5.84105 6.36416 5.82885 6.24109 5.90581 6.17398C6.64732 5.52734 7.11112 4.5703 7.09432 3.50527C7.06523 1.66308 5.57422 0.150876 3.73253 0.0972082C3.47137 0.0896027 3.21648 0.110958 2.97083 0.158181C4.56269 0.463345 5.77587 1.86649 5.78644 3.53888C5.79155 4.34879 5.51874 5.09473 5.05786 5.68714C4.77955 6.04486 4.87 6.56358 5.26007 6.7944L5.27374 6.80248C5.37815 6.86427 5.33578 7.023 5.2162 7.02643L6.52056 7.02674C6.64323 7.02682 6.68758 6.86496 6.582 6.80252Z" fill="#57BE92"/>
<path d="M17.05 12.675H9.18817C7.22458 12.675 6.15002 10.3867 7.40415 8.87572L7.47388 8.79168C8.02638 8.12605 8.32879 7.2882 8.32879 6.42315V4.90709C8.32883 2.24981 10.4829 0.0957031 13.1402 0.0957031C15.7975 0.0957031 17.9516 2.24981 17.9516 4.90709V6.47433C17.9516 7.34844 18.2604 8.19445 18.8234 8.86309C20.0932 10.3709 19.0213 12.675 17.05 12.675Z" fill="#C59191"/>
<path d="M21.1817 16.5717V21.7692H5.05469V16.6108C5.05469 15.4429 5.75465 14.3889 6.83059 13.936L9.43406 12.8042L10.3106 12.4231C10.9758 12.1339 11.4059 11.4778 11.4059 10.7525V10.416H14.8301V10.7353C14.8301 11.4636 15.2645 12.1223 15.9344 12.4093L19.4557 13.9188C20.505 14.3838 21.1817 15.4236 21.1817 16.5717Z" fill="white"/>
<path d="M9.43382 14.0434C10.3224 14.3089 11.6302 14.592 13.2244 14.5641C14.7202 14.538 15.9481 14.2472 16.8024 13.9743L17.227 12.9633L15.9342 12.4093C15.2645 12.1222 14.8303 11.4637 14.8303 10.735V10.416H11.4061V10.7524C11.4061 11.4776 10.9759 12.1337 10.3109 12.4229L9.26379 12.8781L9.43382 14.0434Z" fill="#FFCEBF"/>
<path d="M19.4558 13.9182L16.8032 12.7812L16.8027 12.7813V21.7687H21.182V16.5713C21.182 15.4233 20.5053 14.3833 19.4558 13.9182Z" fill="#8795DE"/>
<path d="M9.43406 12.8047V21.7697H5.05469V16.6113C5.05469 15.4434 5.75465 14.3894 6.83059 13.9365L9.43406 12.8047Z" fill="#8795DE"/>
<path d="M14.3045 12.2954C14.6985 12.2954 15.0738 12.2163 15.416 12.0736C15.049 11.7348 14.8297 11.2527 14.8297 10.735V10.416H11.4055V10.7523C11.4055 11.0143 11.3491 11.2672 11.246 11.4971C11.7645 11.9913 12.4659 12.2954 13.2388 12.2954L14.3045 12.2954Z" fill="#FFB09E"/>
<path d="M16.5399 5.26456V8.09728C16.5399 9.69314 15.2462 10.9868 13.6504 10.9868H12.5847C10.9889 10.9868 9.69519 9.69309 9.69519 8.09728V5.26456C9.69519 4.22639 10.5368 3.38477 11.575 3.38477H14.6601C15.6983 3.38481 16.5399 4.22639 16.5399 5.26456Z" fill="#FFCEBF"/>
<path d="M16.542 6.73828C16.5407 6.74219 16.5391 6.74597 16.5379 6.74997C16.4335 7.11069 16.1593 7.79209 15.4968 8.30295C15.1884 8.54086 14.8365 8.71274 14.4511 8.81389C14.2764 8.85973 14.1719 9.03853 14.2177 9.21324C14.2563 9.36015 14.3888 9.45739 14.5339 9.45739C14.5613 9.45739 14.5892 9.45391 14.6171 9.4466C15.0877 9.32311 15.5181 9.11261 15.8963 8.82098C16.1575 8.61954 16.3689 8.39705 16.5401 8.17335C16.5407 8.148 16.542 8.12278 16.542 8.09725V6.73828H16.542Z" fill="#7A6D79"/>
<path d="M14.0914 9.71844H13.3249C12.9761 9.71844 12.6932 9.43563 12.6932 9.08676C12.6932 8.7379 12.9761 8.45508 13.3249 8.45508H14.0914C14.4402 8.45508 14.723 8.7379 14.723 9.08676C14.723 9.43567 14.4402 9.71844 14.0914 9.71844Z" fill="#685E68"/>
<path d="M13.8017 2.63527C13.8751 1.70972 14.7612 1.09548 15.6092 0.777344C17.0121 1.61794 17.9513 3.15283 17.9513 4.90729V5.23806C17.8738 5.25434 17.7966 5.26861 17.7203 5.28C17.2531 5.34978 16.8552 5.31957 16.5834 5.28C14.8319 5.04668 13.713 3.7531 13.8017 2.63527Z" fill="#B98080"/>
<path d="M13.1393 0.0957031C14.2259 0.0957031 15.2283 0.456039 16.0338 1.06357C15.632 1.76272 14.7093 3.14502 12.9793 4.16837C11.6949 4.9281 10.4839 5.18338 9.73815 5.27975H8.328V4.90704C8.32796 2.24981 10.4821 0.0957031 13.1393 0.0957031Z" fill="#C59191"/>
<path d="M18.5175 21.7701H8.04797L7.47051 16.3227C7.42956 15.9363 7.73245 15.5996 8.12097 15.5996H18.4445C18.833 15.5996 19.1359 15.9363 19.095 16.3227L18.5175 21.7701Z" fill="#EFEDEF"/>
<path d="M18.4449 15.5996H17.1367C17.5252 15.5996 17.8281 15.9363 17.7872 16.3227L17.2097 21.7701H18.518L19.0954 16.3227C19.1364 15.9363 18.8335 15.5996 18.4449 15.5996Z" fill="#E5E1E5"/>
<path d="M21.6777 22.0957H0.322266C0.144246 22.0957 0 21.9514 0 21.7734C0 21.5955 0.144246 21.4512 0.322266 21.4512H21.6777C21.8558 21.4512 22 21.5955 22 21.7734C22 21.9514 21.8558 22.0957 21.6777 22.0957Z" fill="#C9BFC8"/>
<path d="M13.2829 19.5991C13.7887 19.5991 14.1987 19.1891 14.1987 18.6833C14.1987 18.1776 13.7887 17.7676 13.2829 17.7676C12.7772 17.7676 12.3672 18.1776 12.3672 18.6833C12.3672 19.1891 12.7772 19.5991 13.2829 19.5991Z" fill="#C9BFC8"/>
<path d="M2.32118 3.88845C2.50179 3.88845 2.64821 3.74203 2.64821 3.56141C2.64821 3.38079 2.50179 3.23438 2.32118 3.23438C2.14056 3.23438 1.99414 3.38079 1.99414 3.56141C1.99414 3.74203 2.14056 3.88845 2.32118 3.88845Z" fill="white"/>
<path d="M3.62977 3.88845C3.81039 3.88845 3.9568 3.74203 3.9568 3.56141C3.9568 3.38079 3.81039 3.23438 3.62977 3.23438C3.44915 3.23438 3.30273 3.38079 3.30273 3.56141C3.30273 3.74203 3.44915 3.88845 3.62977 3.88845Z" fill="white"/>
<path d="M4.93836 3.88845C5.11898 3.88845 5.2654 3.74203 5.2654 3.56141C5.2654 3.38079 5.11898 3.23438 4.93836 3.23438C4.75775 3.23438 4.61133 3.38079 4.61133 3.56141C4.61133 3.74203 4.75775 3.88845 4.93836 3.88845Z" fill="white"/>
</svg>
