<svg width="16" height="17" viewBox="0 0 16 17" fill="none" xmlns="http://www.w3.org/2000/svg">
<path d="M15.9688 12.5801L15.25 15.7363C15.1042 16.2155 14.7812 16.4655 14.2812 16.4863C11.6354 16.4655 9.23958 15.8092 7.09375 14.5176C4.94792 13.2467 3.23958 11.5384 1.96875 9.39258C0.677083 7.24675 0.0208333 4.85091 0 2.20508C0.0208333 1.70508 0.270833 1.38216 0.75 1.23633L3.90625 0.517578C4.40625 0.434244 4.78125 0.621745 5.03125 1.08008L6.46875 4.45508C6.63542 4.91341 6.54167 5.29883 6.1875 5.61133L4.53125 6.95508C5.05208 8.03841 5.73958 9.00716 6.59375 9.86133C7.44792 10.7155 8.41667 11.4134 9.5 11.9551L10.875 10.2676C11.1875 9.91341 11.5729 9.81966 12.0312 9.98633L15.4062 11.4238C15.8438 11.6947 16.0312 12.0801 15.9688 12.5801Z" fill="white" fill-opacity="0.8"/>
</svg>
