<svg width="16" height="17" viewBox="0 0 16 17" fill="none" xmlns="http://www.w3.org/2000/svg">
<path d="M2.5 4.0957C2.36458 4.0957 2.2474 4.14518 2.14844 4.24414C2.04948 4.3431 2 4.46029 2 4.5957V11.5957C2 11.7311 2.04948 11.8483 2.14844 11.9473C2.2474 12.0462 2.36458 12.0957 2.5 12.0957H13.5C13.6354 12.0957 13.7526 12.0462 13.8516 11.9473C13.9505 11.8483 14 11.7311 14 11.5957V4.5957C14 4.46029 13.9505 4.3431 13.8516 4.24414C13.7526 4.14518 13.6354 4.0957 13.5 4.0957H2.5ZM1 4.5957C1 4.17904 1.14583 3.82487 1.4375 3.5332C1.72917 3.24154 2.08333 3.0957 2.5 3.0957H13.5C13.9167 3.0957 14.2708 3.24154 14.5625 3.5332C14.8542 3.82487 15 4.17904 15 4.5957V11.5957C15 12.0124 14.8542 12.3665 14.5625 12.6582C14.2708 12.9499 13.9167 13.0957 13.5 13.0957H2.5C2.08333 13.0957 1.72917 12.9499 1.4375 12.6582C1.14583 12.3665 1 12.0124 1 11.5957V4.5957ZM6 8.0957C6 7.54362 6.19531 7.07227 6.58594 6.68164C6.97656 6.29102 7.44792 6.0957 8 6.0957C8.55208 6.0957 9.02344 6.29102 9.41406 6.68164C9.80469 7.07227 10 7.54362 10 8.0957C10 8.64779 9.80469 9.11914 9.41406 9.50977C9.02344 9.90039 8.55208 10.0957 8 10.0957C7.44792 10.0957 6.97656 9.90039 6.58594 9.50977C6.19531 9.11914 6 8.64779 6 8.0957ZM8 7.0957C7.71875 7.0957 7.48177 7.19206 7.28906 7.38477C7.09635 7.57747 7 7.81445 7 8.0957C7 8.37695 7.09635 8.61393 7.28906 8.80664C7.48177 8.99935 7.71875 9.0957 8 9.0957C8.28125 9.0957 8.51823 8.99935 8.71094 8.80664C8.90365 8.61393 9 8.37695 9 8.0957C9 7.81445 8.90365 7.57747 8.71094 7.38477C8.51823 7.19206 8.28125 7.0957 8 7.0957ZM5 8.0957C5 8.30404 4.92708 8.48112 4.78125 8.62695C4.63542 8.77279 4.45833 8.8457 4.25 8.8457C4.04167 8.8457 3.86458 8.77279 3.71875 8.62695C3.57292 8.48112 3.5 8.30404 3.5 8.0957C3.5 7.88737 3.57292 7.71029 3.71875 7.56445C3.86458 7.41862 4.04167 7.3457 4.25 7.3457C4.45833 7.3457 4.63542 7.41862 4.78125 7.56445C4.92708 7.71029 5 7.88737 5 8.0957ZM12.5 8.0957C12.5 8.30404 12.4271 8.48112 12.2812 8.62695C12.1354 8.77279 11.9583 8.8457 11.75 8.8457C11.5417 8.8457 11.3646 8.77279 11.2188 8.62695C11.0729 8.48112 11 8.30404 11 8.0957C11 7.88737 11.0729 7.71029 11.2188 7.56445C11.3646 7.41862 11.5417 7.3457 11.75 7.3457C11.9583 7.3457 12.1354 7.41862 12.2812 7.56445C12.4271 7.71029 12.5 7.88737 12.5 8.0957Z" fill="#9237E3"/>
</svg>
