<svg width="202" height="55" viewBox="0 0 202 55" fill="none" xmlns="http://www.w3.org/2000/svg">
<mask id="mask0_145_59" style="mask-type:luminance" maskUnits="userSpaceOnUse" x="0" y="0" width="202" height="55">
<path d="M201.682 0.734375H0.681641V54.2671H201.682V0.734375Z" fill="white"/>
</mask>
<g mask="url(#mask0_145_59)">
<path fill-rule="evenodd" clip-rule="evenodd" d="M63.895 24.1092L66.3899 20.581C67.2594 21.4998 68.3072 22.2317 69.4697 22.7322C70.632 23.2327 71.8844 23.491 73.1502 23.4917C75.667 23.4917 76.8506 22.3715 76.8506 21.1368C76.8506 17.419 64.6015 20.0209 64.6015 11.9901C64.6015 8.46207 67.6659 5.51172 72.6776 5.51172C76.0513 5.51172 78.8596 6.52163 80.9615 8.47089L78.4313 11.8446C76.7317 10.3292 74.5277 9.50062 72.2494 9.52049C70.3286 9.52049 69.2643 10.3363 69.2643 11.6373C69.2643 14.9758 81.4605 12.7178 81.4605 20.656C81.4605 24.5722 78.6566 27.4916 72.9515 27.4916C68.8406 27.4916 65.913 26.1069 63.8906 24.1092" fill="#1E2654"/>
<path fill-rule="evenodd" clip-rule="evenodd" d="M94.3902 27.1074L90.3101 21.1801L88.4598 23.1515V27.1074H84.4062V5.82422H88.4598V18.5473L94.293 11.7029H99.2606L93.1715 18.6842L99.4504 27.1074H94.3902Z" fill="#1E2654"/>
<path d="M138.53 5.82422H134.004V27.1074H138.53V5.82422Z" fill="#1E2654"/>
<path fill-rule="evenodd" clip-rule="evenodd" d="M153.056 27.109V17.8037C153.056 15.6735 151.943 14.9018 150.234 14.9018C149.548 14.9195 148.874 15.0908 148.263 15.403C147.651 15.7151 147.118 16.1602 146.701 16.7055V27.109H142.652V11.7044H146.701V13.6758C147.381 12.9234 148.214 12.3242 149.143 11.9181C150.073 11.5121 151.078 11.3084 152.093 11.3208C155.489 11.3208 157.127 13.2303 157.127 16.2292V27.109H153.056Z" fill="#1E2654"/>
<path fill-rule="evenodd" clip-rule="evenodd" d="M171.694 22.1376V16.6779C171.289 16.139 170.766 15.6998 170.165 15.3941C169.564 15.0883 168.902 14.924 168.227 14.9139C165.896 14.9139 164.306 16.7705 164.306 19.4034C164.306 22.0362 165.896 23.9192 168.227 23.9192C168.902 23.9092 169.564 23.7449 170.165 23.4391C170.766 23.1333 171.289 22.6942 171.694 22.1553M171.694 27.121V25.1364C171.145 25.8775 170.428 26.4784 169.602 26.8899C168.777 27.3015 167.865 27.5121 166.942 27.5047C163.096 27.5047 160.111 24.5852 160.111 19.4034C160.111 14.3846 163.021 11.324 166.942 11.324C167.866 11.3107 168.778 11.5183 169.606 11.9295C170.431 12.3407 171.148 12.9437 171.694 13.6878V5.83789H175.76V27.1034L171.694 27.121Z" fill="#1E2654"/>
<path fill-rule="evenodd" clip-rule="evenodd" d="M179.803 11.7011H183.86V27.1057H179.803V11.7011ZM179.414 7.60414C179.416 7.12705 179.56 6.66143 179.828 6.26619C180.096 5.87095 180.474 5.56383 180.917 5.38367C181.359 5.20352 181.845 5.1584 182.314 5.25406C182.781 5.34969 183.21 5.58179 183.546 5.92101C183.881 6.26022 184.109 6.69131 184.201 7.15975C184.292 7.62821 184.24 8.11297 184.056 8.55275C183.87 8.99254 183.558 9.36759 183.159 9.63049C182.761 9.89338 182.294 10.0323 181.816 10.0297C181.498 10.0285 181.185 9.96483 180.892 9.84219C180.598 9.71957 180.334 9.54043 180.111 9.31509C179.887 9.08974 179.711 8.82259 179.592 8.529C179.471 8.23539 179.411 7.92109 179.414 7.60414Z" fill="#1E2654"/>
<path fill-rule="evenodd" clip-rule="evenodd" d="M197.112 23.4036V21.4632C196.454 20.5813 195.169 20.1182 193.871 20.1182C192.268 20.1182 190.96 20.9649 190.96 22.4422C190.96 23.9197 192.285 24.731 193.871 24.731C195.169 24.731 196.454 24.2901 197.112 23.4081M197.112 27.1126V25.4897C196.057 26.7862 194.233 27.4962 192.255 27.4962C189.807 27.4962 186.93 25.838 186.93 22.3982C186.93 18.7422 189.807 17.4148 192.255 17.4148C194.33 17.4148 196.127 18.0895 197.112 19.3155V17.3618C197.112 15.7962 195.76 14.7555 193.742 14.7555C192.094 14.7723 190.513 15.4193 189.327 16.5636L187.732 13.7367C189.591 12.12 191.988 11.255 194.454 11.3112C197.986 11.3112 201.209 12.718 201.209 17.1634V27.1082L197.112 27.1126Z" fill="#1E2654"/>
<path fill-rule="evenodd" clip-rule="evenodd" d="M103.521 8.00781L100.527 12.0607H101.49V27.1124H105.539V12.0607H106.519L103.521 8.00781Z" fill="#EF7E22"/>
<path fill-rule="evenodd" clip-rule="evenodd" d="M111.594 2.38086L108.604 6.47784H109.567V27.1083H113.625V6.47784H114.592L111.594 2.38086Z" fill="#009C4D"/>
<path fill-rule="evenodd" clip-rule="evenodd" d="M119.656 2.3811L116.676 6.47808H117.643V27.1085H121.688V6.47808H122.663L119.656 2.3811Z" fill="#1E2654"/>
<path fill-rule="evenodd" clip-rule="evenodd" d="M72.1899 42.4443C72.0276 42.443 71.8668 42.4748 71.7172 42.5375C71.5676 42.6004 71.4324 42.6931 71.32 42.81C71.2076 42.9268 71.1202 43.0653 71.0633 43.217C71.0063 43.3688 70.981 43.5305 70.9887 43.6925V47.6218H69.0502V45.7167H68.993C68.5605 46.0606 68.0223 46.2445 67.4695 46.2371C67.1171 46.2441 66.767 46.1787 66.4411 46.0447C66.1151 45.9107 65.8203 45.7111 65.5749 45.4582C65.3297 45.2054 65.1393 44.9048 65.0155 44.5752C64.8915 44.2457 64.8371 43.894 64.8554 43.5426C64.8554 41.5977 66.4274 40.6538 68.0568 40.8214L68.3836 42.5106C67.465 42.2944 66.7763 42.7443 66.7763 43.5777C66.7759 43.7209 66.8051 43.8628 66.8617 43.9943C66.9183 44.1257 67.0014 44.2443 67.1056 44.3427C67.2097 44.4409 67.333 44.517 67.4679 44.5659C67.6025 44.6149 67.7459 44.6358 67.889 44.6274C68.0516 44.6256 68.2122 44.5901 68.3605 44.5234C68.5089 44.4566 68.6417 44.3599 68.7507 44.2395C68.8598 44.1189 68.9429 43.9772 68.9943 43.8231C69.0459 43.6689 69.065 43.5058 69.0502 43.344V39.816H64.043V38.3164H75.9651V39.816H70.9887V41.4257H71.0418C71.4624 41.0546 72.0086 40.8576 72.5696 40.8743C72.9171 40.8668 73.2625 40.9305 73.5845 41.0615C73.9064 41.1925 74.198 41.388 74.4414 41.636C74.6846 41.8841 74.8745 42.1792 74.9992 42.5032C75.1238 42.8274 75.1806 43.1735 75.166 43.5205C75.166 45.4609 73.6029 46.4046 71.9691 46.2767L71.6512 44.5921C72.5872 44.7949 73.2364 44.3054 73.2364 43.472C73.2429 43.334 73.2201 43.1961 73.1696 43.0675C73.119 42.939 73.0418 42.8226 72.9429 42.7259C72.8441 42.6292 72.7259 42.5546 72.596 42.5069C72.4662 42.459 72.3279 42.4393 72.1899 42.4488" fill="#434444"/>
<path fill-rule="evenodd" clip-rule="evenodd" d="M78.4327 39.8001V47.628H76.4456V39.8001H74.9972V38.3006H75.6552V38.2257C74.1143 37.5236 72.708 36.558 71.5 35.3722L73.178 34.3227L76.9975 38.2918H77.1079L74.7455 34.6402L76.8561 34.1992L78.3973 38.3095H79.903V39.8089L78.4327 39.8001Z" fill="#434444"/>
<path fill-rule="evenodd" clip-rule="evenodd" d="M87.0859 38.2921H90.5213V39.7915H89.0597V47.6195H87.0859V38.2921ZM81.7872 42.3273C81.3601 42.2294 80.9812 41.9841 80.7172 41.635C80.4531 41.2857 80.3207 40.8548 80.3432 40.4176C80.3432 39.2004 81.4383 38.1465 82.9485 38.1465C85.0238 38.1465 85.9643 39.5313 85.9643 40.9734C85.9643 43.2269 84.1716 44.2854 82.5466 44.3428V44.3913C83.2041 44.7511 83.8113 45.1959 84.3526 45.7142L85.6508 46.874L84.0302 48.0031L80.639 44.8322L79.4512 43.9501L80.5596 42.4949C81.0006 42.715 81.4884 42.8254 81.9813 42.8167C83.1914 42.8167 83.995 42.1288 83.995 40.969C83.995 40.1179 83.5533 39.6901 83.0543 39.6901C82.9617 39.6802 82.8681 39.6898 82.7793 39.7179C82.6905 39.746 82.6085 39.7921 82.5384 39.8534C82.4683 39.9148 82.4116 39.9899 82.3721 40.074C82.3324 40.1582 82.3106 40.2497 82.3081 40.3427C82.3118 40.5331 82.377 40.7169 82.4941 40.8671C82.611 41.0174 82.7734 41.1258 82.9574 41.1763L81.7872 42.3273Z" fill="#434444"/>
<path fill-rule="evenodd" clip-rule="evenodd" d="M97.203 41.2517V39.7963H89.5508V38.2969H100.634V39.7963H99.1857V47.6243H97.203V42.8218C97.0017 42.6896 96.7682 42.615 96.5275 42.6056C95.9711 42.6056 95.7282 42.9937 95.7282 43.7301V45.0268H93.9621V43.6199C93.9621 42.9937 93.6574 42.6321 93.1805 42.6321C92.8138 42.6321 92.3504 42.879 92.3504 43.8536C92.3504 44.7093 92.8138 45.7985 94.3461 46.6144L93.1098 47.8933C92.3155 47.5263 91.6405 46.9439 91.1611 46.2127C90.6819 45.4813 90.4176 44.6305 90.3985 43.7566C90.3985 41.8558 91.7233 40.996 92.9685 40.996C93.3338 40.9635 93.6999 41.0455 94.0165 41.2305C94.3329 41.4154 94.584 41.6941 94.7347 42.028H94.7701C94.8344 41.716 95.0053 41.4359 95.2533 41.2357C95.5012 41.0354 95.8111 40.9274 96.13 40.9297C96.4985 40.905 96.8628 41.0199 97.1501 41.2517H97.203Z" fill="#434444"/>
<path fill-rule="evenodd" clip-rule="evenodd" d="M108.484 38.301H113.019V39.8004H111.549V47.6282H109.619V43.8091H107.279V45.2821H105.482C105.132 44.9922 104.85 44.629 104.657 44.2182C104.464 43.8073 104.364 43.359 104.364 42.9051L105.433 42.1068V40.5236C105.433 39.9812 105.177 39.7826 104.7 39.7826H103.746V38.2832H105.071C106.016 38.2832 107.345 38.6449 107.345 40.409V42.0715H109.619V39.7826H108.48L108.484 38.301Z" fill="#434444"/>
<path fill-rule="evenodd" clip-rule="evenodd" d="M115.484 39.7963V47.6243H113.515V39.7963H112.031V38.2969H116.928V39.7963H115.484Z" fill="#434444"/>
<path fill-rule="evenodd" clip-rule="evenodd" d="M119.634 44.083C120.044 44.4655 120.426 44.8767 120.778 45.3134L122.05 46.8394L120.447 47.8448L116.433 42.879L117.912 41.7456C118.323 42.3542 118.632 42.5835 119.038 42.5835C119.343 42.5835 119.603 42.4159 119.603 41.9V39.7963H115.965V38.2969H122.946V39.7963H121.56V41.9442C121.584 42.1953 121.558 42.4489 121.481 42.6894C121.405 42.9302 121.28 43.1527 121.115 43.3437C120.95 43.5347 120.747 43.6902 120.52 43.8006C120.293 43.911 120.046 43.974 119.793 43.9859L119.656 44.008L119.634 44.083Z" fill="#434444"/>
<path fill-rule="evenodd" clip-rule="evenodd" d="M125.171 47.8135C124.51 47.3776 123.965 46.7892 123.581 46.0983C123.197 45.4076 122.985 44.6344 122.963 43.8444C122.963 41.8068 124.495 41.0529 125.846 41.0529H127.586V39.7826H121.947V38.2832H131.008V39.7826H129.529V47.6106H127.573V42.7243H126.186C126.025 42.709 125.862 42.7291 125.709 42.7833C125.557 42.8374 125.418 42.9242 125.302 43.0376C125.186 43.151 125.097 43.2884 125.04 43.4398C124.983 43.5913 124.96 43.7536 124.972 43.915C124.999 44.4535 125.159 44.977 125.438 45.4387C125.717 45.9003 126.106 46.2859 126.57 46.5611L125.171 47.8135Z" fill="#434444"/>
<path fill-rule="evenodd" clip-rule="evenodd" d="M146.769 42.4443C146.607 42.4423 146.446 42.4736 146.296 42.5363C146.147 42.5989 146.012 42.6917 145.899 42.8087C145.787 42.9258 145.7 43.0646 145.644 43.2167C145.588 43.3688 145.563 43.5307 145.572 43.6925V47.6218H143.621V45.7167H143.568C143.137 46.0606 142.6 46.2446 142.049 46.2371C141.696 46.2448 141.345 46.1797 141.018 46.0461C140.692 45.9124 140.396 45.713 140.15 45.4602C139.904 45.2073 139.712 44.9065 139.588 44.5766C139.463 44.2467 139.408 43.8947 139.426 43.5426C139.426 41.5977 140.993 40.6538 142.654 40.8214L142.954 42.5106C142.049 42.2944 141.355 42.7443 141.355 43.5777C141.353 43.7199 141.381 43.8611 141.436 43.9922C141.491 44.1234 141.572 44.2418 141.675 44.3404C141.777 44.4387 141.899 44.515 142.033 44.5644C142.166 44.6139 142.309 44.6353 142.451 44.6274C142.614 44.6274 142.776 44.5935 142.926 44.5274C143.075 44.4615 143.21 44.365 143.32 44.2442C143.43 44.1232 143.514 43.9809 143.565 43.8258C143.617 43.6709 143.636 43.5068 143.621 43.344V39.816H139.205V38.3164H150.558V39.816H145.572V41.4257H145.621C146.043 41.0602 146.586 40.8638 147.144 40.8743C147.492 40.8674 147.837 40.9317 148.159 41.0628C148.48 41.194 148.772 41.3896 149.015 41.6375C149.258 41.8852 149.448 42.1802 149.573 42.504C149.698 42.8277 149.755 43.1737 149.741 43.5205C149.741 45.4609 148.182 46.4046 146.531 46.2767L146.248 44.5921C147.158 44.7949 147.811 44.3054 147.811 43.472C147.817 43.3345 147.794 43.1974 147.743 43.0695C147.693 42.9415 147.616 42.8256 147.518 42.7292C147.419 42.6328 147.302 42.5581 147.173 42.5097C147.044 42.4614 146.907 42.4406 146.769 42.4488" fill="#434444"/>
<path fill-rule="evenodd" clip-rule="evenodd" d="M157.758 38.2921H161.167V39.7915H159.728V47.6195H157.758V38.2921ZM152.459 42.3273C152.033 42.2284 151.655 41.983 151.392 41.6338C151.129 41.2847 150.997 40.8541 151.02 40.4176C151.02 39.2004 152.128 38.1465 153.612 38.1465C155.687 38.1465 156.61 39.5313 156.61 40.9734C156.61 43.2269 154.844 44.2854 153.201 44.3428V44.3913C153.866 44.7528 154.481 45.1974 155.034 45.7142L156.314 46.874L154.694 48.0031L151.289 44.8322L150.119 43.9501L151.214 42.4949C151.661 42.7129 152.152 42.8231 152.649 42.8167C153.833 42.8167 154.645 42.1288 154.645 40.969C154.645 40.1179 154.23 39.6901 153.713 39.6901C153.62 39.6789 153.526 39.6874 153.436 39.715C153.347 39.7425 153.264 39.7886 153.193 39.85C153.122 39.9116 153.065 39.9872 153.026 40.072C152.986 40.1568 152.965 40.249 152.963 40.3427C152.967 40.5347 153.034 40.7201 153.154 40.8705C153.273 41.0209 153.439 41.1283 153.625 41.1763L152.459 42.3273Z" fill="#434444"/>
<path fill-rule="evenodd" clip-rule="evenodd" d="M167.858 41.2517V39.7963H160.215V38.2969H171.308V39.7963H169.837V47.6243H167.863V42.8218C167.672 42.6893 167.446 42.6143 167.214 42.6056C166.644 42.6056 166.397 42.9937 166.397 43.7301V45.0268H164.6V43.6199C164.6 42.9937 164.291 42.6321 163.831 42.6321C163.447 42.6321 162.992 42.879 162.992 43.8536C162.992 44.7093 163.434 45.7985 164.993 46.6144L163.739 47.8933C162.951 47.5203 162.282 46.9359 161.807 46.2055C161.332 45.4751 161.07 44.6273 161.05 43.7566C161.05 41.8558 162.374 40.996 163.646 40.996C164.011 40.9635 164.377 41.0455 164.694 41.2305C165.01 41.4154 165.261 41.6941 165.412 42.028H165.465C165.523 41.7192 165.687 41.4404 165.929 41.2399C166.171 41.0393 166.475 40.9295 166.79 40.9297C167.16 40.9034 167.526 41.0184 167.814 41.2517H167.858Z" fill="#434444"/>
<path fill-rule="evenodd" clip-rule="evenodd" d="M179.145 38.301H183.689V39.8004H182.227V47.6282H180.292V43.8091H177.96V45.2821H176.16C175.81 44.9922 175.528 44.629 175.336 44.2182C175.141 43.8073 175.043 43.359 175.043 42.9051L176.103 42.1068V40.5236C176.103 39.9812 175.842 39.7826 175.356 39.7826H174.088V38.2832H175.749C176.708 38.2832 178.033 38.6449 178.033 40.409V42.0715H180.292V39.7826H179.145V38.301Z" fill="#434444"/>
<path fill-rule="evenodd" clip-rule="evenodd" d="M186.148 39.7963V47.6243H184.17V39.7963H182.721V38.2969H187.6V39.7963H186.148Z" fill="#434444"/>
<path fill-rule="evenodd" clip-rule="evenodd" d="M190.317 44.083C190.717 44.4702 191.094 44.8811 191.446 45.3134L192.709 46.8394L191.119 47.8448L187.101 42.879L188.572 41.7456C189.014 42.3542 189.292 42.5835 189.694 42.5835C190.021 42.5835 190.258 42.4159 190.258 41.9V39.7963H186.615V38.2969H193.593V39.7963H192.233V41.9442C192.257 42.1951 192.23 42.4485 192.153 42.6889C192.076 42.9292 191.952 43.1515 191.786 43.3424C191.622 43.5332 191.419 43.6887 191.193 43.7992C190.965 43.91 190.719 43.9734 190.466 43.9859L190.334 44.008L190.317 44.083Z" fill="#434444"/>
<path fill-rule="evenodd" clip-rule="evenodd" d="M195.839 47.8135C195.18 47.3759 194.636 46.7872 194.253 46.0968C193.869 45.4062 193.656 44.6339 193.631 43.8444C193.631 41.8068 195.15 41.0529 196.51 41.0529H198.246V39.7826H192.621V38.2832H201.681V39.7826H200.197V47.6106H198.241V42.7243H196.85C196.688 42.7075 196.524 42.7268 196.371 42.7803C196.217 42.8337 196.077 42.9203 195.959 43.0339C195.844 43.1475 195.753 43.2852 195.696 43.4374C195.638 43.5897 195.614 43.7528 195.628 43.915C195.628 44.9778 196.254 45.8994 197.226 46.5611L195.839 47.8135Z" fill="#434444"/>
<path fill-rule="evenodd" clip-rule="evenodd" d="M145.376 53.3769C144.462 53.3511 143.566 53.1191 142.755 52.6984C141.944 52.2775 141.238 51.6787 140.691 50.9468L142.056 49.69C142.939 50.9778 143.99 51.8509 145.35 51.8509C145.981 51.8509 146.582 51.5775 146.582 50.894C146.584 50.7961 146.567 50.6989 146.53 50.6084C146.493 50.5177 146.438 50.4358 146.368 50.3674C146.298 50.2991 146.214 50.2459 146.123 50.2113C146.031 50.1768 145.933 50.1614 145.836 50.1663C145.636 50.1643 145.44 50.2181 145.27 50.3217C145.1 50.4254 144.962 50.5748 144.873 50.7528L143.601 49.6415C143.881 49.2855 144.245 49.0044 144.66 48.8236C145.076 48.6428 145.53 48.5677 145.981 48.6051C147.403 48.6051 148.503 49.4342 148.503 50.8762C148.503 52.1112 147.62 53.3769 145.385 53.3769" fill="#434444"/>
<path d="M136.718 42.2168H132.854V44.1704H136.718V42.2168Z" fill="#434444"/>
<path fill-rule="evenodd" clip-rule="evenodd" d="M16.6132 24.4135C15.1295 24.4135 15.1295 22.1335 16.6132 22.1335C18.0968 22.1335 18.0836 24.4135 16.6132 24.4135ZM43.1071 1.76758H4.64237C4.27464 1.76758 3.92199 1.91348 3.66196 2.17318C3.40194 2.43286 3.25586 2.78509 3.25586 3.15236V35.7871C3.25703 36.154 3.40348 36.5057 3.66325 36.7651C3.92303 37.0244 4.27501 37.1708 4.64237 37.172H43.1071C43.4737 37.1696 43.8246 37.0227 44.0834 36.7634C44.3422 36.5041 44.4881 36.1533 44.4893 35.7871V3.15236C44.4893 2.78584 44.3437 2.4343 44.0846 2.17473C43.8256 1.91516 43.4741 1.76875 43.1071 1.76758Z" fill="white"/>
<path fill-rule="evenodd" clip-rule="evenodd" d="M16.6142 24.4144C15.1305 24.4144 15.1305 22.1344 16.6142 22.1344C18.0978 22.1344 18.0846 24.4144 16.6142 24.4144ZM23.7279 6.61528C21.0393 6.6083 18.4091 7.39811 16.1701 8.88474C13.9312 10.3713 12.1843 12.488 11.1503 14.9666C10.1164 17.4453 9.84202 20.1746 10.362 22.8091C10.8819 25.4436 12.1727 27.8649 14.071 29.7664C15.9693 31.6679 18.3898 32.9641 21.0261 33.4911C23.6624 34.018 26.396 33.752 28.8807 32.7267C31.3655 31.7014 33.4899 29.9628 34.985 27.7309C36.48 25.4993 37.2786 22.8747 37.2794 20.1895C37.2823 18.4094 36.9341 16.6463 36.2545 15.0006C35.575 13.355 34.5775 11.8592 33.3191 10.5986C32.0606 9.33813 30.5659 8.33754 28.9202 7.65406C27.2745 6.97057 25.5101 6.6176 23.7279 6.61528Z" fill="#1E2654"/>
<path fill-rule="evenodd" clip-rule="evenodd" d="M27.9556 14.4278L29.5894 12.5799L30.062 12.0331C30.6511 12.3005 31.3125 12.3641 31.9418 12.214C32.5713 12.0638 33.1326 11.7084 33.5371 11.204C34.0111 10.6505 34.3371 9.98611 34.4845 9.27279C34.6319 8.55947 34.5962 7.82048 34.3804 7.12472L32.411 9.36063L30.4328 8.83584L29.8588 6.73662L31.8194 4.50512C31.1619 4.31815 30.465 4.32133 29.8092 4.51428C29.1536 4.70723 28.5662 5.08205 28.1153 5.59516C27.6644 6.10827 27.3686 6.73862 27.2622 7.41296C27.1557 8.08732 27.2431 8.77799 27.5141 9.40473L27.5935 9.32094L24.8691 12.408L27.9556 14.4278Z" fill="#EF7E22"/>
<path fill-rule="evenodd" clip-rule="evenodd" d="M28.0933 14.5703L27.8063 14.288L30.0142 11.7742L30.1421 11.8404C30.6964 12.0865 31.3163 12.1434 31.9062 12.0023C32.496 11.8612 33.023 11.53 33.4054 11.0598C33.8157 10.58 34.1092 10.0117 34.2623 9.39954C34.4156 8.78734 34.4246 8.148 34.2884 7.53177L32.4824 9.6001L30.2746 9.02679L29.6299 6.68503L31.4361 4.62551C30.8493 4.51806 30.2446 4.56663 29.6828 4.76636C29.1209 4.96607 28.6214 5.3099 28.2346 5.76332C27.8102 6.24106 27.533 6.83121 27.4367 7.46266C27.3404 8.09411 27.4288 8.73992 27.6914 9.32227L27.6253 9.35315L27.7357 9.45898L27.4487 9.79856L25.0024 12.5813L24.7109 12.2814L27.272 9.37078C27.0152 8.70969 26.9472 7.99033 27.0759 7.29295C27.2045 6.59555 27.5244 5.94754 28.0003 5.42118C28.476 4.8948 29.0887 4.51075 29.7703 4.31185C30.4518 4.11296 31.1753 4.10705 31.8598 4.29475L32.191 4.38736L30.0803 6.79969L30.5838 8.66517L32.3501 9.10618L34.4519 6.70708L34.5623 7.03785C34.7924 7.77123 34.8321 8.55103 34.6777 9.30395C34.5233 10.0568 34.1795 10.7582 33.6791 11.3421C33.2618 11.8571 32.6895 12.2244 32.0469 12.3896C31.4046 12.5548 30.7259 12.5091 30.1113 12.2594L29.7271 12.7004L28.0933 14.5703Z" fill="#144575"/>
<path fill-rule="evenodd" clip-rule="evenodd" d="M11.3909 30.3898C11.324 30.4177 11.2523 30.4319 11.1798 30.4316C11.1074 30.4313 11.0357 30.4165 10.969 30.3883C10.9024 30.3598 10.8421 30.3185 10.7917 30.2665C10.7413 30.2145 10.7018 30.1531 10.6756 30.0855C10.6211 29.9496 10.622 29.7979 10.6782 29.6627C10.7343 29.5276 10.8411 29.4198 10.9758 29.3623C11.0426 29.334 11.1144 29.3195 11.187 29.3198C11.2595 29.3201 11.3312 29.3352 11.3977 29.3641C11.4642 29.3929 11.5242 29.4351 11.5739 29.4878C11.6235 29.5406 11.662 29.6029 11.6868 29.6709C11.7413 29.8056 11.7409 29.9563 11.6856 30.0907C11.6303 30.225 11.5245 30.3324 11.3909 30.3898ZM14.1154 24.2598L10.0662 28.5728H10.0397C9.7369 28.8989 9.57421 29.3305 9.5866 29.7748C9.59898 30.2193 9.78546 30.6412 10.106 30.9499C10.2631 31.1024 10.4491 31.222 10.653 31.302C10.857 31.3821 11.0748 31.4208 11.2938 31.4158C11.5129 31.4109 11.7287 31.3624 11.9289 31.2734C12.129 31.1844 12.3094 31.0564 12.4595 30.897L12.4948 30.8706L16.5307 26.5575L14.1154 24.2598Z" fill="#EF7E22"/>
<path fill-rule="evenodd" clip-rule="evenodd" d="M11.182 29.5075L11.0452 29.5294L10.842 29.728V30.0102C10.8575 30.0584 10.8827 30.1027 10.9162 30.1407C10.9497 30.1785 10.9907 30.2091 11.0366 30.2303C11.0825 30.2517 11.1323 30.2633 11.1829 30.2645C11.2335 30.2655 11.2838 30.2561 11.3306 30.2368C11.3774 30.2176 11.4197 30.189 11.4548 30.1525C11.49 30.1162 11.5172 30.0729 11.5347 30.0256C11.5523 29.9781 11.5599 29.9275 11.5569 29.8772C11.554 29.8267 11.5406 29.7773 11.5176 29.7323C11.4904 29.6657 11.444 29.6088 11.3842 29.5687C11.3244 29.5287 11.254 29.5073 11.182 29.5075ZM11.182 30.6188C11.0362 30.6169 10.8942 30.5719 10.7739 30.4896C10.6537 30.4071 10.5606 30.2909 10.5064 30.1557C10.4671 30.0652 10.4467 29.9677 10.4467 29.869C10.4467 29.7704 10.4671 29.6729 10.5064 29.5824C10.5832 29.4042 10.7254 29.2622 10.9039 29.1854L11.182 29.1282C11.3297 29.1271 11.4742 29.1712 11.5958 29.2549C11.7175 29.3385 11.8104 29.4574 11.8621 29.5956C11.9352 29.7765 11.9341 29.9787 11.8589 30.1587C11.7837 30.3387 11.6404 30.4819 11.4602 30.557L11.182 30.6188ZM10.0781 28.8547L10.1841 28.7224L14.114 24.5328L16.26 26.6055L12.3566 30.7598L12.3213 30.7864C12.1863 30.9329 12.0226 31.05 11.8402 31.1305C11.6579 31.211 11.4609 31.253 11.2615 31.2538C11.0714 31.256 10.8828 31.22 10.7068 31.1479C10.5308 31.076 10.3711 30.9696 10.2371 30.8349C9.97153 30.582 9.80853 30.2404 9.77921 29.8752C9.74989 29.5098 9.85631 29.1466 10.0781 28.8547ZM11.2615 31.6023C10.7879 31.6036 10.3322 31.4219 9.9898 31.095C9.63244 30.7514 9.42509 30.2808 9.4127 29.7857C9.4003 29.2903 9.58385 28.81 9.92357 28.449V28.4269L14.1008 23.9727L16.7811 26.5483L12.6392 31.0024L12.6083 31.0333C12.4394 31.2157 12.2345 31.3612 12.0065 31.4607C11.7785 31.5601 11.5324 31.6113 11.2836 31.611" fill="#144575"/>
<path fill-rule="evenodd" clip-rule="evenodd" d="M36.6701 12.4316L6.29492 24.1757L7.29727 26.857L15.6076 23.6685C15.5728 23.5037 15.5764 23.3332 15.6182 23.1701C15.6599 23.0068 15.7387 22.8556 15.8484 22.7276C15.9581 22.5998 16.0958 22.4988 16.2508 22.4325C16.4058 22.3663 16.574 22.3365 16.7424 22.3455C16.9195 22.3511 17.0925 22.3997 17.2465 22.4874C17.4004 22.5749 17.5306 22.6989 17.6255 22.8482L37.6681 15.1085L39.6066 12.8065L36.6701 12.4316Z" fill="#009C4D"/>
<path fill-rule="evenodd" clip-rule="evenodd" d="M16.6132 24.4168C15.1295 24.4168 15.1295 22.1366 16.6132 22.1366C18.0968 22.1366 18.0836 24.4168 16.6132 24.4168ZM27.8599 14.7145L23.1042 11.8435L19.0373 13.7001L15.9773 15.1114L12.2461 21.4223L14.7542 24.0154L17.8452 27.1995L29.0476 18.3396C29.1183 15.4598 27.882 14.7145 27.882 14.7145" fill="#1E2654"/>
<path fill-rule="evenodd" clip-rule="evenodd" d="M38.4473 12.6152L38.8581 13.5501L39.4939 12.7034L38.4473 12.6152Z" fill="#1E2654"/>
<path fill-rule="evenodd" clip-rule="evenodd" d="M36.6073 12.2224L6.01562 24.1869L7.29174 27.1241L15.3547 24.0591C15.2973 23.9179 14.9573 23.8166 14.9573 23.6665L7.5611 26.564L6.63382 24.4295L36.6602 12.6634L39.1727 12.9192L37.592 14.8023L17.4964 22.6832C17.5979 22.8023 17.7436 22.8463 17.7922 22.9918L37.8922 15.1551L40.1 12.562L36.6073 12.2224Z" fill="#144575"/>
<path fill-rule="evenodd" clip-rule="evenodd" d="M38.602 12.8557L36.668 12.666L37.5997 14.8049L38.8273 13.3408L38.602 12.8557Z" fill="white"/>
<path fill-rule="evenodd" clip-rule="evenodd" d="M37.3706 14.9015L36.4434 12.7582L36.8981 12.5818L37.8122 14.7251L37.3706 14.9015Z" fill="#144575"/>
<path fill-rule="evenodd" clip-rule="evenodd" d="M43.0539 50.5946L42.7315 49.9773H44.4316L44.7981 50.5946H43.0539ZM41.9367 48.3895H43.5176L43.8797 49.007H42.2238L41.9367 48.3895ZM39.6892 50.5946L39.4463 49.9773H41.1816L41.4776 50.5946H39.6892ZM38.806 48.3895H40.4133L40.718 49.007H39.0445L38.806 48.3895ZM38.1526 46.727H39.6363L39.9276 47.3532H38.3998L38.1526 46.727ZM36.3201 50.6078L36.1434 49.9905H37.9097L38.1305 50.6078H36.3201ZM35.6886 48.4027H37.3224L37.5476 49.0202H35.8608L35.6886 48.4027ZM35.2118 46.7402H36.7219L36.9382 47.3664H35.384L35.2118 46.7402ZM32.9641 50.621L32.8493 50.0037H34.6156L34.7878 50.621H32.9641ZM29.6082 50.621L29.5642 50.0037H31.3569L31.4495 50.621H29.6082ZM29.4581 48.4159H32.549L32.2577 46.7534H33.7766L34.3728 49.0334H29.5111L29.4581 48.4159ZM29.3389 46.7534L29.3831 47.3796H30.9683L30.8755 46.7534H29.3389ZM12.9039 50.6342L13.1909 50.0169H28.0937L28.1201 50.6342H12.9039ZM12.1223 49.0334H10.4929L10.8727 48.3631H12.4535L12.1223 49.0334ZM11.3319 50.6342H9.56562L9.9233 50.0169H11.6366L11.3319 50.6342ZM8.9342 49.0334H7.34013L7.7817 48.4159H9.33159L8.9342 49.0334ZM7.96717 50.6342H6.24505L6.68663 50.0169H8.36016L7.96717 50.6342ZM5.73284 49.0334H4.18294L4.69075 48.3631H6.2009L5.73284 49.0334ZM4.59802 50.6342H2.9245L3.41462 50.0169H5.05284L4.59802 50.6342ZM5.97129 46.7534H7.34013L6.89857 47.3796H5.48557L5.97129 46.7534ZM8.87678 46.7534H10.303L9.9233 47.3796H8.46171L8.87678 46.7534ZM11.7911 46.7534H13.2483L12.9348 47.3796H11.4334L11.7911 46.7534ZM13.9636 48.3631H15.5797L15.3413 48.9806H13.6633L13.9636 48.3631ZM14.7452 46.7006H16.2244L15.9772 47.3267H14.4273L14.7452 46.7006ZM17.0546 48.3631H18.6884L18.5117 48.9806H16.8205L17.0546 48.3631ZM17.6419 46.7006H19.152L18.971 47.3267H17.4255L17.6419 46.7006ZM20.1455 48.3631H21.8014L21.691 48.9806H19.9865L20.1455 48.3631ZM20.5872 46.7006H22.1017L21.9957 47.3267H20.4016L20.5872 46.7006ZM23.2365 48.3631H24.9144L24.8747 48.9806H23.157L23.2365 48.3631ZM23.4662 46.7006H25.0028L24.9629 47.3267H23.3955L23.4662 46.7006ZM26.3584 48.3631H28.0186L28.0451 48.9806H26.3274L26.3584 48.3631ZM26.4157 46.7006H27.9568V47.3267H26.3981L26.4157 46.7006ZM42.555 46.7006L42.9215 47.3267H41.4245L41.1155 46.7006H42.555ZM43.7648 46.1713C43.7062 46.0888 43.6288 46.0214 43.5389 45.9747C43.4491 45.9279 43.3494 45.9031 43.2482 45.9023H5.13232C5.0389 45.9029 4.94676 45.9238 4.86217 45.9635C4.77759 46.003 4.70254 46.0603 4.64218 46.1316L0.835889 50.6476C0.756478 50.7414 0.70523 50.8559 0.688044 50.9775C0.670858 51.0993 0.688432 51.2232 0.738744 51.3355C0.791003 51.4446 0.872981 51.5369 0.975287 51.6016C1.07759 51.6664 1.19608 51.701 1.31719 51.7015H46.4274C46.5421 51.6995 46.654 51.6669 46.7518 51.6072C46.8497 51.5474 46.9297 51.4628 46.9838 51.3619C47.0394 51.2597 47.0652 51.1439 47.0582 51.0277C47.0512 50.9116 47.0116 50.7997 46.9441 50.7048L43.7648 46.1713Z" fill="#1E2654"/>
<path fill-rule="evenodd" clip-rule="evenodd" d="M15.4872 43.9251C14.8734 44.5337 15.8272 44.882 15.8272 44.882H31.7236C31.7236 44.882 32.6861 44.5337 32.0767 43.9251C31.4673 43.3165 29.8071 42.871 29.6305 40.2426C29.6305 40.0442 29.6305 39.224 29.6305 38.1523H17.9379C17.9379 39.224 17.9379 40.0442 17.9379 40.2426C17.77 42.8888 16.101 43.3298 15.5004 43.9251" fill="#1E2654"/>
<path fill-rule="evenodd" clip-rule="evenodd" d="M4.89951 2.00889C4.53684 2.01122 4.1898 2.15675 3.93417 2.41371C3.67854 2.67067 3.53507 3.01821 3.53507 3.38044V35.5476C3.53742 35.9071 3.68234 36.2511 3.93809 36.504C4.19385 36.757 4.53957 36.8983 4.89951 36.8972H42.8211C43.0003 36.8972 43.1777 36.8619 43.3434 36.7934C43.5088 36.725 43.6593 36.6246 43.7859 36.498C43.9127 36.3715 44.0132 36.2213 44.0817 36.056C44.1502 35.8906 44.1855 35.7134 44.1855 35.5344V3.38044C44.1822 3.02008 44.0373 2.67547 43.7822 2.42065C43.5269 2.16584 43.1819 2.02116 42.8211 2.01771L4.89951 2.00889ZM42.8211 38.2203H4.89951C4.54935 38.2203 4.20266 38.151 3.87949 38.0163C3.55629 37.8817 3.26305 37.6844 3.01668 37.4358C2.77032 37.1874 2.57572 36.8925 2.44414 36.5684C2.31257 36.2444 2.24663 35.8974 2.25013 35.5476V3.38044C2.25013 2.67866 2.52925 2.00562 3.02611 1.50938C3.52298 1.01315 4.19685 0.734375 4.89951 0.734375H42.8211C43.5238 0.734375 44.1976 1.01315 44.6946 1.50938C45.1914 2.00562 45.4706 2.67866 45.4706 3.38044V35.5476C45.474 35.8974 45.4081 36.2444 45.2765 36.5684C45.145 36.8925 44.9503 37.1874 44.704 37.4358C44.4576 37.6844 44.1644 37.8817 43.8412 38.0163C43.5181 38.151 43.1713 38.2203 42.8211 38.2203Z" fill="#1E2654"/>
<path fill-rule="evenodd" clip-rule="evenodd" d="M4.89951 2.00889C4.53684 2.01122 4.1898 2.15675 3.93417 2.41371C3.67854 2.67067 3.53507 3.01821 3.53507 3.38044V35.5476C3.53742 35.9071 3.68234 36.2511 3.93809 36.504C4.19385 36.757 4.53957 36.8983 4.89951 36.8972H42.8211C43.0003 36.8972 43.1777 36.8619 43.3434 36.7934C43.5088 36.725 43.6593 36.6246 43.7859 36.498C43.9127 36.3715 44.0132 36.2213 44.0817 36.056C44.1502 35.8906 44.1855 35.7134 44.1855 35.5344V3.38044C44.1822 3.02008 44.0373 2.67547 43.7822 2.42065C43.5269 2.16584 43.1819 2.02116 42.8211 2.01771L4.89951 2.00889ZM42.8211 38.2203H4.89951C4.54935 38.2203 4.20266 38.151 3.87949 38.0163C3.55629 37.8817 3.26305 37.6844 3.01668 37.4358C2.77032 37.1874 2.57572 36.8925 2.44414 36.5684C2.31257 36.2444 2.24663 35.8974 2.25013 35.5476V3.38044C2.25013 2.67866 2.52925 2.00562 3.02611 1.50938C3.52298 1.01315 4.19685 0.734375 4.89951 0.734375H42.8211C43.5238 0.734375 44.1976 1.01315 44.6946 1.50938C45.1914 2.00562 45.4706 2.67866 45.4706 3.38044V35.5476C45.474 35.8974 45.4081 36.2444 45.2765 36.5684C45.145 36.8925 44.9503 37.1874 44.704 37.4358C44.4576 37.6844 44.1644 37.8817 43.8412 38.0163C43.5181 38.151 43.1713 38.2203 42.8211 38.2203Z" fill="#1E2654"/>
<path fill-rule="evenodd" clip-rule="evenodd" d="M35.825 36.8532C35.9707 36.7122 35.5513 36.699 35.7059 36.54C35.5821 36.399 30.2216 36.8664 30.142 36.7826C28.2434 34.8643 31.3254 37.9911 29.4444 36.0683C27.3691 33.9646 25.307 31.8566 23.2184 29.7529C23.0147 29.6044 22.7812 29.502 22.534 29.4531C21.8789 29.317 21.2366 29.1268 20.6131 28.8842C20.1001 28.554 19.6324 28.1582 19.2222 27.7066C18.6703 27.1996 18.1403 26.6614 17.6016 26.1587C18.3038 25.4355 19.209 24.9679 19.3679 23.9184L19.5622 23.742C19.8758 23.5083 20.1892 23.3009 20.4852 23.0232C20.7421 22.8489 20.9475 22.6087 21.0796 22.3278C21.2116 22.0469 21.2655 21.7356 21.2357 21.4268L21.3947 21.1489C21.9158 20.6109 22.4369 20.0772 22.9357 19.5568C23.2846 19.4994 23.6335 19.4422 24.0043 19.3892C23.9735 19.6112 23.908 19.827 23.81 20.0287C23.677 20.2842 23.6147 20.5706 23.6295 20.8581C23.6442 21.1457 23.7355 21.4242 23.8939 21.6648C24.415 22.6659 25.0155 23.6229 25.5984 24.5755C25.6999 24.7342 25.9517 24.8048 26.1415 24.9151C26.1415 24.7122 26.19 24.4741 26.0974 24.3065C25.6559 23.473 25.1391 22.6791 24.6755 21.85C24.4018 21.409 24.0661 20.9371 24.2869 20.3551C24.5077 19.7729 24.8169 19.0894 25.1083 18.4631C25.647 17.3385 25.6602 17.3385 24.7065 16.4962L24.5829 16.3904C24.4308 16.2226 24.2246 16.1135 24.0003 16.0821C23.7759 16.0507 23.5476 16.0989 23.3553 16.2184C22.9534 16.43 22.5206 16.6241 22.1055 16.8358C21.89 16.9675 21.634 17.0168 21.3848 16.9746C21.1357 16.9325 20.9101 16.8017 20.75 16.6065C20.547 16.43 20.3527 16.2448 20.1627 16.0552C19.8138 15.7377 19.8669 15.4378 20.1981 15.1511C21.121 14.3882 22.0394 13.6252 22.9578 12.8755C23.1136 12.7248 23.3193 12.6366 23.5358 12.6277C23.7524 12.6188 23.9648 12.6897 24.1325 12.827C25.3098 13.612 26.4873 14.3852 27.6649 15.1467C27.8887 15.2763 28.0773 15.4585 28.2143 15.6776C28.3513 15.8967 28.4325 16.1459 28.4509 16.4036C28.632 17.9647 28.7468 19.5304 29.025 21.0739C29.1519 21.7555 29.1347 22.4559 28.9742 23.1304C28.8138 23.8049 28.5136 24.4385 28.0932 24.99C27.9461 25.2354 27.7791 25.4685 27.5942 25.6868C27.294 25.9956 27.3955 26.2337 27.6781 26.4851C28.7865 27.4862 29.8859 28.4961 30.9722 29.4928C32.584 30.9746 34.1912 32.4299 35.8295 33.9029C35.9663 34.0263 36.1209 34.1409 36.271 34.2557C36.1534 33.9924 35.9802 33.7578 35.7632 33.5676C33.5553 31.3626 31.3078 29.2149 29.0823 27.0363C28.7643 26.7365 28.2566 26.4277 28.1992 26.0749C28.1417 25.7221 28.5746 25.3121 28.7821 24.9326C28.9896 24.5534 29.1662 24.1787 29.3694 23.786C29.4312 23.6714 29.5194 23.5567 29.6122 23.4113C33.86 27.2392 39.3267 31.9844 43.5745 35.7993L35.825 36.8532Z" fill="white"/>
<path fill-rule="evenodd" clip-rule="evenodd" d="M17.1076 21.4248C17.6507 21.9495 18.1939 22.4743 18.7326 22.9859C19.1344 23.3608 19.3463 23.3387 19.7084 22.9374C19.9468 22.6773 20.1896 22.4039 20.4503 22.17C20.524 22.1185 20.5843 22.0498 20.6258 21.97C20.6673 21.8902 20.6891 21.8015 20.6891 21.7115C20.6891 21.6215 20.6673 21.5328 20.6258 21.4529C20.5843 21.3731 20.524 21.3045 20.4503 21.2528C19.3419 20.159 18.2424 19.0874 17.0855 18.0246C17.0298 17.9609 16.9606 17.9105 16.883 17.8769C16.8053 17.8433 16.7211 17.8274 16.6366 17.8304C16.552 17.8332 16.4691 17.855 16.394 17.8939C16.3189 17.9329 16.2534 17.9881 16.2023 18.0554C15.9374 18.3289 15.6813 18.6068 15.4252 18.8712C15.3486 18.9265 15.2862 18.9991 15.2432 19.083C15.2002 19.167 15.1777 19.2599 15.1777 19.3542C15.1777 19.4486 15.2002 19.5416 15.2432 19.6254C15.2862 19.7094 15.3486 19.782 15.4252 19.8372C15.9815 20.3531 16.5335 20.8911 17.0811 21.4248" fill="white"/>
<path fill-rule="evenodd" clip-rule="evenodd" d="M18.7455 18.8651C19.2974 19.3899 19.8714 19.9103 20.4057 20.4572C20.4599 20.5345 20.5319 20.5977 20.6156 20.6412C20.6995 20.6849 20.7925 20.7076 20.887 20.7076C20.9814 20.7076 21.0746 20.6849 21.1583 20.6412C21.2422 20.5977 21.3143 20.5345 21.3684 20.4572C21.6245 20.2057 21.8717 19.9367 22.1146 19.6898C22.1843 19.6314 22.2402 19.5585 22.2786 19.4764C22.3171 19.394 22.3369 19.3044 22.3369 19.2135C22.3369 19.1227 22.3171 19.033 22.2786 18.9507C22.2402 18.8684 22.1843 18.7957 22.1146 18.7373C21.0253 17.6611 19.92 16.5939 18.7984 15.5355C18.7358 15.463 18.657 15.406 18.5686 15.3689C18.4802 15.3317 18.3844 15.3155 18.2885 15.3215C18.1927 15.3275 18.0998 15.3555 18.0165 15.4033C17.9334 15.4511 17.8626 15.5175 17.8093 15.5972C17.5532 15.8707 17.2927 16.1308 17.0322 16.4043C16.9651 16.4576 16.9114 16.5259 16.8754 16.6036C16.8393 16.6813 16.8219 16.7663 16.8245 16.8519C16.827 16.9375 16.8495 17.0213 16.8902 17.0967C16.9308 17.1721 16.9885 17.237 17.0587 17.2863C17.6239 17.8066 18.1758 18.3403 18.7277 18.8828" fill="white"/>
<path fill-rule="evenodd" clip-rule="evenodd" d="M17.1637 22.2687L17.0047 22.0747C16.5631 21.6337 16.1216 21.2148 15.68 20.8003C15.1501 20.2976 14.9028 20.3019 14.3995 20.8399C14.2096 21.034 14.033 21.2456 13.8431 21.4264C13.7639 21.4803 13.699 21.5526 13.6542 21.637C13.6093 21.7217 13.5859 21.8159 13.5859 21.9116C13.5859 22.0073 13.6093 22.1014 13.6542 22.1861C13.699 22.2706 13.7639 22.3428 13.8431 22.3967C14.8189 23.3581 15.8125 24.3063 16.8192 25.2677C16.8702 25.3296 16.9342 25.3793 17.0068 25.4136C17.0793 25.4477 17.1585 25.4656 17.2387 25.4656C17.3189 25.4656 17.3982 25.4477 17.4707 25.4136C17.5432 25.3793 17.6072 25.3296 17.6583 25.2677C17.9452 24.981 18.2013 24.7031 18.4752 24.4253C18.8328 24.077 18.74 23.7683 18.4221 23.4595C18.1042 23.1508 17.8305 22.9039 17.539 22.6128L17.1637 22.2687Z" fill="white"/>
<path fill-rule="evenodd" clip-rule="evenodd" d="M21.7188 17.5943C22.1603 18.0353 22.5576 18.4013 22.9594 18.7762C23.0052 18.8373 23.0644 18.887 23.1325 18.9211C23.2007 18.9554 23.2762 18.9731 23.3526 18.9731C23.4288 18.9731 23.5042 18.9554 23.5723 18.9211C23.6405 18.887 23.6997 18.8373 23.7454 18.7762C24.0513 18.4754 24.3347 18.1526 24.5931 17.8103C24.6563 17.7071 24.6929 17.5898 24.6999 17.4692C24.7068 17.3484 24.6838 17.2278 24.633 17.1179C24.4474 16.8357 24.2267 16.4476 23.7498 16.6769C23.0918 16.9901 22.425 17.3032 21.723 17.6295" fill="white"/>
<path fill-rule="evenodd" clip-rule="evenodd" d="M19.2893 15.2883C19.9251 14.737 20.5123 14.2255 21.0864 13.7183L21.0289 13.5684C20.7993 13.6169 20.477 13.5684 20.3666 13.7183C19.9691 14.1814 19.2671 14.468 19.2715 15.2795" fill="white"/>
</g>
</svg>
