<svg width="92" height="24" viewBox="0 0 92 24" fill="none" xmlns="http://www.w3.org/2000/svg">
<g clip-path="url(#clip0_145_241)">
<path fill-rule="evenodd" clip-rule="evenodd" d="M29.8025 18.7039L30.9364 16.0689C32.1612 16.9848 33.7931 17.4609 35.4031 17.4609C36.5916 17.4609 37.3439 17.003 37.3439 16.3088C37.3258 14.368 30.2241 15.8872 30.1696 11.0207C30.1514 8.5493 32.3466 6.64486 35.4577 6.64486C37.3076 6.64486 39.1539 7.1028 40.4732 8.14588L39.4119 10.8354C38.2053 10.0649 36.7043 9.51606 35.2759 9.51606C34.3056 9.51606 33.6659 9.974 33.6659 10.5591C33.6841 12.4636 40.8403 11.4205 40.9129 16.0689C40.9129 18.5949 38.7723 20.3721 35.6975 20.3721C33.4442 20.3685 31.3762 19.8378 29.8025 18.7039ZM73.3466 15.1167C72.7796 16.1053 71.7184 16.7813 70.4899 16.7813C68.6763 16.7813 67.2153 15.3166 67.2153 13.5067C67.2153 11.6967 68.68 10.232 70.4899 10.232C71.7147 10.232 72.7796 10.908 73.3466 11.8966L76.4758 10.1594C75.3055 8.07319 73.0522 6.64486 70.4899 6.64486C66.6992 6.64486 63.6245 9.71959 63.6245 13.5103C63.6245 17.301 66.6992 20.3757 70.4899 20.3757C73.0704 20.3757 75.3055 18.9656 76.4758 16.8612L73.3466 15.1167ZM42.4867 0.949707H46.4046V20.1141H42.4867V0.949707ZM78.0132 0.949707V20.1141H81.9311V14.3644L86.5795 20.1141H91.5951L85.6818 13.285L91.1553 6.91381H86.3578L81.9275 12.2019V0.949707H78.0132Z" fill="white" fill-opacity="0.7"/>
<path d="M58.045 15.1529C57.4781 16.087 56.3078 16.7812 54.9885 16.7812C53.1749 16.7812 51.7139 15.3165 51.7139 13.5066C51.7139 11.6966 53.1785 10.2319 54.9885 10.2319C56.3078 10.2319 57.4781 10.9625 58.045 11.9147V15.1529ZM58.045 6.91733V8.47287C57.4054 7.39344 55.8135 6.64111 54.1453 6.64111C50.7035 6.64111 47.9958 9.6795 47.9958 13.4884C47.9958 17.2973 50.7035 20.372 54.1453 20.372C55.8099 20.372 57.4018 19.6233 58.045 18.5402V20.0958H61.963V6.91733H58.045Z" fill="white" fill-opacity="0.7"/>
<path fill-rule="evenodd" clip-rule="evenodd" d="M5.5855 15.1342C5.5855 16.4717 4.50608 17.5511 3.16861 17.5511C1.83113 17.5511 0.751709 16.468 0.751709 15.1342C0.751709 13.8003 1.83113 12.7173 3.16861 12.7173H5.5855V15.1342ZM6.79213 15.1342C6.79213 13.7967 7.87156 12.7173 9.20903 12.7173C10.5465 12.7173 11.6259 13.7967 11.6259 15.1342V21.1746C11.6259 22.5121 10.5465 23.5915 9.20903 23.5915C7.87156 23.5915 6.79213 22.5121 6.79213 21.1746V15.1342Z" fill="white" fill-opacity="0.7"/>
<path fill-rule="evenodd" clip-rule="evenodd" d="M9.20962 5.43389C7.87215 5.43389 6.79273 4.35446 6.79273 3.01699C6.79273 1.67952 7.87215 0.600098 9.20962 0.600098C10.5471 0.600098 11.6265 1.67952 11.6265 3.01699V5.43389H9.20962ZM9.20962 6.65869C10.5471 6.65869 11.6265 7.73812 11.6265 9.07559C11.6265 10.4131 10.5471 11.4925 9.20962 11.4925H3.15103C1.81356 11.4925 0.734131 10.4094 0.734131 9.07559C0.734131 7.74175 1.81356 6.65869 3.15103 6.65869H9.20962Z" fill="white" fill-opacity="0.7"/>
<path fill-rule="evenodd" clip-rule="evenodd" d="M18.8917 9.07559C18.8917 7.73812 19.9712 6.65869 21.3086 6.65869C22.6461 6.65869 23.7255 7.73812 23.7255 9.07559C23.7255 10.4131 22.6461 11.4925 21.3086 11.4925H18.8917V9.07559ZM17.6851 9.07559C17.6851 10.4131 16.6057 11.4925 15.2682 11.4925C13.9307 11.4925 12.8513 10.4131 12.8513 9.07559V3.01699C12.8513 1.67952 13.9307 0.600098 15.2682 0.600098C16.6057 0.600098 17.6851 1.67952 17.6851 3.01699V9.07559Z" fill="white" fill-opacity="0.7"/>
<path fill-rule="evenodd" clip-rule="evenodd" d="M15.2682 18.7577C16.6057 18.7577 17.6851 19.8371 17.6851 21.1746C17.6851 22.5121 16.6057 23.5915 15.2682 23.5915C13.9307 23.5915 12.8513 22.5121 12.8513 21.1746V18.7577H15.2682ZM15.2682 17.5511C13.9307 17.5511 12.8513 16.4717 12.8513 15.1342C12.8513 13.7967 13.9307 12.7173 15.2682 12.7173H21.3268C22.6643 12.7173 23.7437 13.7967 23.7437 15.1342C23.7437 16.4717 22.6643 17.5511 21.3268 17.5511H15.2682Z" fill="white" fill-opacity="0.7"/>
</g>
<defs>
<clipPath id="clip0_145_241">
<rect width="90.8607" height="22.9914" fill="white" transform="translate(0.734131 0.600098)"/>
</clipPath>
</defs>
</svg>
