<svg width="18" height="13" viewBox="0 0 18 13" fill="none" xmlns="http://www.w3.org/2000/svg">
<path d="M16.8094 2.25195C17.1844 3.56445 17.1844 6.37695 17.1844 6.37695C17.1844 6.37695 17.1844 9.1582 16.8094 10.502C16.6219 11.252 16.0281 11.8145 15.3094 12.002C13.9656 12.3457 8.65313 12.3457 8.65313 12.3457C8.65313 12.3457 3.30938 12.3457 1.96563 12.002C1.24688 11.8145 0.653126 11.252 0.465626 10.502C0.0906258 9.1582 0.0906258 6.37695 0.0906258 6.37695C0.0906258 6.37695 0.0906258 3.56445 0.465626 2.25195C0.653126 1.50195 1.24688 0.908203 1.96563 0.720703C3.30938 0.345703 8.65313 0.345703 8.65313 0.345703C8.65313 0.345703 13.9656 0.345703 15.3094 0.720703C16.0281 0.908203 16.6219 1.50195 16.8094 2.25195ZM6.90313 8.9082L11.3406 6.37695L6.90313 3.8457V8.9082Z" fill="white"/>
</svg>
