<svg width="15" height="15" viewBox="0 0 15 15" fill="none" xmlns="http://www.w3.org/2000/svg">
<path d="M3.80625 14.3457H0.9V5.00195H3.80625V14.3457ZM2.3375 3.75195C1.43125 3.75195 0.68125 2.9707 0.68125 2.0332C0.68125 1.12695 1.43125 0.376953 2.3375 0.376953C3.275 0.376953 4.025 1.12695 4.025 2.0332C4.025 2.9707 3.275 3.75195 2.3375 3.75195ZM14.65 14.3457H11.775V9.81445C11.775 8.7207 11.7438 7.3457 10.2438 7.3457C8.74375 7.3457 8.525 8.50195 8.525 9.7207V14.3457H5.61875V5.00195H8.4V6.2832H8.43125C8.8375 5.56445 9.775 4.7832 11.1813 4.7832C14.1188 4.7832 14.6813 6.7207 14.6813 9.2207V14.3457H14.65Z" fill="white"/>
</svg>
