<svg width="15" height="15" viewBox="0 0 15 15" fill="none" xmlns="http://www.w3.org/2000/svg">
<path d="M13.9313 8.7207C14.4 9.31445 14.6813 10.0645 14.65 10.8457C14.65 12.7832 13.0875 14.3457 11.15 14.3457C10.3688 14.3457 9.61875 14.0957 9.025 13.627C8.5875 13.7207 8.11875 13.7832 7.65 13.7832C4.11875 13.7832 1.24375 10.9082 1.24375 7.3457C1.24375 6.9082 1.30625 6.43945 1.4 6.00195C0.93125 5.4082 0.68125 4.6582 0.68125 3.8457C0.68125 1.93945 2.24375 0.345703 4.18125 0.345703C4.9625 0.345703 5.7125 0.626953 6.30625 1.0957C6.74375 1.00195 7.2125 0.939453 7.68125 0.939453C11.2125 0.939453 14.0875 3.81445 14.0875 7.3457C14.0875 7.81445 14.025 8.2832 13.9313 8.7207ZM7.86875 11.5957C9.5875 11.5957 11.3688 10.7207 11.3688 8.87695C11.3688 7.2832 9.80625 6.75195 8.525 6.4707C7.025 6.0957 6.36875 6.0332 6.36875 5.43945C6.36875 4.93945 6.86875 4.7207 7.68125 4.7207C9.11875 4.7207 9.15 5.7832 10.025 5.7832C10.6188 5.7832 10.9625 5.31445 10.9625 4.7832C10.9625 3.7207 9.2125 3.0332 7.49375 3.0332C5.93125 3.0332 4.0875 3.7207 4.0875 5.5957C4.0875 7.62695 5.8375 7.81445 7.775 8.31445C8.5875 8.50195 9.0875 8.5957 9.0875 9.18945C9.0875 9.6582 8.55625 10.002 7.775 10.002C6.0875 10.002 5.99375 8.5957 5.025 8.5957C4.36875 8.5957 4.0875 9.06445 4.0875 9.56445C4.0875 10.6895 5.80625 11.5957 7.86875 11.5957Z" fill="white"/>
</svg>
