<svg width="17" height="14" viewBox="0 0 17 14" fill="none" xmlns="http://www.w3.org/2000/svg">
<path d="M15.0375 4.0957C15.0375 4.25195 15.0375 4.37695 15.0375 4.5332C15.0375 8.87695 11.7563 13.8457 5.725 13.8457C3.85 13.8457 2.13125 13.3145 0.69375 12.377C0.94375 12.4082 1.19375 12.4395 1.475 12.4395C3.00625 12.4395 4.4125 11.9082 5.5375 11.0332C4.1 11.002 2.88125 10.0645 2.475 8.75195C2.69375 8.7832 2.88125 8.81445 3.1 8.81445C3.38125 8.81445 3.69375 8.75195 3.94375 8.68945C2.44375 8.37695 1.31875 7.06445 1.31875 5.4707V5.43945C1.75625 5.68945 2.2875 5.81445 2.81875 5.8457C1.9125 5.25195 1.35 4.25195 1.35 3.12695C1.35 2.50195 1.50625 1.93945 1.7875 1.4707C3.4125 3.43945 5.85 4.75195 8.56875 4.9082C8.50625 4.6582 8.475 4.4082 8.475 4.1582C8.475 2.3457 9.94375 0.876953 11.7563 0.876953C12.6938 0.876953 13.5375 1.25195 14.1625 1.9082C14.8813 1.75195 15.6 1.4707 16.225 1.0957C15.975 1.87695 15.475 2.50195 14.7875 2.9082C15.4438 2.8457 16.1 2.6582 16.6625 2.4082C16.225 3.06445 15.6625 3.62695 15.0375 4.0957Z" fill="white"/>
</svg>
