<svg width="13" height="12" viewBox="0 0 13 12" fill="none" xmlns="http://www.w3.org/2000/svg">
<path d="M12.0305 4.44574H8.05071L6.82101 0.667188C6.74648 0.473415 6.61978 0.37653 6.44092 0.37653C6.26205 0.37653 6.13535 0.473415 6.06082 0.667188L4.83112 4.44574H0.851343C0.657571 4.46064 0.530874 4.55008 0.471252 4.71404C0.41163 4.8929 0.463799 5.04941 0.62776 5.18356L3.825 7.50882L2.59529 11.2874C2.56548 11.4364 2.58784 11.5631 2.66236 11.6675C2.7518 11.7718 2.86359 11.824 2.99774 11.824C3.07227 11.824 3.14679 11.7942 3.22132 11.7345L6.44092 9.38692L9.66051 11.7345C9.73504 11.7942 9.80956 11.824 9.88409 11.824C10.0182 11.824 10.13 11.7718 10.2195 11.6675C10.294 11.5631 10.3164 11.4364 10.2865 11.2874L9.05684 7.50882L12.2541 5.18356C12.418 5.04941 12.4702 4.8929 12.4106 4.71404C12.351 4.55008 12.2243 4.46064 12.0305 4.44574ZM8.29665 7.48647L9.30278 10.6166L6.64214 8.67146C6.50799 8.58202 6.37384 8.58202 6.23969 8.67146L3.57905 10.6166L4.58518 7.48647C4.62989 7.32251 4.58518 7.18836 4.45103 7.08402L1.81275 5.1612H5.09942C5.26338 5.1463 5.37517 5.06432 5.43479 4.91526L6.44092 1.7851L7.44704 4.91526C7.50666 5.06432 7.62591 5.1463 7.80477 5.1612H11.0691L8.4308 7.08402C8.28175 7.18836 8.23703 7.32251 8.29665 7.48647Z" fill="#FFA500"/>
</svg>
