<svg width="37" height="33" viewBox="0 0 37 33" fill="none" xmlns="http://www.w3.org/2000/svg">
<path d="M25.5511 32.5186H10.0028C9.69126 32.5186 9.43862 32.2667 9.43768 31.9552C9.4339 30.7242 9.48547 27.6462 10.0431 25.6563C10.194 25.1178 10.3779 24.677 10.6218 24.2687C10.8279 23.9238 11.4222 23.0573 12.486 22.4585C13.47 21.9046 14.4123 21.8222 15.0297 21.8505C15.1404 21.8557 15.2473 21.8932 15.3367 21.9584L17.714 23.6921L20.2285 21.9504C20.3159 21.8899 20.4183 21.8553 20.5243 21.8506C21.1412 21.8221 22.0838 21.9048 23.068 22.4585C24.132 23.0571 24.7261 23.9238 24.9321 24.2688C25.1759 24.6761 25.3597 25.1171 25.5109 25.6564C26.0684 27.6465 26.12 30.7242 26.1163 31.9552C26.1153 32.2668 25.8626 32.5186 25.5511 32.5186ZM17.7575 31.3885H24.9832C24.9674 30.097 24.8753 27.5775 24.4225 25.9615C24.2975 25.5156 24.1555 25.1722 23.962 24.8487C23.8021 24.5813 23.3413 23.9092 22.5137 23.4437C21.8442 23.067 21.2014 22.976 20.7373 22.976C20.7359 22.976 20.7343 22.976 20.7328 22.976L18.0271 24.8501C17.8294 24.9869 17.5668 24.9838 17.3723 24.8421L14.8135 22.9761C14.3494 22.9766 13.7078 23.0677 13.04 23.4435C12.2121 23.9093 11.7513 24.5813 11.5917 24.8485C11.3979 25.1728 11.2559 25.5161 11.1311 25.9616C10.6784 27.5775 10.5863 30.0973 10.5705 31.3885L17.7575 31.3885Z" fill="#2C1D43"/>
<path d="M13.28 32.5187C12.9677 32.5187 12.7148 32.2658 12.7148 31.9536V27.5886C12.7148 27.2763 12.9677 27.0234 13.28 27.0234C13.5922 27.0234 13.8451 27.2763 13.8451 27.5886V31.9536C13.8451 32.2658 13.592 32.5187 13.28 32.5187Z" fill="#2C1D43"/>
<path d="M22.2761 32.5187C21.9638 32.5187 21.7109 32.2658 21.7109 31.9536V27.5886C21.7109 27.2763 21.9638 27.0234 22.2761 27.0234C22.5883 27.0234 22.8412 27.2763 22.8412 27.5886V31.9536C22.8412 32.2658 22.5881 32.5187 22.2761 32.5187Z" fill="#2C1D43"/>
<path d="M17.7987 21.8397C16.6812 21.8397 15.6339 21.3615 14.8498 20.4934C14.0801 19.6412 13.6562 18.5119 13.6562 17.3139V15.6405C13.6562 15.3996 13.8091 15.1851 14.0368 15.1064C14.2308 15.0384 14.8051 14.7857 15.1143 14.4436C15.3156 14.2206 15.649 14.1886 15.8821 14.3775C15.912 14.3996 16.3309 14.7029 17.0486 14.8554C18.043 15.0671 19.1171 14.9058 20.2412 14.376C20.4164 14.2936 20.6215 14.3063 20.7847 14.4099C20.8259 14.436 20.8631 14.4672 20.8956 14.502C21.0103 14.6228 21.3679 14.9711 21.6734 15.1595C21.8401 15.2624 21.9415 15.4444 21.9415 15.6403V17.3137C21.9415 18.512 21.5177 19.6411 20.748 20.4932C19.9635 21.3615 18.9162 21.8397 17.7987 21.8397ZM14.7864 16.0172V17.3138C14.7864 19.1862 16.1377 20.7094 17.7987 20.7094C19.4599 20.7094 20.8112 19.1862 20.8112 17.3138V15.9371C20.6756 15.8352 20.5327 15.7158 20.3841 15.5799C20.3763 15.5726 20.3683 15.5656 20.3608 15.5585C18.8063 16.1994 17.5447 16.1288 16.7387 15.9444C16.2461 15.8319 15.863 15.6668 15.5995 15.5271C15.319 15.7462 15.0174 15.9092 14.7864 16.0172Z" fill="#2C1D43"/>
<path d="M14.2206 16.2061C14.0021 16.2061 13.794 16.0785 13.7016 15.8652C13.5003 15.3999 13.4697 14.909 13.4424 14.4757C13.4205 14.1218 13.393 13.6815 13.4968 13.2471C13.5884 12.8637 13.8114 12.4592 14.1787 12.0104C14.2357 11.9407 14.2959 11.8717 14.3574 11.8062C15.3402 10.7549 16.9518 10.3429 17.2647 10.2708C17.8778 10.13 18.4656 10.0798 19.0119 10.1218C19.3959 10.1512 19.722 10.2049 20.0091 10.2854C20.419 10.4005 20.7406 10.6237 20.9394 10.931C21.0381 11.0834 21.0965 11.235 21.148 11.3685C21.1886 11.4733 21.2267 11.5722 21.2672 11.6202C21.3326 11.6974 21.4245 11.7699 21.5312 11.854C21.6569 11.9531 21.7993 12.0657 21.9312 12.2145C22.2444 12.5681 22.5981 13.1599 22.6525 13.761C22.7033 14.3235 22.4848 14.8074 22.2884 15.166C22.2832 15.1756 22.2712 15.1987 22.255 15.2305C21.9225 15.8721 21.851 15.9713 21.7563 16.0577C21.526 16.2685 21.1685 16.2524 20.9578 16.0219C20.7628 15.8085 20.7621 15.4862 20.9458 15.2724C20.9788 15.2218 21.0591 15.0812 21.2512 14.7104C21.2746 14.6657 21.291 14.6341 21.2971 14.6228C21.474 14.2995 21.5448 14.0648 21.5267 13.8627C21.5029 13.6001 21.3214 13.2307 21.0852 12.9639C21.0203 12.8907 20.9327 12.8215 20.8312 12.7414C20.6963 12.635 20.5432 12.5142 20.4041 12.3496C20.2409 12.1565 20.1594 11.9453 20.0939 11.7756C20.0589 11.6849 20.0259 11.5992 19.9906 11.5449C19.9282 11.4483 19.7838 11.3961 19.7036 11.3734C19.4888 11.3132 19.2343 11.2722 18.9254 11.2484C18.4933 11.2152 18.0196 11.2568 17.5178 11.372C16.8083 11.5349 15.7708 11.9487 15.1825 12.5783C15.1377 12.6258 15.0946 12.6753 15.0534 12.7257C14.7379 13.1111 14.6306 13.3645 14.596 13.5093C14.5315 13.7796 14.5512 14.0975 14.5703 14.405C14.5927 14.7622 14.6157 15.1321 14.7386 15.4161C14.8625 15.7024 14.7308 16.0351 14.4443 16.1592C14.3716 16.1911 14.2955 16.2061 14.2206 16.2061ZM20.994 15.2238C20.9938 15.224 20.9935 15.224 20.9935 15.2243C20.9938 15.224 20.994 15.2238 20.994 15.2238Z" fill="#2C1D43"/>
<path d="M15.6469 23.4505C15.5666 23.4505 15.4851 23.4333 15.4076 23.397C15.1251 23.2647 15.0031 22.9282 15.1354 22.6457C15.2494 22.4024 15.3982 21.7245 15.4095 21.28C15.414 21.1107 15.3942 21.0398 15.3551 20.8985C15.346 20.8658 15.3368 20.8319 15.3274 20.7961C15.2485 20.4942 15.4291 20.1853 15.7312 20.1064C16.033 20.0275 16.3419 20.2081 16.4209 20.5102C16.4289 20.5405 16.4366 20.5691 16.4444 20.5966C16.4932 20.7723 16.5483 20.9715 16.5395 21.3091C16.5264 21.8217 16.3705 22.6738 16.159 23.125C16.0632 23.3299 15.8595 23.4505 15.6469 23.4505Z" fill="#2C1D43"/>
<path d="M19.8702 23.4535C19.6651 23.4535 19.4671 23.3414 19.3669 23.1464C19.1399 22.7042 18.9424 21.8459 18.9266 21.2335C18.9198 20.959 18.9551 20.7782 18.9907 20.6376C19.0672 20.335 19.3745 20.1518 19.6771 20.2283C19.9796 20.3049 20.1628 20.6122 20.0863 20.9147C20.0677 20.9882 20.0526 21.0607 20.0562 21.2048C20.0686 21.6849 20.2363 22.3654 20.3722 22.6303C20.5147 22.908 20.4051 23.2487 20.1275 23.3911C20.0451 23.4332 19.957 23.4535 19.8702 23.4535Z" fill="#2C1D43"/>
<path d="M30.0173 12.355C29.705 12.355 29.4522 12.1021 29.4522 11.7899C29.4522 11.4741 29.1953 11.2174 28.8797 11.2174H24.028C23.7158 11.2174 23.4629 10.9646 23.4629 10.6523V1.43816C23.4629 1.12592 23.7158 0.873047 24.028 0.873047H28.8797C29.3165 0.873047 29.7154 1.03832 30.0172 1.30981C30.3188 1.03832 30.718 0.873047 31.1547 0.873047H36.0064C36.3187 0.873047 36.5715 1.12592 36.5715 1.43816V10.6523C36.5715 10.9646 36.3187 11.2174 36.0064 11.2174H31.1548C30.839 11.2174 30.5823 11.4743 30.5823 11.7899C30.5824 12.1021 30.3295 12.355 30.0173 12.355ZM30.5824 2.57572V10.1861C30.7614 10.1221 30.9542 10.0873 31.1548 10.0873H35.4414V2.00322H31.1548C30.8393 2.00322 30.5824 2.25993 30.5824 2.57572ZM24.5931 10.0872H28.8797C29.0803 10.0872 29.2732 10.1221 29.4522 10.1861V2.57572C29.4522 2.26017 29.1953 2.00334 28.8797 2.00334H24.5931V10.0872Z" fill="#2C1D43"/>
<path d="M33.8645 4.27867H32.1589C31.8466 4.27867 31.5938 4.02579 31.5938 3.71355C31.5938 3.40131 31.8466 3.14844 32.1589 3.14844H33.8645C34.1768 3.14844 34.4297 3.40131 34.4297 3.71355C34.4297 4.02573 34.1767 4.27867 33.8645 4.27867Z" fill="#2C1D43"/>
<path d="M33.8645 6.6107H32.1589C31.8466 6.6107 31.5938 6.35782 31.5938 6.04558C31.5938 5.73334 31.8466 5.48047 32.1589 5.48047H33.8645C34.1768 5.48047 34.4297 5.73334 34.4297 6.04558C34.4297 6.35782 34.1767 6.6107 33.8645 6.6107Z" fill="#2C1D43"/>
<path d="M33.8645 8.94078H32.1589C31.8466 8.94078 31.5938 8.6879 31.5938 8.37566C31.5938 8.06342 31.8466 7.81055 32.1589 7.81055H33.8645C34.1768 7.81055 34.4297 8.06342 34.4297 8.37566C34.4297 8.6879 34.1767 8.94078 33.8645 8.94078Z" fill="#2C1D43"/>
<path d="M27.8763 4.27867H26.1706C25.8583 4.27867 25.6055 4.02579 25.6055 3.71355C25.6055 3.40131 25.8583 3.14844 26.1706 3.14844H27.8763C28.1885 3.14844 28.4414 3.40131 28.4414 3.71355C28.4414 4.02573 28.1885 4.27867 27.8763 4.27867Z" fill="#2C1D43"/>
<path d="M27.8763 6.6107H26.1706C25.8583 6.6107 25.6055 6.35782 25.6055 6.04558C25.6055 5.73334 25.8583 5.48047 26.1706 5.48047H27.8763C28.1885 5.48047 28.4414 5.73334 28.4414 6.04558C28.4414 6.35782 28.1885 6.6107 27.8763 6.6107Z" fill="#2C1D43"/>
<path d="M27.8763 8.94078H26.1706C25.8583 8.94078 25.6055 8.6879 25.6055 8.37566C25.6055 8.06342 25.8583 7.81055 26.1706 7.81055H27.8763C28.1885 7.81055 28.4414 8.06342 28.4414 8.37566C28.4414 8.6879 28.1885 8.94078 27.8763 8.94078Z" fill="#2C1D43"/>
<path d="M6.55962 8.97861C5.25584 8.97861 4.19531 7.91808 4.19531 6.61431C4.19531 5.31053 5.25584 4.25 6.55962 4.25C7.86339 4.25 8.92392 5.31053 8.92392 6.61431C8.92392 7.91808 7.86334 8.97861 6.55962 8.97861ZM6.55962 5.38029C5.87914 5.38029 5.32554 5.93389 5.32554 6.61436C5.32554 7.29484 5.87914 7.84844 6.55962 7.84844C7.2401 7.84844 7.79369 7.29484 7.79369 6.61436C7.79369 5.93389 7.2401 5.38029 6.55962 5.38029Z" fill="#2C1D43"/>
<path d="M7.71353 12.7701H5.40622C5.09398 12.7701 4.84111 12.5172 4.84111 12.205V11.1204C4.75611 11.0879 4.67229 11.0531 4.58918 11.0158L3.82204 11.7831C3.71607 11.8891 3.57224 11.9486 3.42244 11.9486C3.27264 11.9486 3.12881 11.889 3.02284 11.7831L1.39128 10.1516C1.17066 9.93097 1.17066 9.57307 1.39128 9.35245L2.15842 8.58532C2.1212 8.50221 2.08635 8.41815 2.05386 8.33339H0.969412C0.657172 8.33339 0.404297 8.08051 0.404297 7.76827V5.46097C0.404297 5.14873 0.657172 4.89585 0.969412 4.89585H2.05398C2.08647 4.81085 2.12132 4.7268 2.15854 4.64392L1.39134 3.87673C1.28537 3.77076 1.22583 3.62693 1.22583 3.47713C1.22583 3.32733 1.28543 3.18349 1.39134 3.07752L3.0229 1.44597C3.24352 1.22535 3.60142 1.22535 3.82204 1.44597L4.58918 2.2131C4.67229 2.17589 4.75634 2.14104 4.84111 2.10855V1.0241C4.84111 0.71186 5.09398 0.458984 5.40622 0.458984H7.71353C8.02577 0.458984 8.27864 0.71186 8.27864 1.0241V2.10867C8.36364 2.14116 8.44746 2.17601 8.53057 2.21322L9.2977 1.44609C9.51833 1.22547 9.87623 1.22547 10.0969 1.44609L11.7283 3.07764C11.949 3.29827 11.949 3.65617 11.7283 3.87679L10.9612 4.64392C10.9984 4.72703 11.0333 4.81109 11.0658 4.89585H12.1503C12.4626 4.89585 12.7155 5.14873 12.7155 5.46097V7.76827C12.7155 8.08051 12.4626 8.33339 12.1503 8.33339H11.0658C11.0333 8.41815 10.9984 8.50244 10.9612 8.58532L11.7283 9.35245C11.949 9.57307 11.949 9.93097 11.7283 10.1516L10.0968 11.7831C9.87617 12.0037 9.51827 12.0037 9.29764 11.7831L8.53051 11.016C8.4474 11.0532 8.36335 11.088 8.27858 11.1205V12.2051C8.27864 12.5172 8.02553 12.7701 7.71353 12.7701ZM5.97134 11.6398H7.14841V10.7128C7.14841 10.4595 7.31699 10.2372 7.56071 10.1687C7.83976 10.0903 8.11029 9.97817 8.36482 9.83505C8.58568 9.71094 8.86213 9.7491 9.04105 9.92832L9.69707 10.5843L10.5294 9.752L9.87339 9.09597C9.69418 8.91675 9.65631 8.64061 9.78012 8.41975C9.92331 8.16498 10.0354 7.89444 10.1137 7.61564C10.1823 7.37192 10.4045 7.20333 10.6579 7.20333H11.5849V6.02626H10.6579C10.4045 6.02626 10.1823 5.85768 10.1137 5.61396C10.0354 5.33491 9.92325 5.06438 9.78012 4.80985C9.65602 4.58899 9.69418 4.31254 9.87339 4.13362L10.5294 3.4776L9.69707 2.6452L9.04105 3.30122C8.86183 3.48044 8.58568 3.5183 8.36482 3.39425C8.11029 3.25107 7.83952 3.13902 7.56071 3.06063C7.31699 2.99211 7.14841 2.76983 7.14841 2.51648V1.58945H5.97134V2.51648C5.97134 2.76983 5.80275 2.99211 5.55903 3.06063C5.27999 3.13902 5.00945 3.25113 4.75492 3.39425C4.53406 3.51836 4.25762 3.4802 4.07846 3.30122L3.42244 2.6452L2.5901 3.4776L3.24612 4.13362C3.42533 4.31284 3.4632 4.58899 3.33915 4.80985C3.19597 5.06461 3.08391 5.33515 3.00553 5.61419C2.93701 5.85791 2.71473 6.0265 2.46138 6.0265H1.53459V7.20357H2.46162C2.71497 7.20357 2.93725 7.37215 3.00577 7.61587C3.08415 7.89492 3.19626 8.16545 3.33939 8.41998C3.46349 8.64084 3.42533 8.91729 3.24635 9.09621L2.59033 9.75223L3.42268 10.5846L4.0787 9.92855C4.25792 9.74934 4.5343 9.71147 4.75492 9.83528C5.00969 9.97847 5.28023 10.0905 5.55903 10.1689C5.80299 10.2374 5.97134 10.4597 5.97134 10.7131V11.6398Z" fill="#2C1D43"/>
<path d="M30.016 19.0283H26.3366C26.0244 19.0283 25.7715 18.7755 25.7715 18.4632C25.7715 18.151 26.0244 17.8981 26.3366 17.8981H29.4508V14.7839C29.4508 14.4716 29.7037 14.2188 30.016 14.2188C30.3282 14.2188 30.5811 14.4716 30.5811 14.7839V18.4632C30.5811 18.7752 30.3282 19.0283 30.016 19.0283Z" fill="#2C1D43"/>
<path d="M10.2386 19.0283H6.55926C6.24702 19.0283 5.99414 18.7755 5.99414 18.4632V14.7839C5.99414 14.4716 6.24702 14.2188 6.55926 14.2188C6.8715 14.2188 7.12437 14.4716 7.12437 14.7839V17.8981H10.2386C10.5509 17.8981 10.8037 18.151 10.8037 18.4632C10.8037 18.7755 10.5506 19.0283 10.2386 19.0283Z" fill="#2C1D43"/>
<path d="M20.4332 6.74351H16.0729C15.7607 6.74351 15.5078 6.49064 15.5078 6.1784C15.5078 5.86616 15.7607 5.61328 16.0729 5.61328H20.4332C20.7455 5.61328 20.9984 5.86616 20.9984 6.1784C20.9984 6.49064 20.7452 6.74351 20.4332 6.74351Z" fill="#2C1D43"/>
</svg>
