<svg width="33" height="33" viewBox="0 0 33 33" fill="none" xmlns="http://www.w3.org/2000/svg">
<path d="M4.61523 12.2852H16.6614" stroke="#2C1D43" stroke-miterlimit="10" stroke-linecap="round" stroke-linejoin="round"/>
<path d="M4.61523 15.5918H16.6614" stroke="#2C1D43" stroke-miterlimit="10" stroke-linecap="round" stroke-linejoin="round"/>
<path d="M4.61548 18.8984H16.6616" stroke="#2C1D43" stroke-miterlimit="10" stroke-linecap="round" stroke-linejoin="round"/>
<path d="M4.61548 22.2051H16.6616" stroke="#2C1D43" stroke-miterlimit="10" stroke-linecap="round" stroke-linejoin="round"/>
<path d="M4.61523 27.0508H10.6538" stroke="#2C1D43" stroke-miterlimit="10" stroke-linecap="round" stroke-linejoin="round"/>
<mask id="mask0_145_3337" style="mask-type:luminance" maskUnits="userSpaceOnUse" x="0" y="0" width="33" height="33">
<path d="M32.0518 32.0508V0.924805H0.925781V32.0508H32.0518Z" fill="white" stroke="white"/>
</mask>
<g mask="url(#mask0_145_3337)">
<path d="M12.184 6.83725H11.3682C11.0455 6.83725 10.7839 6.57567 10.7839 6.25296V4.72611C10.7839 4.40341 11.0455 4.14182 11.3682 4.14182H21.029C21.3517 4.14182 21.6133 4.40341 21.6133 4.72611V6.25296C21.6133 6.57567 21.3517 6.83725 21.029 6.83725H14.3839M25.6022 9.01968V2.75501C25.6022 1.72906 24.7705 0.89736 23.7445 0.89736H7.77966C7.28698 0.89736 6.81444 1.09313 6.46608 1.44149L1.61438 6.29319C1.26602 6.64155 1.07031 7.11403 1.07031 7.60671V30.2244C1.07031 31.2503 1.90201 32.082 2.9279 32.082H23.7445C24.7705 32.082 25.6022 31.2503 25.6022 30.2244V29.5907" stroke="#2C1D43" stroke-miterlimit="10" stroke-linecap="round" stroke-linejoin="round"/>
<path d="M22.793 23.3271V28.0804C22.793 28.4936 23.2461 28.7468 23.5981 28.5301L25.3238 27.4678C25.4087 27.4155 25.5047 27.3894 25.6006 27.3894C25.6966 27.3894 25.7927 27.4155 25.8775 27.4678L27.6032 28.5301C27.9551 28.7468 28.4082 28.4936 28.4082 28.0804V23.3271" stroke="#2C1D43" stroke-miterlimit="10" stroke-linecap="round" stroke-linejoin="round"/>
<path d="M25.6023 21.2449C23.6841 21.2449 22.1291 19.6898 22.1291 17.7716C22.1291 15.8534 23.6841 14.2984 25.6023 14.2984C27.5205 14.2984 29.0755 15.8534 29.0755 17.7716C29.0755 19.6898 27.5205 21.2449 25.6023 21.2449ZM31.6584 18.5661C31.3318 18.0868 31.3318 17.4565 31.6584 16.9772C32.1781 16.2144 31.8375 15.1664 30.9687 14.8547C30.4228 14.6589 30.0523 14.149 30.0348 13.5693C30.0069 12.6468 29.1153 11.999 28.2293 12.2575C27.6726 12.4199 27.0731 12.2252 26.7182 11.7665C26.4358 11.4016 26.0191 11.219 25.6023 11.219C25.1856 11.219 24.7689 11.4016 24.4865 11.7665C24.1316 12.2252 23.5321 12.4199 22.9754 12.2575C22.0894 11.999 21.1978 12.6468 21.1698 13.5693C21.1523 14.149 20.7819 14.6589 20.236 14.8547C19.3672 15.1664 19.0266 16.2144 19.5463 16.9772C19.8728 17.4565 19.8728 18.0868 19.5463 18.5661C19.0266 19.3288 19.3672 20.3769 20.236 20.6886C20.7819 20.8843 21.1523 21.3943 21.1698 21.974C21.1959 22.8337 21.972 23.4548 22.7947 23.3261C22.8548 23.3167 22.9151 23.3034 22.9754 23.2857C23.5321 23.1233 24.1316 23.3181 24.4865 23.7767C25.0513 24.5067 26.1533 24.5067 26.7182 23.7767C27.0731 23.3181 27.6726 23.1233 28.2293 23.2857C28.2896 23.3034 28.3499 23.3167 28.4099 23.3261C29.2327 23.4548 30.0088 22.8337 30.0348 21.974C30.0523 21.3943 30.4228 20.8843 30.9687 20.6886C31.8375 20.3769 32.1781 19.3288 31.6584 18.5661Z" stroke="#2C1D43" stroke-miterlimit="10" stroke-linecap="round" stroke-linejoin="round"/>
<path d="M25.6021 14.2996C23.6839 14.2996 22.1289 15.8547 22.1289 17.7729C22.1289 19.6911 23.6839 21.2461 25.6021 21.2461C27.5203 21.2461 29.0754 19.6911 29.0754 17.7729C29.0754 15.8547 27.5203 14.2996 25.6021 14.2996Z" stroke="#2C1D43" stroke-miterlimit="10" stroke-linecap="round" stroke-linejoin="round"/>
<path d="M7.00932 1.0649V5.68619C7.00932 6.32231 6.49367 6.83789 5.85768 6.83789H1.23633" stroke="#2C1D43" stroke-miterlimit="10" stroke-linecap="round" stroke-linejoin="round"/>
</g>
</svg>
