<svg width="29" height="33" viewBox="0 0 29 33" fill="none" xmlns="http://www.w3.org/2000/svg">
<path d="M6.65916 7.3066H18.5396C18.6828 7.3066 18.8202 7.24971 18.9215 7.14844C19.0228 7.04716 19.0796 6.90981 19.0796 6.76658C19.0796 6.62336 19.0228 6.486 18.9215 6.38473C18.8202 6.28346 18.6828 6.22656 18.5396 6.22656H6.65916C6.51594 6.22656 6.37858 6.28346 6.27731 6.38473C6.17604 6.486 6.11914 6.62336 6.11914 6.76658C6.11914 6.90981 6.17604 7.04716 6.27731 7.14844C6.37858 7.24971 6.51594 7.3066 6.65916 7.3066Z" fill="#2C1D43"/>
<path d="M6.65916 10.5468H18.5396C18.6828 10.5468 18.8202 10.4899 18.9215 10.3887C19.0228 10.2874 19.0796 10.15 19.0796 10.0068C19.0796 9.8636 19.0228 9.72624 18.9215 9.62496C18.8202 9.52369 18.6828 9.4668 18.5396 9.4668H6.65916C6.51594 9.4668 6.37858 9.52369 6.27731 9.62496C6.17604 9.72624 6.11914 9.8636 6.11914 10.0068C6.11914 10.15 6.17604 10.2874 6.27731 10.3887C6.37858 10.4899 6.51594 10.5468 6.65916 10.5468Z" fill="#2C1D43"/>
<path d="M6.65916 13.7871H18.5396C18.6828 13.7871 18.8202 13.7302 18.9215 13.6289C19.0228 13.5276 19.0796 13.3903 19.0796 13.2471C19.0796 13.1038 19.0228 12.9665 18.9215 12.8652C18.8202 12.7639 18.6828 12.707 18.5396 12.707H6.65916C6.51594 12.707 6.37858 12.7639 6.27731 12.8652C6.17604 12.9665 6.11914 13.1038 6.11914 13.2471C6.11914 13.3903 6.17604 13.5276 6.27731 13.6289C6.37858 13.7302 6.51594 13.7871 6.65916 13.7871Z" fill="#2C1D43"/>
<path d="M6.65916 17.0273H18.5396C18.6828 17.0273 18.8202 16.9704 18.9215 16.8691C19.0228 16.7679 19.0796 16.6305 19.0796 16.4873C19.0796 16.3441 19.0228 16.2067 18.9215 16.1054C18.8202 16.0042 18.6828 15.9473 18.5396 15.9473H6.65916C6.51594 15.9473 6.37858 16.0042 6.27731 16.1054C6.17604 16.2067 6.11914 16.3441 6.11914 16.4873C6.11914 16.6305 6.17604 16.7679 6.27731 16.8691C6.37858 16.9704 6.51594 17.0273 6.65916 17.0273Z" fill="#2C1D43"/>
<path d="M6.65916 20.2675H10.9793C11.1226 20.2675 11.2599 20.2106 11.3612 20.1094C11.4625 20.0081 11.5194 19.8707 11.5194 19.7275C11.5194 19.5843 11.4625 19.4469 11.3612 19.3457C11.2599 19.2444 11.1226 19.1875 10.9793 19.1875H6.65916C6.51594 19.1875 6.37858 19.2444 6.27731 19.3457C6.17604 19.4469 6.11914 19.5843 6.11914 19.7275C6.11914 19.8707 6.17604 20.0081 6.27731 20.1094C6.37858 20.2106 6.51594 20.2675 6.65916 20.2675Z" fill="#2C1D43"/>
<path d="M27.9985 13.0461C27.6277 12.8293 27.1861 12.7685 26.7705 12.8769C26.3549 12.9854 25.9992 13.2543 25.7817 13.6247L24.4795 15.8465V2.44719C24.4795 2.30397 24.4226 2.16661 24.3213 2.06534C24.2201 1.96407 24.0827 1.90717 23.9395 1.90717H19.843C19.843 1.90717 18.2204 0.254708 18.1555 0.31033C18.1048 0.294955 18.0522 0.28713 17.9992 0.287109H2.33864C2.19542 0.287109 2.05806 0.344004 1.95679 0.445278C1.85551 0.546551 1.79862 0.683908 1.79862 0.82713V2.51557C1.33476 2.63515 0.923798 2.90552 0.630381 3.28417C0.336964 3.66281 0.177734 4.12825 0.177734 4.60728C0.177734 5.0863 0.336964 5.55174 0.630381 5.93039C0.923798 6.30903 1.33476 6.57941 1.79862 6.69898V7.91578C1.33476 8.03536 0.923798 8.30573 0.630381 8.68438C0.336964 9.06302 0.177734 9.52846 0.177734 10.0075C0.177734 10.4865 0.336964 10.952 0.630381 11.3306C0.923798 11.7092 1.33476 11.9796 1.79862 12.0992V13.316C1.33476 13.4356 0.923798 13.7059 0.630381 14.0846C0.336964 14.4632 0.177734 14.9287 0.177734 15.4077C0.177734 15.8867 0.336964 16.3522 0.630381 16.7308C0.923798 17.1095 1.33476 17.3798 1.79862 17.4994V18.1762C1.33476 18.2958 0.923798 18.5661 0.630381 18.9448C0.336964 19.3234 0.177734 19.7889 0.177734 20.2679C0.177734 20.7469 0.336964 21.2124 0.630381 21.591C0.923798 21.9696 1.33476 22.24 1.79862 22.3596V25.6681C1.79862 25.8113 1.85551 25.9487 1.95679 26.05C2.05806 26.1512 2.19542 26.2081 2.33864 26.2081H2.87866V27.8282C2.87866 27.9714 2.93555 28.1088 3.03683 28.21C3.1381 28.3113 3.27546 28.3682 3.41868 28.3682H17.1414L16.7714 28.9996C16.7382 29.0563 16.7158 29.1185 16.7052 29.1833C16.7046 29.1864 16.7037 29.189 16.7033 29.1922L16.7019 29.2011V29.2031L16.2699 32.0679C16.2538 32.1746 16.2701 32.2837 16.3166 32.3811C16.3631 32.4785 16.4377 32.5597 16.5309 32.6143C16.624 32.6688 16.7313 32.6943 16.839 32.6872C16.9467 32.6802 17.0498 32.6411 17.1351 32.5749L19.4321 30.7915C19.5792 30.6773 19.6511 30.6073 19.6397 30.5135L20.8969 28.3682H23.9395C24.0827 28.3682 24.2201 28.3113 24.3213 28.21C24.4226 28.1088 24.4795 27.9714 24.4795 27.8282V22.255L28.5769 15.2629C28.7937 14.8921 28.8545 14.4505 28.7461 14.0349C28.6377 13.6194 28.3688 13.2637 27.9985 13.0461ZM27.043 13.9213C27.1464 13.8943 27.2554 13.8986 27.3563 13.9336C27.4572 13.9686 27.5455 14.0327 27.61 14.1179C27.6744 14.203 27.7122 14.3054 27.7185 14.412C27.7248 14.5186 27.6993 14.6247 27.6453 14.7169L27.3723 15.1826L26.4407 14.6365L26.7138 14.1708C26.7495 14.1095 26.7969 14.0559 26.8535 14.0131C26.91 13.9702 26.9744 13.939 27.043 13.9213ZM18.908 29.6259L17.9764 29.0798L25.0753 16.9663L26.0068 17.5124L18.908 29.6259ZM18.5393 2.13088L20.4757 4.06726H18.5393V2.13088ZM25.6214 16.0344L25.8944 15.5686L26.8262 16.1147L26.5532 16.5805L25.6214 16.0344ZM23.3995 2.98721V17.5678C23.3995 17.6028 23.4029 17.6378 23.4097 17.6721L22.3194 19.5326V4.60728C22.3195 4.53647 22.3056 4.46635 22.2785 4.40091C22.2515 4.33548 22.2118 4.27603 22.1617 4.22596L22.1613 4.22542L20.9231 2.98721H23.3995ZM2.87866 1.36715H17.4592V4.60728C17.4592 4.7505 17.5161 4.88786 17.6174 4.98913C17.7187 5.0904 17.856 5.1473 17.9992 5.1473H21.2394V21.3756L19.0403 25.1281H2.87866V22.3597C3.25252 22.2634 3.59371 22.0686 3.86668 21.7956C4.13964 21.5226 4.33438 21.1814 4.43061 20.8075C4.46631 20.6688 4.44543 20.5215 4.37256 20.3982C4.2997 20.2748 4.18081 20.1855 4.04207 20.1498C3.97337 20.1321 3.90186 20.1281 3.83162 20.1381C3.76139 20.148 3.6938 20.1717 3.63272 20.2078C3.50937 20.2807 3.42002 20.3996 3.38432 20.5383C3.34854 20.6772 3.28538 20.8075 3.19854 20.9216C3.11171 21.0357 3.00295 21.1313 2.87866 21.2028V17.4995C3.25252 17.4032 3.59371 17.2084 3.86668 16.9354C4.13964 16.6624 4.33438 16.3212 4.43061 15.9473C4.46631 15.8086 4.44543 15.6613 4.37256 15.538C4.2997 15.4146 4.18081 15.3253 4.04207 15.2896C3.90332 15.2539 3.75608 15.2748 3.63272 15.3476C3.50937 15.4205 3.42002 15.5394 3.38432 15.6781C3.34854 15.817 3.28538 15.9473 3.19854 16.0614C3.11171 16.1755 3.00295 16.2711 2.87866 16.3426V12.0993C3.25252 12.003 3.59371 11.8082 3.86668 11.5352C4.13964 11.2622 4.33438 10.921 4.43061 10.5471C4.46631 10.4084 4.44543 10.2611 4.37256 10.1378C4.2997 10.0144 4.18081 9.92506 4.04207 9.88936C3.90332 9.85366 3.75608 9.87454 3.63272 9.94741C3.50937 10.0203 3.42002 10.1392 3.38432 10.2779C3.34854 10.4168 3.28538 10.5471 3.19854 10.6612C3.11171 10.7753 3.00295 10.8709 2.87866 10.9424V6.69905C3.25252 6.60277 3.59371 6.40798 3.86668 6.13498C4.13964 5.86198 4.33438 5.52076 4.43061 5.14689C4.46631 5.00815 4.44543 4.8609 4.37256 4.73755C4.2997 4.6142 4.18081 4.52485 4.04207 4.48915C3.90332 4.45345 3.75608 4.47433 3.63272 4.5472C3.50937 4.62006 3.42002 4.73895 3.38432 4.87769C3.34854 5.01655 3.28538 5.14686 3.19854 5.26097C3.11171 5.37508 3.00295 5.47069 2.87866 5.54219V1.36715ZM1.2586 4.60728C1.25885 4.41794 1.30887 4.23199 1.40366 4.06808C1.49844 3.90416 1.63464 3.76805 1.79862 3.67338V5.54118C1.63464 5.44651 1.49844 5.31039 1.40366 5.14648C1.30887 4.98257 1.25885 4.79662 1.2586 4.60728ZM1.2586 10.0075C1.25885 9.81815 1.30887 9.6322 1.40366 9.46829C1.49844 9.30437 1.63464 9.16826 1.79862 9.07359V10.9414C1.63464 10.8467 1.49844 10.7106 1.40366 10.5467C1.30887 10.3828 1.25885 10.1968 1.2586 10.0075ZM1.2586 15.4077C1.25885 15.2184 1.30887 15.0324 1.40366 14.8685C1.49844 14.7046 1.63464 14.5685 1.79862 14.4738V16.3416C1.63464 16.2469 1.49844 16.1108 1.40366 15.9469C1.30887 15.783 1.25885 15.597 1.2586 15.4077ZM1.2586 20.2679C1.25885 20.0785 1.30887 19.8926 1.40366 19.7287C1.49844 19.5648 1.63464 19.4287 1.79862 19.334V21.2018C1.63464 21.1071 1.49844 20.971 1.40366 20.8071C1.30887 20.6432 1.25885 20.4572 1.2586 20.2679ZM3.9587 27.2882V26.2081H18.4073L17.7743 27.2882H3.9587ZM17.6524 30.1419L18.1397 30.4275L17.5389 30.8938L17.6524 30.1419ZM23.3995 27.2882H21.5296L23.3995 24.0979V27.2882Z" fill="#2C1D43"/>
</svg>
