<svg width="11" height="13" viewBox="0 0 11 13" fill="none" xmlns="http://www.w3.org/2000/svg">
<path d="M10.1715 0H1.60469C0.719875 0 0 0.719875 0 1.60469V11.3953C0 12.2802 0.719875 13 1.60466 13H10.1715C10.3818 13 10.5523 12.8295 10.5523 12.6191V10.1715V0.380859C10.5523 0.170523 10.3819 0 10.1715 0ZM0.761744 1.60469C0.761744 1.13989 1.13994 0.761719 1.60469 0.761719H9.79062V9.79065H1.60469C1.29563 9.79065 1.00692 9.87871 0.761744 10.0307V1.60469ZM1.60471 12.2383C1.13989 12.2383 0.761744 11.8601 0.761744 11.3953C0.761744 10.9305 1.13989 10.5524 1.60469 10.5524H9.79062V12.2383H1.60471Z" fill="#fff"/>
<path d="M7.72346 2.44727H2.82812C2.61781 2.44727 2.44727 2.61779 2.44727 2.82812C2.44727 3.03846 2.61781 3.20898 2.82812 3.20898H7.72346C7.93382 3.20898 8.10432 3.03846 8.10432 2.82812C8.10432 2.61779 7.9338 2.44727 7.72346 2.44727Z" fill="#fff"/>
</svg>
