<svg width="11" height="14" viewBox="0 0 11 14" fill="none" xmlns="http://www.w3.org/2000/svg">
<path d="M5.56055 6.5957C6.4043 6.58008 7.11523 6.29102 7.69336 5.72852C8.25586 5.15039 8.54492 4.43945 8.56055 3.5957C8.54492 2.75195 8.25586 2.04102 7.69336 1.46289C7.11523 0.900391 6.4043 0.611328 5.56055 0.595703C4.7168 0.611328 4.00586 0.900391 3.42773 1.46289C2.86523 2.04102 2.57617 2.75195 2.56055 3.5957C2.57617 4.43945 2.86523 5.15039 3.42773 5.72852C4.00586 6.29102 4.7168 6.58008 5.56055 6.5957ZM5.56055 1.3457C6.20117 1.36133 6.73242 1.58008 7.1543 2.00195C7.57617 2.42383 7.79492 2.95508 7.81055 3.5957C7.79492 4.23633 7.57617 4.76758 7.1543 5.18945C6.73242 5.61133 6.20117 5.83008 5.56055 5.8457C4.91992 5.83008 4.38867 5.61133 3.9668 5.18945C3.54492 4.76758 3.32617 4.23633 3.31055 3.5957C3.32617 2.95508 3.54492 2.42383 3.9668 2.00195C4.38867 1.58008 4.91992 1.36133 5.56055 1.3457ZM6.75586 7.7207H4.36523C3.22461 7.75195 2.27148 8.15039 1.50586 8.91602C0.740234 9.68164 0.341797 10.6348 0.310547 11.7754C0.310547 12.0098 0.388672 12.2051 0.544922 12.3613C0.701172 12.5176 0.896484 12.5957 1.13086 12.5957H9.99023C10.2246 12.5957 10.4199 12.5176 10.5762 12.3613C10.7324 12.2051 10.8105 12.0098 10.8105 11.7754C10.7793 10.6348 10.3809 9.68164 9.61523 8.91602C8.84961 8.15039 7.89648 7.75195 6.75586 7.7207ZM9.99023 11.8457H1.13086C1.08398 11.8457 1.06055 11.8223 1.06055 11.7754C1.0918 10.8379 1.41211 10.0566 2.02148 9.43164C2.64648 8.82227 3.42773 8.50195 4.36523 8.4707H6.75586C7.69336 8.50195 8.47461 8.82227 9.09961 9.43164C9.70898 10.0566 10.0293 10.8379 10.0605 11.7754C10.0605 11.8223 10.0371 11.8457 9.99023 11.8457Z" fill="#4D5765"/>
</svg>
