<svg width="15" height="15" viewBox="0 0 15 15" fill="none" xmlns="http://www.w3.org/2000/svg">
<path d="M13.7901 14.1211H12.6307V0.439453C12.6307 0.196758 12.434 0 12.1913 0H2.13004C1.88734 0 1.69059 0.196758 1.69059 0.439453V14.1211H0.53125C0.288555 14.1211 0.0917969 14.3179 0.0917969 14.5605C0.0917969 14.8032 0.288555 15 0.53125 15H13.7901C14.0328 15 14.2296 14.8032 14.2296 14.5605C14.2296 14.3179 14.0328 14.1211 13.7901 14.1211ZM5.66269 14.1211V11.1252H8.65861V14.1211H5.66269ZM9.53752 14.1211V10.6857C9.53752 10.443 9.34076 10.2463 9.09807 10.2463H5.22323C4.98054 10.2463 4.78378 10.443 4.78378 10.6857V14.1211H2.56949V0.878906H11.7518V14.1211H9.53752Z" fill="#9237E3"/>
<path d="M6.21605 1.94336H4.0625C3.8198 1.94336 3.62305 2.14012 3.62305 2.38281V4.53637C3.62305 4.77906 3.8198 4.97582 4.0625 4.97582H6.21605C6.45875 4.97582 6.65551 4.77906 6.65551 4.53637V2.38281C6.65551 2.14012 6.45875 1.94336 6.21605 1.94336ZM5.7766 4.09691H4.50195V2.82227H5.7766V4.09691Z" fill="#9237E3"/>
<path d="M10.259 1.94336H8.10547C7.86277 1.94336 7.66602 2.14012 7.66602 2.38281V4.53637C7.66602 4.77906 7.86277 4.97582 8.10547 4.97582H10.259C10.5017 4.97582 10.6985 4.77906 10.6985 4.53637V2.38281C10.6985 2.14012 10.5017 1.94336 10.259 1.94336ZM9.81957 4.09691H8.54492V2.82227H9.81957V4.09691Z" fill="#9237E3"/>
<path d="M6.21605 6.0332H4.0625C3.8198 6.0332 3.62305 6.22996 3.62305 6.47266V8.62621C3.62305 8.86891 3.8198 9.06566 4.0625 9.06566H6.21605C6.45875 9.06566 6.65551 8.86891 6.65551 8.62621V6.47266C6.65551 6.22996 6.45875 6.0332 6.21605 6.0332ZM5.7766 8.18676H4.50195V6.91211H5.7766V8.18676Z" fill="#9237E3"/>
<path d="M10.259 6.0332H8.10547C7.86277 6.0332 7.66602 6.22996 7.66602 6.47266V8.62621C7.66602 8.86891 7.86277 9.06566 8.10547 9.06566H10.259C10.5017 9.06566 10.6985 8.86891 10.6985 8.62621V6.47266C10.6985 6.22996 10.5017 6.0332 10.259 6.0332ZM9.81957 8.18676H8.54492V6.91211H9.81957V8.18676Z" fill="#9237E3"/>
</svg>
