<svg width="30" height="36" viewBox="0 0 30 36" fill="none" xmlns="http://www.w3.org/2000/svg">
<path d="M14.4965 8.92302C14.1234 6.88809 15.0849 4.79391 16.2428 3.3826C17.519 1.82541 19.7089 0.631233 21.5804 0.5C21.8966 2.63349 21.0265 4.71219 19.8813 6.18254C18.6527 7.76213 16.5404 8.98706 14.4965 8.92302ZM25.474 16.2967C26.0531 14.6798 27.2003 13.2251 28.9801 12.2436C27.1816 9.99754 24.6564 8.69357 22.2734 8.69357C19.1206 8.69357 17.7875 10.1968 15.5976 10.1968C13.3418 10.1968 11.6303 8.69357 8.8994 8.69357C6.22144 8.69357 3.37086 10.327 1.56301 13.1167C0.898292 14.1478 0.448006 15.4288 0.202433 16.8557C-0.478984 20.8584 0.538899 26.0719 3.57523 30.7012C5.05154 32.9475 7.01934 35.4777 9.59006 35.4997C11.8801 35.5221 12.5297 34.0345 15.6299 34.0192C18.7346 34.0015 19.323 35.5152 21.6099 35.4933C24.1813 35.4716 26.2575 32.6715 27.7339 30.4254C28.7851 28.8136 29.1826 27.9995 30 26.1773C25.8437 24.6087 24.1342 20.0254 25.474 16.2967Z" fill="black"/>
</svg>
