<svg width="424" height="357" viewBox="0 0 424 357" fill="none" xmlns="http://www.w3.org/2000/svg">
<mask id="mask0_495_3725" style="mask-type:luminance" maskUnits="userSpaceOnUse" x="0" y="0" width="424" height="357">
<rect width="423.108" height="356.648" fill="white"/>
</mask>
<g mask="url(#mask0_495_3725)">
<circle cx="215.941" cy="178.324" r="178.324" fill="white" fill-opacity="0.43"/>
<rect x="205.561" y="100.581" width="109.347" height="169.327" fill="white"/>
<path d="M183.645 203.931H295.761" stroke="black"/>
<path d="M183.645 215.004H295.761" stroke="black"/>
<path d="M183.645 226.077H295.761" stroke="black"/>
<path d="M183.645 237.15H295.761" stroke="black"/>
<ellipse cx="260.235" cy="149.949" rx="28.606" ry="28.606" fill="#F2F2F2"/>
<rect opacity="0.7" x="295.762" y="160.792" width="45.215" height="41.986" fill="#98B9F2"/>
<path d="M307.5 181.95L313.779 179.49V180.457L308.644 182.396L313.779 184.34V185.307L307.5 182.842V181.95ZM319.338 177.315H320.154L317.651 185.205H316.835L319.338 177.315ZM329.387 182.853L323.108 185.307V184.34L328.238 182.396L323.108 180.457V179.49L329.387 181.95V182.853Z" fill="white"/>
<rect x="16.625" y="17.302" width="244.071" height="160.561" stroke="black"/>
<path d="M16.625 25.8379H260.696" stroke="black"/>
<rect x="34.3887" y="40.1399" width="73.36" height="73.36" stroke="black"/>
<path d="M121.82 46.6001H233.936" stroke="black"/>
<path d="M121.82 57.6731H233.936" stroke="black"/>
<path d="M121.82 68.7461H233.936" stroke="black"/>
<path d="M121.82 79.8191H233.936" stroke="black"/>
<path opacity="0.44" fill-rule="evenodd" clip-rule="evenodd" d="M71.0678 59.5181L51.0898 94.1181H91.0458L71.0678 59.5181Z" fill="#918EF4"/>
<ellipse cx="21.9315" cy="21.6849" rx="2.076" ry="2.076" fill="#AB8DE5"/>
<circle cx="29.0819" cy="21.6849" r="2.076" fill="#73E5E2"/>
<circle cx="36.2323" cy="21.6849" r="2.076" fill="#50B89D"/>
<path fill-rule="evenodd" clip-rule="evenodd" d="M124.126 148.219L131.047 142.106H123.988L124.126 148.219Z" fill="#AB8DE5"/>
<path fill-rule="evenodd" clip-rule="evenodd" d="M117.205 131.032C117.205 127.783 118.354 125.01 120.651 122.713C122.948 120.416 125.721 119.267 128.97 119.267H158.96C162.209 119.267 164.982 120.416 167.279 122.713C169.576 125.01 170.725 127.783 170.725 131.032C170.725 134.281 169.576 137.054 167.279 139.351C164.982 141.648 162.209 142.797 158.96 142.797H128.97C125.721 142.797 122.948 141.648 120.651 139.351C118.354 137.054 117.205 134.281 117.205 131.032Z" fill="#AB8DE5"/>
<circle cx="136.814" cy="131.032" r="2.076" fill="white"/>
<ellipse cx="143.967" cy="131.032" rx="2.076" ry="2.076" fill="white"/>
<ellipse cx="151.117" cy="131.032" rx="2.076" ry="2.076" fill="white"/>
<path fill-rule="evenodd" clip-rule="evenodd" d="M343.282 79.011L336.361 72.8979H343.42L343.282 79.011Z" fill="#98B9F2"/>
<path fill-rule="evenodd" clip-rule="evenodd" d="M350.204 61.8251C350.204 65.0739 349.055 67.8469 346.758 70.1442C344.46 72.4414 341.687 73.5901 338.439 73.5901H308.449C305.2 73.5901 302.427 72.4414 300.129 70.1442C297.832 67.8469 296.684 65.0739 296.684 61.8251C296.684 58.5762 297.832 55.8032 300.129 53.5059C302.427 51.2087 305.2 50.0601 308.449 50.0601L338.439 50.0601C341.687 50.0601 344.46 51.2087 346.758 53.506C349.055 55.8032 350.204 58.5762 350.204 61.8251Z" fill="#98B9F2"/>
<ellipse cx="330.596" cy="61.825" rx="2.076" ry="2.076" fill="white"/>
<ellipse cx="323.443" cy="61.825" rx="2.076" ry="2.076" fill="white"/>
<ellipse cx="316.293" cy="61.825" rx="2.076" ry="2.076" fill="white"/>
<ellipse cx="339.592" cy="19.609" rx="2.076" ry="2.076" fill="#918EF4"/>
<ellipse cx="343.974" cy="28.1441" rx="2.076" ry="2.076" fill="#918EF4"/>
<ellipse cx="296.222" cy="112.347" rx="3.23" ry="3.23" fill="#918EF4"/>
<ellipse cx="315.138" cy="123.42" rx="3.23" ry="3.23" fill="#918EF4"/>
<ellipse cx="24.4683" cy="127.111" rx="3.23" ry="3.23" fill="#F98B67"/>
<path fill-rule="evenodd" clip-rule="evenodd" d="M303.695 274.638V274.177L302.588 272.793L300.027 269.683L297.305 266.389C297.305 266.389 294.684 264.576 294.011 264.262C291.608 263.019 288.956 262.336 286.251 262.262C284.475 262.262 277.835 262.53 277.822 263.646C277.822 265.302 287.122 271.573 293.938 274.618C296.931 274.638 303.695 274.638 303.695 274.638Z" fill="url(#paint0_linear_495_3725)"/>
<path fill-rule="evenodd" clip-rule="evenodd" d="M302.29 274.638C292.827 267.357 273.509 227.646 278.464 212.928C289.011 218.303 300.583 236.837 306.041 252.487C306.334 253.506 306.57 254.541 306.747 255.587L308.962 265.737L309.497 274.656L302.29 274.638Z" fill="url(#paint1_linear_495_3725)"/>
<path fill-rule="evenodd" clip-rule="evenodd" d="M308.75 274.638C305.557 272.045 304.538 264.368 304.51 261.503C304.459 256.156 305.28 252.215 309.853 246.333C314.426 240.451 313.207 230.692 319.279 224.108C325.351 217.524 329.374 215.688 336.579 215.688C343.784 215.688 346.079 227.37 346.037 230.309C345.954 242.166 338.484 243.846 333.926 249.502C330.618 253.608 330.36 256.967 329.358 258.887C323.988 269.231 319.623 273.121 316.393 274.639" fill="url(#paint2_linear_495_3725)"/>
<path d="M310.512 273.779C310.604 253.557 331.912 223.179 336.469 218.63" stroke="white" stroke-width="0.4" stroke-linecap="round" stroke-linejoin="round"/>
<path d="M311.659 264.589C309.301 262.019 307.159 254.734 307.479 252.842" stroke="white" stroke-width="0.4" stroke-linecap="round" stroke-linejoin="round"/>
<path d="M305.621 272.893C302.28 266.973 286.431 238.109 280.521 216.849" stroke="white" stroke-width="0.4" stroke-linecap="round" stroke-linejoin="round"/>
<path fill-rule="evenodd" clip-rule="evenodd" d="M316.411 274.637H326.34L318.04 305.55H295.829L287.658 274.637H316.411" fill="#B37361"/>
<path d="M281.07 264.27C285.91 264.602 292 264.824 296.296 267.753" stroke="white" stroke-width="0.4" stroke-linecap="round" stroke-linejoin="round"/>
<path fill-rule="evenodd" clip-rule="evenodd" d="M357.792 148.104C356.625 153.673 348.145 222.751 350.917 239.25C353.689 255.749 398.901 290.32 400.88 290.925C403.187 289.232 406.58 283.681 406.58 283.681C406.58 283.681 373.43 245.253 372.798 243.712C372.166 242.171 380.06 153.18 380.06 153.18L357.792 148.104Z" fill="#38294E"/>
<path fill-rule="evenodd" clip-rule="evenodd" d="M411.779 160.676L377.955 298.634H366.564L378.108 154.715L411.779 160.676Z" fill="#2C1D43"/>
<path fill-rule="evenodd" clip-rule="evenodd" d="M387.758 81.688C392.427 81.688 416.784 82.477 421.185 91.049C425.586 99.621 421.439 139.249 418.703 140.781C417.227 141.607 416.825 140.804 416.396 142.481C415.967 144.158 411.782 160.673 411.782 160.673C409.124 160.747 370.382 154.91 357.8 148.087C357.874 146.187 358.483 141.259 358.483 140.88C356.813 141.563 354.792 141.706 354.238 140.88C349.329 133.447 356.646 94.696 361.897 86.898C364.128 83.557 380.258 81.711 387.758 81.688Z" fill="url(#paint3_linear_495_3725)"/>
<path fill-rule="evenodd" clip-rule="evenodd" d="M403.793 141.852C404.937 141.852 414.788 148.773 413.943 152.173C414.635 149.442 416.813 141.003 416.813 141.003C415.877 141.183 404.633 141.866 403.793 141.852Z" fill="#1F161E"/>
<path fill-rule="evenodd" clip-rule="evenodd" d="M393.786 86.21C393.786 87.71 381.924 87.71 381.924 86.21V70.984H393.786V86.21Z" fill="#F8CDBA"/>
<path fill-rule="evenodd" clip-rule="evenodd" d="M386.98 74.587C387.903 74.587 393.785 77.187 393.785 78.638V70.984C392.318 70.984 386.98 74.587 386.98 74.587Z" fill="#1F161E"/>
<circle cx="385.357" cy="64.16" r="11.539" fill="#F8CDBA"/>
<path fill-rule="evenodd" clip-rule="evenodd" d="M381.453 47.292C375.529 47.292 371.838 51.011 371.838 55.777C371.838 59.74 372.798 61.983 373.928 62.55C374.643 58.702 376.198 56.921 377.485 56.155C378.485 56.921 380.198 58.776 382.485 59.348C384.772 59.92 390.73 59.809 395.542 63.307C397.115 61.877 398.684 60.017 398.684 57.826C398.684 55.635 397.715 52.885 392.017 51.297C388.254 50.249 387.728 47.292 381.453 47.292Z" fill="#1F161E"/>
<ellipse cx="374.576" cy="66.536" rx="2.021" ry="1.052" fill="#FA9E9F"/>
<ellipse cx="387.287" cy="66.536" rx="2.021" ry="1.052" fill="#FA9E9F"/>
<path d="M379.512 64.354C379.134 64.894 377.205 67.159 379.24 68.073" stroke="#1F161E" stroke-linecap="round"/>
<path d="M383.312 70.716C384.148 70.5105 384.876 69.9982 385.352 69.281" stroke="#1F161E" stroke-linecap="round"/>
<circle cx="396.024" cy="65.489" r="2.667" fill="#F8CDBA"/>
<path d="M404.061 104.393C403.853 106.94 403.041 119.526 403.346 121.183C399.475 122.53 364.032 139.338 357.9 141.183" stroke="#1F161E" stroke-linecap="round"/>
<path d="M362.896 100.42C362.079 103.271 359.33 116.213 361.263 122.22" stroke="#1F161E" stroke-linecap="round"/>
<path d="M371.945 135.296C373.791 136.596 391.48 144.422 415.938 141.469" stroke="#1F161E" stroke-linecap="round"/>
<path fill-rule="evenodd" clip-rule="evenodd" d="M370.254 122.225C371.439 122.414 367.572 119.325 365.382 120.476C363.191 121.627 360.238 126.825 360.842 128.029C361.006 128.472 361.363 128.816 361.811 128.965C362.26 129.114 362.752 129.051 363.149 128.795C363.742 128.412 368.185 121.892 370.254 122.225Z" fill="#F8CDBA"/>
<path fill-rule="evenodd" clip-rule="evenodd" d="M406.202 284.248C406.834 284.709 412.44 288.502 412.486 290.892C412.532 293.282 407.263 301.204 406.202 301.43C405.141 301.656 404.384 300.761 404.384 299.16C404.384 297.559 406.384 294.754 406.119 293.508C405.854 292.262 403.263 289.983 401.934 289.942" fill="#EBEBEB" fill-opacity="0.25098"/>
<path fill-rule="evenodd" clip-rule="evenodd" d="M376.873 298.634C376.873 299.734 377.51 306.625 376.236 307.266C374.962 307.907 360.909 308.286 360.272 307.649C359.635 307.012 359.248 305.67 359.811 305.287C360.374 304.904 365.811 303.815 366.547 303.308C367.633 302.007 368.133 300.316 367.931 298.634" fill="#EBEBEB" fill-opacity="0.25098"/>
<rect x="12.002" y="247.457" width="89.222" height="45.257" fill="#B37361"/>
<path fill-rule="evenodd" clip-rule="evenodd" d="M145.18 226.247C145.568 228.554 152.147 281.294 153.213 282.166C154.279 283.038 165.596 284.971 166.565 283.522C166.759 281.215 167.026 244.434 167.626 241.144" fill="#38294E"/>
<path fill-rule="evenodd" clip-rule="evenodd" d="M17.8845 215.243C13.3215 212.996 22.8355 257.538 47.8745 257.538C72.9135 257.538 115.06 219.396 121.884 219.396C136.948 219.396 172.608 248.971 175.404 248.971C177.545 246.83 181.826 243.084 181.826 241.589C181.826 240.094 147.684 183.916 122.137 183.916C112.232 183.929 28.1875 220.332 17.8845 215.243Z" fill="#2C1D43"/>
<path fill-rule="evenodd" clip-rule="evenodd" d="M31.9747 216.002C36.9807 214.867 43.2097 211.928 48.7227 208.924C33.7227 213.824 21.4317 216.998 17.8837 215.245C15.4657 214.055 16.9977 225.977 22.6837 237.461C21.6527 235.239 20.1857 218.694 31.9747 216.002Z" fill="#1F161E"/>
<path fill-rule="evenodd" clip-rule="evenodd" d="M43.0106 137.86C46.9556 137.966 67.4916 137.36 73.1206 142.723C77.2956 146.7 90.2796 180.902 92.2816 192.912C83.5616 197.346 20.6616 227.46 1.20058 214.219C0.771584 203.93 2.76958 163.029 15.5006 141.579C20.1546 138.478 39.2186 137.763 43.0106 137.86Z" fill="white"/>
<path fill-rule="evenodd" clip-rule="evenodd" d="M51.0117 128.074H39.0117V140.965C39.0117 144.195 51.0117 144.165 51.0117 140.965V128.074Z" fill="#F8CDBA"/>
<path fill-rule="evenodd" clip-rule="evenodd" d="M39.0157 135.857C39.0157 134.427 42.9787 130.833 45.4287 130.957C45.4887 129.365 39.8287 127.077 39.8287 127.077L39.0117 129.277L39.0157 135.857Z" fill="#1F161E"/>
<path fill-rule="evenodd" clip-rule="evenodd" d="M63.5738 128.074C63.8433 126.825 63.9794 125.551 63.9798 124.274C63.9798 114.76 56.5468 107.046 47.3698 107.046C38.1928 107.046 30.7598 114.76 30.7598 124.274C30.7598 125.547 30.8955 126.821 31.1648 128.069L63.5738 128.074Z" fill="#1F161E"/>
<path fill-rule="evenodd" clip-rule="evenodd" d="M59.1975 116.461C57.1625 116.152 55.1325 114.551 53.7165 113.504C45.6425 119.419 40.4705 119.494 39.9115 119.494C39.3525 119.494 37.0785 122.761 36.0315 123.13L35.9395 123.075C36.7738 127.777 40.195 131.604 44.7751 132.957C49.3551 134.311 54.3066 132.958 57.5629 129.465C60.8191 125.971 61.8203 120.937 60.1485 116.463C59.833 116.502 59.5139 116.502 59.1985 116.463L59.1975 116.461Z" fill="#F8CDBA"/>
<circle cx="38.3746" cy="104.295" r="4.9" fill="#1F161E"/>
<path d="M40.5571 119.234C39.4547 119.283 38.5859 120.191 38.5859 121.294C38.5859 122.397 39.4547 123.305 40.5571 123.354" stroke="#1F161E" stroke-linecap="round"/>
<path d="M56.2617 119.497C56.8617 120.304 58.4207 121.721 56.2617 123.22" stroke="#1F161E" stroke-linecap="round"/>
<path d="M49.7163 124.3C49.6611 125.357 50.2869 126.332 51.2713 126.722" stroke="#1F161E" stroke-linecap="round"/>
<ellipse cx="45.6959" cy="123.456" rx="1.901" ry="0.987" fill="#FA9E9F"/>
<ellipse cx="59.8287" cy="123.456" rx="1.901" ry="0.987" fill="#FA9E9F"/>
<path fill-rule="evenodd" clip-rule="evenodd" d="M72.6875 173.511L85.5095 170.211C86.7415 172.306 92.7395 192.888 92.7395 192.888L72.9475 201.231C73.2045 197.332 73.9835 179.477 72.6875 173.511Z" fill="#F8CDBA"/>
<path d="M27.7303 170.286C27.2922 173.739 26.5983 177.155 25.6543 180.506" stroke="#1F161E" stroke-linecap="round"/>
<path d="M72.6883 173.512C72.3793 171.071 70.5703 157.318 67.4883 150.078" stroke="#1F161E" stroke-linecap="round"/>
<path fill-rule="evenodd" clip-rule="evenodd" d="M72.6875 173.511L85.5095 170.211C86.7415 172.306 92.7395 192.888 92.7395 192.888L72.9475 201.231C73.2045 197.332 73.9835 179.477 72.6875 173.511Z" fill="#F8CDBA"/>
<path fill-rule="evenodd" clip-rule="evenodd" d="M175.787 247.881C176.073 248.342 179.893 253.03 181.245 253.081C182.597 253.132 190.805 247.572 190.445 246.381C190.085 245.19 184.936 245.966 184.05 245.546C182.744 244.723 181.651 243.602 180.862 242.275" fill="#1F161E"/>
<path fill-rule="evenodd" clip-rule="evenodd" d="M155.602 282.656C155.502 283.168 154.984 289.208 155.92 290.186C156.856 291.164 166.62 292.862 167.192 291.75C167.764 290.638 163.501 287.625 163.173 286.712C162.811 285.214 162.811 283.652 163.173 282.154" fill="#1F161E"/>
<path fill-rule="evenodd" clip-rule="evenodd" d="M140.288 194.181H96.8398L107.184 166.77H150.632L140.288 194.181Z" fill="#969696"/>
<rect x="60.6367" y="193.148" width="43.448" height="1.033" fill="#969696"/>
<path fill-rule="evenodd" clip-rule="evenodd" d="M25.6546 180.51C24.8196 183.629 20.7636 197.01 22.4156 199.316C24.0676 201.622 65.4346 196.395 76.5036 192.949C79.3226 192.026 81.4126 189.609 82.6626 189.295C85.9875 188.731 89.2029 190.764 90.1186 194.01C85.7026 196.151 21.8806 228.734 1.20258 214.233C-2.70542 211.433 4.15058 177.29 4.46458 175.569C7.95558 175.989 25.6546 180.51 25.6546 180.51Z" fill="#F8CDBA"/>
<path d="M73.2793 193.78C74.5253 193.48 75.6143 193.194 76.5093 192.917C79.3283 191.994 81.4183 189.577 82.6683 189.263C85.9932 188.699 89.2086 190.732 90.1243 193.978" stroke="#1F161E" stroke-linecap="round"/>
</g>
<defs>
<linearGradient id="paint0_linear_495_3725" x1="277.822" y1="268.45" x2="303.695" y2="268.45" gradientUnits="userSpaceOnUse">
<stop stop-color="#9237E3"/>
<stop offset="1" stop-color="#2C1D43"/>
</linearGradient>
<linearGradient id="paint1_linear_495_3725" x1="277.664" y1="243.792" x2="309.497" y2="243.792" gradientUnits="userSpaceOnUse">
<stop stop-color="#9237E3"/>
<stop offset="1" stop-color="#2C1D43"/>
</linearGradient>
<linearGradient id="paint2_linear_495_3725" x1="304.508" y1="245.163" x2="346.038" y2="245.163" gradientUnits="userSpaceOnUse">
<stop stop-color="#9237E3"/>
<stop offset="1" stop-color="#2C1D43"/>
</linearGradient>
<linearGradient id="paint3_linear_495_3725" x1="352.617" y1="121.181" x2="423.111" y2="121.181" gradientUnits="userSpaceOnUse">
<stop stop-color="#9237E3"/>
<stop offset="1" stop-color="#2C1D43"/>
</linearGradient>
</defs>
</svg>
