<svg width="403" height="420" viewBox="0 0 403 420" fill="none" xmlns="http://www.w3.org/2000/svg">
<path d="M179.264 4.03531C83.781 20.2405 48.1083 68.2773 42.2073 90.2701C17.2516 127.046 4.3705 276.413 22.9341 314.04C41.4977 351.667 71.5402 403.604 154.651 415.888C237.761 428.171 317.667 409.307 372.829 360.333C416.958 321.154 403.069 257.324 390.608 230.307C383.917 226.757 362.121 213.55 328.473 189.126C286.413 158.596 343.568 83.072 340.634 64.2425C337.701 45.4131 298.617 -16.2211 179.264 4.03531Z" fill="#F6F6F6"/>
<path d="M61.1309 366.686H66.892" stroke="#2C1D43" stroke-width="1.3214"/>
<path d="M51.3828 366.686H57.1439" stroke="#2C1D43" stroke-width="1.3214"/>
<path d="M59.1367 358.98V364.704" stroke="#2C1D43" stroke-width="1.3214"/>
<path d="M59.1367 368.67V374.394" stroke="#2C1D43" stroke-width="1.3214"/>
<rect x="1.6607" y="60.3716" width="379.134" height="277.905" rx="12.5533" fill="white" stroke="#B5B5B5" stroke-width="1.3214"/>
<path d="M68.4588 304.178C67.9911 294.576 73.6892 273.075 76.5967 263.524L98.851 267.04L129.378 256.457L174.542 244.824C180.118 246.901 190.098 252.842 191.269 258.326C192.44 263.81 188.177 266.282 185.167 267.04C187.953 274.997 189.677 295.114 190.191 304.178H68.4588Z" fill="#2C1D43" stroke="#2C1D43" stroke-width="1.3214"/>
<path d="M81.2006 210.766C81.3037 195.806 76.8633 181.113 74.6303 175.636C69.1626 179.329 68.2214 187.483 67.9317 193.382C67.7 198.102 71.6336 219.945 73.6294 230.277C66.8037 231.999 54.6967 241.259 49.4964 245.674C41.5645 237.548 23.9203 215.067 16.7994 190.153C7.89829 159.012 21.6753 139.125 52.2362 118.649C76.6849 102.269 117.397 95.2336 134.697 93.7637L148.309 100.47L160.237 95.9522C205.161 97.8379 228.081 144.041 229.472 151.076C230.585 156.705 233.392 156.604 234.657 155.851L239.81 150.356C248.077 142.466 269.72 116.414 279.508 104.374C283.116 107.958 294.955 115.553 300.423 118.902C296.262 129.237 278.337 165.011 268.265 179.66C253.111 200.028 239.984 209.661 232.737 212.452C217.074 218.176 207.426 211.027 204.56 206.738L192.958 189.878V218.254C192.903 230.591 192.826 255.631 192.958 257.098C193.034 257.939 193.005 258.777 192.946 259.441C192.879 260.189 192.61 260.928 192.073 261.453C191.485 262.029 191.516 261.428 191.644 260.934C192.147 255.735 188.872 253.593 186.634 253.31C176.082 250.981 143.002 255.679 124.34 263.371C105.679 271.062 95.9517 272.048 89.0034 271.654C82.0551 271.259 66.2705 266.917 73.6294 252.837C80.9882 238.757 81.2006 215.201 81.2006 210.766Z" fill="#9237E3"/>
<path d="M194.272 8.80566H276.709C280.723 8.80566 283.977 12.0594 283.977 16.0732V41.9561C283.977 45.9699 280.723 49.2246 276.709 49.2246H207.565L207.369 49.5166L197.931 63.5547L198.518 49.9131L198.548 49.2246H194.272C190.259 49.2246 187.005 45.9699 187.005 41.9561V16.0732C187.005 12.0594 190.259 8.80566 194.272 8.80566Z" fill="white" stroke="#2C1D43" stroke-width="1.3214"/>
<path d="M191.751 162.878C207.168 162.878 219.674 175.296 219.674 190.623C219.674 205.95 207.168 218.367 191.751 218.367C176.334 218.367 163.827 205.95 163.827 190.623C163.827 175.296 176.334 162.878 191.751 162.878Z" fill="white" stroke="#2C1D43" stroke-width="1.3214"/>
<path d="M285.561 105.596L282.777 109.209L295.252 117.538C296.413 115.66 299.093 111.113 300.526 107.95C302.277 103.758 305.467 97.6304 306.843 95.0902C313.052 87.4661 323.665 83.4572 327.343 81.6176C332.704 78.2755 333.91 74.6064 331.572 74.0727C327.265 73.0594 316.613 73.6223 308.793 79.2515C302.538 83.7548 300.747 78.3508 300.634 75.0859V67.768C300.974 65.9666 299.954 61.4633 297.347 62.1388C294.741 62.8143 293.834 67.4302 292.701 76.2117C291.568 84.9932 285.561 90.2846 284.995 91.523C284.428 92.7614 282.777 97.7151 285.561 100.53C287.788 102.781 286.489 104.845 285.561 105.596Z" fill="white" stroke="#2C1D43" stroke-width="1.3214"/>
<path d="M76.0815 260.412C64.4378 260.763 57.9001 250.154 53 243.178L51.3828 240.841L68.5837 229.449L73.7292 238.066C78.2867 243.178 81.08 241.864 89.6069 237.19C98.1339 232.516 107.102 241.279 114.747 248.874C122.391 256.469 107.396 257.053 99.016 256.761C90.6361 256.469 89.4599 258.075 86.5196 258.806C84.1674 259.39 78.5807 260.12 76.0815 260.412Z" fill="white" stroke="#2C1D43" stroke-width="1.3214"/>
<path d="M342.126 262.107V247.576L337.081 213.484L314.12 190.364C310.696 188.298 303.37 184.825 301.459 187.452C299.548 190.08 297.187 196.548 296.245 199.454C296.966 201.391 297.797 206.25 295.355 210.192C292.914 214.133 292.447 219.498 292.518 221.688C292.481 222.827 292.429 226.91 292.518 234.132C292.63 243.158 300.371 245.945 303.848 245.164C306.63 244.54 307.212 246.91 307.155 248.173V278.46H342.126V262.107Z" fill="white" stroke="#2C1D43" stroke-width="1.3214"/>
<path d="M119.322 59.7109H14.214C6.9161 59.7109 1 65.627 1 72.9249V325.724C1 333.021 6.91609 338.937 14.214 338.937H191.228" stroke="#B5B5B5" stroke-width="1.98209" stroke-linecap="round"/>
<path d="M126.454 75.1992H34.503C27.2052 75.1992 21.2891 81.1153 21.2891 88.4132V137.213M234.197 305.005H34.503C27.2051 305.005 21.2891 299.089 21.2891 291.791V214.67" stroke="#B5B5B5" stroke-width="1.98209" stroke-linecap="round"/>
<path d="M342.235 75.1992L347.345 75.1992C354.642 75.1992 360.559 81.1153 360.559 88.4132L360.559 147.605" stroke="#B5B5B5" stroke-width="1.98209" stroke-linecap="round"/>
<path d="M214.376 59.7107H368.241C375.539 59.7107 381.455 65.6268 381.455 72.9246V165.868" stroke="#B5B5B5" stroke-width="1.98209" stroke-linecap="round"/>
<path d="M173.785 75.1992H282.679" stroke="#B5B5B5" stroke-width="1.98209" stroke-linecap="round"/>
<rect x="20.6602" y="319.068" width="231.365" height="7.12024" rx="3.56012" fill="#F6F6F6"/>
<path d="M174.931 313.744C179.873 313.744 183.876 317.724 183.876 322.629C183.876 327.534 179.873 331.515 174.931 331.515C169.988 331.515 165.984 327.534 165.984 322.629C165.985 317.724 169.988 313.744 174.931 313.744Z" fill="white" stroke="#2D83CF" stroke-width="0.660698"/>
<path d="M135.546 87.2423C136.191 84.0387 136.661 74.5766 136.815 70.246L135.546 60.1719L153.121 67.38L159.087 85.4803C159.194 86.4948 159.345 89.2926 159.087 92.368C158.764 96.2123 162.634 98.1345 167.632 99.4159C171.631 100.441 170.696 102.833 169.728 103.901C146.833 115.274 130.386 106.624 123.292 102.62C117.616 99.4159 120.927 98.2947 123.292 98.1345C134.095 97.654 134.74 91.2468 135.546 87.2423Z" fill="white" stroke="#2C1D43" stroke-width="1.3214"/>
<path d="M155.04 89.3764C161.513 86.4823 166.995 73.624 168.926 67.5566L170.516 58.9287L152.713 49.8848L141.283 53.1004L133.596 61.9433C134.877 64.1205 137.864 68.897 139.564 70.5852C140.676 73.6138 141.688 78.9257 144.419 83.6486C147.15 88.3715 152.916 90.3812 155.04 89.3764Z" fill="white" stroke="#2C1D43" stroke-width="1.3214"/>
<path d="M145.84 57.4755C144.263 62.9608 142.7 62.0103 142.115 60.8494C141.458 59.2894 139.596 57.1054 137.405 60.8494C135.739 64.3322 138.098 67.5247 139.486 68.6856C141.589 75.564 138.61 74.3813 136.857 72.9302C129.845 66.6177 128.75 57.4755 130.831 55.5163C132.913 53.5572 136.09 49.5303 135.761 47.136C135.433 44.7416 132.584 40.4969 136.857 36.47C141.129 32.443 149.456 32.2253 151.428 33.9667C153.4 35.7081 157.672 40.2792 162.821 39.2997C173.01 37.2318 175.968 41.1499 179.364 47.136C189.334 65.6382 167.313 69.2298 168.08 67.9238C168.847 66.6177 171.695 62.2643 166.218 60.0875C160.74 57.9108 156.686 55.7341 154.386 54.2104C152.085 52.6866 147.812 50.6187 145.84 57.4755Z" fill="#2C1D43"/>
<path d="M183.789 200.576V180.404L203.584 190.541L183.789 200.576Z" fill="#2C1D43"/>
<path d="M131.562 304.986C133.005 300.477 137.721 291.231 145.051 290.32" stroke="white" stroke-width="1.3214"/>
<path d="M299.241 175.153C291.038 186.116 299.513 189.286 304.775 189.501C304.775 192.668 307.085 204.525 308.241 210.058C310.762 204.786 316.599 205.181 317.528 210.058C318.271 213.959 316.727 219.24 315.863 221.393V226.448C315.228 238.214 331.2 250.06 340.716 248.502C348.328 247.255 352.117 239.88 353.06 236.348V244.415C353.209 262.458 359.908 275.916 365.267 286.269C370.627 296.622 374.497 292.185 374.646 290.262C374.795 288.34 376.433 282.572 378.07 277.839C381.494 267.043 389.586 256.566 393.514 250.06C408.624 223.322 401.921 205.511 391.328 190.433C382.854 178.371 367.065 178.384 360.23 179.899L352.484 175.89C350.221 174.194 343.29 170.374 333.674 168.659C321.653 166.516 305.963 167.063 299.241 175.153Z" fill="#2C1D43" stroke="#2C1D43" stroke-width="1.3214"/>
<path d="M360.138 179.813C351.641 182.15 349.975 193.15 350.205 198.359C341.883 190.336 343.543 179.813 350.75 176.798C356.515 174.386 359.411 177.803 360.138 179.813Z" fill="white" stroke="#2C1D43" stroke-width="1.3214"/>
<path d="M289.596 207.926C289.032 212.404 290.606 214.178 292.102 214.764C292.781 215.03 293.398 214.414 293.581 213.707C293.786 212.917 294.164 211.968 294.752 210.872C295.452 209.565 296.714 207.078 297.015 205.813C297.128 203.789 296.487 201.045 296.152 199.926C293.622 197.526 290.516 200.612 289.596 207.926Z" fill="white" stroke="#2C1D43" stroke-width="1.3214"/>
<path d="M307.979 206.586L295.955 200.684" stroke="#2C1D43" stroke-width="1.3214"/>
<path d="M290.088 216.316L291.273 214.566L293.224 215.189L292.318 220.935C287.354 221.748 289.014 218.111 290.088 216.316Z" fill="white" stroke="#2C1D43" stroke-width="1.3214"/>
<path d="M102.999 383.09C99.261 385.782 99.9969 388.652 100.832 389.751C104.692 389.146 116.951 382.619 114.919 381.542C112.887 380.466 107.672 379.726 102.999 383.09Z" fill="white" stroke="#2C1D43" stroke-width="1.3214"/>
<path d="M307.4 222.144C309.339 224.044 313.853 226.291 316.407 220.082" stroke="#2C1D43" stroke-width="1.3214"/>
<path d="M142.942 362.467L85.3262 399.355L90.7405 407.359L150.519 375.287L142.942 362.467Z" fill="white" stroke="#2C1D43" stroke-width="1.3214"/>
<path d="M222.251 372.092C233.547 364.527 237.535 347.19 238.116 339.467C248.708 344.397 269.791 356.172 269.393 363.826C268.894 373.394 259.928 389.23 248.802 397.973C239.902 404.968 229.042 407.3 224.725 407.591H209.879C184.561 407.058 133.28 405.962 130.702 405.845C128.124 405.729 126.699 406.961 126.308 407.591C122.441 410.851 116.103 411.472 113.418 411.375C98.6232 410.065 92.4536 401.999 91.1648 396.077C89.876 390.155 99.0588 387.192 99.7032 389.035C100.348 390.878 144.999 389.194 165.559 387.192C202.814 382.915 211.612 377.335 222.251 372.092Z" fill="white" stroke="#2C1D43" stroke-width="1.3214"/>
<path d="M258.461 278.092C270.003 266.201 295.105 260.086 306.213 258.515C335.516 255.584 352.261 262.806 360.126 267.548C388.711 284.78 390.641 303.294 389.097 313.119C361.093 332.517 314.188 328.842 307.075 328.47C299.963 328.098 299.588 334.173 299.214 337.148C298.84 340.123 296.469 349.049 294.049 357.026C289.133 374.58 274.529 392.227 267.841 398.856C275.344 390.186 277.353 368.458 277.419 358.678L272.63 366.872C269.437 372.423 240.435 372.423 235.912 345.462C231.389 318.5 253.121 283.587 258.461 278.092Z" fill="url(#paint0_linear_439_4065)" stroke="#2C1D43" stroke-width="1.3214"/>
<path d="M264.561 402.558L270.385 396.069C296.057 368.772 298.81 338.048 299.44 335.276L299.46 335.189C300.073 332.489 300.241 331.751 301.592 330.11C302.685 328.783 305.437 328.579 306.676 328.643H310.261C363.276 330.92 381.957 317.159 388.243 313.553C394.977 308.658 399.74 309.801 398.59 318.448C395.305 334.438 384.137 363.807 363.692 378.149C325.823 406.599 279.665 405.476 271.741 407.002C260.183 408.369 262.139 404.609 264.561 402.558Z" fill="white" stroke="#2C1D43" stroke-width="1.3214"/>
<path d="M383.451 383.041H389.212" stroke="#2C1D43" stroke-width="1.3214"/>
<path d="M373.697 383.041H379.458" stroke="#2C1D43" stroke-width="1.3214"/>
<path d="M381.455 375.332V381.056" stroke="#2C1D43" stroke-width="1.3214"/>
<path d="M381.455 385.021V390.745" stroke="#2C1D43" stroke-width="1.3214"/>
<path d="M150.577 375.333L142.621 362.628C144.013 361.303 148.186 358.409 152.04 355.981C156.739 353.647 159.324 355.709 160.029 357.032L163.377 361.494C165.636 365.534 163.691 368.04 162.436 368.788L150.577 375.333Z" fill="#E32420" stroke="#2C1D43" stroke-width="1.3214"/>
<path d="M117.445 383.097L131.475 373.918" stroke="#2C1D43" stroke-width="1.3214"/>
<path d="M142.633 379.222L138.971 372.855" stroke="#2C1D43" stroke-width="1.3214"/>
<path d="M74.1172 410.973L85.0177 399.574L90.5088 407.472L74.1172 410.973Z" fill="white" stroke="#2C1D43" stroke-width="1.3214"/>
<rect x="213.703" y="19.248" width="17.5595" height="5.41957" rx="2.70978" fill="#2C1D43"/>
<rect x="241.004" y="19.248" width="28.6079" height="5.41957" rx="2.70978" fill="#2C1D43"/>
<rect x="200.074" y="32.9316" width="69.5396" height="5.41957" rx="2.70978" fill="#2C1D43"/>
<defs>
<linearGradient id="paint0_linear_439_4065" x1="235.297" y1="328.346" x2="389.479" y2="328.346" gradientUnits="userSpaceOnUse">
<stop stop-color="#9237E3"/>
<stop offset="1" stop-color="#2C1D43"/>
</linearGradient>
</defs>
</svg>
