<svg width="30" height="32" viewBox="0 0 30 32" fill="none" xmlns="http://www.w3.org/2000/svg">
<path d="M14.7813 4.50882C14.2713 4.50882 13.8574 4.07059 13.8574 3.53063V0.978194C13.8574 0.438231 14.2713 0 14.7813 0C15.2912 0 15.7051 0.438231 15.7051 0.978194V3.53063C15.7051 4.07059 15.2912 4.50882 14.7813 4.50882Z" fill="#FFC107"/>
<path d="M22.8747 8.05933C22.6382 8.05933 22.4017 7.96412 22.2219 7.7724C21.8609 7.39025 21.8609 6.77073 22.2219 6.38858L23.9267 4.58349C24.2876 4.20134 24.8727 4.20134 25.2336 4.58349C25.5945 4.96563 25.5945 5.58516 25.2336 5.9673L23.5288 7.7724C23.3477 7.96282 23.1112 8.05933 22.8747 8.05933Z" fill="#FFC107"/>
<path d="M28.6372 16.6302H26.2266C25.7166 16.6302 25.3027 16.192 25.3027 15.652C25.3027 15.1121 25.7166 14.6738 26.2266 14.6738H28.6372C29.1472 14.6738 29.5611 15.1121 29.5611 15.652C29.5611 16.192 29.1472 16.6302 28.6372 16.6302Z" fill="#FFC107"/>
<path d="M24.5795 27.0066C24.343 27.0066 24.1065 26.9114 23.9267 26.7197L22.2219 24.9146C21.8609 24.5324 21.8609 23.9129 22.2219 23.5308C22.5828 23.1486 23.1679 23.1486 23.5288 23.5308L25.2336 25.3358C25.5945 25.718 25.5945 26.3375 25.2336 26.7197C25.0525 26.9114 24.816 27.0066 24.5795 27.0066Z" fill="#FFC107"/>
<path d="M4.98214 27.0066C4.74563 27.0066 4.50912 26.9114 4.32928 26.7197C3.96836 26.3375 3.96836 25.718 4.32928 25.3358L6.03409 23.5308C6.39501 23.1486 6.98011 23.1486 7.34103 23.5308C7.70195 23.9129 7.70195 24.5324 7.34103 24.9146L5.63622 26.7197C5.45515 26.9114 5.21864 27.0066 4.98214 27.0066Z" fill="#FFC107"/>
<path d="M3.33448 16.6302H0.92385C0.413885 16.6302 0 16.192 0 15.652C0 15.1121 0.413885 14.6738 0.92385 14.6738H3.33448C3.84445 14.6738 4.25833 15.1121 4.25833 15.652C4.25833 16.192 3.84445 16.6302 3.33448 16.6302Z" fill="#FFC107"/>
<path d="M6.68695 8.05933C6.45044 8.05933 6.21394 7.96412 6.03409 7.7724L4.32928 5.9673C3.96836 5.58516 3.96836 4.96563 4.32928 4.58349C4.6902 4.20134 5.2753 4.20134 5.63622 4.58349L7.34103 6.38858C7.70195 6.77073 7.70195 7.39025 7.34103 7.7724C7.15873 7.96282 6.92345 8.05933 6.68695 8.05933Z" fill="#FFC107"/>
<path d="M23.405 15.6534C23.405 18.4706 22.1978 21.0791 20.1161 22.8268C19.2661 23.5311 18.7118 24.4572 18.5394 25.4484C18.5147 25.4353 18.5024 25.4353 18.4778 25.4353H11.087C11.0623 25.4353 11.0254 25.4353 11.0008 25.4484C10.8283 24.418 10.3233 23.5181 9.59651 22.9442C6.91118 20.7922 5.65475 17.2707 6.34456 13.7231C7.02205 10.2668 9.67041 7.44963 12.9347 6.73228C15.5338 6.14537 18.1945 6.82358 20.2146 8.55824C22.2471 10.306 23.405 12.8884 23.405 15.6534Z" fill="#FFC107"/>
<path d="M18.5386 25.4466C18.5017 25.6684 18.477 25.8901 18.477 26.1249V29.0203C18.477 30.2724 17.5039 31.3028 16.3214 31.3028H13.2419C12.2072 31.3028 11.0862 30.468 11.0862 28.6421V26.3335C11.0862 26.0336 11.0616 25.7336 11 25.4466C11.0246 25.4336 11.0616 25.4336 11.0862 25.4336H18.477C18.5017 25.4336 18.514 25.4336 18.5386 25.4466Z" fill="#607D8B"/>
<path d="M19.4012 16.3045C18.8912 16.3045 18.4773 15.8663 18.4773 15.3263C18.4773 13.3477 16.9585 11.7396 15.0899 11.7396C14.5799 11.7396 14.166 11.3014 14.166 10.7614C14.166 10.2214 14.5799 9.7832 15.0899 9.7832C17.976 9.7832 20.325 12.2704 20.325 15.3263C20.325 15.8663 19.9111 16.3045 19.4012 16.3045Z" fill="#FFD54F"/>
</svg>
