<svg width="50" height="52" viewBox="0 0 50 52" fill="none" xmlns="http://www.w3.org/2000/svg">
<path fill-rule="evenodd" clip-rule="evenodd" d="M49.0518 0H40.252V4.58759H49.0518L46.7579 2.29385L49.0518 0Z" fill="#F6B600"/>
<path fill-rule="evenodd" clip-rule="evenodd" d="M39.7109 0H40.7943V37.507H39.7109V0Z" fill="#CACACA"/>
<path fill-rule="evenodd" clip-rule="evenodd" d="M13.3448 30.2216L11.1525 36.7376C15.6259 34.8906 19.3347 38.2829 18.4576 44.9956L15.0745 44.9573C16.0435 39.5975 13.0189 38.1118 6.89635 42.0611L3.89671 48.9848H0.519531L5.09921 38.1861L8.79716 27.9931L17.4216 25.01C18.6668 24.5793 19.4427 25.0907 19.7231 25.8993C20.0019 26.7032 19.7914 27.8194 18.5083 28.2975L13.3448 30.2216Z" fill="#74C3F8"/>
<path fill-rule="evenodd" clip-rule="evenodd" d="M35.1185 27.7089H35.6544C36.621 27.7089 38.4803 29.1765 38.4803 30.1431V38.1503H34.9657V34.6297V32.1263C33.5798 31.9806 30.8675 32.162 29.9091 33.4885L23.5807 44.0943H19.976L28.8738 28.4149L29.0078 24.4244L22.3085 26.904C19.4282 27.9701 18.8981 24.5174 20.6641 23.8194L29.8301 20.1972L32.8329 18.1961L40.2501 10.0423C40.7711 9.46951 43.3165 11.9669 41.4775 13.9823L35.1185 20.952V27.7089Z" fill="#00BFA9"/>
<path fill-rule="evenodd" clip-rule="evenodd" d="M0 48.4375H14.7568V51.9981H0V48.4375Z" fill="#C90A4F"/>
<path fill-rule="evenodd" clip-rule="evenodd" d="M14.7559 44.0938H29.5127V51.9991H14.7559V44.0938Z" fill="#FCB500"/>
<path fill-rule="evenodd" clip-rule="evenodd" d="M29.5117 37.5059H44.2685V51.9988H29.5117V37.5059Z" fill="#019FCE"/>
<path d="M32.1357 14.285C32.5202 12.6584 31.5132 11.028 29.8866 10.6435C28.2599 10.259 26.6296 11.2659 26.245 12.8926C25.8605 14.5192 26.8675 16.1496 28.4941 16.5341C30.1208 16.9186 31.7512 15.9117 32.1357 14.285Z" fill="#00BFA9"/>
<path d="M16.885 21.6533C17.1174 19.9983 15.9641 18.4682 14.309 18.2358C12.6539 18.0034 11.1238 19.1567 10.8915 20.8118C10.6591 22.4669 11.8124 23.997 13.4675 24.2294C15.1226 24.4617 16.6526 23.3084 16.885 21.6533Z" fill="#74C3F8"/>
<path fill-rule="evenodd" clip-rule="evenodd" d="M11.7988 48.4375H14.7569V51.9981H11.7988V48.4375Z" fill="#941234"/>
<path fill-rule="evenodd" clip-rule="evenodd" d="M26.0977 44.0938H29.5125V51.9991H26.0977V44.0938Z" fill="#DC9602"/>
<path fill-rule="evenodd" clip-rule="evenodd" d="M40.2891 37.5059H44.2691V51.9988H40.2891V37.5059Z" fill="#D9D9D9"/>
</svg>
