<svg width="54" height="52" viewBox="0 0 54 52" fill="none" xmlns="http://www.w3.org/2000/svg">
<path d="M0 32.2773L2.68962 38.5531L0 42.1393L2.68962 45.7255L0 52.0013L18.8274 42.1393L0 32.2773Z" fill="#E34E4B"/>
<path d="M2.68962 45.7231L18.8274 42.1369L2.68962 38.5508L0 42.1369L2.68962 45.7231Z" fill="#DE4542"/>
<path d="M40.3446 26.8962C47.7718 26.8962 53.7927 20.8753 53.7927 13.4481C53.7927 6.02093 47.7718 0 40.3446 0C32.9174 0 26.8965 6.02093 26.8965 13.4481C26.8965 20.8753 32.9174 26.8962 40.3446 26.8962Z" fill="#50B6CF"/>
<path d="M50.778 4.96875C51.618 6.72419 52.1022 8.68241 52.1022 10.7583C52.1022 18.1855 46.0812 24.2065 38.6541 24.2065C34.4426 24.2065 30.6865 22.268 28.2207 19.2376C30.386 23.7627 34.9934 26.8961 40.3446 26.8961C47.7719 26.8961 53.7928 20.8751 53.7928 13.448C53.7928 10.2322 52.6608 7.28271 50.778 4.96875Z" fill="#3CADC9"/>
<path d="M40.3463 22.4132C45.2977 22.4132 49.3117 18.3993 49.3117 13.4478C49.3117 8.49637 45.2977 4.48242 40.3463 4.48242C35.3948 4.48242 31.3809 8.49637 31.3809 13.4478C31.3809 18.3993 35.3948 22.4132 40.3463 22.4132Z" fill="#DED8D0"/>
<path d="M40.344 17.9303C42.8198 17.9303 44.8267 15.9233 44.8267 13.4476C44.8267 10.9718 42.8198 8.96484 40.344 8.96484C37.8683 8.96484 35.8613 10.9718 35.8613 13.4476C35.8613 15.9233 37.8683 17.9303 40.344 17.9303Z" fill="#F5A947"/>
<path d="M46.1734 43.0351H20.6219V41.2421H46.1734C48.8919 41.2421 51.1044 39.03 51.1044 36.3111C51.1044 33.5921 48.8919 31.3801 46.1734 31.3801H16.5875C11.3965 31.3801 7.17383 27.157 7.17383 21.9664C7.17383 16.7758 11.3965 12.5527 16.5875 12.5527H40.3459V14.3458H16.5875C12.3859 14.3458 8.96691 17.7643 8.96691 21.9664C8.96691 26.1685 12.3859 29.587 16.5875 29.587H46.1734C49.8812 29.587 52.8974 32.6032 52.8974 36.3111C52.8974 40.0189 49.8812 43.0351 46.1734 43.0351Z" fill="#223B5A"/>
<path d="M20.3596 16.772L19.0918 15.5042L21.1475 13.4485L19.0918 11.3928L20.3596 10.125L23.6831 13.4485L20.3596 16.772Z" fill="#223B5A"/>
<path d="M38.2893 16.772L37.0215 15.5042L39.0772 13.4485L37.0215 11.3928L38.2893 10.125L41.6128 13.4485L38.2893 16.772Z" fill="#223B5A"/>
<path d="M28.9524 33.8072L25.6289 30.4837L28.9524 27.1602L30.2202 28.4279L28.1644 30.4837L30.2202 32.5394L28.9524 33.8072Z" fill="#223B5A"/>
<path d="M35.5978 45.4615L34.3301 44.1937L36.3858 42.138L34.3301 40.0822L35.5978 38.8145L38.9213 42.138L35.5978 45.4615Z" fill="#223B5A"/>
<path d="M0 42.1387H18.8274L2.68962 45.7248L0 42.1387Z" fill="#D43A37"/>
</svg>
