<svg width="37" height="37" viewBox="0 0 37 37" fill="none" xmlns="http://www.w3.org/2000/svg">
<mask id="mask0_439_3851" style="mask-type:luminance" maskUnits="userSpaceOnUse" x="0" y="0" width="37" height="37">
<path d="M0 0H37V37H0V0Z" fill="white"/>
</mask>
<g mask="url(#mask0_439_3851)">
<path d="M8.30873 4.19117L9.31662 6.23339C9.34538 6.29164 9.40102 6.33204 9.46534 6.34143L11.719 6.66887C11.881 6.69243 11.9457 6.89145 11.8285 7.0057L10.1977 8.5954C10.1511 8.64071 10.1299 8.70611 10.1409 8.77014L10.5258 11.0148C10.5535 11.1761 10.3842 11.2991 10.2393 11.223L8.22353 10.1632C8.16601 10.1329 8.09728 10.1329 8.03976 10.1632L6.02398 11.223C5.87909 11.2991 5.70977 11.1761 5.73745 11.0148L6.12241 8.77014C6.13339 8.70611 6.11222 8.64071 6.06568 8.5954L4.43486 7.0057C4.31764 6.89145 4.38232 6.69243 4.54427 6.66887L6.79802 6.34143C6.86233 6.33204 6.91791 6.29164 6.94667 6.23339L7.95456 4.19117C8.02704 4.0444 8.23632 4.0444 8.30873 4.19117Z" stroke="white" stroke-miterlimit="10" stroke-linecap="round" stroke-linejoin="round"/>
<path d="M18.6779 4.19117L19.6858 6.23339C19.7145 6.29164 19.7702 6.33204 19.8345 6.34143L22.0882 6.66887C22.2502 6.69243 22.3149 6.89145 22.1976 7.0057L20.5668 8.5954C20.5203 8.64071 20.499 8.70611 20.51 8.77014L20.895 11.0148C20.9227 11.1761 20.7533 11.2991 20.6084 11.223L18.5927 10.1632C18.5351 10.1329 18.4664 10.1329 18.4089 10.1632L16.3931 11.223C16.2482 11.2991 16.0789 11.1761 16.1066 11.0148L16.4915 8.77014C16.5025 8.70611 16.4814 8.64071 16.4348 8.5954L14.804 7.0057C14.6868 6.89145 14.7515 6.69243 14.9134 6.66887L17.1672 6.34143C17.2315 6.33204 17.287 6.29164 17.3158 6.23339L18.3237 4.19117C18.3962 4.0444 18.6055 4.0444 18.6779 4.19117Z" stroke="white" stroke-miterlimit="10" stroke-linecap="round" stroke-linejoin="round"/>
<path d="M29.047 4.19117L30.0549 6.23339C30.0837 6.29164 30.1393 6.33204 30.2036 6.34143L32.4573 6.66887C32.6193 6.69243 32.684 6.89145 32.5668 7.0057L30.936 8.5954C30.8894 8.64071 30.8682 8.70611 30.8792 8.77014L31.2641 11.0148C31.2918 11.1761 31.1225 11.2991 30.9776 11.223L28.9618 10.1632C28.9043 10.1329 28.8356 10.1329 28.778 10.1632L26.7623 11.223C26.6174 11.2991 26.448 11.1761 26.4757 11.0148L26.8607 8.77014C26.8717 8.70611 26.8505 8.64071 26.804 8.5954L25.1731 7.0057C25.0559 6.89145 25.1206 6.69243 25.2826 6.66887L27.5363 6.34143C27.6006 6.33204 27.6562 6.29164 27.6849 6.23339L28.6928 4.19117C28.7653 4.0444 28.9746 4.0444 29.047 4.19117Z" stroke="white" stroke-miterlimit="10" stroke-linecap="round" stroke-linejoin="round"/>
<path d="M6.64941 0.541992H3.34572C1.79779 0.541992 0.542969 1.79681 0.542969 3.34474V11.9836C0.542969 13.5315 1.79779 14.7863 3.34572 14.7863H5.49316L8.16699 18.3555L10.8408 14.7863H33.6562C35.2041 14.7863 36.459 13.5315 36.459 11.9836V3.34474C36.459 1.79681 35.2041 0.541992 33.6562 0.541992H9.39551" stroke="white" stroke-miterlimit="10" stroke-linecap="round" stroke-linejoin="round"/>
<path d="M10.8691 27.207C10.8691 28.7237 9.63969 29.9531 8.12305 29.9531C6.60641 29.9531 5.37695 28.7237 5.37695 27.207C5.37695 25.6904 6.60641 24.4609 8.12305 24.4609C9.63969 24.4609 10.8691 25.6904 10.8691 27.207Z" stroke="white" stroke-miterlimit="10" stroke-linecap="round" stroke-linejoin="round"/>
<path d="M3.16992 34.3613C3.45646 31.8797 5.56473 29.9531 8.12308 29.9531C10.7309 29.9531 12.8711 31.955 13.0908 34.5059" stroke="white" stroke-miterlimit="10" stroke-linecap="round" stroke-linejoin="round"/>
<path d="M15.7188 28.8691C15.7188 33.0598 12.3215 36.457 8.13086 36.457C3.94018 36.457 0.542969 33.0598 0.542969 28.8691C0.542969 24.6785 3.94018 21.2812 8.13086 21.2812C12.3215 21.2812 15.7188 24.6785 15.7188 28.8691Z" stroke="white" stroke-miterlimit="10" stroke-linecap="round" stroke-linejoin="round"/>
<path d="M35.1221 24.7148H20.2354C19.497 24.7148 18.8984 24.1163 18.8984 23.3779C18.8984 22.6396 19.497 22.041 20.2354 22.041H35.1221C35.8604 22.041 36.459 22.6396 36.459 23.3779C36.459 24.1163 35.8604 24.7148 35.1221 24.7148Z" stroke="white" stroke-miterlimit="10" stroke-linecap="round" stroke-linejoin="round"/>
<path d="M34.2539 27.5332H35.1572C35.8956 27.5332 36.4941 28.1318 36.4941 28.8701C36.4941 29.6085 35.8956 30.207 35.1572 30.207H20.2705C19.5322 30.207 18.9336 29.6085 18.9336 28.8701C18.9336 28.1318 19.5322 27.5332 20.2705 27.5332H31.5078" stroke="white" stroke-miterlimit="10" stroke-linecap="round" stroke-linejoin="round"/>
<path d="M22.1143 35.6992H20.3076C19.5693 35.6992 18.9707 35.1006 18.9707 34.3623C18.9707 33.624 19.5693 33.0254 20.3076 33.0254H35.1943C35.9327 33.0254 36.5313 33.624 36.5313 34.3623C36.5313 35.1006 35.9327 35.6992 35.1943 35.6992H24.7881" stroke="white" stroke-miterlimit="10" stroke-linecap="round" stroke-linejoin="round"/>
</g>
</svg>
