<svg width="20" height="19" viewBox="0 0 20 19" fill="none" xmlns="http://www.w3.org/2000/svg">
<path d="M9.14514 0.723269C9.42767 -0.138927 10.6474 -0.138928 10.9299 0.723268L12.5282 5.60086C12.6546 5.98664 13.0146 6.24751 13.4206 6.24751L18.5758 6.24751C19.4874 6.24751 19.8644 7.41565 19.1247 7.94851L14.9678 10.9432C14.6359 11.1823 14.4969 11.6088 14.6243 11.9976L16.2154 16.8529C16.4984 17.7167 15.5116 18.4386 14.7741 17.9073L10.5864 14.8905C10.2586 14.6543 9.81644 14.6543 9.48861 14.8905L5.30097 17.9073C4.56345 18.4386 3.57664 17.7167 3.85968 16.8529L5.45072 11.9976C5.5781 11.6088 5.43917 11.1823 5.10725 10.9432L0.950317 7.94851C0.210648 7.41565 0.587602 6.24751 1.49922 6.24751L6.65445 6.24751C7.06041 6.24751 7.42041 5.98664 7.54682 5.60086L9.14514 0.723269Z" fill="#FBC849"/>
</svg>
