<svg width="52" height="52" viewBox="0 0 52 52" fill="none" xmlns="http://www.w3.org/2000/svg">
<path d="M47.4367 27.0375C45.4381 26.1764 44.0407 24.1615 44.0407 21.8461C44.0407 19.5469 45.4381 17.5483 47.4367 16.6708C47.7535 16.5327 47.916 16.1509 47.8348 15.8178C47.3392 13.9979 46.6161 12.2837 45.7143 10.6913C45.5275 10.3582 45.1131 10.2445 44.7638 10.3826C42.757 11.1463 40.3847 10.7238 38.7598 9.09892C37.135 7.47405 36.7125 5.10173 37.4762 3.09501C37.6143 2.73754 37.5006 2.33132 37.1675 2.14446C35.5751 1.25078 33.8608 0.527707 32.041 0.0321202C31.6998 -0.0572479 31.326 0.105239 31.1879 0.430214C30.3105 2.42881 28.3282 3.80995 26.0127 3.80995C23.6973 3.80995 21.6987 2.42069 20.8375 0.430214C20.6831 0.113364 20.3175 -0.0491235 19.9763 0.0321202C18.1564 0.527707 16.4422 1.25078 14.8498 2.14446C14.5167 2.33132 14.403 2.74566 14.5411 3.09501C15.3048 5.10173 14.8823 7.47405 13.2574 9.09892C11.6326 10.7238 9.26025 11.1463 7.25352 10.3826C6.89605 10.2445 6.48983 10.3582 6.30297 10.6913C5.40117 12.2837 4.6781 13.9979 4.18251 15.8178C4.09314 16.1509 4.25563 16.5327 4.58061 16.6708C6.5792 17.5483 7.97659 19.5469 7.97659 21.8461C7.97659 24.1615 6.5792 26.1682 4.58061 27.0375C4.26376 27.1757 4.10127 27.5575 4.18251 27.8906C4.6781 29.7105 5.40117 31.4247 6.30297 33.0252C6.48983 33.3583 6.90418 33.4558 7.25352 33.3177C9.26025 32.554 11.6163 32.9765 13.2412 34.6013C14.8661 36.2262 15.3048 38.5985 14.5411 40.6052C14.403 40.9627 14.5167 41.3689 14.8498 41.5558C16.4422 42.4495 18.1564 43.1726 19.9763 43.6681C20.3175 43.7575 20.6912 43.6031 20.8375 43.27C21.6987 41.2714 23.6973 39.8903 26.0127 39.8903C28.3282 39.8903 30.3105 41.2796 31.1879 43.27C31.326 43.6031 31.6998 43.7494 32.041 43.6681C33.8608 43.1726 35.5751 42.4495 37.1675 41.5558C37.5006 41.3689 37.6143 40.9546 37.4762 40.6052C36.7125 38.5985 37.1431 36.2262 38.7761 34.6013C40.401 32.9765 42.757 32.554 44.7638 33.3177C45.1212 33.4558 45.5275 33.3583 45.7143 33.0252C46.6161 31.4247 47.3392 29.7023 47.8348 27.8906C47.916 27.5575 47.7535 27.1757 47.4367 27.0375ZM26.0046 31.376C20.74 31.376 16.4747 27.1188 16.4747 21.8623C16.4747 16.5977 20.7319 12.3324 26.0046 12.3324C31.261 12.3324 35.5182 16.5896 35.5182 21.8623C35.5182 27.1107 31.2529 31.376 26.0046 31.376Z" fill="#FFCC33"/>
<path d="M26.004 37.5086C17.3677 37.5086 10.332 30.4891 10.332 21.8529C10.332 13.2167 17.3596 6.19727 26.004 6.19727C34.632 6.19727 41.6596 13.2167 41.6596 21.8529C41.6596 30.4891 34.632 37.5086 26.004 37.5086ZM26.004 8.74019C18.7651 8.74019 12.875 14.6222 12.875 21.8529C12.875 29.0836 18.7651 34.9657 26.004 34.9657C33.2346 34.9657 39.1167 29.0836 39.1167 21.8529C39.1167 14.6222 33.2346 8.74019 26.004 8.74019Z" fill="#F2B725"/>
<path opacity="0.15" d="M39.784 9.90394C39.4184 9.6927 39.0691 9.43272 38.7522 9.10775C37.1192 7.47475 36.6968 5.11055 37.4686 3.10383C37.6067 2.73823 37.493 2.33202 37.1599 2.13703C35.5675 1.2596 33.8532 0.528404 32.0334 0.0246927C31.7003 -0.056551 31.3184 0.105937 31.1803 0.414663C30.2948 2.42138 28.3124 3.81065 25.997 3.81065C23.6896 3.81065 21.6992 2.41326 20.8299 0.414663C20.6755 0.105937 20.3018 -0.056551 19.9606 0.0246927C18.1488 0.528404 16.4265 1.25147 14.8341 2.13703C14.501 2.33202 14.3872 2.73823 14.5254 3.10383C15.2972 5.11868 14.8747 7.47475 13.2417 9.10775C11.6087 10.7245 9.24451 11.147 7.23778 10.3914C6.88844 10.2533 6.46597 10.367 6.28723 10.6839C5.3773 12.2763 4.65423 13.9905 4.16677 15.8104C4.06928 16.1435 4.23989 16.5253 4.55674 16.6797C6.55534 17.549 7.95273 19.5394 7.95273 21.8468C7.95273 24.1622 6.55534 26.1771 4.55674 27.0382C4.23177 27.1764 4.06928 27.5582 4.16677 27.8913C4.65423 29.703 5.38543 31.4254 6.28723 33.034C6.46597 33.359 6.88844 33.4646 7.23778 33.3265C9.25263 32.5547 11.5925 32.9772 13.2255 34.6102C13.5504 34.9351 13.8267 35.2682 14.0379 35.642C18.4088 35.0976 22.4872 33.6027 26.0457 31.3685H25.997C20.7324 31.3685 16.4752 27.1114 16.4752 21.8549C16.4752 16.5903 20.7324 12.3331 25.997 12.3331C31.2616 12.3331 35.5187 16.5903 35.5187 21.8549V21.8793C37.7529 18.3208 39.2397 14.2586 39.784 9.90394Z" fill="white"/>
<path opacity="0.15" d="M32.0334 0.0328173C31.7003 -0.0484264 31.3184 0.114061 31.1803 0.422787C30.2948 2.42138 28.3124 3.81065 25.997 3.81065C23.6896 3.81065 21.6992 2.41326 20.8299 0.414663C20.6755 0.105937 20.3018 -0.056551 19.9606 0.0246927C18.1488 0.528404 16.4265 1.25147 14.8341 2.13703C14.501 2.33202 14.3872 2.73823 14.5253 3.10383C15.2972 5.11868 14.8747 7.47474 13.2417 9.10774C11.6087 10.7245 9.24451 11.147 7.23778 10.3914C6.88844 10.2533 6.46597 10.367 6.28723 10.6839C5.3773 12.2762 4.65423 13.9905 4.16677 15.8104C4.06928 16.1435 4.23989 16.5253 4.55674 16.6797C6.55534 17.549 7.95273 19.5394 7.95273 21.8468C7.95273 24.1622 6.55534 26.1771 4.55674 27.0382C4.23177 27.1764 4.06928 27.5582 4.16677 27.8913C4.378 28.6712 4.63798 29.4431 4.94671 30.1986C9.6426 30.1742 14.0785 29.0287 18.0026 27.0464C17.0277 25.5515 16.4671 23.7804 16.4671 21.863C16.4671 16.5984 20.7242 12.3412 25.9888 12.3412C27.8981 12.3412 29.6773 12.9018 31.1559 13.8767C33.1545 9.95268 34.3001 5.50865 34.3245 0.820881C33.577 0.504031 32.8133 0.252175 32.0334 0.0328173Z" fill="white"/>
<path d="M37.9215 44.9902H14.0684C14.0684 44.9902 13.4834 37.3695 15.2058 35.0135C16.5463 33.1692 23.582 31.4062 23.582 31.4062H28.3916C28.3916 31.4062 35.4273 33.1692 36.7679 35.0135C38.4984 37.3695 37.9215 44.9902 37.9215 44.9902Z" fill="#F15853"/>
<path d="M28.3998 28.2461V34.2663L25.995 35.0462L23.582 34.2663V28.2461H28.3998Z" fill="#F7BD89"/>
<path d="M23.5912 31.4062L21.666 31.9424C21.8935 33.9081 22.6327 35.9227 24.1111 37.1249L25.9956 35.0454C24.4035 34.0381 23.9323 32.8278 23.5912 31.4062Z" fill="#E04646"/>
<path d="M28.3986 31.4062L30.3237 31.9505C30.0963 33.9163 29.3571 35.9145 27.8787 37.1167L25.9941 35.0454C27.5863 34.0381 28.0574 32.8278 28.3986 31.4062Z" fill="#E04646"/>
<path d="M33.9729 44.9915H33.2012L33.583 40.9219L33.9729 44.9915Z" fill="#E04646"/>
<path d="M18.7893 44.9915H18.0176L18.4075 40.9219L18.7893 44.9915Z" fill="#E04646"/>
<path d="M31.2833 23.7795C31.2833 26.6962 28.911 31.977 25.9944 31.977C23.0696 31.977 20.6973 26.6962 20.6973 23.7795C20.6973 20.8547 23.0696 18.4824 25.9944 18.4824C28.9191 18.4905 31.2833 20.8547 31.2833 23.7795Z" fill="#FFCC99"/>
<path d="M21.2606 26.5896C21.1794 24.5748 21.285 22.7387 22.1137 21.6338C24.9003 22.6737 27.4595 22.2837 29.7993 20.4882C29.6856 21.4631 29.7993 22.2675 30.2705 22.8037C30.433 22.9905 30.5224 23.2505 30.4168 23.4861C30.0674 24.2661 30.3599 25.4685 30.5305 26.5978H31.3348C31.7817 23.1855 32.4804 19.4077 30.8474 18.9852C29.7668 16.4342 27.4351 15.4349 24.4941 16.0523C24.3479 16.0848 24.2097 16.1173 24.0716 16.1579C21.5612 16.8729 19.9688 19.3508 20.1394 21.9587C20.2369 23.4536 20.4563 24.8998 20.7731 26.3053L21.2606 26.5896Z" fill="#3B4346"/>
<path d="M31.7567 26.4111C31.3343 27.1665 30.6682 27.597 30.2701 27.3696C29.8721 27.1503 29.8884 26.3542 30.3108 25.5988C30.7332 24.8514 31.3992 24.4128 31.7973 24.6402C32.1953 24.8677 32.1709 25.6637 31.7567 26.4111Z" fill="#FFCC99"/>
<path d="M20.2356 26.4111C20.658 27.1665 21.3241 27.597 21.7221 27.3696C22.1201 27.1503 22.1039 26.3542 21.6815 25.5988C21.2591 24.8514 20.593 24.4128 20.1949 24.6402C19.7969 24.8677 19.8213 25.6637 20.2356 26.4111Z" fill="#FFCC99"/>
<path opacity="0.2" d="M28.359 16.3203C27.2703 15.8328 25.9542 15.7353 24.4837 16.0441C24.3374 16.0766 24.1993 16.1091 24.0612 16.1497C21.5508 16.8646 19.9584 19.3426 20.129 21.9505C20.194 22.8442 20.2915 23.7216 20.4378 24.5828C20.3484 24.5828 20.2671 24.6072 20.194 24.6478C19.7959 24.8753 19.8122 25.6714 20.2346 26.4108C20.584 27.0526 21.1121 27.4588 21.5102 27.4263C21.9164 28.4419 22.4526 29.4412 23.0944 30.2373H23.6469C26.2467 30.2373 28.3509 28.1331 28.3509 25.5333V16.3203H28.359Z" fill="white"/>
<path opacity="0.15" d="M34.7854 33.6164V36.1674C34.7854 40.2378 31.4869 43.5444 27.4084 43.5444H14.0032C13.9301 41.2208 13.9626 36.728 15.2137 35.0138C16.213 33.6408 20.3727 32.3084 22.4282 31.7234C23.0538 31.5447 23.4843 31.4309 23.5737 31.4066L23.59 31.3984C23.8743 32.8283 24.6786 34.0307 25.9948 35.0382C26.6529 34.5344 27.1809 33.982 27.5872 33.3727C27.9934 32.7715 28.2615 32.1053 28.3996 31.3984C28.3996 31.3984 28.4158 31.4066 28.4402 31.4066C28.5783 31.4391 28.9845 31.5528 29.5695 31.7153C30.91 32.1053 33.1199 32.804 34.7854 33.6164Z" fill="white"/>
<path opacity="0.15" d="M27.5885 33.3808C27.4097 34.2907 27.101 35.1519 26.6867 35.9562C25.0374 39.1653 21.6902 41.367 17.8311 41.367H13.9883C14.0289 39.0597 14.2889 36.2812 15.2151 35.0138C16.2144 33.6408 20.374 32.3084 22.4295 31.7234C23.0551 31.5447 23.4857 31.4309 23.575 31.4066L23.5913 31.3984C23.8756 32.8283 24.68 34.0307 25.9961 35.0382C26.6542 34.5426 27.1823 33.9901 27.5885 33.3808Z" fill="white"/>
<path d="M23.9407 52.002H0.0957078C0.0957078 52.002 -0.489247 44.3814 1.23312 42.0253C2.57364 40.1811 9.60935 38.4181 9.60935 38.4181H14.419C14.419 38.4181 21.4547 40.1811 22.7952 42.0253C24.5176 44.3814 23.9407 52.002 23.9407 52.002Z" fill="#DBD7D9"/>
<path d="M14.419 35.2579V41.2781L12.0142 42.058L9.60938 41.2781V35.2579H14.419Z" fill="#F7BD89"/>
<path d="M9.61071 38.4181L7.68555 38.9542C7.91299 40.92 8.65219 42.9345 10.1306 44.1367L12.0232 42.0653C10.423 41.0581 9.95187 39.8396 9.61071 38.4181Z" fill="#EBEBEB"/>
<path d="M14.4184 38.4181L16.3436 38.9623C16.1161 40.9281 15.3769 42.9264 13.8985 44.1286L12.0059 42.0572C13.6061 41.0581 14.0772 39.8396 14.4184 38.4181Z" fill="#EBEBEB"/>
<path d="M19.9924 52.0034H19.2207L19.6106 47.9337L19.9924 52.0034Z" fill="#BFBBBE"/>
<path d="M4.8088 52.0034H4.03711L4.42701 47.9337L4.8088 52.0034Z" fill="#BFBBBE"/>
<path d="M17.3107 30.7914C17.3107 33.708 14.9384 38.9888 12.0217 38.9888C9.09693 38.9888 6.72461 33.708 6.72461 30.7914C6.72461 27.8666 9.09693 25.4943 12.0217 25.4943C14.9384 25.5024 17.3107 27.8666 17.3107 30.7914Z" fill="#FFCC99"/>
<path d="M7.27818 33.6015C7.19693 31.5866 7.30255 29.7505 8.13124 28.6456C10.9179 29.6855 13.4771 29.2955 15.8169 27.5001C15.7032 28.475 15.8169 29.2793 16.2881 29.8155C16.4506 30.0024 16.54 30.2623 16.4343 30.498C16.085 31.2779 16.3775 32.4803 16.5481 33.6096H17.3524C17.7992 30.1974 18.4979 26.4195 16.8649 25.9971C15.7844 23.446 13.4527 22.4467 10.5117 23.0642C10.3654 23.0967 10.2273 23.1291 10.0892 23.1698C7.57878 23.8847 5.9864 26.3627 6.15701 28.9706C6.2545 30.4655 6.47386 31.9116 6.79071 33.3171L7.27818 33.6015Z" fill="#3B4346"/>
<path d="M17.7723 33.4229C17.3499 34.1783 16.6838 34.6089 16.2858 34.3814C15.8877 34.1621 15.904 33.366 16.3264 32.6106C16.7488 31.8633 17.4149 31.4246 17.8129 31.6521C18.2109 31.8795 18.1866 32.6756 17.7723 33.4229Z" fill="#FFCC99"/>
<path d="M6.26118 33.4229C6.68358 34.1783 7.34967 34.6089 7.74769 34.3814C8.14572 34.1621 8.12948 33.366 7.70708 32.6106C7.28468 31.8633 6.61859 31.4246 6.22056 31.6521C5.81441 31.8795 5.83878 32.6756 6.26118 33.4229Z" fill="#FFCC99"/>
<path opacity="0.2" d="M14.3864 23.3321C13.2977 22.8447 11.9815 22.7472 10.511 23.0559C10.3648 23.0884 10.2267 23.1209 10.0886 23.1615C7.57813 23.8765 5.98576 26.3544 6.15637 28.9623C6.22136 29.856 6.31886 30.7334 6.46509 31.5946C6.37573 31.5946 6.29448 31.619 6.22136 31.6596C5.82327 31.8871 5.83952 32.6833 6.26198 33.4226C6.61133 34.0644 7.13942 34.4707 7.53751 34.4382C7.94373 35.4537 8.47994 36.453 9.12176 37.2492H9.67422C12.274 37.2492 14.3782 35.145 14.3782 32.5452V23.3321H14.3864Z" fill="white"/>
<path opacity="0.15" d="M20.813 40.636V43.1871C20.813 47.2574 17.5145 50.564 13.4361 50.564H0.0227296C-0.0503898 48.2405 -0.0178925 43.7477 1.23326 42.0334C2.23256 40.6604 6.39224 39.328 8.44771 38.7431C9.07328 38.5643 9.50388 38.4506 9.59324 38.4262L9.60949 38.4181C9.89385 39.848 10.6982 41.0504 12.0143 42.0578C12.6724 41.5541 13.2005 41.0016 13.6067 40.3923C14.0129 39.7911 14.281 39.1249 14.4191 38.4181C14.4191 38.4181 14.4354 38.4262 14.4597 38.4262C14.5979 38.4587 15.0041 38.5725 15.589 38.7349C16.9296 39.1168 19.1475 39.8155 20.813 40.636Z" fill="white"/>
<path opacity="0.15" d="M13.608 40.3926C13.4293 41.3026 13.1206 42.1637 12.7062 42.9681C11.057 46.1772 7.70972 48.3789 3.85064 48.3789H0.0078125C0.0484344 46.0716 0.308414 43.293 1.23459 42.0256C2.23389 40.6526 6.39357 39.3202 8.44904 38.7353C9.07461 38.5565 9.50521 38.4428 9.59457 38.4184L9.61082 38.4103C9.89518 39.8402 10.6995 41.0426 12.0156 42.05C12.6737 41.5544 13.2018 41.002 13.608 40.3926Z" fill="white"/>
<path d="M51.8958 52.0019H28.0508C28.0508 52.0019 27.4658 44.3813 29.1882 42.0252C30.5287 40.181 37.5644 38.418 37.5644 38.418H42.3741C42.3741 38.418 49.4098 40.181 50.7503 42.0252C52.4808 44.3813 51.8958 52.0019 51.8958 52.0019Z" fill="#54B8EA"/>
<path d="M42.3822 35.2578V41.278L39.9774 42.0579L37.5645 41.278V35.2578H42.3822Z" fill="#F7BD89"/>
<path d="M37.5736 38.418L35.6484 38.9541C35.8759 40.9199 36.6151 42.9344 38.0935 44.1366L39.9861 42.0652C38.3778 41.058 37.9148 39.8395 37.5736 38.418Z" fill="#3AA7C9"/>
<path d="M42.3832 38.418L44.3084 38.9622C44.081 40.928 43.3418 42.9263 41.8634 44.1285L39.9707 42.0571C41.5709 41.058 42.0421 39.8395 42.3832 38.418Z" fill="#3AA7C9"/>
<path d="M47.9553 52.0032H47.1836L47.5654 47.9336L47.9553 52.0032Z" fill="#40AAD3"/>
<path d="M32.7717 52.0032H32L32.3818 47.9336L32.7717 52.0032Z" fill="#40AAD3"/>
<path d="M45.2677 30.7912C45.2677 33.7079 42.8954 38.9887 39.9787 38.9887C37.054 38.9887 34.6816 33.7079 34.6816 30.7912C34.6816 27.8665 37.054 25.4941 39.9787 25.4941C42.9035 25.5023 45.2677 27.8665 45.2677 30.7912Z" fill="#FFCC99"/>
<path d="M35.2411 33.6013C35.1598 31.5865 35.2654 29.7504 36.0941 28.6455C38.8808 29.6854 41.44 29.2954 43.7798 27.4999C43.666 28.4749 43.7798 29.2792 44.251 29.8154C44.4135 30.0022 44.5029 30.2622 44.3972 30.4978C44.0479 31.2778 44.3404 32.4802 44.511 33.6095H45.3153C45.7621 30.1972 46.4608 26.4194 44.8278 25.9969C43.7473 23.4459 41.4156 22.4466 38.4746 23.064C38.3283 23.0965 38.1902 23.129 38.0521 23.1696C35.5417 23.8846 33.9493 26.3625 34.1199 28.9705C34.2174 30.4653 34.4368 31.9115 34.7536 33.317L35.2411 33.6013Z" fill="#3B4346"/>
<path d="M45.7313 33.4228C45.3089 34.1782 44.6428 34.6087 44.2448 34.3813C43.8467 34.162 43.863 33.3659 44.2854 32.6105C44.7078 31.8632 45.3739 31.4245 45.7719 31.652C46.178 31.8794 46.1537 32.6755 45.7313 33.4228Z" fill="#FFCC99"/>
<path d="M34.2199 33.4228C34.6423 34.1782 35.3084 34.6087 35.7065 34.3813C36.1045 34.162 36.0882 33.3659 35.6658 32.6105C35.2434 31.8632 34.5774 31.4245 34.1793 31.652C33.7813 31.8794 33.8057 32.6755 34.2199 33.4228Z" fill="#FFCC99"/>
<path opacity="0.2" d="M42.3414 23.3321C41.2528 22.8447 39.9366 22.7472 38.4661 23.0559C38.3199 23.0884 38.1818 23.1209 38.0436 23.1615C35.5332 23.8765 33.9408 26.3544 34.1114 28.9623C34.1764 29.856 34.2739 30.7334 34.4202 31.5946C34.3308 31.5946 34.2496 31.619 34.1764 31.6596C33.7783 31.8871 33.7946 32.6833 34.2171 33.4226C34.5664 34.0644 35.0945 34.4707 35.4926 34.4382C35.8988 35.4537 36.435 36.453 37.0768 37.2492H37.6293C40.2291 37.2492 42.3333 35.145 42.3333 32.5452V23.3321H42.3414Z" fill="white"/>
<path opacity="0.15" d="M48.7681 40.6359V43.187C48.7681 47.2573 45.4696 50.5639 41.3912 50.5639H27.9778C27.9047 48.2403 27.9372 43.7476 29.1883 42.0333C30.1876 40.6603 34.3473 39.3279 36.4028 38.7429C37.0284 38.5642 37.459 38.4505 37.5483 38.4261L37.5646 38.418C37.8489 39.8479 38.507 41.1315 39.9694 42.0577C40.9118 41.4321 41.2368 41.0178 41.6349 40.4084C42.0411 39.8072 42.2361 39.1248 42.3742 38.418C42.3742 38.418 42.3905 38.4261 42.4148 38.4261C42.5529 38.4586 42.9592 38.5723 43.5441 38.7348C44.8846 39.1167 47.1026 39.8154 48.7681 40.6359Z" fill="white"/>
<path opacity="0.15" d="M41.644 40.4088C41.4653 41.3187 41.0834 42.1717 40.6691 42.9679C39.0199 46.1771 35.6726 48.3788 31.8135 48.3788H27.9707C28.0113 46.0714 28.2713 43.2929 29.1975 42.0255C30.1968 40.6525 34.3565 39.3201 36.4119 38.7351C37.0375 38.5564 37.4681 38.4427 37.5575 38.4183L37.5737 38.4102C37.8581 39.84 38.4999 41.1318 39.9785 42.0499C40.7828 41.5543 41.2378 41.0181 41.644 40.4088Z" fill="white"/>
</svg>
