<svg width="45" height="45" viewBox="0 0 45 45" fill="none" xmlns="http://www.w3.org/2000/svg">
<path d="M9.22228 8.329L9.18925 15.6681C9.18864 15.8044 9.15007 15.9379 9.07787 16.0535C9.00566 16.1692 8.90267 16.2624 8.78045 16.3228C8.65822 16.3832 8.52159 16.4083 8.38587 16.3954C8.25016 16.3825 8.12071 16.3321 8.01206 16.2497L7.31925 15.7247C6.25554 18.2169 5.84175 20.9383 6.11665 23.634C6.39155 26.3298 7.34614 28.9116 8.89101 31.1378L7.68584 31.9756C5.90463 29.4095 4.84378 26.4129 4.6137 23.2978C4.38363 20.1826 4.99274 17.0626 6.37765 14.2628C6.42562 14.166 6.49437 14.081 6.57898 14.0138C6.6636 13.9467 6.762 13.899 6.86715 13.8743C6.9723 13.8495 7.08162 13.8483 7.1873 13.8707C7.29298 13.8931 7.39242 13.9385 7.47851 14.0038L7.72813 14.1929L7.75015 9.30097L3.04817 10.6495L3.78942 11.2104C3.9298 11.3167 4.02732 11.4698 4.06418 11.642C4.10104 11.8141 4.0748 11.9938 3.99024 12.1482C3.50085 13.0425 3.07897 13.9721 2.72809 14.9292L1.3499 14.4247C1.65304 13.5977 2.00568 12.7898 2.40591 12.0052L0.991664 10.9347C0.882977 10.8525 0.799345 10.7416 0.750138 10.6145C0.700932 10.4874 0.688096 10.3491 0.713068 10.2151C0.73804 10.0811 0.799835 9.95669 0.891526 9.85583C0.983218 9.75498 1.10118 9.68166 1.2322 9.64408L8.28599 7.62023C8.39552 7.58881 8.51086 7.58332 8.62287 7.6042C8.73488 7.62508 8.8405 7.67175 8.93134 7.74053C9.02219 7.8093 9.09578 7.89828 9.14628 8.00042C9.19677 8.10256 9.2228 8.21506 9.22228 8.329ZM2.33967 31.8863L3.65154 31.2271C1.7716 27.4951 1.08158 23.2762 1.67457 19.1398C1.79283 18.3036 1.96178 17.4754 2.18051 16.6598L0.762867 16.2791C0.528787 17.1524 0.348034 18.0392 0.221609 18.9345C-0.41396 23.3668 0.32531 27.8874 2.33967 31.8863ZM18.5022 15.4845C18.0352 15.7117 17.5911 15.9833 17.176 16.2956L18.0586 17.4685C18.3982 17.2129 18.7617 16.9906 19.1439 16.8047L18.5022 15.4845ZM13.9477 23.4837H15.4156V22.7498C15.415 21.1133 16.0237 19.5352 17.123 18.3229L16.0347 17.3382C14.6909 18.8202 13.947 20.7493 13.9477 22.7498V23.4837ZM41.8363 43.2993V36.6941H40.3685V42.5653H33.0294V33.7584H33.7633V32.2906H32.4837C30.8185 31.3768 28.9502 30.8967 27.0507 30.8944C25.1512 30.892 23.2817 31.3676 21.6143 32.2773L21.5896 32.2906H16.1495C15.6985 32.2911 15.2538 32.3954 14.8496 32.5953C14.4454 32.7952 14.0926 33.0855 13.8185 33.4436C13.5445 33.8017 13.3565 34.2181 13.2692 34.6605C13.1818 35.1029 13.1974 35.5594 13.3147 35.9948L10.4564 34.685C10.5153 34.5818 10.5876 34.4869 10.6715 34.4027L12.265 32.8092C12.4025 32.6717 12.4798 32.4851 12.4799 32.2906V22.7498C12.4837 20.6651 13.1683 18.6387 14.4296 16.9789C15.6909 15.3191 17.4599 14.1167 19.4674 13.5547C19.576 13.5246 19.6762 13.4699 19.7602 13.3949C19.8442 13.3199 19.9099 13.2265 19.952 13.122C19.9942 13.0175 20.0117 12.9047 20.0032 12.7924C19.9948 12.68 19.9606 12.5711 19.9032 12.4741L18.1695 9.5394H25.872L24.1382 12.4741C24.0809 12.5711 24.0467 12.68 24.0382 12.7924C24.0297 12.9047 24.0473 13.0175 24.0894 13.122C24.1315 13.2265 24.1972 13.3199 24.2812 13.3949C24.3653 13.4699 24.4655 13.5246 24.574 13.5547C26.5815 14.1167 28.3505 15.3191 29.6118 16.9789C30.8732 18.6387 31.5578 20.6651 31.5616 22.7498V30.8228H33.0294V22.7498C33.0249 20.5062 32.3372 18.3172 31.0578 16.4741C29.7784 14.6311 27.968 13.2214 25.8676 12.4327L27.79 9.17878C27.8559 9.06732 27.8911 8.94043 27.892 8.81099C27.893 8.68154 27.8597 8.55414 27.7955 8.44171C27.7314 8.32928 27.6386 8.23583 27.5267 8.17082C27.4147 8.10582 27.2876 8.07158 27.1581 8.07158H16.8834C16.7539 8.07158 16.6268 8.10582 16.5148 8.17082C16.4029 8.23583 16.3101 8.32928 16.246 8.44171C16.1818 8.55414 16.1485 8.68154 16.1495 8.81099C16.1505 8.94043 16.1856 9.06732 16.2515 9.17878L18.1739 12.4327C16.0735 13.2214 14.2631 14.6311 12.9837 16.4741C11.7043 18.3172 11.0166 20.5062 11.0121 22.7498V31.9867L9.63354 33.3651C9.42595 33.5725 9.25222 33.8112 9.11871 34.0725L6.64176 32.9381C5.91746 32.6156 5.09852 32.5764 4.34674 32.8283C3.59495 33.0803 2.96499 33.605 2.58131 34.2989C1.73732 35.8697 2.33701 37.9469 3.93648 38.7482L12.4941 43.0269C13.8195 43.687 15.2797 44.0315 16.7605 44.0332H27.1581V42.5653H16.7605C15.5075 42.5638 14.2719 42.2723 13.1504 41.7136L4.59323 37.435C3.74869 37.013 3.43072 35.8156 3.87364 34.9948C4.07734 34.626 4.41212 34.3471 4.81169 34.2133C5.21125 34.0796 5.64647 34.1008 6.03115 34.2727L14.376 38.0952C14.4719 38.1391 14.5762 38.1619 14.6817 38.1619H22.7547V36.6941H16.1495C15.7602 36.6941 15.3868 36.5394 15.1116 36.2642C14.8363 35.9889 14.6817 35.6155 14.6817 35.2262C14.6817 34.837 14.8363 34.4636 15.1116 34.1883C15.3868 33.9131 15.7602 33.7584 16.1495 33.7584H21.7758C21.8979 33.7584 22.0181 33.728 22.1254 33.6698L22.3153 33.567C23.7304 32.7948 25.3133 32.3813 26.9252 32.3628C28.5372 32.3443 30.1291 32.7213 31.5616 33.4608V42.5653H28.6259V44.0332H41.1024C41.2971 44.0332 41.4837 43.9558 41.6214 43.8182C41.759 43.6806 41.8363 43.4939 41.8363 43.2993ZM37.4329 39.6297C37.4329 39.3394 37.3468 39.0556 37.1855 38.8142C37.0242 38.5728 36.795 38.3847 36.5268 38.2736C36.2585 38.1625 35.9634 38.1335 35.6787 38.1901C35.394 38.2467 35.1324 38.3865 34.9271 38.5918C34.7219 38.7971 34.5821 39.0586 34.5254 39.3434C34.4688 39.6281 34.4979 39.9232 34.609 40.1914C34.7201 40.4596 34.9082 40.6889 35.1496 40.8502C35.3909 41.0114 35.6747 41.0975 35.965 41.0975C36.3542 41.0971 36.7273 40.9423 37.0024 40.6671C37.2776 40.3919 37.4324 40.0189 37.4329 39.6297ZM22.7547 19.8141V22.7498C23.5332 22.7498 24.2799 23.0591 24.8305 23.6096C25.381 24.1602 25.6903 24.9068 25.6903 25.6854C25.6903 26.464 25.381 27.2107 24.8305 27.7612C24.2799 28.3118 23.5332 28.6211 22.7547 28.6211V30.0889H21.2868V28.6211C20.5085 28.6202 19.7623 28.3106 19.212 27.7603C18.6616 27.2099 18.3521 26.4637 18.3512 25.6854H19.819C19.8195 26.0746 19.9743 26.4476 20.2494 26.7228C20.5246 26.998 20.8977 27.1528 21.2868 27.1532V24.2176C20.5083 24.2176 19.7616 23.9083 19.211 23.3578C18.6605 22.8072 18.3512 22.0605 18.3512 21.282C18.3512 20.5034 18.6605 19.7567 19.211 19.2062C19.7616 18.6556 20.5083 18.3463 21.2868 18.3463V16.8785H22.7547V18.3463C23.533 18.3472 24.2792 18.6568 24.8295 19.2071C25.3799 19.7575 25.6894 20.5036 25.6903 21.282H24.2225C24.222 20.8928 24.0672 20.5197 23.7921 20.2446C23.5169 19.9694 23.1438 19.8146 22.7547 19.8141ZM21.2868 19.8141C20.8976 19.8141 20.5242 19.9688 20.2489 20.2441C19.9737 20.5193 19.819 20.8927 19.819 21.282C19.819 21.6713 19.9737 22.0446 20.2489 22.3199C20.5242 22.5951 20.8976 22.7498 21.2868 22.7498V19.8141ZM22.7547 24.2176V27.1532C23.144 27.1532 23.5173 26.9986 23.7926 26.7233C24.0678 26.4481 24.2225 26.0747 24.2225 25.6854C24.2225 25.2961 24.0678 24.9228 23.7926 24.6475C23.5173 24.3722 23.144 24.2176 22.7547 24.2176ZM24.895 1.66969C29.1938 2.27729 33.1899 4.23034 36.3104 7.24886C39.431 10.2674 41.5157 14.1964 42.2658 18.4726L43.7116 18.22C43.074 14.5811 41.5311 11.1611 39.2249 8.27492C36.9188 5.38874 33.9237 3.12912 30.5152 1.70412C27.1068 0.279119 23.3946 -0.265458 19.7204 0.120528C16.0463 0.506514 12.5283 1.81066 9.49043 3.91288C9.33452 4.02087 9.22647 4.18503 9.18893 4.37093C9.15139 4.55683 9.18728 4.75005 9.28907 4.91008L11.7389 8.76201C11.7923 8.84593 11.8622 8.91813 11.9443 8.97422C12.0264 9.03032 12.1191 9.06914 12.2167 9.08832C12.3143 9.1075 12.4147 9.10665 12.512 9.08582C12.6092 9.06499 12.7012 9.02461 12.7824 8.96714C16.1095 6.60357 20.2172 5.60774 24.2573 6.18525C32.9859 7.41859 39.0842 15.5234 37.8505 24.2521C37.6539 25.6508 37.273 27.0174 36.7178 28.3161L36.0071 27.7781C35.8984 27.6958 35.769 27.6455 35.6333 27.6326C35.4976 27.6198 35.361 27.645 35.2389 27.7054C35.1167 27.7658 35.0138 27.859 34.9416 27.9746C34.8694 28.0902 34.8309 28.2236 34.8302 28.3599L34.7974 35.6983C34.7969 35.8123 34.8229 35.9248 34.8734 36.0269C34.9239 36.1291 34.9975 36.218 35.0884 36.2868C35.1792 36.3556 35.2849 36.4022 35.3969 36.4231C35.5089 36.444 35.6242 36.4385 35.7338 36.407L42.7877 34.3837C42.9187 34.3461 43.0367 34.2728 43.1284 34.172C43.22 34.0711 43.2818 33.9467 43.3068 33.8128C43.3318 33.6788 43.3189 33.5405 43.2697 33.4134C43.2206 33.2863 43.1369 33.1754 43.0283 33.0931L41.6297 32.0345C43.4416 28.4721 44.2562 24.486 43.9874 20.4984L42.523 20.5981C42.6195 22.0305 42.5667 23.4689 42.3655 24.8903C42.0222 27.3447 41.2361 29.7164 40.0455 31.89C39.9609 32.0444 39.9346 32.2241 39.9714 32.3962C40.0083 32.5684 40.1058 32.7216 40.2461 32.8278L40.9721 33.3774L36.2696 34.726L36.2915 29.834L36.5588 30.0359C36.6449 30.101 36.7443 30.1464 36.8499 30.1687C36.9555 30.191 37.0648 30.1897 37.1698 30.165C37.2749 30.1403 37.3733 30.0926 37.4578 30.0255C37.5424 29.9584 37.6111 29.8735 37.6591 29.7768C38.4888 28.103 39.0441 26.3068 39.3038 24.4568C40.6503 14.9273 33.9927 6.07847 24.4627 4.73229C20.3148 4.13887 16.0922 5.06414 12.5725 7.33767L10.9128 4.72798C15.054 2.0601 20.0181 0.974319 24.895 1.66969Z" fill="#9237E3"/>
</svg>
