<svg width="19" height="14" viewBox="0 0 19 14" fill="none" xmlns="http://www.w3.org/2000/svg">
<path d="M10.9085 9.107C10.4434 9.41703 9.90323 9.58092 9.34628 9.58092C8.78938 9.58092 8.24919 9.41703 7.78414 9.107L0.124459 4.00039C0.0819625 3.97206 0.0405614 3.94252 0 3.91215V12.2799C0 13.2393 0.778553 14.0007 1.72077 14.0007H16.9718C17.9311 14.0007 18.6925 13.2221 18.6925 12.2799V3.91211C18.6519 3.94256 18.6104 3.97217 18.5678 4.00053L10.9085 9.107Z" fill="url(#paint0_linear_421_3847)"/>
<path d="M0.732004 3.08836L8.39168 8.19501C8.68164 8.38832 9.01394 8.48496 9.34624 8.48496C9.67859 8.48496 10.0109 8.38829 10.3009 8.19501L17.9606 3.08836C18.4189 2.78297 18.6926 2.27184 18.6926 1.72019C18.6926 0.771653 17.9209 0 16.9724 0H1.72019C0.771689 3.65089e-05 0 0.771689 0 1.7211C0 2.27184 0.273671 2.78297 0.732004 3.08836Z" fill="url(#paint1_linear_421_3847)"/>
<defs>
<linearGradient id="paint0_linear_421_3847" x1="9.34626" y1="7.5247" x2="-11.4349" y2="18.817" gradientUnits="userSpaceOnUse">
<stop stop-color="#371551"/>
<stop offset="1" stop-color="#374BFF"/>
</linearGradient>
<linearGradient id="paint1_linear_421_3847" x1="9.34628" y1="3.03836" x2="-9.64395" y2="15.3077" gradientUnits="userSpaceOnUse">
<stop stop-color="#371551"/>
<stop offset="1" stop-color="#374BFF"/>
</linearGradient>
</defs>
</svg>
