<svg width="16" height="21" viewBox="0 0 16 21" fill="none" xmlns="http://www.w3.org/2000/svg">
<path d="M7.60541 0C3.41177 0 0 3.41177 0 7.60537C0 12.8098 6.8061 20.4501 7.09588 20.7728C7.36806 21.076 7.84326 21.0755 8.11495 20.7728C8.40473 20.4501 15.2108 12.8098 15.2108 7.60537C15.2107 3.41177 11.799 0 7.60541 0ZM7.60541 11.4318C5.49548 11.4318 3.77898 9.7153 3.77898 7.60537C3.77898 5.49544 5.49553 3.77894 7.60541 3.77894C9.7153 3.77894 11.4318 5.49548 11.4318 7.60541C11.4318 9.71534 9.7153 11.4318 7.60541 11.4318Z" fill="url(#paint0_linear_421_3840)"/>
<defs>
<linearGradient id="paint0_linear_421_3840" x1="7.60541" y1="7.51985" x2="-13.3525" y2="11.9718" gradientUnits="userSpaceOnUse">
<stop stop-color="#371551"/>
<stop offset="1" stop-color="#374BFF"/>
</linearGradient>
</defs>
</svg>
