<svg width="14" height="24" viewBox="0 0 14 24" fill="none" xmlns="http://www.w3.org/2000/svg">
<path d="M12.3722 0H1.62778C0.732638 0 0 0.728914 0 1.62103V22.3783C0 23.2704 0.732638 24 1.62778 24H12.3722C13.2674 24 14 23.2718 14 22.379V1.62103C14 0.728914 13.2674 0 12.3722 0ZM5.28133 1.16846H8.71867C8.82746 1.16846 8.9156 1.25623 8.9156 1.36526C8.9156 1.4736 8.82746 1.56137 8.71867 1.56137H5.28133C5.17254 1.56137 5.0844 1.4736 5.0844 1.36526C5.0844 1.25623 5.17254 1.16846 5.28133 1.16846ZM7 23.1895C6.55036 23.1895 6.18611 22.8267 6.18611 22.3783C6.18611 21.9298 6.55036 21.5678 7 21.5678C7.44964 21.5678 7.81389 21.9298 7.81389 22.3783C7.81389 22.8267 7.44964 23.1895 7 23.1895ZM12.8673 21H1.1327V2.57074H12.8673V21Z" fill="url(#paint0_linear_421_3829)"/>
<defs>
<linearGradient id="paint0_linear_421_3829" x1="7" y1="8.59411" x2="-12.5868" y2="11.9449" gradientUnits="userSpaceOnUse">
<stop stop-color="#371551"/>
<stop offset="1" stop-color="#374BFF"/>
</linearGradient>
</defs>
</svg>
