<svg width="44" height="42" viewBox="0 0 44 42" fill="none" xmlns="http://www.w3.org/2000/svg">
<path d="M22.9926 31.2645H21.0082C20.305 31.2645 19.733 30.6925 19.733 29.9894C19.733 29.2147 19.2316 28.731 18.7624 28.5366C18.2932 28.3422 17.5965 28.3296 17.0489 28.8774C16.808 29.1183 16.4877 29.2509 16.147 29.2509C15.8063 29.2509 15.4861 29.1182 15.2453 28.8773L13.8421 27.4742C13.3449 26.977 13.3449 26.168 13.8421 25.6707C14.389 25.1239 14.3759 24.4273 14.1815 23.9577C13.9869 23.4882 13.5036 22.9864 12.7303 22.9864C12.0271 22.9864 11.4551 22.4143 11.4551 21.7112V19.727C11.4551 19.0238 12.0272 18.4518 12.7303 18.4518C13.5036 18.4518 13.9869 17.95 14.1815 17.4805C14.376 17.0109 14.389 16.3143 13.8421 15.7676C13.6013 15.5268 13.4687 15.2065 13.4687 14.8658C13.4687 14.5251 13.6014 14.2048 13.8422 13.9641L15.2453 12.5609C15.4861 12.3201 15.8063 12.1874 16.147 12.1874C16.4877 12.1874 16.808 12.32 17.0489 12.5609C17.5956 13.1077 18.2922 13.0945 18.7617 12.9002C19.2312 12.7057 19.733 12.2224 19.733 11.4491C19.733 10.7458 20.3051 10.1738 21.0082 10.1738H22.9925C23.6957 10.1738 24.2677 10.7459 24.2677 11.4491C24.2677 12.2224 24.7695 12.7056 25.239 12.9002C25.7086 13.0947 26.4053 13.1077 26.9519 12.5609C27.4493 12.0638 28.2581 12.0637 28.7555 12.5609L30.1587 13.9641C30.3994 14.2048 30.5321 14.5251 30.5321 14.8658C30.5321 15.2065 30.3995 15.5268 30.1587 15.7676C29.6118 16.3144 29.6249 17.0109 29.8193 17.4805C30.0138 17.95 30.4971 18.4518 31.2704 18.4518C31.9736 18.4518 32.5456 19.0239 32.5456 19.727V21.7112C32.5456 22.4144 31.9735 22.9864 31.2704 22.9864C30.4971 22.9864 30.0139 23.4882 29.8193 23.9577C29.6248 24.4273 29.6118 25.124 30.1587 25.6707C30.6559 26.168 30.6559 26.977 30.1587 27.4742L28.7555 28.8774C28.258 29.3747 27.4492 29.3745 26.9519 28.8774C26.4051 28.3305 25.7087 28.3437 25.239 28.5381C24.7695 28.7327 24.2677 29.216 24.2677 29.9893C24.2678 30.6925 23.6957 31.2645 22.9926 31.2645ZM18.1427 27.1628C18.5085 27.1628 18.8797 27.2354 19.2395 27.3845C20.3131 27.8292 20.98 28.8273 20.98 29.9893C20.98 30.0049 20.9927 30.0175 21.0082 30.0175H22.9925C23.0081 30.0175 23.0207 30.0048 23.0207 29.9893C23.0207 28.8284 23.6878 27.831 24.7618 27.3861C25.8359 26.941 27.0129 27.1748 27.8338 27.9956C27.8447 28.0066 27.8627 28.0068 27.8737 27.9956L29.2769 26.5924C29.2879 26.5814 29.2879 26.5634 29.2769 26.5525C28.456 25.7315 28.2225 24.5545 28.6674 23.4805C29.1122 22.4065 30.1096 21.7394 31.2705 21.7394C31.2861 21.7394 31.2987 21.7266 31.2987 21.7111V19.7269C31.2987 19.7113 31.286 19.6986 31.2705 19.6986C30.1097 19.6986 29.1123 19.0315 28.6674 17.9575C28.2225 16.8835 28.456 15.7065 29.2769 14.8856C29.2794 14.8832 29.2853 14.8774 29.2853 14.8656C29.2853 14.8539 29.2796 14.8482 29.277 14.8457L27.8737 13.4425C27.8627 13.4312 27.8447 13.4314 27.8338 13.4425C27.0128 14.2633 25.8356 14.4969 24.7618 14.052C23.6878 13.6072 23.0207 12.6098 23.0207 11.4488C23.0207 11.4332 23.008 11.4205 22.9925 11.4205H21.0082C20.9926 11.4205 20.98 11.4333 20.98 11.4488C20.98 12.6097 20.3129 13.6071 19.2389 14.052C18.1648 14.4969 16.9878 14.2631 16.167 13.4425C16.1646 13.44 16.1587 13.4341 16.1469 13.4341C16.1353 13.4341 16.1296 13.4398 16.127 13.4424L14.7238 14.8457C14.7212 14.8481 14.7154 14.8539 14.7154 14.8656C14.7154 14.8774 14.7212 14.8832 14.7238 14.8856C15.5446 15.7065 15.7782 16.8836 15.3333 17.9575C14.8885 19.0315 13.891 19.6986 12.7301 19.6986C12.7145 19.6986 12.7019 19.7114 12.7019 19.7269V21.7111C12.7019 21.7267 12.7146 21.7394 12.7301 21.7394C13.8909 21.7394 14.8884 22.4065 15.3333 23.4805C15.7782 24.5546 15.5447 25.7316 14.7238 26.5525C14.7128 26.5634 14.7128 26.5814 14.7238 26.5924L16.127 27.9956C16.1295 27.9981 16.1353 28.0039 16.1469 28.0039C16.1587 28.0039 16.1645 27.9981 16.167 27.9956C16.7133 27.4494 17.417 27.1628 18.1427 27.1628ZM22.0004 26.1913C18.9831 26.1913 16.5282 23.7364 16.5282 20.7191C16.5282 17.7018 18.9831 15.2469 22.0004 15.2469C25.0178 15.2469 27.4726 17.7017 27.4726 20.7191C27.4726 23.7365 25.0178 26.1913 22.0004 26.1913ZM22.0004 16.4939C19.6707 16.4939 17.7752 18.3892 17.7752 20.7191C17.7752 23.049 19.6706 24.9443 22.0004 24.9443C24.3303 24.9443 26.2257 23.0489 26.2257 20.7191C26.2257 18.3893 24.3302 16.4939 22.0004 16.4939Z" fill="#9237E3"/>
<path d="M39.4343 41.4395C39.3597 41.4395 39.2842 41.4262 39.2117 41.3984C38.9704 41.306 38.811 41.0744 38.811 40.8161V38.9014H22C11.9745 38.9014 3.81821 30.7452 3.81821 20.7198C3.81821 16.4209 5.34743 12.2489 8.12423 8.97226C8.24269 8.83251 8.41656 8.75182 8.59986 8.75182H14.0746C14.3468 8.75182 14.5875 8.92826 14.6693 9.18789C14.7511 9.44744 14.6551 9.73006 14.4322 9.8861C10.8962 12.3611 8.78521 16.4111 8.78521 20.7198C8.78521 28.0065 14.7134 33.9346 22 33.9346H38.8111V32.02C38.8111 31.7616 38.9705 31.53 39.2118 31.4377C39.4534 31.3453 39.7264 31.4116 39.8989 31.6039L43.8408 36.0019C44.0531 36.2387 44.0531 36.5973 43.8408 36.8342L39.8989 41.2322C39.7782 41.3668 39.6082 41.4395 39.4343 41.4395ZM8.89191 9.99886C6.42213 13.0161 5.06517 16.8115 5.06517 20.7198C5.06517 30.0576 12.6621 37.6545 22 37.6545H39.4345C39.7788 37.6545 40.058 37.9336 40.058 38.278V39.1863L42.5391 36.418L40.058 33.6498V34.5581C40.058 34.9024 39.7788 35.1816 39.4345 35.1816H22C14.0257 35.1816 7.53816 28.694 7.53816 20.7198C7.53816 16.6143 9.28907 12.7239 12.2957 9.99886H8.89191ZM4.5655 41.4395C4.39164 41.4395 4.22169 41.3668 4.10101 41.2322L0.159188 36.8342C-0.0530626 36.5973 -0.0530626 36.2387 0.159188 36.0019L4.10101 31.6039C4.27344 31.4116 4.54653 31.3453 4.78808 31.4377C5.02946 31.53 5.1888 31.7616 5.1888 32.02V33.9346H7.489C7.65938 33.9346 7.82238 34.0044 7.94004 34.1277C9.30804 35.5615 10.8801 36.7743 12.6125 37.7323C12.8613 37.8699 12.9855 38.1584 12.9144 38.4337C12.8434 38.709 12.5951 38.9014 12.3108 38.9014H5.1888V40.8161C5.1888 41.0744 5.02946 41.306 4.78808 41.3984C4.71549 41.4262 4.64014 41.4395 4.5655 41.4395ZM1.46066 36.418L3.94175 39.1863V38.278C3.94175 37.9336 4.22089 37.6545 4.56523 37.6545H10.1374C9.09401 36.9229 8.11951 36.0958 7.22446 35.1816H4.56532C4.22098 35.1816 3.94184 34.9024 3.94184 34.5581V33.6498L1.46066 36.418ZM35.4001 32.6877H29.9253C29.6531 32.6877 29.4124 32.5112 29.3307 32.2516C29.2488 31.992 29.3448 31.7094 29.5678 31.5534C33.1036 29.0784 35.2146 25.0285 35.2146 20.7197C35.2146 13.433 29.2865 7.50495 21.9999 7.50495H5.1888V9.41947C5.1888 9.67786 5.02946 9.90944 4.78808 10.0018C4.54653 10.0942 4.27344 10.0279 4.10101 9.8356L0.159188 5.43766C-0.0530626 5.20083 -0.0530626 4.84224 0.159188 4.60541L4.10101 0.20738C4.27344 0.0150805 4.54653 -0.0511866 4.78808 0.0411775C5.02946 0.133542 5.1888 0.36512 5.1888 0.623508V2.53813H22C32.0253 2.53813 40.1816 10.6944 40.1816 20.7198C40.1816 25.0187 38.6524 29.1906 35.8757 32.4673C35.7572 32.607 35.5834 32.6877 35.4001 32.6877ZM31.7042 31.4407H35.108C37.5778 28.4235 38.9347 24.6279 38.9347 20.7198C38.9347 11.3819 31.3378 3.78509 22 3.78509H4.56532C4.22098 3.78509 3.94184 3.50594 3.94184 3.16161V2.25328L1.46075 5.02153L3.94184 7.78979V6.88155C3.94184 6.53722 4.22098 6.25807 4.56532 6.25807H22C29.9742 6.25807 36.4617 12.7456 36.4617 20.7198C36.4617 24.8252 34.7108 28.7157 31.7042 31.4407ZM39.4343 10.043C39.3597 10.043 39.2842 10.0297 39.2117 10.0019C38.9704 9.90953 38.811 9.67795 38.811 9.41956V7.50503H36.5109C36.3404 7.50503 36.1774 7.43529 36.0598 7.31184C34.6925 5.87846 33.1205 4.66571 31.3874 3.70715C31.1387 3.56954 31.0144 3.28114 31.0855 3.00582C31.1565 2.73051 31.4048 2.53813 31.6891 2.53813H38.811V0.623508C38.811 0.36512 38.9704 0.133542 39.2117 0.0411775C39.4533 -0.0511866 39.7263 0.0150805 39.8988 0.20738L43.8407 4.60541C44.053 4.84224 44.053 5.20083 43.8407 5.43766L39.8988 9.83569C39.7782 9.97027 39.6082 10.043 39.4343 10.043ZM36.7754 6.25807H39.4345C39.7788 6.25807 40.058 6.53722 40.058 6.88155V7.78979L42.5391 5.02153L40.058 2.25328V3.16161C40.058 3.50594 39.7788 3.78509 39.4345 3.78509H33.8625C34.9063 4.51696 35.8807 5.34387 36.7754 6.25807Z" fill="#9237E3"/>
</svg>
