<svg width="44" height="48" viewBox="0 0 44 48" fill="none" xmlns="http://www.w3.org/2000/svg">
<path d="M26.8698 3.69109C26.446 3.59478 26.0245 3.86022 25.9282 4.28399C25.832 4.70776 26.0974 5.12932 26.5211 5.22564C36.9112 7.58671 43.7498 17.5269 42.2405 28.0744C40.7311 38.6219 31.3793 46.2453 20.744 45.5977C10.1087 44.9502 1.75095 36.2485 1.53252 25.5957C1.31409 14.9429 9.30818 5.9059 19.9079 4.82297L17.3422 7.29851C17.031 7.60035 17.0227 8.09712 17.3237 8.4091C17.6247 8.72107 18.1214 8.73075 18.4343 8.43057L22.4898 4.51744C22.5873 4.43339 22.6623 4.32639 22.7078 4.20593C22.7217 4.15975 22.7312 4.11238 22.7363 4.06445C22.7492 4.02123 22.7581 3.9769 22.763 3.9321C22.763 3.92243 22.7579 3.9145 22.7575 3.90492C22.7573 3.88298 22.7681 3.8628 22.7661 3.84068C22.7542 3.78215 22.7356 3.72529 22.7104 3.67119C22.703 3.65045 22.6991 3.62907 22.69 3.60916C22.6538 3.52713 22.6034 3.4523 22.5409 3.38796L22.5229 3.36926C22.4909 3.32824 22.4547 3.29064 22.4151 3.257L17.6617 0.129667C17.299 -0.109132 16.8114 -0.00876474 16.5726 0.353995C16.3338 0.716663 16.4342 1.20431 16.7969 1.44311L19.5855 3.27792C8.21446 4.53302 -0.296767 14.2938 0.00792921 25.7298C0.312626 37.1658 9.3314 46.4596 20.7531 47.1075C32.1748 47.7554 42.1867 39.541 43.7827 28.2129C45.3787 16.8847 38.0259 6.22406 26.8698 3.69109Z" fill="#9237E3"/>
<path d="M23.2627 11.5889C24.781 11.7306 26.2646 12.1274 27.6514 12.7617L27.5449 12.9473H27.5439L27.543 12.9492C27.3738 13.2447 27.3297 13.5953 27.4189 13.9238C27.5076 14.2496 27.7211 14.5268 28.0127 14.6963V14.6973C28.0139 14.698 28.0154 14.6985 28.0166 14.6992C28.0176 14.6998 28.0185 14.7006 28.0195 14.7012V14.7002C28.3132 14.8728 28.6632 14.9226 28.9932 14.8359C29.3256 14.7486 29.6097 14.5309 29.7803 14.2324L29.7812 14.2305L29.8818 14.0518C31.124 14.9348 32.2087 16.0197 33.0918 17.2617L32.9141 17.3633L32.9092 17.3662C32.6132 17.5378 32.3976 17.8203 32.3105 18.1514C32.2235 18.4825 32.2729 18.8349 32.4463 19.1299V19.1289C32.8006 19.7385 33.5796 19.9503 34.1934 19.6025L34.1973 19.5996L34.3809 19.4932C35.0153 20.8801 35.4129 22.3633 35.5547 23.8818H35.3447C34.6362 23.8841 34.0619 24.4575 34.0596 25.166V25.1689C34.0617 25.8777 34.636 26.4519 35.3447 26.4541H35.5537C35.4119 27.9723 35.0151 29.4551 34.3809 30.8418L34.1973 30.7354L34.1924 30.7334L34.0742 30.6748C33.4791 30.4145 32.772 30.6386 32.4414 31.2139C32.0888 31.8275 32.2966 32.6109 32.9072 32.9688L32.9141 32.9727L33.0918 33.0732C32.2087 34.3154 31.1239 35.4001 29.8818 36.2832L29.7812 36.1055L29.7773 36.0986L29.7051 35.9893C29.3219 35.4644 28.5978 35.3023 28.0225 35.6328C27.4087 35.9855 27.1945 36.7673 27.542 37.3838L27.5439 37.3887L27.6504 37.5723C26.2637 38.2065 24.7809 38.6033 23.2627 38.7451V38.5381C23.2627 37.8276 22.6871 37.251 21.9766 37.251C21.2661 37.251 20.6904 37.8276 20.6904 38.5381V38.7451C19.1719 38.6033 17.6887 38.2067 16.3018 37.5723L16.4082 37.3887L16.4111 37.3838C16.7586 36.7673 16.5443 35.9855 15.9307 35.6328C15.3171 35.2802 14.5337 35.488 14.1758 36.0986L14.0703 36.2832C12.8282 35.4001 11.7433 34.3153 10.8604 33.0732L11.0391 32.9727L11.0459 32.9688C11.6565 32.6109 11.8643 31.8274 11.5117 31.2139C11.1591 30.6001 10.3773 30.3859 9.76074 30.7334L9.75586 30.7354L9.57031 30.8418C8.93623 29.4553 8.54021 27.9721 8.39844 26.4541H8.60645C9.31681 26.4541 9.89255 25.8785 9.89258 25.168C9.89258 24.4576 9.317 23.8818 8.60645 23.8818H8.39844C8.54025 22.3632 8.93581 20.8792 9.57031 19.4922L9.75586 19.5996L9.75781 19.6016C9.95412 19.7139 10.1771 19.7708 10.4033 19.7686L10.4043 19.7695C10.9841 19.7645 11.4889 19.3726 11.6387 18.8125C11.7883 18.2524 11.5461 17.6608 11.0459 17.3672L11.0391 17.3633L10.8604 17.2617C11.7434 16.0197 12.8283 14.9348 14.0703 14.0518L14.1719 14.2305L14.1729 14.2324C14.3434 14.5309 14.6276 14.7486 14.96 14.8359C15.292 14.923 15.6453 14.873 15.9404 14.6973L15.9395 14.6963C16.2315 14.5269 16.4455 14.2499 16.5342 13.9238C16.6234 13.5954 16.5794 13.2447 16.4102 12.9492L16.4092 12.9473L16.3018 12.7617C17.6885 12.1274 19.1721 11.7316 20.6904 11.5898V11.7979C20.6904 12.5084 21.2661 13.084 21.9766 13.084C22.6871 13.084 23.2627 12.5084 23.2627 11.7979V11.5889ZM21.9766 15.2305C21.2661 15.2305 20.6904 15.8061 20.6904 16.5166V21.7676C19.1813 22.3337 18.2062 23.8408 18.3438 25.4785C18.4926 27.2481 19.8964 28.6521 21.666 28.8008C23.3035 28.9383 24.8098 27.9631 25.376 26.4541H28.2686C28.9789 26.454 29.5546 25.8783 29.5547 25.168C29.5547 24.6349 29.2307 24.1766 28.7686 23.9814V23.8809H25.374C25.0028 22.9089 24.2347 22.1406 23.2627 21.7695V16.5166C23.2627 15.8061 22.6871 15.2305 21.9766 15.2305Z" stroke="#9237E3"/>
<path d="M21.9773 23.5938C21.1085 23.5938 20.4043 24.298 20.4043 25.1667C20.4043 26.0355 21.1085 26.7397 21.9773 26.7397C22.846 26.7397 23.5502 26.0355 23.5502 25.1667C23.5477 24.299 22.8449 23.5962 21.9773 23.5938Z" fill="#9237E3"/>
</svg>
